<?xml version="1.0" encoding="UTF-8"?>
<svg xmlns="http://www.w3.org/2000/svg"
     xmlns:xlink="http://www.w3.org/1999/xlink"
     xmlns:gadfly="http://www.gadflyjl.org/ns"
     version="1.2"
     width="127mm" height="76.2mm" viewBox="0 0 127 76.2"
     stroke="none"
     fill="#000000"
     stroke-width="0.3"
     font-size="3.88"
>
<defs>
  <marker id="arrow" markerWidth="15" markerHeight="7" refX="5" refY="3.5" orient="auto" markerUnits="strokeWidth">
    <path d="M0,0 L15,3.5 L0,7 z" stroke="context-stroke" fill="context-stroke"/>
  </marker>
</defs>
<g class="plotroot xscalable yscalable" id="img-3e4a4358-1">
  <g font-size="3.88" font-family="'PT Sans','Helvetica Neue','Helvetica',sans-serif" fill="#564A55" stroke="#000000" stroke-opacity="0.000" id="img-3e4a4358-2">
    <g transform="translate(98.2,66.26)">
      <g class="primitive">
        <text text-anchor="middle" dy="0.6em">x</text>
      </g>
    </g>
  </g>
  <g class="guide xlabels" font-size="2.82" font-family="'PT Sans Caption','Helvetica Neue','Helvetica',sans-serif" fill="#6C606B" id="img-3e4a4358-3">
    <g transform="translate(76.4,60.21)">
      <g class="primitive">
        <text text-anchor="middle" dy="0.6em">0</text>
      </g>
    </g>
    <g transform="translate(98.2,60.21)">
      <g class="primitive">
        <text text-anchor="middle" dy="0.6em">5</text>
      </g>
    </g>
    <g transform="translate(120,60.21)">
      <g class="primitive">
        <text text-anchor="middle" dy="0.6em">10</text>
      </g>
    </g>
  </g>
  <g clip-path="url(#img-3e4a4358-4)">
    <g id="img-3e4a4358-5">
      <g pointer-events="visible" stroke-width="0.3" fill="#000000" fill-opacity="0.000" stroke="#000000" stroke-opacity="0.000" class="guide background" id="img-3e4a4358-6">
        <g transform="translate(98.2,34.89)" id="img-3e4a4358-7">
          <path d="M-23.8,-24.32 L23.8,-24.32 23.8,24.32 -23.8,24.32  z" class="primitive"/>
        </g>
      </g>
      <g class="guide ygridlines xfixed" stroke-dasharray="0.5,0.5" stroke-width="0.2" stroke="#D0D0E0" id="img-3e4a4358-8">
        <g transform="translate(98.2,57.21)" id="img-3e4a4358-9">
          <path fill="none" d="M-23.8,0 L23.8,0 " class="primitive"/>
        </g>
        <g transform="translate(98.2,42.33)" id="img-3e4a4358-10">
          <path fill="none" d="M-23.8,0 L23.8,0 " class="primitive"/>
        </g>
        <g transform="translate(98.2,27.45)" id="img-3e4a4358-11">
          <path fill="none" d="M-23.8,0 L23.8,0 " class="primitive"/>
        </g>
        <g transform="translate(98.2,12.57)" id="img-3e4a4358-12">
          <path fill="none" d="M-23.8,0 L23.8,0 " class="primitive"/>
        </g>
      </g>
      <g class="guide xgridlines yfixed" stroke-dasharray="0.5,0.5" stroke-width="0.2" stroke="#D0D0E0" id="img-3e4a4358-13">
        <g transform="translate(76.4,34.89)" id="img-3e4a4358-14">
          <path fill="none" d="M0,-24.32 L0,24.32 " class="primitive"/>
        </g>
        <g transform="translate(98.2,34.89)" id="img-3e4a4358-15">
          <path fill="none" d="M0,-24.32 L0,24.32 " class="primitive"/>
        </g>
        <g transform="translate(120,34.89)" id="img-3e4a4358-16">
          <path fill="none" d="M0,-24.32 L0,24.32 " class="primitive"/>
        </g>
      </g>
      <g class="plotpanel" id="img-3e4a4358-17">
        <metadata>
          <boundingbox value="74.4001925998264mm 10.570152452256941mm 47.59980740017362mm 48.64077148437498mm"/>
          <unitbox value="-0.4587176226819837 0.31344062792933614 10.917435245363967 -0.3268812558586722"/>
        </metadata>
        <g shape-rendering="crispEdges" stroke-width="0.3" id="img-3e4a4358-18">
          <g class="geometry" fill-opacity="1" stroke="#000000" stroke-opacity="0.000" fill="#00BFFF" id="img-3e4a4358-19">
            <g transform="translate(78.58,55.13)" id="img-3e4a4358-20">
              <path d="M-2.2,-2.08 L2.2,-2.08 2.2,2.08 -2.2,2.08  z" class="primitive"/>
            </g>
            <g transform="translate(82.94,47.5)" id="img-3e4a4358-21">
              <path d="M-2.2,-9.71 L2.2,-9.71 2.2,9.71 -2.2,9.71  z" class="primitive"/>
            </g>
            <g transform="translate(87.3,37.6)" id="img-3e4a4358-22">
              <path d="M-2.2,-19.61 L2.2,-19.61 2.2,19.61 -2.2,19.61  z" class="primitive"/>
            </g>
            <g transform="translate(91.66,35.86)" id="img-3e4a4358-23">
              <path d="M-2.2,-21.35 L2.2,-21.35 2.2,21.35 -2.2,21.35  z" class="primitive"/>
            </g>
            <g transform="translate(96.02,42.95)" id="img-3e4a4358-24">
              <path d="M-2.2,-14.26 L2.2,-14.26 2.2,14.26 -2.2,14.26  z" class="primitive"/>
            </g>
            <g transform="translate(100.38,51.24)" id="img-3e4a4358-25">
              <path d="M-2.2,-5.97 L2.2,-5.97 2.2,5.97 -2.2,5.97  z" class="primitive"/>
            </g>
            <g transform="translate(104.74,55.96)" id="img-3e4a4358-26">
              <path d="M-2.2,-1.25 L2.2,-1.25 2.2,1.25 -2.2,1.25  z" class="primitive"/>
            </g>
            <g transform="translate(109.1,57.05)" id="img-3e4a4358-27">
              <path d="M-2.2,-0.16 L2.2,-0.16 2.2,0.16 -2.2,0.16  z" class="primitive"/>
            </g>
          </g>
        </g>
      </g>
    </g>
  </g>
  <g class="guide ylabels" font-size="2.82" font-family="'PT Sans Caption','Helvetica Neue','Helvetica',sans-serif" fill="#6C606B" id="img-3e4a4358-28">
    <g transform="translate(73.4,57.21)" id="img-3e4a4358-29">
      <g class="primitive">
        <text text-anchor="end" dy="0.35em">0.0</text>
      </g>
    </g>
    <g transform="translate(73.4,42.33)" id="img-3e4a4358-30">
      <g class="primitive">
        <text text-anchor="end" dy="0.35em">0.1</text>
      </g>
    </g>
    <g transform="translate(73.4,27.45)" id="img-3e4a4358-31">
      <g class="primitive">
        <text text-anchor="end" dy="0.35em">0.2</text>
      </g>
    </g>
    <g transform="translate(73.4,12.57)" id="img-3e4a4358-32">
      <g class="primitive">
        <text text-anchor="end" dy="0.35em">0.3</text>
      </g>
    </g>
  </g>
  <g font-size="3.88" font-family="'PT Sans','Helvetica Neue','Helvetica',sans-serif" fill="#564A55" stroke="#000000" stroke-opacity="0.000" id="img-3e4a4358-33">
    <g transform="translate(98.2,5)" id="img-3e4a4358-34">
      <g class="primitive">
        <text text-anchor="middle" dy="0.6em">Distributions.jl</text>
      </g>
    </g>
  </g>
</g>
<g class="plotroot xscalable yscalable" id="img-3e4a4358-35">
  <g font-size="3.88" font-family="'PT Sans','Helvetica Neue','Helvetica',sans-serif" fill="#564A55" stroke="#000000" stroke-opacity="0.000" id="img-3e4a4358-36">
    <g transform="translate(34.7,66.26)" id="img-3e4a4358-37">
      <g class="primitive">
        <text text-anchor="middle" dy="0.6em">x</text>
      </g>
    </g>
  </g>
  <g class="guide xlabels" font-size="2.82" font-family="'PT Sans Caption','Helvetica Neue','Helvetica',sans-serif" fill="#6C606B" id="img-3e4a4358-38">
    <g transform="translate(12.9,60.21)" id="img-3e4a4358-39">
      <g class="primitive">
        <text text-anchor="middle" dy="0.6em">0</text>
      </g>
    </g>
    <g transform="translate(34.7,60.21)" id="img-3e4a4358-40">
      <g class="primitive">
        <text text-anchor="middle" dy="0.6em">5</text>
      </g>
    </g>
    <g transform="translate(56.5,60.21)" id="img-3e4a4358-41">
      <g class="primitive">
        <text text-anchor="middle" dy="0.6em">10</text>
      </g>
    </g>
  </g>
  <g clip-path="url(#img-3e4a4358-42)">
    <g id="img-3e4a4358-43">
      <g pointer-events="visible" stroke-width="0.3" fill="#000000" fill-opacity="0.000" stroke="#000000" stroke-opacity="0.000" class="guide background" id="img-3e4a4358-44">
        <g transform="translate(34.7,34.89)" id="img-3e4a4358-45">
          <path d="M-23.8,-24.32 L23.8,-24.32 23.8,24.32 -23.8,24.32  z" class="primitive"/>
        </g>
      </g>
      <g class="guide ygridlines xfixed" stroke-dasharray="0.5,0.5" stroke-width="0.2" stroke="#D0D0E0" id="img-3e4a4358-46">
        <g transform="translate(34.7,57.21)" id="img-3e4a4358-47">
          <path fill="none" d="M-23.8,0 L23.8,0 " class="primitive"/>
        </g>
        <g transform="translate(34.7,42.33)" id="img-3e4a4358-48">
          <path fill="none" d="M-23.8,0 L23.8,0 " class="primitive"/>
        </g>
        <g transform="translate(34.7,27.45)" id="img-3e4a4358-49">
          <path fill="none" d="M-23.8,0 L23.8,0 " class="primitive"/>
        </g>
        <g transform="translate(34.7,12.57)" id="img-3e4a4358-50">
          <path fill="none" d="M-23.8,0 L23.8,0 " class="primitive"/>
        </g>
      </g>
      <g class="guide xgridlines yfixed" stroke-dasharray="0.5,0.5" stroke-width="0.2" stroke="#D0D0E0" id="img-3e4a4358-51">
        <g transform="translate(12.9,34.89)" id="img-3e4a4358-52">
          <path fill="none" d="M0,-24.32 L0,24.32 " class="primitive"/>
        </g>
        <g transform="translate(34.7,34.89)" id="img-3e4a4358-53">
          <path fill="none" d="M0,-24.32 L0,24.32 " class="primitive"/>
        </g>
        <g transform="translate(56.5,34.89)" id="img-3e4a4358-54">
          <path fill="none" d="M0,-24.32 L0,24.32 " class="primitive"/>
        </g>
      </g>
      <g class="plotpanel" id="img-3e4a4358-55">
        <metadata>
          <boundingbox value="10.90019259982639mm 10.570152452256941mm 47.59980740017361mm 48.64077148437498mm"/>
          <unitbox value="-0.4587176226819837 0.31344062792933614 10.917435245363967 -0.3268812558586722"/>
        </metadata>
        <g shape-rendering="crispEdges" stroke-width="0.3" id="img-3e4a4358-56">
          <g class="geometry" fill-opacity="1" stroke="#000000" stroke-opacity="0.000" fill="#00BFFF" id="img-3e4a4358-57">
            <g transform="translate(15.08,55.24)" id="img-3e4a4358-58">
              <path d="M-2.2,-1.97 L2.2,-1.97 2.2,1.97 -2.2,1.97  z" class="primitive"/>
            </g>
            <g transform="translate(19.44,47.69)" id="img-3e4a4358-59">
              <path d="M-2.2,-9.52 L2.2,-9.52 2.2,9.52 -2.2,9.52  z" class="primitive"/>
            </g>
            <g transform="translate(23.8,37.59)" id="img-3e4a4358-60">
              <path d="M-2.2,-19.62 L2.2,-19.62 2.2,19.62 -2.2,19.62  z" class="primitive"/>
            </g>
            <g transform="translate(28.16,35.52)" id="img-3e4a4358-61">
              <path d="M-2.2,-21.7 L2.2,-21.7 2.2,21.7 -2.2,21.7  z" class="primitive"/>
            </g>
            <g transform="translate(32.52,42.73)" id="img-3e4a4358-62">
              <path d="M-2.2,-14.48 L2.2,-14.48 2.2,14.48 -2.2,14.48  z" class="primitive"/>
            </g>
            <g transform="translate(36.88,51.53)" id="img-3e4a4358-63">
              <path d="M-2.2,-5.68 L2.2,-5.68 2.2,5.68 -2.2,5.68  z" class="primitive"/>
            </g>
            <g transform="translate(41.24,55.91)" id="img-3e4a4358-64">
              <path d="M-2.2,-1.3 L2.2,-1.3 2.2,1.3 -2.2,1.3  z" class="primitive"/>
            </g>
            <g transform="translate(45.6,57.08)" id="img-3e4a4358-65">
              <path d="M-2.2,-0.13 L2.2,-0.13 2.2,0.13 -2.2,0.13  z" class="primitive"/>
            </g>
          </g>
        </g>
      </g>
    </g>
  </g>
  <g class="guide ylabels" font-size="2.82" font-family="'PT Sans Caption','Helvetica Neue','Helvetica',sans-serif" fill="#6C606B" id="img-3e4a4358-66">
    <g transform="translate(9.9,57.21)" id="img-3e4a4358-67">
      <g class="primitive">
        <text text-anchor="end" dy="0.35em">0.0</text>
      </g>
    </g>
    <g transform="translate(9.9,42.33)" id="img-3e4a4358-68">
      <g class="primitive">
        <text text-anchor="end" dy="0.35em">0.1</text>
      </g>
    </g>
    <g transform="translate(9.9,27.45)" id="img-3e4a4358-69">
      <g class="primitive">
        <text text-anchor="end" dy="0.35em">0.2</text>
      </g>
    </g>
    <g transform="translate(9.9,12.57)" id="img-3e4a4358-70">
      <g class="primitive">
        <text text-anchor="end" dy="0.35em">0.3</text>
      </g>
    </g>
  </g>
  <g font-size="3.88" font-family="'PT Sans','Helvetica Neue','Helvetica',sans-serif" fill="#564A55" stroke="#000000" stroke-opacity="0.000" id="img-3e4a4358-71">
    <g transform="translate(34.7,5)" id="img-3e4a4358-72">
      <g class="primitive">
        <text text-anchor="middle" dy="0.6em">RandomVariates.jl</text>
      </g>
    </g>
  </g>
</g>
<defs>
  <clipPath id="img-3e4a4358-4">
    <path d="M74.4,10.57 L122,10.57 122,59.21 74.4,59.21 " />
  </clipPath>
  <clipPath id="img-3e4a4358-42">
    <path d="M10.9,10.57 L58.5,10.57 58.5,59.21 10.9,59.21 " />
  </clipPath>
</defs>
</svg>
