<?xml version="1.0" encoding="UTF-8"?>
<svg xmlns="http://www.w3.org/2000/svg"
     xmlns:xlink="http://www.w3.org/1999/xlink"
     xmlns:gadfly="http://www.gadflyjl.org/ns"
     version="1.2"
     width="127mm" height="76.2mm" viewBox="0 0 127 76.2"
     stroke="none"
     fill="#000000"
     stroke-width="0.3"
     font-size="3.88"
>
<defs>
  <marker id="arrow" markerWidth="15" markerHeight="7" refX="5" refY="3.5" orient="auto" markerUnits="strokeWidth">
    <path d="M0,0 L15,3.5 L0,7 z" stroke="context-stroke" fill="context-stroke"/>
  </marker>
</defs>
<g class="plotroot xscalable yscalable" id="img-ae89a520-1">
  <g font-size="3.88" font-family="'PT Sans','Helvetica Neue','Helvetica',sans-serif" fill="#564A55" stroke="#000000" stroke-opacity="0.000" id="img-ae89a520-2">
    <g transform="translate(98.2,66.26)">
      <g class="primitive">
        <text text-anchor="middle" dy="0.6em">x</text>
      </g>
    </g>
  </g>
  <g class="guide xlabels" font-size="2.82" font-family="'PT Sans Caption','Helvetica Neue','Helvetica',sans-serif" fill="#6C606B" id="img-ae89a520-3">
    <g transform="translate(76.4,60.21)">
      <g class="primitive">
        <text text-anchor="middle" dy="0.6em">0</text>
      </g>
    </g>
    <g transform="translate(90.93,60.21)">
      <g class="primitive">
        <text text-anchor="middle" dy="0.6em">10</text>
      </g>
    </g>
    <g transform="translate(105.47,60.21)">
      <g class="primitive">
        <text text-anchor="middle" dy="0.6em">20</text>
      </g>
    </g>
    <g transform="translate(120,60.21)">
      <g class="primitive">
        <text text-anchor="middle" dy="0.6em">30</text>
      </g>
    </g>
  </g>
  <g clip-path="url(#img-ae89a520-4)">
    <g id="img-ae89a520-5">
      <g pointer-events="visible" stroke-width="0.3" fill="#000000" fill-opacity="0.000" stroke="#000000" stroke-opacity="0.000" class="guide background" id="img-ae89a520-6">
        <g transform="translate(98.2,34.89)" id="img-ae89a520-7">
          <path d="M-23.8,-24.32 L23.8,-24.32 23.8,24.32 -23.8,24.32  z" class="primitive"/>
        </g>
      </g>
      <g class="guide ygridlines xfixed" stroke-dasharray="0.5,0.5" stroke-width="0.2" stroke="#D0D0E0" id="img-ae89a520-8">
        <g transform="translate(98.2,57.21)" id="img-ae89a520-9">
          <path fill="none" d="M-23.8,0 L23.8,0 " class="primitive"/>
        </g>
        <g transform="translate(98.2,44.46)" id="img-ae89a520-10">
          <path fill="none" d="M-23.8,0 L23.8,0 " class="primitive"/>
        </g>
        <g transform="translate(98.2,31.7)" id="img-ae89a520-11">
          <path fill="none" d="M-23.8,0 L23.8,0 " class="primitive"/>
        </g>
        <g transform="translate(98.2,18.95)" id="img-ae89a520-12">
          <path fill="none" d="M-23.8,0 L23.8,0 " class="primitive"/>
        </g>
      </g>
      <g class="guide xgridlines yfixed" stroke-dasharray="0.5,0.5" stroke-width="0.2" stroke="#D0D0E0" id="img-ae89a520-13">
        <g transform="translate(76.4,34.89)" id="img-ae89a520-14">
          <path fill="none" d="M0,-24.32 L0,24.32 " class="primitive"/>
        </g>
        <g transform="translate(90.93,34.89)" id="img-ae89a520-15">
          <path fill="none" d="M0,-24.32 L0,24.32 " class="primitive"/>
        </g>
        <g transform="translate(105.47,34.89)" id="img-ae89a520-16">
          <path fill="none" d="M0,-24.32 L0,24.32 " class="primitive"/>
        </g>
        <g transform="translate(120,34.89)" id="img-ae89a520-17">
          <path fill="none" d="M0,-24.32 L0,24.32 " class="primitive"/>
        </g>
      </g>
      <g class="plotpanel" id="img-ae89a520-18">
        <metadata>
          <boundingbox value="74.4001925998264mm 10.570152452256941mm 47.59980740017362mm 48.64042697482638mm"/>
          <unitbox value="-1.376152868045951 0.36568085359924407 32.7523057360919 -0.38136170719848816"/>
        </metadata>
        <g shape-rendering="crispEdges" stroke-width="0.3" id="img-ae89a520-19">
          <g class="geometry" fill-opacity="1" stroke="#000000" stroke-opacity="0.000" fill="#00BFFF" id="img-ae89a520-20">
            <g transform="translate(77.13,38.3)" id="img-ae89a520-21">
              <path d="M-0.75,-18.91 L0.75,-18.91 0.75,18.91 -0.75,18.91  z" class="primitive"/>
            </g>
            <g transform="translate(78.58,43.24)" id="img-ae89a520-22">
              <path d="M-0.75,-13.97 L0.75,-13.97 0.75,13.97 -0.75,13.97  z" class="primitive"/>
            </g>
            <g transform="translate(80.03,48.14)" id="img-ae89a520-23">
              <path d="M-0.75,-9.07 L0.75,-9.07 0.75,9.07 -0.75,9.07  z" class="primitive"/>
            </g>
            <g transform="translate(81.49,50.78)" id="img-ae89a520-24">
              <path d="M-0.75,-6.43 L0.75,-6.43 0.75,6.43 -0.75,6.43  z" class="primitive"/>
            </g>
            <g transform="translate(82.94,52.35)" id="img-ae89a520-25">
              <path d="M-0.75,-4.86 L0.75,-4.86 0.75,4.86 -0.75,4.86  z" class="primitive"/>
            </g>
            <g transform="translate(84.39,54.12)" id="img-ae89a520-26">
              <path d="M-0.75,-3.09 L0.75,-3.09 0.75,3.09 -0.75,3.09  z" class="primitive"/>
            </g>
            <g transform="translate(85.85,55.11)" id="img-ae89a520-27">
              <path d="M-0.75,-2.1 L0.75,-2.1 0.75,2.1 -0.75,2.1  z" class="primitive"/>
            </g>
            <g transform="translate(87.3,55.57)" id="img-ae89a520-28">
              <path d="M-0.75,-1.64 L0.75,-1.64 0.75,1.64 -0.75,1.64  z" class="primitive"/>
            </g>
            <g transform="translate(88.75,56.09)" id="img-ae89a520-29">
              <path d="M-0.75,-1.12 L0.75,-1.12 0.75,1.12 -0.75,1.12  z" class="primitive"/>
            </g>
            <g transform="translate(90.21,56.45)" id="img-ae89a520-30">
              <path d="M-0.75,-0.76 L0.75,-0.76 0.75,0.76 -0.75,0.76  z" class="primitive"/>
            </g>
            <g transform="translate(91.66,56.64)" id="img-ae89a520-31">
              <path d="M-0.75,-0.57 L0.75,-0.57 0.75,0.57 -0.75,0.57  z" class="primitive"/>
            </g>
            <g transform="translate(93.11,56.82)" id="img-ae89a520-32">
              <path d="M-0.75,-0.39 L0.75,-0.39 0.75,0.39 -0.75,0.39  z" class="primitive"/>
            </g>
            <g transform="translate(94.57,56.96)" id="img-ae89a520-33">
              <path d="M-0.75,-0.25 L0.75,-0.25 0.75,0.25 -0.75,0.25  z" class="primitive"/>
            </g>
            <g transform="translate(96.02,57.01)" id="img-ae89a520-34">
              <path d="M-0.75,-0.2 L0.75,-0.2 0.75,0.2 -0.75,0.2  z" class="primitive"/>
            </g>
            <g transform="translate(97.47,57.09)" id="img-ae89a520-35">
              <path d="M-0.75,-0.12 L0.75,-0.12 0.75,0.12 -0.75,0.12  z" class="primitive"/>
            </g>
            <g transform="translate(98.93,57.13)" id="img-ae89a520-36">
              <path d="M-0.75,-0.08 L0.75,-0.08 0.75,0.08 -0.75,0.08  z" class="primitive"/>
            </g>
            <g transform="translate(100.38,57.13)" id="img-ae89a520-37">
              <path d="M-0.75,-0.08 L0.75,-0.08 0.75,0.08 -0.75,0.08  z" class="primitive"/>
            </g>
            <g transform="translate(101.83,57.19)" id="img-ae89a520-38">
              <path d="M-0.75,-0.03 L0.75,-0.03 0.75,0.03 -0.75,0.03  z" class="primitive"/>
            </g>
            <g transform="translate(103.29,57.17)" id="img-ae89a520-39">
              <path d="M-0.75,-0.04 L0.75,-0.04 0.75,0.04 -0.75,0.04  z" class="primitive"/>
            </g>
            <g transform="translate(104.74,57.19)" id="img-ae89a520-40">
              <path d="M-0.75,-0.03 L0.75,-0.03 0.75,0.03 -0.75,0.03  z" class="primitive"/>
            </g>
            <g transform="translate(106.19,57.2)" id="img-ae89a520-41">
              <path d="M-0.75,-0.01 L0.75,-0.01 0.75,0.01 -0.75,0.01  z" class="primitive"/>
            </g>
            <g transform="translate(107.65,57.22)" id="img-ae89a520-42">
              <path d="M-0.75,-0 L0.75,-0 0.75,0 -0.75,0  z" class="primitive"/>
            </g>
            <g transform="translate(109.1,57.19)" id="img-ae89a520-43">
              <path d="M-0.75,-0.02 L0.75,-0.02 0.75,0.02 -0.75,0.02  z" class="primitive"/>
            </g>
            <g transform="translate(110.55,57.2)" id="img-ae89a520-44">
              <path d="M-0.75,-0.01 L0.75,-0.01 0.75,0.01 -0.75,0.01  z" class="primitive"/>
            </g>
            <g transform="translate(112.01,57.22)" id="img-ae89a520-45">
              <path d="M-0.75,-0 L0.75,-0 0.75,0 -0.75,0  z" class="primitive"/>
            </g>
            <g transform="translate(113.46,57.2)" id="img-ae89a520-46">
              <path d="M-0.75,-0.01 L0.75,-0.01 0.75,0.01 -0.75,0.01  z" class="primitive"/>
            </g>
          </g>
        </g>
      </g>
    </g>
  </g>
  <g class="guide ylabels" font-size="2.82" font-family="'PT Sans Caption','Helvetica Neue','Helvetica',sans-serif" fill="#6C606B" id="img-ae89a520-47">
    <g transform="translate(73.4,57.21)" id="img-ae89a520-48">
      <g class="primitive">
        <text text-anchor="end" dy="0.35em">0.0</text>
      </g>
    </g>
    <g transform="translate(73.4,44.46)" id="img-ae89a520-49">
      <g class="primitive">
        <text text-anchor="end" dy="0.35em">0.1</text>
      </g>
    </g>
    <g transform="translate(73.4,31.7)" id="img-ae89a520-50">
      <g class="primitive">
        <text text-anchor="end" dy="0.35em">0.2</text>
      </g>
    </g>
    <g transform="translate(73.4,18.95)" id="img-ae89a520-51">
      <g class="primitive">
        <text text-anchor="end" dy="0.35em">0.3</text>
      </g>
    </g>
  </g>
  <g font-size="3.88" font-family="'PT Sans','Helvetica Neue','Helvetica',sans-serif" fill="#564A55" stroke="#000000" stroke-opacity="0.000" id="img-ae89a520-52">
    <g transform="translate(98.2,5)" id="img-ae89a520-53">
      <g class="primitive">
        <text text-anchor="middle" dy="0.6em">Distributions.jl</text>
      </g>
    </g>
  </g>
</g>
<g class="plotroot xscalable yscalable" id="img-ae89a520-54">
  <g font-size="3.88" font-family="'PT Sans','Helvetica Neue','Helvetica',sans-serif" fill="#564A55" stroke="#000000" stroke-opacity="0.000" id="img-ae89a520-55">
    <g transform="translate(34.7,66.26)" id="img-ae89a520-56">
      <g class="primitive">
        <text text-anchor="middle" dy="0.6em">x</text>
      </g>
    </g>
  </g>
  <g class="guide xlabels" font-size="2.82" font-family="'PT Sans Caption','Helvetica Neue','Helvetica',sans-serif" fill="#6C606B" id="img-ae89a520-57">
    <g transform="translate(12.9,60.21)" id="img-ae89a520-58">
      <g class="primitive">
        <text text-anchor="middle" dy="0.6em">0</text>
      </g>
    </g>
    <g transform="translate(27.43,60.21)" id="img-ae89a520-59">
      <g class="primitive">
        <text text-anchor="middle" dy="0.6em">10</text>
      </g>
    </g>
    <g transform="translate(41.97,60.21)" id="img-ae89a520-60">
      <g class="primitive">
        <text text-anchor="middle" dy="0.6em">20</text>
      </g>
    </g>
    <g transform="translate(56.5,60.21)" id="img-ae89a520-61">
      <g class="primitive">
        <text text-anchor="middle" dy="0.6em">30</text>
      </g>
    </g>
  </g>
  <g clip-path="url(#img-ae89a520-62)">
    <g id="img-ae89a520-63">
      <g pointer-events="visible" stroke-width="0.3" fill="#000000" fill-opacity="0.000" stroke="#000000" stroke-opacity="0.000" class="guide background" id="img-ae89a520-64">
        <g transform="translate(34.7,34.89)" id="img-ae89a520-65">
          <path d="M-23.8,-24.32 L23.8,-24.32 23.8,24.32 -23.8,24.32  z" class="primitive"/>
        </g>
      </g>
      <g class="guide ygridlines xfixed" stroke-dasharray="0.5,0.5" stroke-width="0.2" stroke="#D0D0E0" id="img-ae89a520-66">
        <g transform="translate(34.7,57.21)" id="img-ae89a520-67">
          <path fill="none" d="M-23.8,0 L23.8,0 " class="primitive"/>
        </g>
        <g transform="translate(34.7,44.46)" id="img-ae89a520-68">
          <path fill="none" d="M-23.8,0 L23.8,0 " class="primitive"/>
        </g>
        <g transform="translate(34.7,31.7)" id="img-ae89a520-69">
          <path fill="none" d="M-23.8,0 L23.8,0 " class="primitive"/>
        </g>
        <g transform="translate(34.7,18.95)" id="img-ae89a520-70">
          <path fill="none" d="M-23.8,0 L23.8,0 " class="primitive"/>
        </g>
      </g>
      <g class="guide xgridlines yfixed" stroke-dasharray="0.5,0.5" stroke-width="0.2" stroke="#D0D0E0" id="img-ae89a520-71">
        <g transform="translate(12.9,34.89)" id="img-ae89a520-72">
          <path fill="none" d="M0,-24.32 L0,24.32 " class="primitive"/>
        </g>
        <g transform="translate(27.43,34.89)" id="img-ae89a520-73">
          <path fill="none" d="M0,-24.32 L0,24.32 " class="primitive"/>
        </g>
        <g transform="translate(41.97,34.89)" id="img-ae89a520-74">
          <path fill="none" d="M0,-24.32 L0,24.32 " class="primitive"/>
        </g>
        <g transform="translate(56.5,34.89)" id="img-ae89a520-75">
          <path fill="none" d="M0,-24.32 L0,24.32 " class="primitive"/>
        </g>
      </g>
      <g class="plotpanel" id="img-ae89a520-76">
        <metadata>
          <boundingbox value="10.90019259982639mm 10.570152452256941mm 47.59980740017361mm 48.64042697482638mm"/>
          <unitbox value="-1.376152868045951 0.36568085359924407 32.7523057360919 -0.38136170719848816"/>
        </metadata>
        <g shape-rendering="crispEdges" stroke-width="0.3" id="img-ae89a520-77">
          <g class="geometry" fill-opacity="1" stroke="#000000" stroke-opacity="0.000" fill="#00BFFF" id="img-ae89a520-78">
            <g transform="translate(13.63,37.81)" id="img-ae89a520-79">
              <path d="M-0.75,-19.4 L0.75,-19.4 0.75,19.4 -0.75,19.4  z" class="primitive"/>
            </g>
            <g transform="translate(15.08,44.11)" id="img-ae89a520-80">
              <path d="M-0.75,-13.11 L0.75,-13.11 0.75,13.11 -0.75,13.11  z" class="primitive"/>
            </g>
            <g transform="translate(16.53,47.94)" id="img-ae89a520-81">
              <path d="M-0.75,-9.27 L0.75,-9.27 0.75,9.27 -0.75,9.27  z" class="primitive"/>
            </g>
            <g transform="translate(17.99,50.78)" id="img-ae89a520-82">
              <path d="M-0.75,-6.43 L0.75,-6.43 0.75,6.43 -0.75,6.43  z" class="primitive"/>
            </g>
            <g transform="translate(19.44,52.73)" id="img-ae89a520-83">
              <path d="M-0.75,-4.48 L0.75,-4.48 0.75,4.48 -0.75,4.48  z" class="primitive"/>
            </g>
            <g transform="translate(20.89,54.05)" id="img-ae89a520-84">
              <path d="M-0.75,-3.16 L0.75,-3.16 0.75,3.16 -0.75,3.16  z" class="primitive"/>
            </g>
            <g transform="translate(22.35,54.77)" id="img-ae89a520-85">
              <path d="M-0.75,-2.44 L0.75,-2.44 0.75,2.44 -0.75,2.44  z" class="primitive"/>
            </g>
            <g transform="translate(23.8,55.5)" id="img-ae89a520-86">
              <path d="M-0.75,-1.71 L0.75,-1.71 0.75,1.71 -0.75,1.71  z" class="primitive"/>
            </g>
            <g transform="translate(25.25,56.01)" id="img-ae89a520-87">
              <path d="M-0.75,-1.21 L0.75,-1.21 0.75,1.21 -0.75,1.21  z" class="primitive"/>
            </g>
            <g transform="translate(26.71,56.48)" id="img-ae89a520-88">
              <path d="M-0.75,-0.73 L0.75,-0.73 0.75,0.73 -0.75,0.73  z" class="primitive"/>
            </g>
            <g transform="translate(28.16,56.71)" id="img-ae89a520-89">
              <path d="M-0.75,-0.5 L0.75,-0.5 0.75,0.5 -0.75,0.5  z" class="primitive"/>
            </g>
            <g transform="translate(29.61,56.82)" id="img-ae89a520-90">
              <path d="M-0.75,-0.4 L0.75,-0.4 0.75,0.4 -0.75,0.4  z" class="primitive"/>
            </g>
            <g transform="translate(31.07,56.89)" id="img-ae89a520-91">
              <path d="M-0.75,-0.32 L0.75,-0.32 0.75,0.32 -0.75,0.32  z" class="primitive"/>
            </g>
            <g transform="translate(32.52,57.04)" id="img-ae89a520-92">
              <path d="M-0.75,-0.17 L0.75,-0.17 0.75,0.17 -0.75,0.17  z" class="primitive"/>
            </g>
            <g transform="translate(33.97,57.1)" id="img-ae89a520-93">
              <path d="M-0.75,-0.11 L0.75,-0.11 0.75,0.11 -0.75,0.11  z" class="primitive"/>
            </g>
            <g transform="translate(35.43,57.11)" id="img-ae89a520-94">
              <path d="M-0.75,-0.1 L0.75,-0.1 0.75,0.1 -0.75,0.1  z" class="primitive"/>
            </g>
            <g transform="translate(36.88,57.13)" id="img-ae89a520-95">
              <path d="M-0.75,-0.08 L0.75,-0.08 0.75,0.08 -0.75,0.08  z" class="primitive"/>
            </g>
            <g transform="translate(38.33,57.18)" id="img-ae89a520-96">
              <path d="M-0.75,-0.03 L0.75,-0.03 0.75,0.03 -0.75,0.03  z" class="primitive"/>
            </g>
            <g transform="translate(39.79,57.19)" id="img-ae89a520-97">
              <path d="M-0.75,-0.03 L0.75,-0.03 0.75,0.03 -0.75,0.03  z" class="primitive"/>
            </g>
            <g transform="translate(41.24,57.19)" id="img-ae89a520-98">
              <path d="M-0.75,-0.03 L0.75,-0.03 0.75,0.03 -0.75,0.03  z" class="primitive"/>
            </g>
            <g transform="translate(42.69,57.19)" id="img-ae89a520-99">
              <path d="M-0.75,-0.03 L0.75,-0.03 0.75,0.03 -0.75,0.03  z" class="primitive"/>
            </g>
            <g transform="translate(44.15,57.2)" id="img-ae89a520-100">
              <path d="M-0.75,-0.01 L0.75,-0.01 0.75,0.01 -0.75,0.01  z" class="primitive"/>
            </g>
            <g transform="translate(45.6,57.2)" id="img-ae89a520-101">
              <path d="M-0.75,-0.01 L0.75,-0.01 0.75,0.01 -0.75,0.01  z" class="primitive"/>
            </g>
            <g transform="translate(47.05,57.19)" id="img-ae89a520-102">
              <path d="M-0.75,-0.03 L0.75,-0.03 0.75,0.03 -0.75,0.03  z" class="primitive"/>
            </g>
            <g transform="translate(48.51,57.22)" id="img-ae89a520-103">
              <path d="M-0.75,-0 L0.75,-0 0.75,0 -0.75,0  z" class="primitive"/>
            </g>
            <g transform="translate(49.96,57.22)" id="img-ae89a520-104">
              <path d="M-0.75,-0 L0.75,-0 0.75,0 -0.75,0  z" class="primitive"/>
            </g>
            <g transform="translate(51.41,57.2)" id="img-ae89a520-105">
              <path d="M-0.75,-0.01 L0.75,-0.01 0.75,0.01 -0.75,0.01  z" class="primitive"/>
            </g>
            <g transform="translate(52.87,57.22)" id="img-ae89a520-106">
              <path d="M-0.75,-0 L0.75,-0 0.75,0 -0.75,0  z" class="primitive"/>
            </g>
            <g transform="translate(54.32,57.22)" id="img-ae89a520-107">
              <path d="M-0.75,-0 L0.75,-0 0.75,0 -0.75,0  z" class="primitive"/>
            </g>
            <g transform="translate(55.77,57.2)" id="img-ae89a520-108">
              <path d="M-0.75,-0.01 L0.75,-0.01 0.75,0.01 -0.75,0.01  z" class="primitive"/>
            </g>
            <g transform="translate(57.23,57.22)" id="img-ae89a520-109">
              <path d="M-0.75,-0 L0.75,-0 0.75,0 -0.75,0  z" class="primitive"/>
            </g>
            <g transform="translate(58.68,57.2)" id="img-ae89a520-110">
              <path d="M-0.75,-0.01 L0.75,-0.01 0.75,0.01 -0.75,0.01  z" class="primitive"/>
            </g>
          </g>
        </g>
      </g>
    </g>
  </g>
  <g class="guide ylabels" font-size="2.82" font-family="'PT Sans Caption','Helvetica Neue','Helvetica',sans-serif" fill="#6C606B" id="img-ae89a520-111">
    <g transform="translate(9.9,57.21)" id="img-ae89a520-112">
      <g class="primitive">
        <text text-anchor="end" dy="0.35em">0.0</text>
      </g>
    </g>
    <g transform="translate(9.9,44.46)" id="img-ae89a520-113">
      <g class="primitive">
        <text text-anchor="end" dy="0.35em">0.1</text>
      </g>
    </g>
    <g transform="translate(9.9,31.7)" id="img-ae89a520-114">
      <g class="primitive">
        <text text-anchor="end" dy="0.35em">0.2</text>
      </g>
    </g>
    <g transform="translate(9.9,18.95)" id="img-ae89a520-115">
      <g class="primitive">
        <text text-anchor="end" dy="0.35em">0.3</text>
      </g>
    </g>
  </g>
  <g font-size="3.88" font-family="'PT Sans','Helvetica Neue','Helvetica',sans-serif" fill="#564A55" stroke="#000000" stroke-opacity="0.000" id="img-ae89a520-116">
    <g transform="translate(34.7,5)" id="img-ae89a520-117">
      <g class="primitive">
        <text text-anchor="middle" dy="0.6em">RandomVariates.jl</text>
      </g>
    </g>
  </g>
</g>
<defs>
  <clipPath id="img-ae89a520-4">
    <path d="M74.4,10.57 L122,10.57 122,59.21 74.4,59.21 " />
  </clipPath>
  <clipPath id="img-ae89a520-62">
    <path d="M10.9,10.57 L58.5,10.57 58.5,59.21 10.9,59.21 " />
  </clipPath>
</defs>
</svg>
