<?xml version="1.0" encoding="UTF-8"?>
<svg xmlns="http://www.w3.org/2000/svg"
     xmlns:xlink="http://www.w3.org/1999/xlink"
     xmlns:gadfly="http://www.gadflyjl.org/ns"
     version="1.2"
     width="127mm" height="76.2mm" viewBox="0 0 127 76.2"
     stroke="none"
     fill="#000000"
     stroke-width="0.3"
     font-size="3.88"
>
<defs>
  <marker id="arrow" markerWidth="15" markerHeight="7" refX="5" refY="3.5" orient="auto" markerUnits="strokeWidth">
    <path d="M0,0 L15,3.5 L0,7 z" stroke="context-stroke" fill="context-stroke"/>
  </marker>
</defs>
<g class="plotroot xscalable yscalable" id="img-71d231a8-1">
  <g font-size="3.88" font-family="'PT Sans','Helvetica Neue','Helvetica',sans-serif" fill="#564A55" stroke="#000000" stroke-opacity="0.000" id="img-71d231a8-2">
    <g transform="translate(99.08,66.26)">
      <g class="primitive">
        <text text-anchor="middle" dy="0.6em">x</text>
      </g>
    </g>
  </g>
  <g class="guide xlabels" font-size="2.82" font-family="'PT Sans Caption','Helvetica Neue','Helvetica',sans-serif" fill="#6C606B" id="img-71d231a8-3">
    <g transform="translate(78.16,60.21)">
      <g class="primitive">
        <text text-anchor="middle" dy="0.6em">0</text>
      </g>
    </g>
    <g transform="translate(88.62,60.21)">
      <g class="primitive">
        <text text-anchor="middle" dy="0.6em">5</text>
      </g>
    </g>
    <g transform="translate(99.08,60.21)">
      <g class="primitive">
        <text text-anchor="middle" dy="0.6em">10</text>
      </g>
    </g>
    <g transform="translate(109.54,60.21)">
      <g class="primitive">
        <text text-anchor="middle" dy="0.6em">15</text>
      </g>
    </g>
    <g transform="translate(120,60.21)">
      <g class="primitive">
        <text text-anchor="middle" dy="0.6em">20</text>
      </g>
    </g>
  </g>
  <g clip-path="url(#img-71d231a8-4)">
    <g id="img-71d231a8-5">
      <g pointer-events="visible" stroke-width="0.3" fill="#000000" fill-opacity="0.000" stroke="#000000" stroke-opacity="0.000" class="guide background" id="img-71d231a8-6">
        <g transform="translate(99.08,34.89)" id="img-71d231a8-7">
          <path d="M-22.92,-24.32 L22.92,-24.32 22.92,24.32 -22.92,24.32  z" class="primitive"/>
        </g>
      </g>
      <g class="guide ygridlines xfixed" stroke-dasharray="0.5,0.5" stroke-width="0.2" stroke="#D0D0E0" id="img-71d231a8-8">
        <g transform="translate(99.08,57.21)" id="img-71d231a8-9">
          <path fill="none" d="M-22.92,0 L22.92,0 " class="primitive"/>
        </g>
        <g transform="translate(99.08,46.05)" id="img-71d231a8-10">
          <path fill="none" d="M-22.92,0 L22.92,0 " class="primitive"/>
        </g>
        <g transform="translate(99.08,34.89)" id="img-71d231a8-11">
          <path fill="none" d="M-22.92,0 L22.92,0 " class="primitive"/>
        </g>
        <g transform="translate(99.08,23.73)" id="img-71d231a8-12">
          <path fill="none" d="M-22.92,0 L22.92,0 " class="primitive"/>
        </g>
        <g transform="translate(99.08,12.57)" id="img-71d231a8-13">
          <path fill="none" d="M-22.92,0 L22.92,0 " class="primitive"/>
        </g>
      </g>
      <g class="guide xgridlines yfixed" stroke-dasharray="0.5,0.5" stroke-width="0.2" stroke="#D0D0E0" id="img-71d231a8-14">
        <g transform="translate(78.16,34.89)" id="img-71d231a8-15">
          <path fill="none" d="M0,-24.32 L0,24.32 " class="primitive"/>
        </g>
        <g transform="translate(88.62,34.89)" id="img-71d231a8-16">
          <path fill="none" d="M0,-24.32 L0,24.32 " class="primitive"/>
        </g>
        <g transform="translate(99.08,34.89)" id="img-71d231a8-17">
          <path fill="none" d="M0,-24.32 L0,24.32 " class="primitive"/>
        </g>
        <g transform="translate(109.54,34.89)" id="img-71d231a8-18">
          <path fill="none" d="M0,-24.32 L0,24.32 " class="primitive"/>
        </g>
        <g transform="translate(120,34.89)" id="img-71d231a8-19">
          <path fill="none" d="M0,-24.32 L0,24.32 " class="primitive"/>
        </g>
      </g>
      <g class="plotpanel" id="img-71d231a8-20">
        <metadata>
          <boundingbox value="76.16408148871528mm 10.570152452256941mm 45.83591851128472mm 48.640771484374994mm"/>
          <unitbox value="-0.9561162136122457 0.2089604186195574 21.91223242722449 -0.2179208372391148"/>
        </metadata>
        <g shape-rendering="crispEdges" stroke-width="0.3" id="img-71d231a8-21">
          <g class="geometry" fill-opacity="1" stroke="#000000" stroke-opacity="0.000" fill="#00BFFF" id="img-71d231a8-22">
            <g transform="translate(79.21,57.09)" id="img-71d231a8-23">
              <path d="M-1.07,-0.12 L1.07,-0.12 1.07,0.12 -1.07,0.12  z" class="primitive"/>
            </g>
            <g transform="translate(81.3,56.57)" id="img-71d231a8-24">
              <path d="M-1.07,-0.64 L1.07,-0.64 1.07,0.64 -1.07,0.64  z" class="primitive"/>
            </g>
            <g transform="translate(83.39,54.64)" id="img-71d231a8-25">
              <path d="M-1.07,-2.57 L1.07,-2.57 1.07,2.57 -1.07,2.57  z" class="primitive"/>
            </g>
            <g transform="translate(85.49,51.4)" id="img-71d231a8-26">
              <path d="M-1.07,-5.81 L1.07,-5.81 1.07,5.81 -1.07,5.81  z" class="primitive"/>
            </g>
            <g transform="translate(87.58,46.88)" id="img-71d231a8-27">
              <path d="M-1.07,-10.33 L1.07,-10.33 1.07,10.33 -1.07,10.33  z" class="primitive"/>
            </g>
            <g transform="translate(89.67,42.87)" id="img-71d231a8-28">
              <path d="M-1.07,-14.34 L1.07,-14.34 1.07,14.34 -1.07,14.34  z" class="primitive"/>
            </g>
            <g transform="translate(91.76,40.38)" id="img-71d231a8-29">
              <path d="M-1.07,-16.83 L1.07,-16.83 1.07,16.83 -1.07,16.83  z" class="primitive"/>
            </g>
            <g transform="translate(93.85,39.93)" id="img-71d231a8-30">
              <path d="M-1.07,-17.28 L1.07,-17.28 1.07,17.28 -1.07,17.28  z" class="primitive"/>
            </g>
            <g transform="translate(95.94,42.79)" id="img-71d231a8-31">
              <path d="M-1.07,-14.42 L1.07,-14.42 1.07,14.42 -1.07,14.42  z" class="primitive"/>
            </g>
            <g transform="translate(98.04,46.4)" id="img-71d231a8-32">
              <path d="M-1.07,-10.81 L1.07,-10.81 1.07,10.81 -1.07,10.81  z" class="primitive"/>
            </g>
            <g transform="translate(100.13,49)" id="img-71d231a8-33">
              <path d="M-1.07,-8.21 L1.07,-8.21 1.07,8.21 -1.07,8.21  z" class="primitive"/>
            </g>
            <g transform="translate(102.22,52.22)" id="img-71d231a8-34">
              <path d="M-1.07,-4.99 L1.07,-4.99 1.07,4.99 -1.07,4.99  z" class="primitive"/>
            </g>
            <g transform="translate(104.31,54.52)" id="img-71d231a8-35">
              <path d="M-1.07,-2.69 L1.07,-2.69 1.07,2.69 -1.07,2.69  z" class="primitive"/>
            </g>
            <g transform="translate(106.4,55.8)" id="img-71d231a8-36">
              <path d="M-1.07,-1.41 L1.07,-1.41 1.07,1.41 -1.07,1.41  z" class="primitive"/>
            </g>
            <g transform="translate(108.5,56.59)" id="img-71d231a8-37">
              <path d="M-1.07,-0.62 L1.07,-0.62 1.07,0.62 -1.07,0.62  z" class="primitive"/>
            </g>
            <g transform="translate(110.59,56.9)" id="img-71d231a8-38">
              <path d="M-1.07,-0.31 L1.07,-0.31 1.07,0.31 -1.07,0.31  z" class="primitive"/>
            </g>
            <g transform="translate(112.68,57.04)" id="img-71d231a8-39">
              <path d="M-1.07,-0.17 L1.07,-0.17 1.07,0.17 -1.07,0.17  z" class="primitive"/>
            </g>
            <g transform="translate(114.77,57.19)" id="img-71d231a8-40">
              <path d="M-1.07,-0.02 L1.07,-0.02 1.07,0.02 -1.07,0.02  z" class="primitive"/>
            </g>
            <g transform="translate(116.86,57.19)" id="img-71d231a8-41">
              <path d="M-1.07,-0.02 L1.07,-0.02 1.07,0.02 -1.07,0.02  z" class="primitive"/>
            </g>
          </g>
        </g>
      </g>
    </g>
  </g>
  <g class="guide ylabels" font-size="2.82" font-family="'PT Sans Caption','Helvetica Neue','Helvetica',sans-serif" fill="#6C606B" id="img-71d231a8-42">
    <g transform="translate(75.16,57.21)" id="img-71d231a8-43">
      <g class="primitive">
        <text text-anchor="end" dy="0.35em">0.00</text>
      </g>
    </g>
    <g transform="translate(75.16,46.05)" id="img-71d231a8-44">
      <g class="primitive">
        <text text-anchor="end" dy="0.35em">0.05</text>
      </g>
    </g>
    <g transform="translate(75.16,34.89)" id="img-71d231a8-45">
      <g class="primitive">
        <text text-anchor="end" dy="0.35em">0.10</text>
      </g>
    </g>
    <g transform="translate(75.16,23.73)" id="img-71d231a8-46">
      <g class="primitive">
        <text text-anchor="end" dy="0.35em">0.15</text>
      </g>
    </g>
    <g transform="translate(75.16,12.57)" id="img-71d231a8-47">
      <g class="primitive">
        <text text-anchor="end" dy="0.35em">0.20</text>
      </g>
    </g>
  </g>
  <g font-size="3.88" font-family="'PT Sans','Helvetica Neue','Helvetica',sans-serif" fill="#564A55" stroke="#000000" stroke-opacity="0.000" id="img-71d231a8-48">
    <g transform="translate(99.08,5)" id="img-71d231a8-49">
      <g class="primitive">
        <text text-anchor="middle" dy="0.6em">Distributions.jl</text>
      </g>
    </g>
  </g>
</g>
<g class="plotroot xscalable yscalable" id="img-71d231a8-50">
  <g font-size="3.88" font-family="'PT Sans','Helvetica Neue','Helvetica',sans-serif" fill="#564A55" stroke="#000000" stroke-opacity="0.000" id="img-71d231a8-51">
    <g transform="translate(35.58,66.26)" id="img-71d231a8-52">
      <g class="primitive">
        <text text-anchor="middle" dy="0.6em">x</text>
      </g>
    </g>
  </g>
  <g class="guide xlabels" font-size="2.82" font-family="'PT Sans Caption','Helvetica Neue','Helvetica',sans-serif" fill="#6C606B" id="img-71d231a8-53">
    <g transform="translate(14.66,60.21)" id="img-71d231a8-54">
      <g class="primitive">
        <text text-anchor="middle" dy="0.6em">0</text>
      </g>
    </g>
    <g transform="translate(25.12,60.21)" id="img-71d231a8-55">
      <g class="primitive">
        <text text-anchor="middle" dy="0.6em">5</text>
      </g>
    </g>
    <g transform="translate(35.58,60.21)" id="img-71d231a8-56">
      <g class="primitive">
        <text text-anchor="middle" dy="0.6em">10</text>
      </g>
    </g>
    <g transform="translate(46.04,60.21)" id="img-71d231a8-57">
      <g class="primitive">
        <text text-anchor="middle" dy="0.6em">15</text>
      </g>
    </g>
    <g transform="translate(56.5,60.21)" id="img-71d231a8-58">
      <g class="primitive">
        <text text-anchor="middle" dy="0.6em">20</text>
      </g>
    </g>
  </g>
  <g clip-path="url(#img-71d231a8-59)">
    <g id="img-71d231a8-60">
      <g pointer-events="visible" stroke-width="0.3" fill="#000000" fill-opacity="0.000" stroke="#000000" stroke-opacity="0.000" class="guide background" id="img-71d231a8-61">
        <g transform="translate(35.58,34.89)" id="img-71d231a8-62">
          <path d="M-22.92,-24.32 L22.92,-24.32 22.92,24.32 -22.92,24.32  z" class="primitive"/>
        </g>
      </g>
      <g class="guide ygridlines xfixed" stroke-dasharray="0.5,0.5" stroke-width="0.2" stroke="#D0D0E0" id="img-71d231a8-63">
        <g transform="translate(35.58,57.21)" id="img-71d231a8-64">
          <path fill="none" d="M-22.92,0 L22.92,0 " class="primitive"/>
        </g>
        <g transform="translate(35.58,46.05)" id="img-71d231a8-65">
          <path fill="none" d="M-22.92,0 L22.92,0 " class="primitive"/>
        </g>
        <g transform="translate(35.58,34.89)" id="img-71d231a8-66">
          <path fill="none" d="M-22.92,0 L22.92,0 " class="primitive"/>
        </g>
        <g transform="translate(35.58,23.73)" id="img-71d231a8-67">
          <path fill="none" d="M-22.92,0 L22.92,0 " class="primitive"/>
        </g>
        <g transform="translate(35.58,12.57)" id="img-71d231a8-68">
          <path fill="none" d="M-22.92,0 L22.92,0 " class="primitive"/>
        </g>
      </g>
      <g class="guide xgridlines yfixed" stroke-dasharray="0.5,0.5" stroke-width="0.2" stroke="#D0D0E0" id="img-71d231a8-69">
        <g transform="translate(14.66,34.89)" id="img-71d231a8-70">
          <path fill="none" d="M0,-24.32 L0,24.32 " class="primitive"/>
        </g>
        <g transform="translate(25.12,34.89)" id="img-71d231a8-71">
          <path fill="none" d="M0,-24.32 L0,24.32 " class="primitive"/>
        </g>
        <g transform="translate(35.58,34.89)" id="img-71d231a8-72">
          <path fill="none" d="M0,-24.32 L0,24.32 " class="primitive"/>
        </g>
        <g transform="translate(46.04,34.89)" id="img-71d231a8-73">
          <path fill="none" d="M0,-24.32 L0,24.32 " class="primitive"/>
        </g>
        <g transform="translate(56.5,34.89)" id="img-71d231a8-74">
          <path fill="none" d="M0,-24.32 L0,24.32 " class="primitive"/>
        </g>
      </g>
      <g class="plotpanel" id="img-71d231a8-75">
        <metadata>
          <boundingbox value="12.664081488715276mm 10.570152452256941mm 45.835918511284724mm 48.640771484374994mm"/>
          <unitbox value="-0.9561162136122455 0.2089604186195574 21.91223242722449 -0.2179208372391148"/>
        </metadata>
        <g shape-rendering="crispEdges" stroke-width="0.3" id="img-71d231a8-76">
          <g class="geometry" fill-opacity="1" stroke="#000000" stroke-opacity="0.000" fill="#00BFFF" id="img-71d231a8-77">
            <g transform="translate(15.71,57.1)" id="img-71d231a8-78">
              <path d="M-1.07,-0.11 L1.07,-0.11 1.07,0.11 -1.07,0.11  z" class="primitive"/>
            </g>
            <g transform="translate(17.8,56.51)" id="img-71d231a8-79">
              <path d="M-1.07,-0.7 L1.07,-0.7 1.07,0.7 -1.07,0.7  z" class="primitive"/>
            </g>
            <g transform="translate(19.89,54.73)" id="img-71d231a8-80">
              <path d="M-1.07,-2.48 L1.07,-2.48 1.07,2.48 -1.07,2.48  z" class="primitive"/>
            </g>
            <g transform="translate(21.99,51.32)" id="img-71d231a8-81">
              <path d="M-1.07,-5.89 L1.07,-5.89 1.07,5.89 -1.07,5.89  z" class="primitive"/>
            </g>
            <g transform="translate(24.08,47.32)" id="img-71d231a8-82">
              <path d="M-1.07,-9.89 L1.07,-9.89 1.07,9.89 -1.07,9.89  z" class="primitive"/>
            </g>
            <g transform="translate(26.17,43)" id="img-71d231a8-83">
              <path d="M-1.07,-14.21 L1.07,-14.21 1.07,14.21 -1.07,14.21  z" class="primitive"/>
            </g>
            <g transform="translate(28.26,40.75)" id="img-71d231a8-84">
              <path d="M-1.07,-16.46 L1.07,-16.46 1.07,16.46 -1.07,16.46  z" class="primitive"/>
            </g>
            <g transform="translate(30.35,40.11)" id="img-71d231a8-85">
              <path d="M-1.07,-17.1 L1.07,-17.1 1.07,17.1 -1.07,17.1  z" class="primitive"/>
            </g>
            <g transform="translate(32.44,42.31)" id="img-71d231a8-86">
              <path d="M-1.07,-14.9 L1.07,-14.9 1.07,14.9 -1.07,14.9  z" class="primitive"/>
            </g>
            <g transform="translate(34.54,45.52)" id="img-71d231a8-87">
              <path d="M-1.07,-11.7 L1.07,-11.7 1.07,11.7 -1.07,11.7  z" class="primitive"/>
            </g>
            <g transform="translate(36.63,49.53)" id="img-71d231a8-88">
              <path d="M-1.07,-7.68 L1.07,-7.68 1.07,7.68 -1.07,7.68  z" class="primitive"/>
            </g>
            <g transform="translate(38.72,52.49)" id="img-71d231a8-89">
              <path d="M-1.07,-4.72 L1.07,-4.72 1.07,4.72 -1.07,4.72  z" class="primitive"/>
            </g>
            <g transform="translate(40.81,54.3)" id="img-71d231a8-90">
              <path d="M-1.07,-2.91 L1.07,-2.91 1.07,2.91 -1.07,2.91  z" class="primitive"/>
            </g>
            <g transform="translate(42.9,55.68)" id="img-71d231a8-91">
              <path d="M-1.07,-1.53 L1.07,-1.53 1.07,1.53 -1.07,1.53  z" class="primitive"/>
            </g>
            <g transform="translate(45,56.47)" id="img-71d231a8-92">
              <path d="M-1.07,-0.74 L1.07,-0.74 1.07,0.74 -1.07,0.74  z" class="primitive"/>
            </g>
            <g transform="translate(47.09,56.9)" id="img-71d231a8-93">
              <path d="M-1.07,-0.31 L1.07,-0.31 1.07,0.31 -1.07,0.31  z" class="primitive"/>
            </g>
            <g transform="translate(49.18,57.01)" id="img-71d231a8-94">
              <path d="M-1.07,-0.2 L1.07,-0.2 1.07,0.2 -1.07,0.2  z" class="primitive"/>
            </g>
            <g transform="translate(51.27,57.19)" id="img-71d231a8-95">
              <path d="M-1.07,-0.02 L1.07,-0.02 1.07,0.02 -1.07,0.02  z" class="primitive"/>
            </g>
            <g transform="translate(53.36,57.17)" id="img-71d231a8-96">
              <path d="M-1.07,-0.04 L1.07,-0.04 1.07,0.04 -1.07,0.04  z" class="primitive"/>
            </g>
            <g transform="translate(55.45,57.22)" id="img-71d231a8-97">
              <path d="M-1.07,-0 L1.07,-0 1.07,0 -1.07,0  z" class="primitive"/>
            </g>
            <g transform="translate(57.55,57.22)" id="img-71d231a8-98">
              <path d="M-1.07,-0 L1.07,-0 1.07,0 -1.07,0  z" class="primitive"/>
            </g>
            <g transform="translate(59.64,57.2)" id="img-71d231a8-99">
              <path d="M-1.07,-0.01 L1.07,-0.01 1.07,0.01 -1.07,0.01  z" class="primitive"/>
            </g>
          </g>
        </g>
      </g>
    </g>
  </g>
  <g class="guide ylabels" font-size="2.82" font-family="'PT Sans Caption','Helvetica Neue','Helvetica',sans-serif" fill="#6C606B" id="img-71d231a8-100">
    <g transform="translate(11.66,57.21)" id="img-71d231a8-101">
      <g class="primitive">
        <text text-anchor="end" dy="0.35em">0.00</text>
      </g>
    </g>
    <g transform="translate(11.66,46.05)" id="img-71d231a8-102">
      <g class="primitive">
        <text text-anchor="end" dy="0.35em">0.05</text>
      </g>
    </g>
    <g transform="translate(11.66,34.89)" id="img-71d231a8-103">
      <g class="primitive">
        <text text-anchor="end" dy="0.35em">0.10</text>
      </g>
    </g>
    <g transform="translate(11.66,23.73)" id="img-71d231a8-104">
      <g class="primitive">
        <text text-anchor="end" dy="0.35em">0.15</text>
      </g>
    </g>
    <g transform="translate(11.66,12.57)" id="img-71d231a8-105">
      <g class="primitive">
        <text text-anchor="end" dy="0.35em">0.20</text>
      </g>
    </g>
  </g>
  <g font-size="3.88" font-family="'PT Sans','Helvetica Neue','Helvetica',sans-serif" fill="#564A55" stroke="#000000" stroke-opacity="0.000" id="img-71d231a8-106">
    <g transform="translate(35.58,5)" id="img-71d231a8-107">
      <g class="primitive">
        <text text-anchor="middle" dy="0.6em">RandomVariates.jl</text>
      </g>
    </g>
  </g>
</g>
<defs>
  <clipPath id="img-71d231a8-4">
    <path d="M76.16,10.57 L122,10.57 122,59.21 76.16,59.21 " />
  </clipPath>
  <clipPath id="img-71d231a8-59">
    <path d="M12.66,10.57 L58.5,10.57 58.5,59.21 12.66,59.21 " />
  </clipPath>
</defs>
</svg>
