<?xml version="1.0" encoding="UTF-8"?>
<svg xmlns="http://www.w3.org/2000/svg"
     xmlns:xlink="http://www.w3.org/1999/xlink"
     xmlns:gadfly="http://www.gadflyjl.org/ns"
     version="1.2"
     width="101.6mm" height="101.6mm" viewBox="0 0 101.6 101.6"
     stroke="none"
     fill="#000000"
     stroke-width="0.3"
     font-size="3.88"
>
<defs>
  <marker id="arrow" markerWidth="15" markerHeight="7" refX="5" refY="3.5" orient="auto" markerUnits="strokeWidth">
    <path d="M0,0 L15,3.5 L0,7 z" stroke="context-stroke" fill="context-stroke"/>
  </marker>
</defs>
<g class="plotroot xscalable yscalable" id="img-c409513f-1">
  <g font-size="3.88" font-family="'PT Sans','Helvetica Neue','Helvetica',sans-serif" fill="#564A55" stroke="#000000" stroke-opacity="0.000" id="img-c409513f-2">
    <g transform="translate(52.59,91.66)">
      <g class="primitive">
        <text text-anchor="middle" dy="0.6em">x</text>
      </g>
    </g>
  </g>
  <g class="guide xlabels" font-size="2.82" font-family="'PT Sans Caption','Helvetica Neue','Helvetica',sans-serif" fill="#6C606B" id="img-c409513f-3">
    <g transform="translate(10.57,85.61)">
      <g class="primitive">
        <text text-anchor="middle" dy="0.6em">-0.5</text>
      </g>
    </g>
    <g transform="translate(38.58,85.61)">
      <g class="primitive">
        <text text-anchor="middle" dy="0.6em">0.0</text>
      </g>
    </g>
    <g transform="translate(66.59,85.61)">
      <g class="primitive">
        <text text-anchor="middle" dy="0.6em">0.5</text>
      </g>
    </g>
    <g transform="translate(94.6,85.61)">
      <g class="primitive">
        <text text-anchor="middle" dy="0.6em">1.0</text>
      </g>
    </g>
  </g>
  <g clip-path="url(#img-c409513f-4)">
    <g id="img-c409513f-5">
      <g pointer-events="visible" stroke-width="0.3" fill="#000000" fill-opacity="0.000" stroke="#000000" stroke-opacity="0.000" class="guide background" id="img-c409513f-6">
        <g transform="translate(52.59,47.61)" id="img-c409513f-7">
          <path d="M-44.01,-37 L44.01,-37 44.01,37 -44.01,37  z" class="primitive"/>
        </g>
      </g>
      <g class="guide ygridlines xfixed" stroke-dasharray="0.5,0.5" stroke-width="0.2" stroke="#D0D0E0" id="img-c409513f-8">
        <g transform="translate(52.59,82.61)" id="img-c409513f-9">
          <path fill="none" d="M-44.01,0 L44.01,0 " class="primitive"/>
        </g>
        <g transform="translate(52.59,68.61)" id="img-c409513f-10">
          <path fill="none" d="M-44.01,0 L44.01,0 " class="primitive"/>
        </g>
        <g transform="translate(52.59,54.61)" id="img-c409513f-11">
          <path fill="none" d="M-44.01,0 L44.01,0 " class="primitive"/>
        </g>
        <g transform="translate(52.59,40.61)" id="img-c409513f-12">
          <path fill="none" d="M-44.01,0 L44.01,0 " class="primitive"/>
        </g>
        <g transform="translate(52.59,26.62)" id="img-c409513f-13">
          <path fill="none" d="M-44.01,0 L44.01,0 " class="primitive"/>
        </g>
        <g transform="translate(52.59,12.62)" id="img-c409513f-14">
          <path fill="none" d="M-44.01,0 L44.01,0 " class="primitive"/>
        </g>
      </g>
      <g class="guide xgridlines yfixed" stroke-dasharray="0.5,0.5" stroke-width="0.2" stroke="#D0D0E0" id="img-c409513f-15">
        <g transform="translate(10.57,47.61)" id="img-c409513f-16">
          <path fill="none" d="M0,-37 L0,37 " class="primitive"/>
        </g>
        <g transform="translate(38.58,47.61)" id="img-c409513f-17">
          <path fill="none" d="M0,-37 L0,37 " class="primitive"/>
        </g>
        <g transform="translate(66.59,47.61)" id="img-c409513f-18">
          <path fill="none" d="M0,-37 L0,37 " class="primitive"/>
        </g>
        <g transform="translate(94.6,47.61)" id="img-c409513f-19">
          <path fill="none" d="M0,-37 L0,37 " class="primitive"/>
        </g>
      </g>
      <g class="plotpanel" id="img-c409513f-20">
        <metadata>
          <boundingbox value="8.571997070312506mm 10.616661241319449mm 88.02800292968749mm 73.99391818576387mm"/>
          <unitbox value="-0.5357023836745273 5.142869555801405 1.5714047673490543 -5.285739111602811"/>
        </metadata>
        <g class="geometry" stroke-width="0.3" stroke-dasharray="none" fill-opacity="1" stroke="#FFFFFF" fill="#B9EAFF" id="img-c409513f-21">
          <g transform="translate(62.45,67.38)" id="img-c409513f-22">
            <path d="M-25.64,15.23 L-25.44,15.23 -25.24,15.22 -25.04,15.19 -24.83,15.08 -24.63,14.79 -24.43,14.17 -24.23,13.04 -24.03,11.32 -23.83,9.08 -23.63,6.53 -23.43,3.92 -23.23,1.41 -23.03,-0.93 -22.82,-3.15 -22.62,-5.31 -22.42,-7.46 -22.22,-9.61 -22.02,-11.73 -21.82,-13.76 -21.62,-15.66 -21.42,-17.46 -21.22,-19.24 -21.01,-21.08 -20.81,-22.98 -20.61,-24.91 -20.41,-26.77 -20.21,-28.45 -20.01,-29.93 -19.81,-31.25 -19.61,-32.47 -19.41,-33.65 -19.2,-34.77 -19,-35.82 -18.8,-36.8 -18.6,-37.73 -18.4,-38.65 -18.2,-39.57 -18,-40.49 -17.8,-41.41 -17.6,-42.29 -17.39,-43.16 -17.19,-44 -16.99,-44.79 -16.79,-45.48 -16.59,-46.02 -16.39,-46.42 -16.19,-46.74 -15.99,-47.06 -15.79,-47.42 -15.58,-47.85 -15.38,-48.27 -15.18,-48.59 -14.98,-48.7 -14.78,-48.59 -14.58,-48.31 -14.38,-47.97 -14.18,-47.64 -13.98,-47.31 -13.77,-46.92 -13.57,-46.36 -13.37,-45.57 -13.17,-44.53 -12.97,-43.28 -12.77,-41.82 -12.57,-40.15 -12.37,-38.25 -12.17,-36.21 -11.96,-34.18 -11.76,-32.31 -11.56,-30.63 -11.36,-29.11 -11.16,-27.68 -10.96,-26.29 -10.76,-24.91 -10.56,-23.48 -10.36,-21.94 -10.16,-20.27 -9.95,-18.52 -9.75,-16.81 -9.55,-15.2 -9.35,-13.71 -9.15,-12.34 -8.95,-11.09 -8.75,-9.99 -8.55,-9.01 -8.35,-8.09 -8.14,-7.13 -7.94,-6.08 -7.74,-4.94 -7.54,-3.78 -7.34,-2.72 -7.14,-1.81 -6.94,-1.02 -6.74,-0.27 -6.54,0.5 -6.33,1.31 -6.13,2.17 -5.93,3.02 -5.73,3.83 -5.53,4.59 -5.33,5.26 -5.13,5.83 -4.93,6.3 -4.73,6.7 -4.52,7.08 -4.32,7.47 -4.12,7.85 -3.92,8.2 -3.72,8.52 -3.52,8.82 -3.32,9.13 -3.12,9.47 -2.92,9.82 -2.71,10.18 -2.51,10.53 -2.31,10.85 -2.11,11.15 -1.91,11.42 -1.71,11.62 -1.51,11.78 -1.31,11.91 -1.11,12.03 -0.9,12.19 -0.7,12.38 -0.5,12.6 -0.3,12.81 -0.1,12.98 0.1,13.1 0.3,13.18 0.5,13.25 0.7,13.31 0.9,13.38 1.11,13.46 1.31,13.55 1.51,13.65 1.71,13.77 1.91,13.91 2.11,14.06 2.31,14.19 2.51,14.28 2.71,14.33 2.92,14.36 3.12,14.38 3.32,14.4 3.52,14.43 3.72,14.47 3.92,14.51 4.12,14.55 4.32,14.58 4.52,14.61 4.73,14.65 4.93,14.69 5.13,14.75 5.33,14.81 5.53,14.85 5.73,14.88 5.93,14.9 6.13,14.91 6.33,14.93 6.54,14.94 6.74,14.96 6.94,14.98 7.14,15 7.34,15.02 7.54,15.04 7.74,15.04 7.94,15.05 8.14,15.06 8.35,15.07 8.55,15.09 8.75,15.1 8.95,15.1 9.15,15.11 9.35,15.1 9.55,15.11 9.75,15.12 9.95,15.14 10.16,15.16 10.36,15.18 10.56,15.19 10.76,15.2 10.96,15.2 11.16,15.19 11.36,15.19 11.56,15.2 11.76,15.2 11.96,15.21 12.17,15.21 12.37,15.22 12.57,15.22 12.77,15.21 12.97,15.21 13.17,15.21 13.37,15.21 13.57,15.21 13.77,15.21 13.98,15.22 14.18,15.22 14.38,15.22 14.58,15.23 14.78,15.23 14.98,15.23 15.18,15.23 15.38,15.23 15.58,15.23 15.79,15.23 15.99,15.23 16.19,15.23 16.39,15.23 16.59,15.23 16.79,15.23 16.99,15.23 17.19,15.23 17.39,15.23 17.6,15.23 17.8,15.23 18,15.23 18.2,15.23 18.4,15.23 18.6,15.23 18.8,15.23 19,15.23 19.2,15.23 19.41,15.23 19.61,15.23 19.81,15.23 20.01,15.23 20.21,15.23 20.41,15.23 20.61,15.23 20.81,15.23 21.01,15.23 21.22,15.23 21.42,15.23 21.62,15.23 21.82,15.23 22.02,15.23 22.22,15.23 22.42,15.23 22.62,15.23 22.82,15.23 23.03,15.23 23.23,15.23 23.43,15.23 23.63,15.23 23.83,15.23 24.03,15.23 24.23,15.23 24.43,15.23 24.63,15.23 24.83,15.23 25.04,15.23 25.24,15.23 25.44,15.23 25.64,15.23  z" class="primitive"/>
          </g>
        </g>
      </g>
    </g>
  </g>
  <g class="guide ylabels" font-size="2.82" font-family="'PT Sans Caption','Helvetica Neue','Helvetica',sans-serif" fill="#6C606B" id="img-c409513f-23">
    <g transform="translate(7.57,82.61)" id="img-c409513f-24">
      <g class="primitive">
        <text text-anchor="end" dy="0.35em">0</text>
      </g>
    </g>
    <g transform="translate(7.57,68.61)" id="img-c409513f-25">
      <g class="primitive">
        <text text-anchor="end" dy="0.35em">1</text>
      </g>
    </g>
    <g transform="translate(7.57,54.61)" id="img-c409513f-26">
      <g class="primitive">
        <text text-anchor="end" dy="0.35em">2</text>
      </g>
    </g>
    <g transform="translate(7.57,40.61)" id="img-c409513f-27">
      <g class="primitive">
        <text text-anchor="end" dy="0.35em">3</text>
      </g>
    </g>
    <g transform="translate(7.57,26.62)" id="img-c409513f-28">
      <g class="primitive">
        <text text-anchor="end" dy="0.35em">4</text>
      </g>
    </g>
    <g transform="translate(7.57,12.62)" id="img-c409513f-29">
      <g class="primitive">
        <text text-anchor="end" dy="0.35em">5</text>
      </g>
    </g>
  </g>
  <g font-size="3.88" font-family="'PT Sans','Helvetica Neue','Helvetica',sans-serif" fill="#564A55" stroke="#000000" stroke-opacity="0.000" id="img-c409513f-30">
    <g transform="translate(52.59,5)" id="img-c409513f-31">
      <g class="primitive">
        <text text-anchor="middle" dy="0.6em">Beta(2,8)</text>
      </g>
    </g>
  </g>
</g>
<defs>
  <clipPath id="img-c409513f-4">
    <path d="M8.57,10.62 L96.6,10.62 96.6,84.61 8.57,84.61 " />
  </clipPath>
</defs>
</svg>
