<?xml version="1.0" encoding="UTF-8"?>
<svg xmlns="http://www.w3.org/2000/svg"
     xmlns:xlink="http://www.w3.org/1999/xlink"
     xmlns:gadfly="http://www.gadflyjl.org/ns"
     version="1.2"
     width="101.6mm" height="101.6mm" viewBox="0 0 101.6 101.6"
     stroke="none"
     fill="#000000"
     stroke-width="0.3"
     font-size="3.88"
>
<defs>
  <marker id="arrow" markerWidth="15" markerHeight="7" refX="5" refY="3.5" orient="auto" markerUnits="strokeWidth">
    <path d="M0,0 L15,3.5 L0,7 z" stroke="context-stroke" fill="context-stroke"/>
  </marker>
</defs>
<g class="plotroot xscalable yscalable" id="img-0822eafa-1">
  <g font-size="3.88" font-family="'PT Sans','Helvetica Neue','Helvetica',sans-serif" fill="#564A55" stroke="#000000" stroke-opacity="0.000" id="img-0822eafa-2">
    <g transform="translate(52.59,91.66)">
      <g class="primitive">
        <text text-anchor="middle" dy="0.6em">x</text>
      </g>
    </g>
  </g>
  <g class="guide xlabels" font-size="2.82" font-family="'PT Sans Caption','Helvetica Neue','Helvetica',sans-serif" fill="#6C606B" id="img-0822eafa-3">
    <g transform="translate(10.57,85.61)">
      <g class="primitive">
        <text text-anchor="middle" dy="0.6em">0.0</text>
      </g>
    </g>
    <g transform="translate(52.59,85.61)">
      <g class="primitive">
        <text text-anchor="middle" dy="0.6em">0.5</text>
      </g>
    </g>
    <g transform="translate(94.6,85.61)">
      <g class="primitive">
        <text text-anchor="middle" dy="0.6em">1.0</text>
      </g>
    </g>
  </g>
  <g clip-path="url(#img-0822eafa-4)">
    <g id="img-0822eafa-5">
      <g pointer-events="visible" stroke-width="0.3" fill="#000000" fill-opacity="0.000" stroke="#000000" stroke-opacity="0.000" class="guide background" id="img-0822eafa-6">
        <g transform="translate(52.59,47.61)" id="img-0822eafa-7">
          <path d="M-44.01,-37 L44.01,-37 44.01,37 -44.01,37  z" class="primitive"/>
        </g>
      </g>
      <g class="guide ygridlines xfixed" stroke-dasharray="0.5,0.5" stroke-width="0.2" stroke="#D0D0E0" id="img-0822eafa-8">
        <g transform="translate(52.59,82.61)" id="img-0822eafa-9">
          <path fill="none" d="M-44.01,0 L44.01,0 " class="primitive"/>
        </g>
        <g transform="translate(52.59,68.61)" id="img-0822eafa-10">
          <path fill="none" d="M-44.01,0 L44.01,0 " class="primitive"/>
        </g>
        <g transform="translate(52.59,54.61)" id="img-0822eafa-11">
          <path fill="none" d="M-44.01,0 L44.01,0 " class="primitive"/>
        </g>
        <g transform="translate(52.59,40.61)" id="img-0822eafa-12">
          <path fill="none" d="M-44.01,0 L44.01,0 " class="primitive"/>
        </g>
        <g transform="translate(52.59,26.62)" id="img-0822eafa-13">
          <path fill="none" d="M-44.01,0 L44.01,0 " class="primitive"/>
        </g>
        <g transform="translate(52.59,12.62)" id="img-0822eafa-14">
          <path fill="none" d="M-44.01,0 L44.01,0 " class="primitive"/>
        </g>
      </g>
      <g class="guide xgridlines yfixed" stroke-dasharray="0.5,0.5" stroke-width="0.2" stroke="#D0D0E0" id="img-0822eafa-15">
        <g transform="translate(10.57,47.61)" id="img-0822eafa-16">
          <path fill="none" d="M0,-37 L0,37 " class="primitive"/>
        </g>
        <g transform="translate(52.59,47.61)" id="img-0822eafa-17">
          <path fill="none" d="M0,-37 L0,37 " class="primitive"/>
        </g>
        <g transform="translate(94.6,47.61)" id="img-0822eafa-18">
          <path fill="none" d="M0,-37 L0,37 " class="primitive"/>
        </g>
      </g>
      <g class="plotpanel" id="img-0822eafa-19">
        <metadata>
          <boundingbox value="8.571997070312506mm 10.616661241319449mm 88.02800292968749mm 73.99391818576387mm"/>
          <unitbox value="-0.02380158911635148 5.142869555801405 1.0476031782327029 -5.285739111602811"/>
        </metadata>
        <g shape-rendering="crispEdges" stroke-width="0.3" id="img-0822eafa-20">
          <g class="geometry" fill-opacity="1" stroke="#000000" stroke-opacity="0.000" fill="#00BFFF" id="img-0822eafa-21">
            <g transform="translate(10.85,51.23)" id="img-0822eafa-22">
              <path d="M-0.31,-31.38 L0.31,-31.38 0.31,31.38 -0.31,31.38  z" class="primitive"/>
            </g>
            <g transform="translate(11.41,66.01)" id="img-0822eafa-23">
              <path d="M-0.31,-16.6 L0.31,-16.6 0.31,16.6 -0.31,16.6  z" class="primitive"/>
            </g>
            <g transform="translate(11.97,68.32)" id="img-0822eafa-24">
              <path d="M-0.31,-14.29 L0.31,-14.29 0.31,14.29 -0.31,14.29  z" class="primitive"/>
            </g>
            <g transform="translate(12.53,69.08)" id="img-0822eafa-25">
              <path d="M-0.31,-13.53 L0.31,-13.53 0.31,13.53 -0.31,13.53  z" class="primitive"/>
            </g>
            <g transform="translate(13.09,69.07)" id="img-0822eafa-26">
              <path d="M-0.31,-13.54 L0.31,-13.54 0.31,13.54 -0.31,13.54  z" class="primitive"/>
            </g>
            <g transform="translate(13.65,70.16)" id="img-0822eafa-27">
              <path d="M-0.31,-12.45 L0.31,-12.45 0.31,12.45 -0.31,12.45  z" class="primitive"/>
            </g>
            <g transform="translate(14.21,69.9)" id="img-0822eafa-28">
              <path d="M-0.31,-12.71 L0.31,-12.71 0.31,12.71 -0.31,12.71  z" class="primitive"/>
            </g>
            <g transform="translate(14.77,70.83)" id="img-0822eafa-29">
              <path d="M-0.31,-11.78 L0.31,-11.78 0.31,11.78 -0.31,11.78  z" class="primitive"/>
            </g>
            <g transform="translate(15.33,69.76)" id="img-0822eafa-30">
              <path d="M-0.31,-12.85 L0.31,-12.85 0.31,12.85 -0.31,12.85  z" class="primitive"/>
            </g>
            <g transform="translate(15.89,69.79)" id="img-0822eafa-31">
              <path d="M-0.31,-12.82 L0.31,-12.82 0.31,12.82 -0.31,12.82  z" class="primitive"/>
            </g>
            <g transform="translate(16.45,70.53)" id="img-0822eafa-32">
              <path d="M-0.31,-12.08 L0.31,-12.08 0.31,12.08 -0.31,12.08  z" class="primitive"/>
            </g>
            <g transform="translate(17.01,70.01)" id="img-0822eafa-33">
              <path d="M-0.31,-12.6 L0.31,-12.6 0.31,12.6 -0.31,12.6  z" class="primitive"/>
            </g>
            <g transform="translate(17.57,70.46)" id="img-0822eafa-34">
              <path d="M-0.31,-12.15 L0.31,-12.15 0.31,12.15 -0.31,12.15  z" class="primitive"/>
            </g>
            <g transform="translate(18.13,70.25)" id="img-0822eafa-35">
              <path d="M-0.31,-12.36 L0.31,-12.36 0.31,12.36 -0.31,12.36  z" class="primitive"/>
            </g>
            <g transform="translate(18.69,70.45)" id="img-0822eafa-36">
              <path d="M-0.31,-12.16 L0.31,-12.16 0.31,12.16 -0.31,12.16  z" class="primitive"/>
            </g>
            <g transform="translate(19.25,70.27)" id="img-0822eafa-37">
              <path d="M-0.31,-12.34 L0.31,-12.34 0.31,12.34 -0.31,12.34  z" class="primitive"/>
            </g>
            <g transform="translate(19.82,70.65)" id="img-0822eafa-38">
              <path d="M-0.31,-11.96 L0.31,-11.96 0.31,11.96 -0.31,11.96  z" class="primitive"/>
            </g>
            <g transform="translate(20.38,70.81)" id="img-0822eafa-39">
              <path d="M-0.31,-11.8 L0.31,-11.8 0.31,11.8 -0.31,11.8  z" class="primitive"/>
            </g>
            <g transform="translate(20.94,71.01)" id="img-0822eafa-40">
              <path d="M-0.31,-11.6 L0.31,-11.6 0.31,11.6 -0.31,11.6  z" class="primitive"/>
            </g>
            <g transform="translate(21.5,70.59)" id="img-0822eafa-41">
              <path d="M-0.31,-12.02 L0.31,-12.02 0.31,12.02 -0.31,12.02  z" class="primitive"/>
            </g>
            <g transform="translate(22.06,70.44)" id="img-0822eafa-42">
              <path d="M-0.31,-12.17 L0.31,-12.17 0.31,12.17 -0.31,12.17  z" class="primitive"/>
            </g>
            <g transform="translate(22.62,70.28)" id="img-0822eafa-43">
              <path d="M-0.31,-12.33 L0.31,-12.33 0.31,12.33 -0.31,12.33  z" class="primitive"/>
            </g>
            <g transform="translate(23.18,70.56)" id="img-0822eafa-44">
              <path d="M-0.31,-12.05 L0.31,-12.05 0.31,12.05 -0.31,12.05  z" class="primitive"/>
            </g>
            <g transform="translate(23.74,70.4)" id="img-0822eafa-45">
              <path d="M-0.31,-12.21 L0.31,-12.21 0.31,12.21 -0.31,12.21  z" class="primitive"/>
            </g>
            <g transform="translate(24.3,70.34)" id="img-0822eafa-46">
              <path d="M-0.31,-12.27 L0.31,-12.27 0.31,12.27 -0.31,12.27  z" class="primitive"/>
            </g>
            <g transform="translate(24.86,70.28)" id="img-0822eafa-47">
              <path d="M-0.31,-12.33 L0.31,-12.33 0.31,12.33 -0.31,12.33  z" class="primitive"/>
            </g>
            <g transform="translate(25.42,70.51)" id="img-0822eafa-48">
              <path d="M-0.31,-12.11 L0.31,-12.11 0.31,12.11 -0.31,12.11  z" class="primitive"/>
            </g>
            <g transform="translate(25.98,70.42)" id="img-0822eafa-49">
              <path d="M-0.31,-12.19 L0.31,-12.19 0.31,12.19 -0.31,12.19  z" class="primitive"/>
            </g>
            <g transform="translate(26.54,70.51)" id="img-0822eafa-50">
              <path d="M-0.31,-12.11 L0.31,-12.11 0.31,12.11 -0.31,12.11  z" class="primitive"/>
            </g>
            <g transform="translate(27.1,69.99)" id="img-0822eafa-51">
              <path d="M-0.31,-12.62 L0.31,-12.62 0.31,12.62 -0.31,12.62  z" class="primitive"/>
            </g>
            <g transform="translate(27.66,70.34)" id="img-0822eafa-52">
              <path d="M-0.31,-12.27 L0.31,-12.27 0.31,12.27 -0.31,12.27  z" class="primitive"/>
            </g>
            <g transform="translate(28.22,70.57)" id="img-0822eafa-53">
              <path d="M-0.31,-12.04 L0.31,-12.04 0.31,12.04 -0.31,12.04  z" class="primitive"/>
            </g>
            <g transform="translate(28.78,70.52)" id="img-0822eafa-54">
              <path d="M-0.31,-12.09 L0.31,-12.09 0.31,12.09 -0.31,12.09  z" class="primitive"/>
            </g>
            <g transform="translate(29.34,70.32)" id="img-0822eafa-55">
              <path d="M-0.31,-12.29 L0.31,-12.29 0.31,12.29 -0.31,12.29  z" class="primitive"/>
            </g>
            <g transform="translate(29.9,70.99)" id="img-0822eafa-56">
              <path d="M-0.31,-11.62 L0.31,-11.62 0.31,11.62 -0.31,11.62  z" class="primitive"/>
            </g>
            <g transform="translate(30.46,70.42)" id="img-0822eafa-57">
              <path d="M-0.31,-12.19 L0.31,-12.19 0.31,12.19 -0.31,12.19  z" class="primitive"/>
            </g>
            <g transform="translate(31.02,70.95)" id="img-0822eafa-58">
              <path d="M-0.31,-11.66 L0.31,-11.66 0.31,11.66 -0.31,11.66  z" class="primitive"/>
            </g>
            <g transform="translate(31.58,70.39)" id="img-0822eafa-59">
              <path d="M-0.31,-12.22 L0.31,-12.22 0.31,12.22 -0.31,12.22  z" class="primitive"/>
            </g>
            <g transform="translate(32.14,71.72)" id="img-0822eafa-60">
              <path d="M-0.31,-10.89 L0.31,-10.89 0.31,10.89 -0.31,10.89  z" class="primitive"/>
            </g>
            <g transform="translate(32.7,70.84)" id="img-0822eafa-61">
              <path d="M-0.31,-11.77 L0.31,-11.77 0.31,11.77 -0.31,11.77  z" class="primitive"/>
            </g>
            <g transform="translate(33.26,71.37)" id="img-0822eafa-62">
              <path d="M-0.31,-11.24 L0.31,-11.24 0.31,11.24 -0.31,11.24  z" class="primitive"/>
            </g>
            <g transform="translate(33.82,70.54)" id="img-0822eafa-63">
              <path d="M-0.31,-12.07 L0.31,-12.07 0.31,12.07 -0.31,12.07  z" class="primitive"/>
            </g>
            <g transform="translate(34.38,71.22)" id="img-0822eafa-64">
              <path d="M-0.31,-11.39 L0.31,-11.39 0.31,11.39 -0.31,11.39  z" class="primitive"/>
            </g>
            <g transform="translate(34.94,70.6)" id="img-0822eafa-65">
              <path d="M-0.31,-12.01 L0.31,-12.01 0.31,12.01 -0.31,12.01  z" class="primitive"/>
            </g>
            <g transform="translate(35.5,71.33)" id="img-0822eafa-66">
              <path d="M-0.31,-11.28 L0.31,-11.28 0.31,11.28 -0.31,11.28  z" class="primitive"/>
            </g>
            <g transform="translate(36.06,71.44)" id="img-0822eafa-67">
              <path d="M-0.31,-11.17 L0.31,-11.17 0.31,11.17 -0.31,11.17  z" class="primitive"/>
            </g>
            <g transform="translate(36.62,70.98)" id="img-0822eafa-68">
              <path d="M-0.31,-11.63 L0.31,-11.63 0.31,11.63 -0.31,11.63  z" class="primitive"/>
            </g>
            <g transform="translate(37.18,71.65)" id="img-0822eafa-69">
              <path d="M-0.31,-10.96 L0.31,-10.96 0.31,10.96 -0.31,10.96  z" class="primitive"/>
            </g>
            <g transform="translate(37.74,72.13)" id="img-0822eafa-70">
              <path d="M-0.31,-10.48 L0.31,-10.48 0.31,10.48 -0.31,10.48  z" class="primitive"/>
            </g>
            <g transform="translate(38.3,72)" id="img-0822eafa-71">
              <path d="M-0.31,-10.61 L0.31,-10.61 0.31,10.61 -0.31,10.61  z" class="primitive"/>
            </g>
            <g transform="translate(38.86,72.58)" id="img-0822eafa-72">
              <path d="M-0.31,-10.03 L0.31,-10.03 0.31,10.03 -0.31,10.03  z" class="primitive"/>
            </g>
            <g transform="translate(39.42,72.77)" id="img-0822eafa-73">
              <path d="M-0.31,-9.84 L0.31,-9.84 0.31,9.84 -0.31,9.84  z" class="primitive"/>
            </g>
            <g transform="translate(39.98,72.91)" id="img-0822eafa-74">
              <path d="M-0.31,-9.7 L0.31,-9.7 0.31,9.7 -0.31,9.7  z" class="primitive"/>
            </g>
            <g transform="translate(40.54,72.32)" id="img-0822eafa-75">
              <path d="M-0.31,-10.29 L0.31,-10.29 0.31,10.29 -0.31,10.29  z" class="primitive"/>
            </g>
            <g transform="translate(41.1,73.23)" id="img-0822eafa-76">
              <path d="M-0.31,-9.38 L0.31,-9.38 0.31,9.38 -0.31,9.38  z" class="primitive"/>
            </g>
            <g transform="translate(41.66,73.02)" id="img-0822eafa-77">
              <path d="M-0.31,-9.59 L0.31,-9.59 0.31,9.59 -0.31,9.59  z" class="primitive"/>
            </g>
            <g transform="translate(42.22,72.59)" id="img-0822eafa-78">
              <path d="M-0.31,-10.02 L0.31,-10.02 0.31,10.02 -0.31,10.02  z" class="primitive"/>
            </g>
            <g transform="translate(42.78,73.4)" id="img-0822eafa-79">
              <path d="M-0.31,-9.21 L0.31,-9.21 0.31,9.21 -0.31,9.21  z" class="primitive"/>
            </g>
            <g transform="translate(43.34,73.27)" id="img-0822eafa-80">
              <path d="M-0.31,-9.34 L0.31,-9.34 0.31,9.34 -0.31,9.34  z" class="primitive"/>
            </g>
            <g transform="translate(43.9,73.07)" id="img-0822eafa-81">
              <path d="M-0.31,-9.54 L0.31,-9.54 0.31,9.54 -0.31,9.54  z" class="primitive"/>
            </g>
            <g transform="translate(44.46,73.7)" id="img-0822eafa-82">
              <path d="M-0.31,-8.91 L0.31,-8.91 0.31,8.91 -0.31,8.91  z" class="primitive"/>
            </g>
            <g transform="translate(45.02,74.1)" id="img-0822eafa-83">
              <path d="M-0.31,-8.51 L0.31,-8.51 0.31,8.51 -0.31,8.51  z" class="primitive"/>
            </g>
            <g transform="translate(45.58,73.76)" id="img-0822eafa-84">
              <path d="M-0.31,-8.85 L0.31,-8.85 0.31,8.85 -0.31,8.85  z" class="primitive"/>
            </g>
            <g transform="translate(46.14,74.35)" id="img-0822eafa-85">
              <path d="M-0.31,-8.26 L0.31,-8.26 0.31,8.26 -0.31,8.26  z" class="primitive"/>
            </g>
            <g transform="translate(46.7,74.48)" id="img-0822eafa-86">
              <path d="M-0.31,-8.13 L0.31,-8.13 0.31,8.13 -0.31,8.13  z" class="primitive"/>
            </g>
            <g transform="translate(47.26,74.83)" id="img-0822eafa-87">
              <path d="M-0.31,-7.78 L0.31,-7.78 0.31,7.78 -0.31,7.78  z" class="primitive"/>
            </g>
            <g transform="translate(47.82,74.88)" id="img-0822eafa-88">
              <path d="M-0.31,-7.73 L0.31,-7.73 0.31,7.73 -0.31,7.73  z" class="primitive"/>
            </g>
            <g transform="translate(48.38,75.21)" id="img-0822eafa-89">
              <path d="M-0.31,-7.4 L0.31,-7.4 0.31,7.4 -0.31,7.4  z" class="primitive"/>
            </g>
            <g transform="translate(48.94,74.83)" id="img-0822eafa-90">
              <path d="M-0.31,-7.78 L0.31,-7.78 0.31,7.78 -0.31,7.78  z" class="primitive"/>
            </g>
            <g transform="translate(49.5,75.41)" id="img-0822eafa-91">
              <path d="M-0.31,-7.2 L0.31,-7.2 0.31,7.2 -0.31,7.2  z" class="primitive"/>
            </g>
            <g transform="translate(50.07,75.63)" id="img-0822eafa-92">
              <path d="M-0.31,-6.98 L0.31,-6.98 0.31,6.98 -0.31,6.98  z" class="primitive"/>
            </g>
            <g transform="translate(50.63,74.77)" id="img-0822eafa-93">
              <path d="M-0.31,-7.84 L0.31,-7.84 0.31,7.84 -0.31,7.84  z" class="primitive"/>
            </g>
            <g transform="translate(51.19,76.19)" id="img-0822eafa-94">
              <path d="M-0.31,-6.43 L0.31,-6.43 0.31,6.43 -0.31,6.43  z" class="primitive"/>
            </g>
            <g transform="translate(51.75,75.5)" id="img-0822eafa-95">
              <path d="M-0.31,-7.11 L0.31,-7.11 0.31,7.11 -0.31,7.11  z" class="primitive"/>
            </g>
            <g transform="translate(52.31,75.56)" id="img-0822eafa-96">
              <path d="M-0.31,-7.06 L0.31,-7.06 0.31,7.06 -0.31,7.06  z" class="primitive"/>
            </g>
            <g transform="translate(52.87,76.33)" id="img-0822eafa-97">
              <path d="M-0.31,-6.28 L0.31,-6.28 0.31,6.28 -0.31,6.28  z" class="primitive"/>
            </g>
            <g transform="translate(53.43,76.44)" id="img-0822eafa-98">
              <path d="M-0.31,-6.17 L0.31,-6.17 0.31,6.17 -0.31,6.17  z" class="primitive"/>
            </g>
            <g transform="translate(53.99,76.41)" id="img-0822eafa-99">
              <path d="M-0.31,-6.2 L0.31,-6.2 0.31,6.2 -0.31,6.2  z" class="primitive"/>
            </g>
            <g transform="translate(54.55,76.34)" id="img-0822eafa-100">
              <path d="M-0.31,-6.27 L0.31,-6.27 0.31,6.27 -0.31,6.27  z" class="primitive"/>
            </g>
            <g transform="translate(55.11,76.54)" id="img-0822eafa-101">
              <path d="M-0.31,-6.07 L0.31,-6.07 0.31,6.07 -0.31,6.07  z" class="primitive"/>
            </g>
            <g transform="translate(55.67,77.38)" id="img-0822eafa-102">
              <path d="M-0.31,-5.23 L0.31,-5.23 0.31,5.23 -0.31,5.23  z" class="primitive"/>
            </g>
            <g transform="translate(56.23,76.72)" id="img-0822eafa-103">
              <path d="M-0.31,-5.89 L0.31,-5.89 0.31,5.89 -0.31,5.89  z" class="primitive"/>
            </g>
            <g transform="translate(56.79,76.68)" id="img-0822eafa-104">
              <path d="M-0.31,-5.93 L0.31,-5.93 0.31,5.93 -0.31,5.93  z" class="primitive"/>
            </g>
            <g transform="translate(57.35,77.26)" id="img-0822eafa-105">
              <path d="M-0.31,-5.35 L0.31,-5.35 0.31,5.35 -0.31,5.35  z" class="primitive"/>
            </g>
            <g transform="translate(57.91,77.17)" id="img-0822eafa-106">
              <path d="M-0.31,-5.44 L0.31,-5.44 0.31,5.44 -0.31,5.44  z" class="primitive"/>
            </g>
            <g transform="translate(58.47,77.5)" id="img-0822eafa-107">
              <path d="M-0.31,-5.11 L0.31,-5.11 0.31,5.11 -0.31,5.11  z" class="primitive"/>
            </g>
            <g transform="translate(59.03,77.66)" id="img-0822eafa-108">
              <path d="M-0.31,-4.96 L0.31,-4.96 0.31,4.96 -0.31,4.96  z" class="primitive"/>
            </g>
            <g transform="translate(59.59,77.53)" id="img-0822eafa-109">
              <path d="M-0.31,-5.08 L0.31,-5.08 0.31,5.08 -0.31,5.08  z" class="primitive"/>
            </g>
            <g transform="translate(60.15,78.02)" id="img-0822eafa-110">
              <path d="M-0.31,-4.59 L0.31,-4.59 0.31,4.59 -0.31,4.59  z" class="primitive"/>
            </g>
            <g transform="translate(60.71,77.76)" id="img-0822eafa-111">
              <path d="M-0.31,-4.85 L0.31,-4.85 0.31,4.85 -0.31,4.85  z" class="primitive"/>
            </g>
            <g transform="translate(61.27,78.38)" id="img-0822eafa-112">
              <path d="M-0.31,-4.23 L0.31,-4.23 0.31,4.23 -0.31,4.23  z" class="primitive"/>
            </g>
            <g transform="translate(61.83,77.97)" id="img-0822eafa-113">
              <path d="M-0.31,-4.64 L0.31,-4.64 0.31,4.64 -0.31,4.64  z" class="primitive"/>
            </g>
            <g transform="translate(62.39,77.97)" id="img-0822eafa-114">
              <path d="M-0.31,-4.64 L0.31,-4.64 0.31,4.64 -0.31,4.64  z" class="primitive"/>
            </g>
            <g transform="translate(62.95,78.81)" id="img-0822eafa-115">
              <path d="M-0.31,-3.8 L0.31,-3.8 0.31,3.8 -0.31,3.8  z" class="primitive"/>
            </g>
            <g transform="translate(63.51,78.15)" id="img-0822eafa-116">
              <path d="M-0.31,-4.46 L0.31,-4.46 0.31,4.46 -0.31,4.46  z" class="primitive"/>
            </g>
            <g transform="translate(64.07,78.88)" id="img-0822eafa-117">
              <path d="M-0.31,-3.73 L0.31,-3.73 0.31,3.73 -0.31,3.73  z" class="primitive"/>
            </g>
            <g transform="translate(64.63,78.85)" id="img-0822eafa-118">
              <path d="M-0.31,-3.76 L0.31,-3.76 0.31,3.76 -0.31,3.76  z" class="primitive"/>
            </g>
            <g transform="translate(65.19,78.69)" id="img-0822eafa-119">
              <path d="M-0.31,-3.92 L0.31,-3.92 0.31,3.92 -0.31,3.92  z" class="primitive"/>
            </g>
            <g transform="translate(65.75,79.03)" id="img-0822eafa-120">
              <path d="M-0.31,-3.58 L0.31,-3.58 0.31,3.58 -0.31,3.58  z" class="primitive"/>
            </g>
            <g transform="translate(66.31,78.82)" id="img-0822eafa-121">
              <path d="M-0.31,-3.79 L0.31,-3.79 0.31,3.79 -0.31,3.79  z" class="primitive"/>
            </g>
            <g transform="translate(66.87,79.36)" id="img-0822eafa-122">
              <path d="M-0.31,-3.25 L0.31,-3.25 0.31,3.25 -0.31,3.25  z" class="primitive"/>
            </g>
            <g transform="translate(67.43,79.38)" id="img-0822eafa-123">
              <path d="M-0.31,-3.23 L0.31,-3.23 0.31,3.23 -0.31,3.23  z" class="primitive"/>
            </g>
            <g transform="translate(67.99,79.17)" id="img-0822eafa-124">
              <path d="M-0.31,-3.44 L0.31,-3.44 0.31,3.44 -0.31,3.44  z" class="primitive"/>
            </g>
            <g transform="translate(68.55,79.33)" id="img-0822eafa-125">
              <path d="M-0.31,-3.28 L0.31,-3.28 0.31,3.28 -0.31,3.28  z" class="primitive"/>
            </g>
            <g transform="translate(69.11,79.12)" id="img-0822eafa-126">
              <path d="M-0.31,-3.49 L0.31,-3.49 0.31,3.49 -0.31,3.49  z" class="primitive"/>
            </g>
            <g transform="translate(69.67,79.48)" id="img-0822eafa-127">
              <path d="M-0.31,-3.13 L0.31,-3.13 0.31,3.13 -0.31,3.13  z" class="primitive"/>
            </g>
            <g transform="translate(70.23,79.73)" id="img-0822eafa-128">
              <path d="M-0.31,-2.88 L0.31,-2.88 0.31,2.88 -0.31,2.88  z" class="primitive"/>
            </g>
            <g transform="translate(70.79,79.59)" id="img-0822eafa-129">
              <path d="M-0.31,-3.02 L0.31,-3.02 0.31,3.02 -0.31,3.02  z" class="primitive"/>
            </g>
            <g transform="translate(71.35,80.01)" id="img-0822eafa-130">
              <path d="M-0.31,-2.6 L0.31,-2.6 0.31,2.6 -0.31,2.6  z" class="primitive"/>
            </g>
            <g transform="translate(71.91,79.9)" id="img-0822eafa-131">
              <path d="M-0.31,-2.71 L0.31,-2.71 0.31,2.71 -0.31,2.71  z" class="primitive"/>
            </g>
            <g transform="translate(72.47,79.83)" id="img-0822eafa-132">
              <path d="M-0.31,-2.78 L0.31,-2.78 0.31,2.78 -0.31,2.78  z" class="primitive"/>
            </g>
            <g transform="translate(73.03,80.31)" id="img-0822eafa-133">
              <path d="M-0.31,-2.3 L0.31,-2.3 0.31,2.3 -0.31,2.3  z" class="primitive"/>
            </g>
            <g transform="translate(73.59,79.86)" id="img-0822eafa-134">
              <path d="M-0.31,-2.75 L0.31,-2.75 0.31,2.75 -0.31,2.75  z" class="primitive"/>
            </g>
            <g transform="translate(74.15,80.16)" id="img-0822eafa-135">
              <path d="M-0.31,-2.45 L0.31,-2.45 0.31,2.45 -0.31,2.45  z" class="primitive"/>
            </g>
            <g transform="translate(74.71,80.36)" id="img-0822eafa-136">
              <path d="M-0.31,-2.25 L0.31,-2.25 0.31,2.25 -0.31,2.25  z" class="primitive"/>
            </g>
            <g transform="translate(75.27,80.33)" id="img-0822eafa-137">
              <path d="M-0.31,-2.28 L0.31,-2.28 0.31,2.28 -0.31,2.28  z" class="primitive"/>
            </g>
            <g transform="translate(75.83,80.43)" id="img-0822eafa-138">
              <path d="M-0.31,-2.18 L0.31,-2.18 0.31,2.18 -0.31,2.18  z" class="primitive"/>
            </g>
            <g transform="translate(76.39,80.49)" id="img-0822eafa-139">
              <path d="M-0.31,-2.12 L0.31,-2.12 0.31,2.12 -0.31,2.12  z" class="primitive"/>
            </g>
            <g transform="translate(76.95,80.5)" id="img-0822eafa-140">
              <path d="M-0.31,-2.11 L0.31,-2.11 0.31,2.11 -0.31,2.11  z" class="primitive"/>
            </g>
            <g transform="translate(77.51,80.59)" id="img-0822eafa-141">
              <path d="M-0.31,-2.02 L0.31,-2.02 0.31,2.02 -0.31,2.02  z" class="primitive"/>
            </g>
            <g transform="translate(78.07,80.7)" id="img-0822eafa-142">
              <path d="M-0.31,-1.91 L0.31,-1.91 0.31,1.91 -0.31,1.91  z" class="primitive"/>
            </g>
            <g transform="translate(78.63,80.97)" id="img-0822eafa-143">
              <path d="M-0.31,-1.64 L0.31,-1.64 0.31,1.64 -0.31,1.64  z" class="primitive"/>
            </g>
            <g transform="translate(79.19,80.85)" id="img-0822eafa-144">
              <path d="M-0.31,-1.76 L0.31,-1.76 0.31,1.76 -0.31,1.76  z" class="primitive"/>
            </g>
            <g transform="translate(79.76,81.07)" id="img-0822eafa-145">
              <path d="M-0.31,-1.54 L0.31,-1.54 0.31,1.54 -0.31,1.54  z" class="primitive"/>
            </g>
            <g transform="translate(80.32,80.88)" id="img-0822eafa-146">
              <path d="M-0.31,-1.73 L0.31,-1.73 0.31,1.73 -0.31,1.73  z" class="primitive"/>
            </g>
            <g transform="translate(80.88,81.12)" id="img-0822eafa-147">
              <path d="M-0.31,-1.49 L0.31,-1.49 0.31,1.49 -0.31,1.49  z" class="primitive"/>
            </g>
            <g transform="translate(81.44,81.18)" id="img-0822eafa-148">
              <path d="M-0.31,-1.43 L0.31,-1.43 0.31,1.43 -0.31,1.43  z" class="primitive"/>
            </g>
            <g transform="translate(82,81.21)" id="img-0822eafa-149">
              <path d="M-0.31,-1.4 L0.31,-1.4 0.31,1.4 -0.31,1.4  z" class="primitive"/>
            </g>
            <g transform="translate(82.56,81.16)" id="img-0822eafa-150">
              <path d="M-0.31,-1.45 L0.31,-1.45 0.31,1.45 -0.31,1.45  z" class="primitive"/>
            </g>
            <g transform="translate(83.12,81.14)" id="img-0822eafa-151">
              <path d="M-0.31,-1.47 L0.31,-1.47 0.31,1.47 -0.31,1.47  z" class="primitive"/>
            </g>
            <g transform="translate(83.68,81.39)" id="img-0822eafa-152">
              <path d="M-0.31,-1.22 L0.31,-1.22 0.31,1.22 -0.31,1.22  z" class="primitive"/>
            </g>
            <g transform="translate(84.24,81.42)" id="img-0822eafa-153">
              <path d="M-0.31,-1.19 L0.31,-1.19 0.31,1.19 -0.31,1.19  z" class="primitive"/>
            </g>
            <g transform="translate(84.8,81.63)" id="img-0822eafa-154">
              <path d="M-0.31,-0.98 L0.31,-0.98 0.31,0.98 -0.31,0.98  z" class="primitive"/>
            </g>
            <g transform="translate(85.36,81.55)" id="img-0822eafa-155">
              <path d="M-0.31,-1.06 L0.31,-1.06 0.31,1.06 -0.31,1.06  z" class="primitive"/>
            </g>
            <g transform="translate(85.92,81.57)" id="img-0822eafa-156">
              <path d="M-0.31,-1.04 L0.31,-1.04 0.31,1.04 -0.31,1.04  z" class="primitive"/>
            </g>
            <g transform="translate(86.48,81.5)" id="img-0822eafa-157">
              <path d="M-0.31,-1.11 L0.31,-1.11 0.31,1.11 -0.31,1.11  z" class="primitive"/>
            </g>
            <g transform="translate(87.04,81.63)" id="img-0822eafa-158">
              <path d="M-0.31,-0.98 L0.31,-0.98 0.31,0.98 -0.31,0.98  z" class="primitive"/>
            </g>
            <g transform="translate(87.6,81.69)" id="img-0822eafa-159">
              <path d="M-0.31,-0.92 L0.31,-0.92 0.31,0.92 -0.31,0.92  z" class="primitive"/>
            </g>
            <g transform="translate(88.16,81.75)" id="img-0822eafa-160">
              <path d="M-0.31,-0.86 L0.31,-0.86 0.31,0.86 -0.31,0.86  z" class="primitive"/>
            </g>
            <g transform="translate(88.72,81.66)" id="img-0822eafa-161">
              <path d="M-0.31,-0.96 L0.31,-0.96 0.31,0.96 -0.31,0.96  z" class="primitive"/>
            </g>
            <g transform="translate(89.28,82)" id="img-0822eafa-162">
              <path d="M-0.31,-0.61 L0.31,-0.61 0.31,0.61 -0.31,0.61  z" class="primitive"/>
            </g>
            <g transform="translate(89.84,81.9)" id="img-0822eafa-163">
              <path d="M-0.31,-0.71 L0.31,-0.71 0.31,0.71 -0.31,0.71  z" class="primitive"/>
            </g>
            <g transform="translate(90.4,81.96)" id="img-0822eafa-164">
              <path d="M-0.31,-0.65 L0.31,-0.65 0.31,0.65 -0.31,0.65  z" class="primitive"/>
            </g>
            <g transform="translate(90.96,81.96)" id="img-0822eafa-165">
              <path d="M-0.31,-0.65 L0.31,-0.65 0.31,0.65 -0.31,0.65  z" class="primitive"/>
            </g>
            <g transform="translate(91.52,82.05)" id="img-0822eafa-166">
              <path d="M-0.31,-0.56 L0.31,-0.56 0.31,0.56 -0.31,0.56  z" class="primitive"/>
            </g>
            <g transform="translate(92.08,82.18)" id="img-0822eafa-167">
              <path d="M-0.31,-0.43 L0.31,-0.43 0.31,0.43 -0.31,0.43  z" class="primitive"/>
            </g>
            <g transform="translate(92.64,82.14)" id="img-0822eafa-168">
              <path d="M-0.31,-0.47 L0.31,-0.47 0.31,0.47 -0.31,0.47  z" class="primitive"/>
            </g>
            <g transform="translate(93.2,82.23)" id="img-0822eafa-169">
              <path d="M-0.31,-0.38 L0.31,-0.38 0.31,0.38 -0.31,0.38  z" class="primitive"/>
            </g>
            <g transform="translate(93.76,82.32)" id="img-0822eafa-170">
              <path d="M-0.31,-0.29 L0.31,-0.29 0.31,0.29 -0.31,0.29  z" class="primitive"/>
            </g>
            <g transform="translate(94.32,82.05)" id="img-0822eafa-171">
              <path d="M-0.31,-0.56 L0.31,-0.56 0.31,0.56 -0.31,0.56  z" class="primitive"/>
            </g>
          </g>
        </g>
      </g>
    </g>
  </g>
  <g class="guide ylabels" font-size="2.82" font-family="'PT Sans Caption','Helvetica Neue','Helvetica',sans-serif" fill="#6C606B" id="img-0822eafa-172">
    <g transform="translate(7.57,82.61)" id="img-0822eafa-173">
      <g class="primitive">
        <text text-anchor="end" dy="0.35em">0</text>
      </g>
    </g>
    <g transform="translate(7.57,68.61)" id="img-0822eafa-174">
      <g class="primitive">
        <text text-anchor="end" dy="0.35em">1</text>
      </g>
    </g>
    <g transform="translate(7.57,54.61)" id="img-0822eafa-175">
      <g class="primitive">
        <text text-anchor="end" dy="0.35em">2</text>
      </g>
    </g>
    <g transform="translate(7.57,40.61)" id="img-0822eafa-176">
      <g class="primitive">
        <text text-anchor="end" dy="0.35em">3</text>
      </g>
    </g>
    <g transform="translate(7.57,26.62)" id="img-0822eafa-177">
      <g class="primitive">
        <text text-anchor="end" dy="0.35em">4</text>
      </g>
    </g>
    <g transform="translate(7.57,12.62)" id="img-0822eafa-178">
      <g class="primitive">
        <text text-anchor="end" dy="0.35em">5</text>
      </g>
    </g>
  </g>
  <g font-size="3.88" font-family="'PT Sans','Helvetica Neue','Helvetica',sans-serif" fill="#564A55" stroke="#000000" stroke-opacity="0.000" id="img-0822eafa-179">
    <g transform="translate(52.59,5)" id="img-0822eafa-180">
      <g class="primitive">
        <text text-anchor="middle" dy="0.6em">Beta(1,2)</text>
      </g>
    </g>
  </g>
</g>
<defs>
  <clipPath id="img-0822eafa-4">
    <path d="M8.57,10.62 L96.6,10.62 96.6,84.61 8.57,84.61 " />
  </clipPath>
</defs>
</svg>
