<?xml version="1.0" encoding="UTF-8"?>
<svg xmlns="http://www.w3.org/2000/svg"
     xmlns:xlink="http://www.w3.org/1999/xlink"
     xmlns:gadfly="http://www.gadflyjl.org/ns"
     version="1.2"
     width="127mm" height="127mm" viewBox="0 0 127 127"
     stroke="none"
     fill="#000000"
     stroke-width="0.3"
     font-size="3.88"
>
<defs>
  <marker id="arrow" markerWidth="15" markerHeight="7" refX="5" refY="3.5" orient="auto" markerUnits="strokeWidth">
    <path d="M0,0 L15,3.5 L0,7 z" stroke="context-stroke" fill="context-stroke"/>
  </marker>
</defs>
<g class="plotroot xscalable yscalable" id="img-b78f0c34-1">
  <g font-size="3.88" font-family="'PT Sans','Helvetica Neue','Helvetica',sans-serif" fill="#564A55" stroke="#000000" stroke-opacity="0.000" id="img-b78f0c34-2">
    <g transform="translate(65.29,117.06)">
      <g class="primitive">
        <text text-anchor="middle" dy="0.6em">x</text>
      </g>
    </g>
  </g>
  <g class="guide xlabels" font-size="2.82" font-family="'PT Sans Caption','Helvetica Neue','Helvetica',sans-serif" fill="#6C606B" id="img-b78f0c34-3">
    <g transform="translate(10.57,111.01)">
      <g class="primitive">
        <text text-anchor="middle" dy="0.6em">0.0</text>
      </g>
    </g>
    <g transform="translate(65.29,111.01)">
      <g class="primitive">
        <text text-anchor="middle" dy="0.6em">0.5</text>
      </g>
    </g>
    <g transform="translate(120,111.01)">
      <g class="primitive">
        <text text-anchor="middle" dy="0.6em">1.0</text>
      </g>
    </g>
  </g>
  <g clip-path="url(#img-b78f0c34-4)">
    <g id="img-b78f0c34-5">
      <g pointer-events="visible" stroke-width="0.3" fill="#000000" fill-opacity="0.000" stroke="#000000" stroke-opacity="0.000" class="guide background" id="img-b78f0c34-6">
        <g transform="translate(65.29,60.31)" id="img-b78f0c34-7">
          <path d="M-56.71,-49.7 L56.71,-49.7 56.71,49.7 -56.71,49.7  z" class="primitive"/>
        </g>
      </g>
      <g class="guide ygridlines xfixed" stroke-dasharray="0.5,0.5" stroke-width="0.2" stroke="#D0D0E0" id="img-b78f0c34-8">
        <g transform="translate(65.29,108.01)" id="img-b78f0c34-9">
          <path fill="none" d="M-56.71,0 L56.71,0 " class="primitive"/>
        </g>
        <g transform="translate(65.29,88.93)" id="img-b78f0c34-10">
          <path fill="none" d="M-56.71,0 L56.71,0 " class="primitive"/>
        </g>
        <g transform="translate(65.29,69.85)" id="img-b78f0c34-11">
          <path fill="none" d="M-56.71,0 L56.71,0 " class="primitive"/>
        </g>
        <g transform="translate(65.29,50.77)" id="img-b78f0c34-12">
          <path fill="none" d="M-56.71,0 L56.71,0 " class="primitive"/>
        </g>
        <g transform="translate(65.29,31.7)" id="img-b78f0c34-13">
          <path fill="none" d="M-56.71,0 L56.71,0 " class="primitive"/>
        </g>
        <g transform="translate(65.29,12.62)" id="img-b78f0c34-14">
          <path fill="none" d="M-56.71,0 L56.71,0 " class="primitive"/>
        </g>
      </g>
      <g class="guide xgridlines yfixed" stroke-dasharray="0.5,0.5" stroke-width="0.2" stroke="#D0D0E0" id="img-b78f0c34-15">
        <g transform="translate(10.57,60.31)" id="img-b78f0c34-16">
          <path fill="none" d="M0,-49.7 L0,49.7 " class="primitive"/>
        </g>
        <g transform="translate(65.29,60.31)" id="img-b78f0c34-17">
          <path fill="none" d="M0,-49.7 L0,49.7 " class="primitive"/>
        </g>
        <g transform="translate(120,60.31)" id="img-b78f0c34-18">
          <path fill="none" d="M0,-49.7 L0,49.7 " class="primitive"/>
        </g>
      </g>
      <g class="plotpanel" id="img-b78f0c34-19">
        <metadata>
          <boundingbox value="8.571997070312506mm 10.616661241319449mm 113.4280029296875mm 99.39391818576388mm"/>
          <unitbox value="-0.018276857353278133 5.1048284858215665 1.0365537147065562 -5.209656971643133"/>
        </metadata>
        <g class="geometry" stroke-width="0.3" stroke-dasharray="none" fill-opacity="1" stroke="#FFFFFF" fill="#B9EAFF" id="img-b78f0c34-20">
          <g transform="translate(55.07,85.73)" id="img-b78f0c34-21">
            <path d="M-46.66,22.28 L-46.3,22.28 -45.93,22.22 -45.56,21.93 -45.2,20.93 -44.83,18.68 -44.47,15.13 -44.1,11.01 -43.73,7.09 -43.37,3.64 -43,0.56 -42.64,-2.28 -42.27,-4.99 -41.9,-7.68 -41.54,-10.35 -41.17,-12.94 -40.81,-15.43 -40.44,-17.82 -40.07,-20.13 -39.71,-22.38 -39.34,-24.56 -38.98,-26.65 -38.61,-28.73 -38.24,-30.86 -37.88,-33.02 -37.51,-35.13 -37.15,-37.12 -36.78,-38.92 -36.41,-40.52 -36.05,-41.99 -35.68,-43.47 -35.32,-45.07 -34.95,-46.8 -34.58,-48.55 -34.22,-50.14 -33.85,-51.57 -33.49,-52.89 -33.12,-54.13 -32.75,-55.35 -32.39,-56.62 -32.02,-57.92 -31.66,-59.03 -31.29,-59.82 -30.92,-60.35 -30.56,-60.85 -30.19,-61.48 -29.83,-62.19 -29.46,-62.9 -29.09,-63.6 -28.73,-64.33 -28.36,-64.96 -28,-65.39 -27.63,-65.59 -27.27,-65.56 -26.9,-65.33 -26.53,-64.98 -26.17,-64.55 -25.8,-64.11 -25.44,-63.73 -25.07,-63.35 -24.7,-62.7 -24.34,-61.58 -23.97,-60.13 -23.61,-58.61 -23.24,-57.01 -22.87,-55.19 -22.51,-53.16 -22.14,-51.05 -21.78,-48.97 -21.41,-46.94 -21.04,-44.88 -20.68,-42.72 -20.31,-40.54 -19.95,-38.38 -19.58,-36.19 -19.21,-33.99 -18.85,-31.86 -18.48,-29.84 -18.12,-27.84 -17.75,-25.8 -17.38,-23.72 -17.02,-21.64 -16.65,-19.67 -16.29,-17.87 -15.92,-16.16 -15.55,-14.45 -15.19,-12.75 -14.82,-11.11 -14.46,-9.61 -14.09,-8.23 -13.72,-6.93 -13.36,-5.64 -12.99,-4.34 -12.63,-3.08 -12.26,-1.87 -11.89,-0.67 -11.53,0.51 -11.16,1.58 -10.8,2.5 -10.43,3.35 -10.06,4.2 -9.7,5.04 -9.33,5.83 -8.97,6.59 -8.6,7.36 -8.23,8.12 -7.87,8.84 -7.5,9.55 -7.14,10.27 -6.77,10.98 -6.4,11.59 -6.04,12.09 -5.67,12.51 -5.31,12.93 -4.94,13.39 -4.57,13.84 -4.21,14.27 -3.84,14.67 -3.48,15.06 -3.11,15.43 -2.74,15.78 -2.38,16.13 -2.01,16.52 -1.65,16.91 -1.28,17.26 -0.91,17.54 -0.55,17.76 -0.18,17.95 0.18,18.13 0.55,18.36 0.91,18.61 1.28,18.83 1.65,19.02 2.01,19.18 2.38,19.34 2.74,19.51 3.11,19.69 3.48,19.86 3.84,20.01 4.21,20.13 4.57,20.23 4.94,20.33 5.31,20.42 5.67,20.52 6.04,20.62 6.4,20.72 6.77,20.82 7.14,20.91 7.5,20.99 7.87,21.06 8.23,21.1 8.6,21.12 8.97,21.15 9.33,21.21 9.7,21.29 10.06,21.36 10.43,21.43 10.8,21.48 11.16,21.52 11.53,21.56 11.89,21.58 12.26,21.62 12.63,21.67 12.99,21.72 13.36,21.76 13.72,21.79 14.09,21.82 14.46,21.85 14.82,21.88 15.19,21.91 15.55,21.94 15.92,21.97 16.29,21.99 16.65,22.01 17.02,22.03 17.38,22.03 17.75,22.04 18.12,22.04 18.48,22.04 18.85,22.04 19.21,22.07 19.58,22.1 19.95,22.13 20.31,22.15 20.68,22.16 21.04,22.16 21.41,22.16 21.78,22.17 22.14,22.17 22.51,22.18 22.87,22.19 23.24,22.2 23.61,22.21 23.97,22.22 24.34,22.22 24.7,22.22 25.07,22.22 25.44,22.22 25.8,22.22 26.17,22.23 26.53,22.23 26.9,22.24 27.27,22.24 27.63,22.24 28,22.24 28.36,22.25 28.73,22.25 29.09,22.26 29.46,22.26 29.83,22.26 30.19,22.26 30.56,22.26 30.92,22.27 31.29,22.27 31.66,22.27 32.02,22.26 32.39,22.26 32.75,22.26 33.12,22.26 33.49,22.27 33.85,22.27 34.22,22.28 34.58,22.28 34.95,22.28 35.32,22.28 35.68,22.28 36.05,22.28 36.41,22.28 36.78,22.28 37.15,22.28 37.51,22.28 37.88,22.28 38.24,22.28 38.61,22.28 38.98,22.28 39.34,22.28 39.71,22.28 40.07,22.28 40.44,22.28 40.81,22.28 41.17,22.28 41.54,22.28 41.9,22.28 42.27,22.28 42.64,22.28 43,22.28 43.37,22.28 43.73,22.28 44.1,22.28 44.47,22.28 44.83,22.28 45.2,22.28 45.56,22.28 45.93,22.28 46.3,22.28 46.66,22.28  z" class="primitive"/>
          </g>
        </g>
      </g>
    </g>
  </g>
  <g class="guide ylabels" font-size="2.82" font-family="'PT Sans Caption','Helvetica Neue','Helvetica',sans-serif" fill="#6C606B" id="img-b78f0c34-22">
    <g transform="translate(7.57,108.01)" id="img-b78f0c34-23">
      <g class="primitive">
        <text text-anchor="end" dy="0.35em">0</text>
      </g>
    </g>
    <g transform="translate(7.57,88.93)" id="img-b78f0c34-24">
      <g class="primitive">
        <text text-anchor="end" dy="0.35em">1</text>
      </g>
    </g>
    <g transform="translate(7.57,69.85)" id="img-b78f0c34-25">
      <g class="primitive">
        <text text-anchor="end" dy="0.35em">2</text>
      </g>
    </g>
    <g transform="translate(7.57,50.77)" id="img-b78f0c34-26">
      <g class="primitive">
        <text text-anchor="end" dy="0.35em">3</text>
      </g>
    </g>
    <g transform="translate(7.57,31.7)" id="img-b78f0c34-27">
      <g class="primitive">
        <text text-anchor="end" dy="0.35em">4</text>
      </g>
    </g>
    <g transform="translate(7.57,12.62)" id="img-b78f0c34-28">
      <g class="primitive">
        <text text-anchor="end" dy="0.35em">5</text>
      </g>
    </g>
  </g>
  <g font-size="3.88" font-family="'PT Sans','Helvetica Neue','Helvetica',sans-serif" fill="#564A55" stroke="#000000" stroke-opacity="0.000" id="img-b78f0c34-29">
    <g transform="translate(65.29,5)" id="img-b78f0c34-30">
      <g class="primitive">
        <text text-anchor="middle" dy="0.6em">Beta(2,8)</text>
      </g>
    </g>
  </g>
</g>
<defs>
  <clipPath id="img-b78f0c34-4">
    <path d="M8.57,10.62 L122,10.62 122,110.01 8.57,110.01 " />
  </clipPath>
</defs>
</svg>
