<?xml version="1.0" encoding="UTF-8"?>
<svg xmlns="http://www.w3.org/2000/svg"
     xmlns:xlink="http://www.w3.org/1999/xlink"
     xmlns:gadfly="http://www.gadflyjl.org/ns"
     version="1.2"
     width="127mm" height="127mm" viewBox="0 0 127 127"
     stroke="none"
     fill="#000000"
     stroke-width="0.3"
     font-size="3.88"
>
<defs>
  <marker id="arrow" markerWidth="15" markerHeight="7" refX="5" refY="3.5" orient="auto" markerUnits="strokeWidth">
    <path d="M0,0 L15,3.5 L0,7 z" stroke="context-stroke" fill="context-stroke"/>
  </marker>
</defs>
<g class="plotroot xscalable yscalable" id="img-1c38a264-1">
  <g font-size="3.88" font-family="'PT Sans','Helvetica Neue','Helvetica',sans-serif" fill="#564A55" stroke="#000000" stroke-opacity="0.000" id="img-1c38a264-2">
    <g transform="translate(65.29,117.06)">
      <g class="primitive">
        <text text-anchor="middle" dy="0.6em">x</text>
      </g>
    </g>
  </g>
  <g class="guide xlabels" font-size="2.82" font-family="'PT Sans Caption','Helvetica Neue','Helvetica',sans-serif" fill="#6C606B" id="img-1c38a264-3">
    <g transform="translate(10.57,111.01)">
      <g class="primitive">
        <text text-anchor="middle" dy="0.6em">0.0</text>
      </g>
    </g>
    <g transform="translate(65.29,111.01)">
      <g class="primitive">
        <text text-anchor="middle" dy="0.6em">0.5</text>
      </g>
    </g>
    <g transform="translate(120,111.01)">
      <g class="primitive">
        <text text-anchor="middle" dy="0.6em">1.0</text>
      </g>
    </g>
  </g>
  <g clip-path="url(#img-1c38a264-4)">
    <g id="img-1c38a264-5">
      <g pointer-events="visible" stroke-width="0.3" fill="#000000" fill-opacity="0.000" stroke="#000000" stroke-opacity="0.000" class="guide background" id="img-1c38a264-6">
        <g transform="translate(65.29,60.31)" id="img-1c38a264-7">
          <path d="M-56.71,-49.7 L56.71,-49.7 56.71,49.7 -56.71,49.7  z" class="primitive"/>
        </g>
      </g>
      <g class="guide ygridlines xfixed" stroke-dasharray="0.5,0.5" stroke-width="0.2" stroke="#D0D0E0" id="img-1c38a264-8">
        <g transform="translate(65.29,108.01)" id="img-1c38a264-9">
          <path fill="none" d="M-56.71,0 L56.71,0 " class="primitive"/>
        </g>
        <g transform="translate(65.29,84.16)" id="img-1c38a264-10">
          <path fill="none" d="M-56.71,0 L56.71,0 " class="primitive"/>
        </g>
        <g transform="translate(65.29,60.31)" id="img-1c38a264-11">
          <path fill="none" d="M-56.71,0 L56.71,0 " class="primitive"/>
        </g>
        <g transform="translate(65.29,36.47)" id="img-1c38a264-12">
          <path fill="none" d="M-56.71,0 L56.71,0 " class="primitive"/>
        </g>
        <g transform="translate(65.29,12.62)" id="img-1c38a264-13">
          <path fill="none" d="M-56.71,0 L56.71,0 " class="primitive"/>
        </g>
      </g>
      <g class="guide xgridlines yfixed" stroke-dasharray="0.5,0.5" stroke-width="0.2" stroke="#D0D0E0" id="img-1c38a264-14">
        <g transform="translate(10.57,60.31)" id="img-1c38a264-15">
          <path fill="none" d="M0,-49.7 L0,49.7 " class="primitive"/>
        </g>
        <g transform="translate(65.29,60.31)" id="img-1c38a264-16">
          <path fill="none" d="M0,-49.7 L0,49.7 " class="primitive"/>
        </g>
        <g transform="translate(120,60.31)" id="img-1c38a264-17">
          <path fill="none" d="M0,-49.7 L0,49.7 " class="primitive"/>
        </g>
      </g>
      <g class="plotpanel" id="img-1c38a264-18">
        <metadata>
          <boundingbox value="8.571997070312506mm 10.616661241319449mm 113.4280029296875mm 99.3939181857639mm"/>
          <unitbox value="-0.018276857353278133 4.083862788657253 1.0365537147065562 -4.167725577314506"/>
        </metadata>
        <g class="geometry" stroke-width="0.3" stroke-dasharray="none" fill-opacity="1" stroke="#FFFFFF" fill="#B9EAFF" id="img-1c38a264-19">
          <g transform="translate(56.78,81.59)" id="img-1c38a264-20">
            <path d="M-49.2,26.42 L-48.81,26.42 -48.43,26.41 -48.04,26.39 -47.66,26.29 -47.27,25.98 -46.88,25.23 -46.5,23.72 -46.11,21.19 -45.73,17.62 -45.34,13.26 -44.96,8.51 -44.57,3.7 -44.18,-0.98 -43.8,-5.48 -43.41,-9.8 -43.03,-13.92 -42.64,-17.81 -42.25,-21.43 -41.87,-24.75 -41.48,-27.8 -41.1,-30.65 -40.71,-33.36 -40.32,-35.94 -39.94,-38.36 -39.55,-40.59 -39.17,-42.64 -38.78,-44.55 -38.4,-46.34 -38.01,-48.04 -37.62,-49.61 -37.24,-51 -36.85,-52.18 -36.47,-53.17 -36.08,-54.03 -35.69,-54.79 -35.31,-55.46 -34.92,-56.02 -34.54,-56.48 -34.15,-56.84 -33.76,-57.11 -33.38,-57.32 -32.99,-57.48 -32.61,-57.63 -32.22,-57.74 -31.84,-57.76 -31.45,-57.63 -31.06,-57.39 -30.68,-57.09 -30.29,-56.76 -29.91,-56.36 -29.52,-55.87 -29.13,-55.27 -28.75,-54.6 -28.36,-53.89 -27.98,-53.17 -27.59,-52.44 -27.2,-51.71 -26.82,-50.99 -26.43,-50.26 -26.05,-49.48 -25.66,-48.67 -25.28,-47.89 -24.89,-47.14 -24.5,-46.38 -24.12,-45.51 -23.73,-44.48 -23.35,-43.33 -22.96,-42.15 -22.57,-41.05 -22.19,-40.06 -21.8,-39.12 -21.42,-38.13 -21.03,-37.05 -20.64,-35.92 -20.26,-34.8 -19.87,-33.71 -19.49,-32.67 -19.1,-31.67 -18.72,-30.67 -18.33,-29.6 -17.94,-28.42 -17.56,-27.15 -17.17,-25.91 -16.79,-24.77 -16.4,-23.74 -16.01,-22.77 -15.63,-21.82 -15.24,-20.84 -14.86,-19.85 -14.47,-18.86 -14.08,-17.87 -13.7,-16.87 -13.31,-15.83 -12.93,-14.78 -12.54,-13.77 -12.16,-12.83 -11.77,-11.97 -11.38,-11.13 -11,-10.28 -10.61,-9.4 -10.23,-8.47 -9.84,-7.51 -9.45,-6.54 -9.07,-5.6 -8.68,-4.74 -8.3,-3.95 -7.91,-3.19 -7.52,-2.42 -7.14,-1.62 -6.75,-0.8 -6.37,-0 -5.98,0.76 -5.6,1.5 -5.21,2.25 -4.82,3 -4.44,3.75 -4.05,4.47 -3.67,5.17 -3.28,5.85 -2.89,6.51 -2.51,7.14 -2.12,7.74 -1.74,8.35 -1.35,8.96 -0.96,9.54 -0.58,10.09 -0.19,10.63 0.19,11.2 0.58,11.75 0.96,12.26 1.35,12.7 1.74,13.1 2.12,13.51 2.51,13.97 2.89,14.44 3.28,14.93 3.67,15.42 4.05,15.89 4.44,16.34 4.82,16.73 5.21,17.08 5.6,17.39 5.98,17.68 6.37,17.96 6.75,18.28 7.14,18.64 7.52,19.02 7.91,19.39 8.3,19.73 8.68,20.02 9.07,20.28 9.45,20.5 9.84,20.72 10.23,20.94 10.61,21.16 11,21.4 11.38,21.62 11.77,21.84 12.16,22.06 12.54,22.27 12.93,22.48 13.31,22.67 13.7,22.84 14.08,23 14.47,23.14 14.86,23.27 15.24,23.41 15.63,23.55 16.01,23.69 16.4,23.83 16.79,23.96 17.17,24.08 17.56,24.19 17.94,24.3 18.33,24.42 18.72,24.54 19.1,24.64 19.49,24.74 19.87,24.84 20.26,24.93 20.64,25.02 21.03,25.11 21.42,25.18 21.8,25.24 22.19,25.3 22.57,25.36 22.96,25.42 23.35,25.49 23.73,25.56 24.12,25.63 24.5,25.68 24.89,25.73 25.28,25.78 25.66,25.82 26.05,25.86 26.43,25.88 26.82,25.91 27.2,25.93 27.59,25.97 27.98,26 28.36,26.03 28.75,26.05 29.13,26.07 29.52,26.09 29.91,26.12 30.29,26.14 30.68,26.16 31.06,26.18 31.45,26.2 31.84,26.22 32.22,26.24 32.61,26.26 32.99,26.28 33.38,26.3 33.76,26.31 34.15,26.32 34.54,26.33 34.92,26.33 35.31,26.33 35.69,26.34 36.08,26.34 36.47,26.34 36.85,26.35 37.24,26.36 37.62,26.36 38.01,26.37 38.4,26.37 38.78,26.38 39.17,26.38 39.55,26.39 39.94,26.39 40.32,26.4 40.71,26.4 41.1,26.4 41.48,26.4 41.87,26.4 42.25,26.4 42.64,26.4 43.03,26.41 43.41,26.41 43.8,26.41 44.18,26.41 44.57,26.42 44.96,26.42 45.34,26.42 45.73,26.42 46.11,26.41 46.5,26.42 46.88,26.42 47.27,26.42 47.66,26.42 48.04,26.42 48.43,26.42 48.81,26.42 49.2,26.42  z" class="primitive"/>
          </g>
        </g>
      </g>
    </g>
  </g>
  <g class="guide ylabels" font-size="2.82" font-family="'PT Sans Caption','Helvetica Neue','Helvetica',sans-serif" fill="#6C606B" id="img-1c38a264-21">
    <g transform="translate(7.57,108.01)" id="img-1c38a264-22">
      <g class="primitive">
        <text text-anchor="end" dy="0.35em">0</text>
      </g>
    </g>
    <g transform="translate(7.57,84.16)" id="img-1c38a264-23">
      <g class="primitive">
        <text text-anchor="end" dy="0.35em">1</text>
      </g>
    </g>
    <g transform="translate(7.57,60.31)" id="img-1c38a264-24">
      <g class="primitive">
        <text text-anchor="end" dy="0.35em">2</text>
      </g>
    </g>
    <g transform="translate(7.57,36.47)" id="img-1c38a264-25">
      <g class="primitive">
        <text text-anchor="end" dy="0.35em">3</text>
      </g>
    </g>
    <g transform="translate(7.57,12.62)" id="img-1c38a264-26">
      <g class="primitive">
        <text text-anchor="end" dy="0.35em">4</text>
      </g>
    </g>
  </g>
  <g font-size="3.88" font-family="'PT Sans','Helvetica Neue','Helvetica',sans-serif" fill="#564A55" stroke="#000000" stroke-opacity="0.000" id="img-1c38a264-27">
    <g transform="translate(65.29,5)" id="img-1c38a264-28">
      <g class="primitive">
        <text text-anchor="middle" dy="0.6em">Beta(2,8)</text>
      </g>
    </g>
  </g>
</g>
<defs>
  <clipPath id="img-1c38a264-4">
    <path d="M8.57,10.62 L122,10.62 122,110.01 8.57,110.01 " />
  </clipPath>
</defs>
</svg>
