<?xml version="1.0" encoding="UTF-8"?>
<svg xmlns="http://www.w3.org/2000/svg"
     xmlns:xlink="http://www.w3.org/1999/xlink"
     xmlns:gadfly="http://www.gadflyjl.org/ns"
     version="1.2"
     width="127mm" height="127mm" viewBox="0 0 127 127"
     stroke="none"
     fill="#000000"
     stroke-width="0.3"
     font-size="3.88"
>
<defs>
  <marker id="arrow" markerWidth="15" markerHeight="7" refX="5" refY="3.5" orient="auto" markerUnits="strokeWidth">
    <path d="M0,0 L15,3.5 L0,7 z" stroke="context-stroke" fill="context-stroke"/>
  </marker>
</defs>
<g class="plotroot xscalable yscalable" id="img-dce80e70-1">
  <g font-size="3.88" font-family="'PT Sans','Helvetica Neue','Helvetica',sans-serif" fill="#564A55" stroke="#000000" stroke-opacity="0.000" id="img-dce80e70-2">
    <g transform="translate(67.33,117.06)">
      <g class="primitive">
        <text text-anchor="middle" dy="0.6em">x</text>
      </g>
    </g>
  </g>
  <g class="guide xlabels" font-size="2.82" font-family="'PT Sans Caption','Helvetica Neue','Helvetica',sans-serif" fill="#6C606B" id="img-dce80e70-3">
    <g transform="translate(14.66,111.01)">
      <g class="primitive">
        <text text-anchor="middle" dy="0.6em">0</text>
      </g>
    </g>
    <g transform="translate(49.78,111.01)">
      <g class="primitive">
        <text text-anchor="middle" dy="0.6em">5</text>
      </g>
    </g>
    <g transform="translate(84.89,111.01)">
      <g class="primitive">
        <text text-anchor="middle" dy="0.6em">10</text>
      </g>
    </g>
    <g transform="translate(120,111.01)">
      <g class="primitive">
        <text text-anchor="middle" dy="0.6em">15</text>
      </g>
    </g>
  </g>
  <g clip-path="url(#img-dce80e70-4)">
    <g id="img-dce80e70-5">
      <g pointer-events="visible" stroke-width="0.3" fill="#000000" fill-opacity="0.000" stroke="#000000" stroke-opacity="0.000" class="guide background" id="img-dce80e70-6">
        <g transform="translate(67.33,60.31)" id="img-dce80e70-7">
          <path d="M-54.67,-49.7 L54.67,-49.7 54.67,49.7 -54.67,49.7  z" class="primitive"/>
        </g>
      </g>
      <g class="guide ygridlines xfixed" stroke-dasharray="0.5,0.5" stroke-width="0.2" stroke="#D0D0E0" id="img-dce80e70-8">
        <g transform="translate(67.33,108.01)" id="img-dce80e70-9">
          <path fill="none" d="M-54.67,0 L54.67,0 " class="primitive"/>
        </g>
        <g transform="translate(67.33,88.93)" id="img-dce80e70-10">
          <path fill="none" d="M-54.67,0 L54.67,0 " class="primitive"/>
        </g>
        <g transform="translate(67.33,69.85)" id="img-dce80e70-11">
          <path fill="none" d="M-54.67,0 L54.67,0 " class="primitive"/>
        </g>
        <g transform="translate(67.33,50.77)" id="img-dce80e70-12">
          <path fill="none" d="M-54.67,0 L54.67,0 " class="primitive"/>
        </g>
        <g transform="translate(67.33,31.7)" id="img-dce80e70-13">
          <path fill="none" d="M-54.67,0 L54.67,0 " class="primitive"/>
        </g>
        <g transform="translate(67.33,12.62)" id="img-dce80e70-14">
          <path fill="none" d="M-54.67,0 L54.67,0 " class="primitive"/>
        </g>
      </g>
      <g class="guide xgridlines yfixed" stroke-dasharray="0.5,0.5" stroke-width="0.2" stroke="#D0D0E0" id="img-dce80e70-15">
        <g transform="translate(14.66,60.31)" id="img-dce80e70-16">
          <path fill="none" d="M0,-49.7 L0,49.7 " class="primitive"/>
        </g>
        <g transform="translate(49.78,60.31)" id="img-dce80e70-17">
          <path fill="none" d="M0,-49.7 L0,49.7 " class="primitive"/>
        </g>
        <g transform="translate(84.89,60.31)" id="img-dce80e70-18">
          <path fill="none" d="M0,-49.7 L0,49.7 " class="primitive"/>
        </g>
        <g transform="translate(120,60.31)" id="img-dce80e70-19">
          <path fill="none" d="M0,-49.7 L0,49.7 " class="primitive"/>
        </g>
      </g>
      <g class="plotpanel" id="img-dce80e70-20">
        <metadata>
          <boundingbox value="12.664081488715283mm 10.616661241319449mm 109.33591851128472mm 99.3942626953125mm"/>
          <unitbox value="-0.2848031367076946 0.2552414053620498 15.569606273415388 -0.2604828107240996"/>
        </metadata>
        <g shape-rendering="crispEdges" stroke-width="0.3" id="img-dce80e70-21">
          <g class="geometry" fill-opacity="1" stroke="#000000" stroke-opacity="0.000" fill="#00BFFF" id="img-dce80e70-22">
            <g transform="translate(18.18,107.33)" id="img-dce80e70-23">
              <path d="M-3.54,-0.69 L3.54,-0.69 3.54,0.69 -3.54,0.69  z" class="primitive"/>
            </g>
            <g transform="translate(25.2,102.84)" id="img-dce80e70-24">
              <path d="M-3.54,-5.17 L3.54,-5.17 3.54,5.17 -3.54,5.17  z" class="primitive"/>
            </g>
            <g transform="translate(32.22,90.38)" id="img-dce80e70-25">
              <path d="M-3.54,-17.63 L3.54,-17.63 3.54,17.63 -3.54,17.63  z" class="primitive"/>
            </g>
            <g transform="translate(39.24,72.42)" id="img-dce80e70-26">
              <path d="M-3.54,-35.59 L3.54,-35.59 3.54,35.59 -3.54,35.59  z" class="primitive"/>
            </g>
            <g transform="translate(46.26,61.02)" id="img-dce80e70-27">
              <path d="M-3.54,-46.99 L3.54,-46.99 3.54,46.99 -3.54,46.99  z" class="primitive"/>
            </g>
            <g transform="translate(53.29,65.44)" id="img-dce80e70-28">
              <path d="M-3.54,-42.57 L3.54,-42.57 3.54,42.57 -3.54,42.57  z" class="primitive"/>
            </g>
            <g transform="translate(60.31,81.19)" id="img-dce80e70-29">
              <path d="M-3.54,-26.82 L3.54,-26.82 3.54,26.82 -3.54,26.82  z" class="primitive"/>
            </g>
            <g transform="translate(67.33,96.52)" id="img-dce80e70-30">
              <path d="M-3.54,-11.49 L3.54,-11.49 3.54,11.49 -3.54,11.49  z" class="primitive"/>
            </g>
            <g transform="translate(74.35,104.77)" id="img-dce80e70-31">
              <path d="M-3.54,-3.24 L3.54,-3.24 3.54,3.24 -3.54,3.24  z" class="primitive"/>
            </g>
            <g transform="translate(81.38,107.47)" id="img-dce80e70-32">
              <path d="M-3.54,-0.54 L3.54,-0.54 3.54,0.54 -3.54,0.54  z" class="primitive"/>
            </g>
            <g transform="translate(88.4,107.97)" id="img-dce80e70-33">
              <path d="M-3.54,-0.04 L3.54,-0.04 3.54,0.04 -3.54,0.04  z" class="primitive"/>
            </g>
          </g>
        </g>
      </g>
    </g>
  </g>
  <g class="guide ylabels" font-size="2.82" font-family="'PT Sans Caption','Helvetica Neue','Helvetica',sans-serif" fill="#6C606B" id="img-dce80e70-34">
    <g transform="translate(11.66,108.01)" id="img-dce80e70-35">
      <g class="primitive">
        <text text-anchor="end" dy="0.35em">0.00</text>
      </g>
    </g>
    <g transform="translate(11.66,88.93)" id="img-dce80e70-36">
      <g class="primitive">
        <text text-anchor="end" dy="0.35em">0.05</text>
      </g>
    </g>
    <g transform="translate(11.66,69.85)" id="img-dce80e70-37">
      <g class="primitive">
        <text text-anchor="end" dy="0.35em">0.10</text>
      </g>
    </g>
    <g transform="translate(11.66,50.77)" id="img-dce80e70-38">
      <g class="primitive">
        <text text-anchor="end" dy="0.35em">0.15</text>
      </g>
    </g>
    <g transform="translate(11.66,31.7)" id="img-dce80e70-39">
      <g class="primitive">
        <text text-anchor="end" dy="0.35em">0.20</text>
      </g>
    </g>
    <g transform="translate(11.66,12.62)" id="img-dce80e70-40">
      <g class="primitive">
        <text text-anchor="end" dy="0.35em">0.25</text>
      </g>
    </g>
  </g>
  <g font-size="3.88" font-family="'PT Sans','Helvetica Neue','Helvetica',sans-serif" fill="#564A55" stroke="#000000" stroke-opacity="0.000" id="img-dce80e70-41">
    <g transform="translate(67.33,5)" id="img-dce80e70-42">
      <g class="primitive">
        <text text-anchor="middle" dy="0.6em">Binomial(.43, 10)</text>
      </g>
    </g>
  </g>
</g>
<defs>
  <clipPath id="img-dce80e70-4">
    <path d="M12.66,10.62 L122,10.62 122,110.01 12.66,110.01 " />
  </clipPath>
</defs>
</svg>
