<?xml version="1.0" encoding="UTF-8"?>
<svg xmlns="http://www.w3.org/2000/svg"
     xmlns:xlink="http://www.w3.org/1999/xlink"
     xmlns:gadfly="http://www.gadflyjl.org/ns"
     version="1.2"
     width="101.6mm" height="101.6mm" viewBox="0 0 101.6 101.6"
     stroke="none"
     fill="#000000"
     stroke-width="0.3"
     font-size="3.88"
>
<defs>
  <marker id="arrow" markerWidth="15" markerHeight="7" refX="5" refY="3.5" orient="auto" markerUnits="strokeWidth">
    <path d="M0,0 L15,3.5 L0,7 z" stroke="context-stroke" fill="context-stroke"/>
  </marker>
</defs>
<g class="plotroot xscalable yscalable" id="img-5b254535-1">
  <g font-size="3.88" font-family="'PT Sans','Helvetica Neue','Helvetica',sans-serif" fill="#564A55" stroke="#000000" stroke-opacity="0.000" id="img-5b254535-2">
    <g transform="translate(54.63,91.66)">
      <g class="primitive">
        <text text-anchor="middle" dy="0.6em">x</text>
      </g>
    </g>
  </g>
  <g class="guide xlabels" font-size="2.82" font-family="'PT Sans Caption','Helvetica Neue','Helvetica',sans-serif" fill="#6C606B" id="img-5b254535-3">
    <g transform="translate(14.66,85.61)">
      <g class="primitive">
        <text text-anchor="middle" dy="0.6em">0</text>
      </g>
    </g>
    <g transform="translate(41.31,85.61)">
      <g class="primitive">
        <text text-anchor="middle" dy="0.6em">5</text>
      </g>
    </g>
    <g transform="translate(67.95,85.61)">
      <g class="primitive">
        <text text-anchor="middle" dy="0.6em">10</text>
      </g>
    </g>
    <g transform="translate(94.6,85.61)">
      <g class="primitive">
        <text text-anchor="middle" dy="0.6em">15</text>
      </g>
    </g>
  </g>
  <g clip-path="url(#img-5b254535-4)">
    <g id="img-5b254535-5">
      <g pointer-events="visible" stroke-width="0.3" fill="#000000" fill-opacity="0.000" stroke="#000000" stroke-opacity="0.000" class="guide background" id="img-5b254535-6">
        <g transform="translate(54.63,47.61)" id="img-5b254535-7">
          <path d="M-41.97,-37 L41.97,-37 41.97,37 -41.97,37  z" class="primitive"/>
        </g>
      </g>
      <g class="guide ygridlines xfixed" stroke-dasharray="0.5,0.5" stroke-width="0.2" stroke="#D0D0E0" id="img-5b254535-8">
        <g transform="translate(54.63,82.61)" id="img-5b254535-9">
          <path fill="none" d="M-41.97,0 L41.97,0 " class="primitive"/>
        </g>
        <g transform="translate(54.63,68.61)" id="img-5b254535-10">
          <path fill="none" d="M-41.97,0 L41.97,0 " class="primitive"/>
        </g>
        <g transform="translate(54.63,54.61)" id="img-5b254535-11">
          <path fill="none" d="M-41.97,0 L41.97,0 " class="primitive"/>
        </g>
        <g transform="translate(54.63,40.61)" id="img-5b254535-12">
          <path fill="none" d="M-41.97,0 L41.97,0 " class="primitive"/>
        </g>
        <g transform="translate(54.63,26.62)" id="img-5b254535-13">
          <path fill="none" d="M-41.97,0 L41.97,0 " class="primitive"/>
        </g>
        <g transform="translate(54.63,12.62)" id="img-5b254535-14">
          <path fill="none" d="M-41.97,0 L41.97,0 " class="primitive"/>
        </g>
      </g>
      <g class="guide xgridlines yfixed" stroke-dasharray="0.5,0.5" stroke-width="0.2" stroke="#D0D0E0" id="img-5b254535-15">
        <g transform="translate(14.66,47.61)" id="img-5b254535-16">
          <path fill="none" d="M0,-37 L0,37 " class="primitive"/>
        </g>
        <g transform="translate(41.31,47.61)" id="img-5b254535-17">
          <path fill="none" d="M0,-37 L0,37 " class="primitive"/>
        </g>
        <g transform="translate(67.95,47.61)" id="img-5b254535-18">
          <path fill="none" d="M0,-37 L0,37 " class="primitive"/>
        </g>
        <g transform="translate(94.6,47.61)" id="img-5b254535-19">
          <path fill="none" d="M0,-37 L0,37 " class="primitive"/>
        </g>
      </g>
      <g class="plotpanel" id="img-5b254535-20">
        <metadata>
          <boundingbox value="12.664081488715283mm 10.616661241319449mm 83.93591851128471mm 73.9942626953125mm"/>
          <unitbox value="-0.3753006227827962 0.25714344263009836 15.750601245565592 -0.2642868852601968"/>
        </metadata>
        <g shape-rendering="crispEdges" stroke-width="0.3" id="img-5b254535-21">
          <g class="geometry" fill-opacity="1" stroke="#000000" stroke-opacity="0.000" fill="#00BFFF" id="img-5b254535-22">
            <g transform="translate(17.33,82.11)" id="img-5b254535-23">
              <path d="M-2.69,-0.5 L2.69,-0.5 2.69,0.5 -2.69,0.5  z" class="primitive"/>
            </g>
            <g transform="translate(22.66,78.79)" id="img-5b254535-24">
              <path d="M-2.69,-3.83 L2.69,-3.83 2.69,3.83 -2.69,3.83  z" class="primitive"/>
            </g>
            <g transform="translate(27.99,69.67)" id="img-5b254535-25">
              <path d="M-2.69,-12.94 L2.69,-12.94 2.69,12.94 -2.69,12.94  z" class="primitive"/>
            </g>
            <g transform="translate(33.32,56.5)" id="img-5b254535-26">
              <path d="M-2.69,-26.11 L2.69,-26.11 2.69,26.11 -2.69,26.11  z" class="primitive"/>
            </g>
            <g transform="translate(38.64,48.03)" id="img-5b254535-27">
              <path d="M-2.69,-34.58 L2.69,-34.58 2.69,34.58 -2.69,34.58  z" class="primitive"/>
            </g>
            <g transform="translate(43.97,51.46)" id="img-5b254535-28">
              <path d="M-2.69,-31.15 L2.69,-31.15 2.69,31.15 -2.69,31.15  z" class="primitive"/>
            </g>
            <g transform="translate(49.3,63.03)" id="img-5b254535-29">
              <path d="M-2.69,-19.58 L2.69,-19.58 2.69,19.58 -2.69,19.58  z" class="primitive"/>
            </g>
            <g transform="translate(54.63,74.15)" id="img-5b254535-30">
              <path d="M-2.69,-8.46 L2.69,-8.46 2.69,8.46 -2.69,8.46  z" class="primitive"/>
            </g>
            <g transform="translate(59.96,80.19)" id="img-5b254535-31">
              <path d="M-2.69,-2.42 L2.69,-2.42 2.69,2.42 -2.69,2.42  z" class="primitive"/>
            </g>
            <g transform="translate(65.29,82.23)" id="img-5b254535-32">
              <path d="M-2.69,-0.38 L2.69,-0.38 2.69,0.38 -2.69,0.38  z" class="primitive"/>
            </g>
            <g transform="translate(70.62,82.58)" id="img-5b254535-33">
              <path d="M-2.69,-0.03 L2.69,-0.03 2.69,0.03 -2.69,0.03  z" class="primitive"/>
            </g>
          </g>
        </g>
      </g>
    </g>
  </g>
  <g class="guide ylabels" font-size="2.82" font-family="'PT Sans Caption','Helvetica Neue','Helvetica',sans-serif" fill="#6C606B" id="img-5b254535-34">
    <g transform="translate(11.66,82.61)" id="img-5b254535-35">
      <g class="primitive">
        <text text-anchor="end" dy="0.35em">0.00</text>
      </g>
    </g>
    <g transform="translate(11.66,68.61)" id="img-5b254535-36">
      <g class="primitive">
        <text text-anchor="end" dy="0.35em">0.05</text>
      </g>
    </g>
    <g transform="translate(11.66,54.61)" id="img-5b254535-37">
      <g class="primitive">
        <text text-anchor="end" dy="0.35em">0.10</text>
      </g>
    </g>
    <g transform="translate(11.66,40.61)" id="img-5b254535-38">
      <g class="primitive">
        <text text-anchor="end" dy="0.35em">0.15</text>
      </g>
    </g>
    <g transform="translate(11.66,26.62)" id="img-5b254535-39">
      <g class="primitive">
        <text text-anchor="end" dy="0.35em">0.20</text>
      </g>
    </g>
    <g transform="translate(11.66,12.62)" id="img-5b254535-40">
      <g class="primitive">
        <text text-anchor="end" dy="0.35em">0.25</text>
      </g>
    </g>
  </g>
  <g font-size="3.88" font-family="'PT Sans','Helvetica Neue','Helvetica',sans-serif" fill="#564A55" stroke="#000000" stroke-opacity="0.000" id="img-5b254535-41">
    <g transform="translate(54.63,5)" id="img-5b254535-42">
      <g class="primitive">
        <text text-anchor="middle" dy="0.6em">Binomial(.4, 10)</text>
      </g>
    </g>
  </g>
</g>
<defs>
  <clipPath id="img-5b254535-4">
    <path d="M12.66,10.62 L96.6,10.62 96.6,84.61 12.66,84.61 " />
  </clipPath>
</defs>
</svg>
