<?xml version="1.0" encoding="UTF-8"?>
<svg xmlns="http://www.w3.org/2000/svg"
     xmlns:xlink="http://www.w3.org/1999/xlink"
     xmlns:gadfly="http://www.gadflyjl.org/ns"
     version="1.2"
     width="127mm" height="127mm" viewBox="0 0 127 127"
     stroke="none"
     fill="#000000"
     stroke-width="0.3"
     font-size="3.88"
>
<defs>
  <marker id="arrow" markerWidth="15" markerHeight="7" refX="5" refY="3.5" orient="auto" markerUnits="strokeWidth">
    <path d="M0,0 L15,3.5 L0,7 z" stroke="context-stroke" fill="context-stroke"/>
  </marker>
</defs>
<g class="plotroot xscalable yscalable" id="img-661c3a84-1">
  <g font-size="3.88" font-family="'PT Sans','Helvetica Neue','Helvetica',sans-serif" fill="#564A55" stroke="#000000" stroke-opacity="0.000" id="img-661c3a84-2">
    <g transform="translate(67.33,117.06)">
      <g class="primitive">
        <text text-anchor="middle" dy="0.6em">x</text>
      </g>
    </g>
  </g>
  <g class="guide xlabels" font-size="2.82" font-family="'PT Sans Caption','Helvetica Neue','Helvetica',sans-serif" fill="#6C606B" id="img-661c3a84-3">
    <g transform="translate(14.66,111.01)">
      <g class="primitive">
        <text text-anchor="middle" dy="0.6em">0</text>
      </g>
    </g>
    <g transform="translate(49.78,111.01)">
      <g class="primitive">
        <text text-anchor="middle" dy="0.6em">5</text>
      </g>
    </g>
    <g transform="translate(84.89,111.01)">
      <g class="primitive">
        <text text-anchor="middle" dy="0.6em">10</text>
      </g>
    </g>
    <g transform="translate(120,111.01)">
      <g class="primitive">
        <text text-anchor="middle" dy="0.6em">15</text>
      </g>
    </g>
  </g>
  <g clip-path="url(#img-661c3a84-4)">
    <g id="img-661c3a84-5">
      <g pointer-events="visible" stroke-width="0.3" fill="#000000" fill-opacity="0.000" stroke="#000000" stroke-opacity="0.000" class="guide background" id="img-661c3a84-6">
        <g transform="translate(67.33,60.31)" id="img-661c3a84-7">
          <path d="M-54.67,-49.7 L54.67,-49.7 54.67,49.7 -54.67,49.7  z" class="primitive"/>
        </g>
      </g>
      <g class="guide ygridlines xfixed" stroke-dasharray="0.5,0.5" stroke-width="0.2" stroke="#D0D0E0" id="img-661c3a84-8">
        <g transform="translate(67.33,108.01)" id="img-661c3a84-9">
          <path fill="none" d="M-54.67,0 L54.67,0 " class="primitive"/>
        </g>
        <g transform="translate(67.33,88.93)" id="img-661c3a84-10">
          <path fill="none" d="M-54.67,0 L54.67,0 " class="primitive"/>
        </g>
        <g transform="translate(67.33,69.85)" id="img-661c3a84-11">
          <path fill="none" d="M-54.67,0 L54.67,0 " class="primitive"/>
        </g>
        <g transform="translate(67.33,50.77)" id="img-661c3a84-12">
          <path fill="none" d="M-54.67,0 L54.67,0 " class="primitive"/>
        </g>
        <g transform="translate(67.33,31.7)" id="img-661c3a84-13">
          <path fill="none" d="M-54.67,0 L54.67,0 " class="primitive"/>
        </g>
        <g transform="translate(67.33,12.62)" id="img-661c3a84-14">
          <path fill="none" d="M-54.67,0 L54.67,0 " class="primitive"/>
        </g>
      </g>
      <g class="guide xgridlines yfixed" stroke-dasharray="0.5,0.5" stroke-width="0.2" stroke="#D0D0E0" id="img-661c3a84-15">
        <g transform="translate(14.66,60.31)" id="img-661c3a84-16">
          <path fill="none" d="M0,-49.7 L0,49.7 " class="primitive"/>
        </g>
        <g transform="translate(49.78,60.31)" id="img-661c3a84-17">
          <path fill="none" d="M0,-49.7 L0,49.7 " class="primitive"/>
        </g>
        <g transform="translate(84.89,60.31)" id="img-661c3a84-18">
          <path fill="none" d="M0,-49.7 L0,49.7 " class="primitive"/>
        </g>
        <g transform="translate(120,60.31)" id="img-661c3a84-19">
          <path fill="none" d="M0,-49.7 L0,49.7 " class="primitive"/>
        </g>
      </g>
      <g class="plotpanel" id="img-661c3a84-20">
        <metadata>
          <boundingbox value="12.664081488715283mm 10.616661241319449mm 109.33591851128472mm 99.3942626953125mm"/>
          <unitbox value="-0.2848031367076946 0.2552414053620498 15.569606273415388 -0.2604828107240996"/>
        </metadata>
        <g shape-rendering="crispEdges" stroke-width="0.3" id="img-661c3a84-21">
          <g class="geometry" fill-opacity="1" stroke="#000000" stroke-opacity="0.000" fill="#00BFFF" id="img-661c3a84-22">
            <g transform="translate(18.18,107.29)" id="img-661c3a84-23">
              <path d="M-3.54,-0.72 L3.54,-0.72 3.54,0.72 -3.54,0.72  z" class="primitive"/>
            </g>
            <g transform="translate(25.2,102.79)" id="img-661c3a84-24">
              <path d="M-3.54,-5.22 L3.54,-5.22 3.54,5.22 -3.54,5.22  z" class="primitive"/>
            </g>
            <g transform="translate(32.22,90.35)" id="img-661c3a84-25">
              <path d="M-3.54,-17.66 L3.54,-17.66 3.54,17.66 -3.54,17.66  z" class="primitive"/>
            </g>
            <g transform="translate(39.24,72.53)" id="img-661c3a84-26">
              <path d="M-3.54,-35.48 L3.54,-35.48 3.54,35.48 -3.54,35.48  z" class="primitive"/>
            </g>
            <g transform="translate(46.26,61.11)" id="img-661c3a84-27">
              <path d="M-3.54,-46.9 L3.54,-46.9 3.54,46.9 -3.54,46.9  z" class="primitive"/>
            </g>
            <g transform="translate(53.29,65.36)" id="img-661c3a84-28">
              <path d="M-3.54,-42.65 L3.54,-42.65 3.54,42.65 -3.54,42.65  z" class="primitive"/>
            </g>
            <g transform="translate(60.31,81.25)" id="img-661c3a84-29">
              <path d="M-3.54,-26.76 L3.54,-26.76 3.54,26.76 -3.54,26.76  z" class="primitive"/>
            </g>
            <g transform="translate(67.33,96.48)" id="img-661c3a84-30">
              <path d="M-3.54,-11.53 L3.54,-11.53 3.54,11.53 -3.54,11.53  z" class="primitive"/>
            </g>
            <g transform="translate(74.35,104.74)" id="img-661c3a84-31">
              <path d="M-3.54,-3.27 L3.54,-3.27 3.54,3.27 -3.54,3.27  z" class="primitive"/>
            </g>
            <g transform="translate(81.38,107.46)" id="img-661c3a84-32">
              <path d="M-3.54,-0.55 L3.54,-0.55 3.54,0.55 -3.54,0.55  z" class="primitive"/>
            </g>
            <g transform="translate(88.4,107.97)" id="img-661c3a84-33">
              <path d="M-3.54,-0.04 L3.54,-0.04 3.54,0.04 -3.54,0.04  z" class="primitive"/>
            </g>
          </g>
        </g>
      </g>
    </g>
  </g>
  <g class="guide ylabels" font-size="2.82" font-family="'PT Sans Caption','Helvetica Neue','Helvetica',sans-serif" fill="#6C606B" id="img-661c3a84-34">
    <g transform="translate(11.66,108.01)" id="img-661c3a84-35">
      <g class="primitive">
        <text text-anchor="end" dy="0.35em">0.00</text>
      </g>
    </g>
    <g transform="translate(11.66,88.93)" id="img-661c3a84-36">
      <g class="primitive">
        <text text-anchor="end" dy="0.35em">0.05</text>
      </g>
    </g>
    <g transform="translate(11.66,69.85)" id="img-661c3a84-37">
      <g class="primitive">
        <text text-anchor="end" dy="0.35em">0.10</text>
      </g>
    </g>
    <g transform="translate(11.66,50.77)" id="img-661c3a84-38">
      <g class="primitive">
        <text text-anchor="end" dy="0.35em">0.15</text>
      </g>
    </g>
    <g transform="translate(11.66,31.7)" id="img-661c3a84-39">
      <g class="primitive">
        <text text-anchor="end" dy="0.35em">0.20</text>
      </g>
    </g>
    <g transform="translate(11.66,12.62)" id="img-661c3a84-40">
      <g class="primitive">
        <text text-anchor="end" dy="0.35em">0.25</text>
      </g>
    </g>
  </g>
  <g font-size="3.88" font-family="'PT Sans','Helvetica Neue','Helvetica',sans-serif" fill="#564A55" stroke="#000000" stroke-opacity="0.000" id="img-661c3a84-41">
    <g transform="translate(67.33,5)" id="img-661c3a84-42">
      <g class="primitive">
        <text text-anchor="middle" dy="0.6em">Binomial(.43, 10)</text>
      </g>
    </g>
  </g>
</g>
<defs>
  <clipPath id="img-661c3a84-4">
    <path d="M12.66,10.62 L122,10.62 122,110.01 12.66,110.01 " />
  </clipPath>
</defs>
</svg>
