<?xml version="1.0" encoding="UTF-8"?>
<svg xmlns="http://www.w3.org/2000/svg"
     xmlns:xlink="http://www.w3.org/1999/xlink"
     xmlns:gadfly="http://www.gadflyjl.org/ns"
     version="1.2"
     width="101.6mm" height="101.6mm" viewBox="0 0 101.6 101.6"
     stroke="none"
     fill="#000000"
     stroke-width="0.3"
     font-size="3.88"
>
<defs>
  <marker id="arrow" markerWidth="15" markerHeight="7" refX="5" refY="3.5" orient="auto" markerUnits="strokeWidth">
    <path d="M0,0 L15,3.5 L0,7 z" stroke="context-stroke" fill="context-stroke"/>
  </marker>
</defs>
<g class="plotroot xscalable yscalable" id="img-ba1122e7-1">
  <g font-size="3.88" font-family="'PT Sans','Helvetica Neue','Helvetica',sans-serif" fill="#564A55" stroke="#000000" stroke-opacity="0.000" id="img-ba1122e7-2">
    <g transform="translate(53.79,91.66)">
      <g class="primitive">
        <text text-anchor="middle" dy="0.6em">x</text>
      </g>
    </g>
  </g>
  <g class="guide xlabels" font-size="2.82" font-family="'PT Sans Caption','Helvetica Neue','Helvetica',sans-serif" fill="#6C606B" id="img-ba1122e7-3">
    <g transform="translate(12.97,85.61)">
      <g class="primitive">
        <text text-anchor="middle" dy="0.6em">-5</text>
      </g>
    </g>
    <g transform="translate(33.38,85.61)">
      <g class="primitive">
        <text text-anchor="middle" dy="0.6em">0</text>
      </g>
    </g>
    <g transform="translate(53.79,85.61)">
      <g class="primitive">
        <text text-anchor="middle" dy="0.6em">5</text>
      </g>
    </g>
    <g transform="translate(74.19,85.61)">
      <g class="primitive">
        <text text-anchor="middle" dy="0.6em">10</text>
      </g>
    </g>
    <g transform="translate(94.6,85.61)">
      <g class="primitive">
        <text text-anchor="middle" dy="0.6em">15</text>
      </g>
    </g>
  </g>
  <g clip-path="url(#img-ba1122e7-4)">
    <g id="img-ba1122e7-5">
      <g pointer-events="visible" stroke-width="0.3" fill="#000000" fill-opacity="0.000" stroke="#000000" stroke-opacity="0.000" class="guide background" id="img-ba1122e7-6">
        <g transform="translate(53.79,47.61)" id="img-ba1122e7-7">
          <path d="M-42.81,-37 L42.81,-37 42.81,37 -42.81,37  z" class="primitive"/>
        </g>
      </g>
      <g class="guide ygridlines xfixed" stroke-dasharray="0.5,0.5" stroke-width="0.2" stroke="#D0D0E0" id="img-ba1122e7-8">
        <g transform="translate(53.79,82.61)" id="img-ba1122e7-9">
          <path fill="none" d="M-42.81,0 L42.81,0 " class="primitive"/>
        </g>
        <g transform="translate(53.79,65.11)" id="img-ba1122e7-10">
          <path fill="none" d="M-42.81,0 L42.81,0 " class="primitive"/>
        </g>
        <g transform="translate(53.79,47.61)" id="img-ba1122e7-11">
          <path fill="none" d="M-42.81,0 L42.81,0 " class="primitive"/>
        </g>
        <g transform="translate(53.79,30.12)" id="img-ba1122e7-12">
          <path fill="none" d="M-42.81,0 L42.81,0 " class="primitive"/>
        </g>
        <g transform="translate(53.79,12.62)" id="img-ba1122e7-13">
          <path fill="none" d="M-42.81,0 L42.81,0 " class="primitive"/>
        </g>
      </g>
      <g class="guide xgridlines yfixed" stroke-dasharray="0.5,0.5" stroke-width="0.2" stroke="#D0D0E0" id="img-ba1122e7-14">
        <g transform="translate(12.97,47.61)" id="img-ba1122e7-15">
          <path fill="none" d="M0,-37 L0,37 " class="primitive"/>
        </g>
        <g transform="translate(33.38,47.61)" id="img-ba1122e7-16">
          <path fill="none" d="M0,-37 L0,37 " class="primitive"/>
        </g>
        <g transform="translate(53.79,47.61)" id="img-ba1122e7-17">
          <path fill="none" d="M0,-37 L0,37 " class="primitive"/>
        </g>
        <g transform="translate(74.19,47.61)" id="img-ba1122e7-18">
          <path fill="none" d="M0,-37 L0,37 " class="primitive"/>
        </g>
        <g transform="translate(94.6,47.61)" id="img-ba1122e7-19">
          <path fill="none" d="M0,-37 L0,37 " class="primitive"/>
        </g>
      </g>
      <g class="plotpanel" id="img-ba1122e7-20">
        <metadata>
          <boundingbox value="10.97116156684028mm 10.616661241319449mm 85.62883843315971mm 73.99426269531249mm"/>
          <unitbox value="-5.490022898374981 0.8228590164163149 20.980045796749963 -0.8457180328326297"/>
        </metadata>
        <g class="geometry" stroke-width="0.3" stroke-dasharray="none" fill-opacity="1" stroke="#FFFFFF" fill="#B9EAFF" id="img-ba1122e7-21">
          <g transform="translate(53.79,74.74)" id="img-ba1122e7-22">
            <path d="M-22.6,7.87 L-22.42,7.87 -22.25,7.87 -22.07,7.86 -21.89,7.84 -21.71,7.81 -21.54,7.75 -21.36,7.65 -21.18,7.51 -21,7.33 -20.83,7.15 -20.65,7 -20.47,6.92 -20.3,6.93 -20.12,7.03 -19.94,7.19 -19.76,7.38 -19.59,7.55 -19.41,7.68 -19.23,7.77 -19.06,7.82 -18.88,7.85 -18.7,7.86 -18.52,7.86 -18.35,7.86 -18.17,7.84 -17.99,7.79 -17.81,7.68 -17.64,7.44 -17.46,7 -17.28,6.28 -17.11,5.24 -16.93,3.96 -16.75,2.62 -16.57,1.5 -16.4,0.89 -16.22,0.96 -16.04,1.7 -15.86,2.89 -15.69,4.24 -15.51,5.48 -15.33,6.45 -15.16,7.11 -14.98,7.5 -14.8,7.71 -14.62,7.8 -14.45,7.84 -14.27,7.83 -14.09,7.77 -13.91,7.61 -13.74,7.22 -13.56,6.41 -13.38,4.92 -13.21,2.47 -13.03,-1.05 -12.85,-5.43 -12.67,-10.05 -12.5,-13.93 -12.32,-16.07 -12.14,-15.88 -11.96,-13.41 -11.79,-9.35 -11.61,-4.72 -11.43,-0.44 -11.26,2.92 -11.08,5.2 -10.9,6.57 -10.72,7.3 -10.55,7.64 -10.37,7.77 -10.19,7.78 -10.02,7.68 -9.84,7.36 -9.66,6.6 -9.48,5.02 -9.31,2.08 -9.13,-2.75 -8.95,-9.72 -8.77,-18.43 -8.6,-27.64 -8.42,-35.43 -8.24,-39.82 -8.07,-39.56 -7.89,-34.74 -7.71,-26.71 -7.53,-17.47 -7.36,-8.9 -7.18,-2.16 -7,2.45 -6.82,5.23 -6.65,6.71 -6.47,7.4 -6.29,7.68 -6.12,7.74 -5.94,7.62 -5.76,7.22 -5.58,6.25 -5.41,4.21 -5.23,0.42 -5.05,-5.82 -4.87,-14.85 -4.7,-26.19 -4.52,-38.24 -4.34,-48.5 -4.17,-54.38 -3.99,-54.21 -3.81,-48.05 -3.63,-37.63 -3.46,-25.56 -3.28,-14.32 -3.1,-5.43 -2.92,0.67 -2.75,4.35 -2.57,6.31 -2.39,7.25 -2.22,7.63 -2.04,7.73 -1.86,7.64 -1.68,7.29 -1.51,6.43 -1.33,4.62 -1.15,1.24 -0.97,-4.35 -0.8,-12.47 -0.62,-22.69 -0.44,-33.61 -0.27,-42.98 -0.09,-48.43 0.09,-48.43 0.27,-42.98 0.44,-33.61 0.62,-22.69 0.8,-12.47 0.97,-4.35 1.15,1.24 1.33,4.62 1.51,6.43 1.68,7.29 1.86,7.65 2.04,7.76 2.22,7.72 2.39,7.52 2.57,6.99 2.75,5.89 2.92,3.81 3.1,0.38 3.28,-4.63 3.46,-10.96 3.63,-17.76 3.81,-23.63 3.99,-27.1 4.17,-27.19 4.34,-23.88 4.52,-18.1 4.7,-11.31 4.87,-4.93 5.05,0.16 5.23,3.68 5.41,5.81 5.58,6.96 5.76,7.5 5.94,7.73 6.12,7.81 6.29,7.8 6.47,7.72 6.65,7.49 6.82,7.02 7,6.13 7.18,4.64 7.36,2.47 7.53,-0.29 7.71,-3.27 7.89,-5.86 8.07,-7.41 8.24,-7.49 8.42,-6.08 8.6,-3.57 8.77,-0.6 8.95,2.2 9.13,4.45 9.31,6 9.48,6.95 9.66,7.46 9.84,7.71 10.02,7.81 10.19,7.85 10.37,7.85 10.55,7.83 10.72,7.77 10.9,7.63 11.08,7.38 11.26,6.97 11.43,6.36 11.61,5.58 11.79,4.73 11.96,3.99 12.14,3.54 12.32,3.51 12.5,3.9 12.67,4.6 12.85,5.44 13.03,6.24 13.21,6.89 13.38,7.33 13.56,7.6 13.74,7.75 13.91,7.82 14.09,7.85 14.27,7.86 14.45,7.87 14.62,7.86 14.8,7.85 14.98,7.83 15.16,7.79 15.33,7.72 15.51,7.61 15.69,7.48 15.86,7.34 16.04,7.21 16.22,7.13 16.4,7.12 16.57,7.19 16.75,7.31 16.93,7.45 17.11,7.59 17.28,7.7 17.46,7.78 17.64,7.82 17.81,7.85 17.99,7.86 18.17,7.87 18.35,7.87 18.52,7.87 18.7,7.87 18.88,7.87 19.06,7.87 19.23,7.86 19.41,7.86 19.59,7.85 19.76,7.85 19.94,7.84 20.12,7.83 20.3,7.82 20.47,7.82 20.65,7.83 20.83,7.83 21,7.84 21.18,7.85 21.36,7.86 21.54,7.86 21.71,7.87 21.89,7.87 22.07,7.87 22.25,7.87 22.42,7.87 22.6,7.87  z" class="primitive"/>
          </g>
        </g>
      </g>
    </g>
  </g>
  <g class="guide ylabels" font-size="2.82" font-family="'PT Sans Caption','Helvetica Neue','Helvetica',sans-serif" fill="#6C606B" id="img-ba1122e7-23">
    <g transform="translate(9.97,82.61)" id="img-ba1122e7-24">
      <g class="primitive">
        <text text-anchor="end" dy="0.35em">0.0</text>
      </g>
    </g>
    <g transform="translate(9.97,65.11)" id="img-ba1122e7-25">
      <g class="primitive">
        <text text-anchor="end" dy="0.35em">0.2</text>
      </g>
    </g>
    <g transform="translate(9.97,47.61)" id="img-ba1122e7-26">
      <g class="primitive">
        <text text-anchor="end" dy="0.35em">0.4</text>
      </g>
    </g>
    <g transform="translate(9.97,30.12)" id="img-ba1122e7-27">
      <g class="primitive">
        <text text-anchor="end" dy="0.35em">0.6</text>
      </g>
    </g>
    <g transform="translate(9.97,12.62)" id="img-ba1122e7-28">
      <g class="primitive">
        <text text-anchor="end" dy="0.35em">0.8</text>
      </g>
    </g>
  </g>
  <g font-size="3.88" font-family="'PT Sans','Helvetica Neue','Helvetica',sans-serif" fill="#564A55" stroke="#000000" stroke-opacity="0.000" id="img-ba1122e7-29">
    <g transform="translate(53.79,5)" id="img-ba1122e7-30">
      <g class="primitive">
        <text text-anchor="middle" dy="0.6em">Binomial(.43, 10)</text>
      </g>
    </g>
  </g>
</g>
<defs>
  <clipPath id="img-ba1122e7-4">
    <path d="M10.97,10.62 L96.6,10.62 96.6,84.61 10.97,84.61 " />
  </clipPath>
</defs>
</svg>
