<?xml version="1.0" encoding="UTF-8"?>
<svg xmlns="http://www.w3.org/2000/svg"
     xmlns:xlink="http://www.w3.org/1999/xlink"
     xmlns:gadfly="http://www.gadflyjl.org/ns"
     version="1.2"
     width="127mm" height="127mm" viewBox="0 0 127 127"
     stroke="none"
     fill="#000000"
     stroke-width="0.3"
     font-size="3.88"
>
<defs>
  <marker id="arrow" markerWidth="15" markerHeight="7" refX="5" refY="3.5" orient="auto" markerUnits="strokeWidth">
    <path d="M0,0 L15,3.5 L0,7 z" stroke="context-stroke" fill="context-stroke"/>
  </marker>
</defs>
<g class="plotroot xscalable yscalable" id="img-a61f33f1-1">
  <g font-size="3.88" font-family="'PT Sans','Helvetica Neue','Helvetica',sans-serif" fill="#564A55" stroke="#000000" stroke-opacity="0.000" id="img-a61f33f1-2">
    <g transform="translate(66.49,117.06)">
      <g class="primitive">
        <text text-anchor="middle" dy="0.6em">x</text>
      </g>
    </g>
  </g>
  <g class="guide xlabels" font-size="2.82" font-family="'PT Sans Caption','Helvetica Neue','Helvetica',sans-serif" fill="#6C606B" id="img-a61f33f1-3">
    <g transform="translate(12.97,111.01)">
      <g class="primitive">
        <text text-anchor="middle" dy="0.6em">0</text>
      </g>
    </g>
    <g transform="translate(44.73,111.01)">
      <g class="primitive">
        <text text-anchor="middle" dy="0.6em">2</text>
      </g>
    </g>
    <g transform="translate(76.49,111.01)">
      <g class="primitive">
        <text text-anchor="middle" dy="0.6em">4</text>
      </g>
    </g>
    <g transform="translate(108.26,111.01)">
      <g class="primitive">
        <text text-anchor="middle" dy="0.6em">6</text>
      </g>
    </g>
  </g>
  <g clip-path="url(#img-a61f33f1-4)">
    <g id="img-a61f33f1-5">
      <g pointer-events="visible" stroke-width="0.3" fill="#000000" fill-opacity="0.000" stroke="#000000" stroke-opacity="0.000" class="guide background" id="img-a61f33f1-6">
        <g transform="translate(66.49,60.31)" id="img-a61f33f1-7">
          <path d="M-55.51,-49.7 L55.51,-49.7 55.51,49.7 -55.51,49.7  z" class="primitive"/>
        </g>
      </g>
      <g class="guide ygridlines xfixed" stroke-dasharray="0.5,0.5" stroke-width="0.2" stroke="#D0D0E0" id="img-a61f33f1-8">
        <g transform="translate(66.49,108.01)" id="img-a61f33f1-9">
          <path fill="none" d="M-55.51,0 L55.51,0 " class="primitive"/>
        </g>
        <g transform="translate(66.49,84.16)" id="img-a61f33f1-10">
          <path fill="none" d="M-55.51,0 L55.51,0 " class="primitive"/>
        </g>
        <g transform="translate(66.49,60.31)" id="img-a61f33f1-11">
          <path fill="none" d="M-55.51,0 L55.51,0 " class="primitive"/>
        </g>
        <g transform="translate(66.49,36.47)" id="img-a61f33f1-12">
          <path fill="none" d="M-55.51,0 L55.51,0 " class="primitive"/>
        </g>
        <g transform="translate(66.49,12.62)" id="img-a61f33f1-13">
          <path fill="none" d="M-55.51,0 L55.51,0 " class="primitive"/>
        </g>
      </g>
      <g class="guide xgridlines yfixed" stroke-dasharray="0.5,0.5" stroke-width="0.2" stroke="#D0D0E0" id="img-a61f33f1-14">
        <g transform="translate(12.97,60.31)" id="img-a61f33f1-15">
          <path fill="none" d="M0,-49.7 L0,49.7 " class="primitive"/>
        </g>
        <g transform="translate(44.73,60.31)" id="img-a61f33f1-16">
          <path fill="none" d="M0,-49.7 L0,49.7 " class="primitive"/>
        </g>
        <g transform="translate(76.49,60.31)" id="img-a61f33f1-17">
          <path fill="none" d="M0,-49.7 L0,49.7 " class="primitive"/>
        </g>
        <g transform="translate(108.26,60.31)" id="img-a61f33f1-18">
          <path fill="none" d="M0,-49.7 L0,49.7 " class="primitive"/>
        </g>
      </g>
      <g class="plotpanel" id="img-a61f33f1-19">
        <metadata>
          <boundingbox value="10.97116156684028mm 10.616661241319449mm 111.02883843315973mm 99.39426269531249mm"/>
          <unitbox value="-0.12593853787211792 0.8167724971585595 6.991404786955874 -0.8335449943171188"/>
        </metadata>
        <g class="geometry" stroke-width="0.3" stroke-dasharray="none" fill-opacity="1" stroke="#FFFFFF" fill="#B9EAFF" id="img-a61f33f1-20">
          <g transform="translate(66,90.55)" id="img-a61f33f1-21">
            <path d="M-54,17.46 L-53.58,17.46 -53.16,17.46 -52.73,17.46 -52.31,17.46 -51.89,17.46 -51.46,17.46 -51.04,17.45 -50.61,17.43 -50.19,17.4 -49.77,17.34 -49.34,17.25 -48.92,17.13 -48.5,16.95 -48.07,16.69 -47.65,16.34 -47.23,15.89 -46.8,15.3 -46.38,14.57 -45.96,13.73 -45.53,12.77 -45.11,11.64 -44.68,10.33 -44.26,8.86 -43.84,7.23 -43.41,5.42 -42.99,3.46 -42.57,1.39 -42.14,-0.78 -41.72,-3.09 -41.3,-5.49 -40.87,-7.94 -40.45,-10.49 -40.03,-13.21 -39.6,-16.04 -39.18,-18.86 -38.76,-21.65 -38.33,-24.49 -37.91,-27.39 -37.48,-30.25 -37.06,-32.97 -36.64,-35.52 -36.21,-37.93 -35.79,-40.28 -35.37,-42.56 -34.94,-44.68 -34.52,-46.59 -34.1,-48.36 -33.67,-50.07 -33.25,-51.79 -32.83,-53.47 -32.4,-54.89 -31.98,-55.88 -31.55,-56.51 -31.13,-57.03 -30.71,-57.57 -30.28,-58.09 -29.86,-58.52 -29.44,-58.82 -29.01,-58.98 -28.59,-59.03 -28.17,-58.92 -27.74,-58.64 -27.32,-58.19 -26.9,-57.5 -26.47,-56.56 -26.05,-55.47 -25.62,-54.35 -25.2,-53.29 -24.78,-52.29 -24.35,-51.24 -23.93,-50.06 -23.51,-48.77 -23.08,-47.31 -22.66,-45.71 -22.24,-44.1 -21.81,-42.59 -21.39,-41.14 -20.97,-39.66 -20.54,-38.07 -20.12,-36.42 -19.7,-34.81 -19.27,-33.29 -18.85,-31.79 -18.42,-30.24 -18,-28.67 -17.58,-27.1 -17.15,-25.55 -16.73,-24.01 -16.31,-22.49 -15.88,-20.97 -15.46,-19.5 -15.04,-18.1 -14.61,-16.7 -14.19,-15.24 -13.77,-13.8 -13.34,-12.5 -12.92,-11.35 -12.49,-10.26 -12.07,-9.13 -11.65,-7.93 -11.22,-6.74 -10.8,-5.61 -10.38,-4.58 -9.95,-3.59 -9.53,-2.6 -9.11,-1.6 -8.68,-0.65 -8.26,0.22 -7.84,1.06 -7.41,1.92 -6.99,2.73 -6.57,3.47 -6.14,4.2 -5.72,4.93 -5.29,5.64 -4.87,6.26 -4.45,6.77 -4.02,7.25 -3.6,7.75 -3.18,8.25 -2.75,8.71 -2.33,9.16 -1.91,9.6 -1.48,10.02 -1.06,10.42 -0.64,10.85 -0.21,11.31 0.21,11.74 0.64,12.07 1.06,12.31 1.48,12.53 1.91,12.77 2.33,13.04 2.75,13.3 3.18,13.54 3.6,13.78 4.02,14.01 4.45,14.25 4.87,14.49 5.29,14.71 5.72,14.9 6.14,15.06 6.57,15.19 6.99,15.32 7.41,15.45 7.84,15.58 8.26,15.7 8.68,15.82 9.11,15.92 9.53,16.03 9.95,16.12 10.38,16.19 10.8,16.27 11.22,16.33 11.65,16.39 12.07,16.45 12.49,16.52 12.92,16.6 13.34,16.68 13.77,16.74 14.19,16.78 14.61,16.81 15.04,16.85 15.46,16.9 15.88,16.95 16.31,16.99 16.73,17.03 17.15,17.06 17.58,17.08 18,17.09 18.42,17.1 18.85,17.12 19.27,17.15 19.7,17.18 20.12,17.21 20.54,17.23 20.97,17.24 21.39,17.26 21.81,17.28 22.24,17.29 22.66,17.3 23.08,17.3 23.51,17.31 23.93,17.33 24.35,17.34 24.78,17.35 25.2,17.35 25.62,17.37 26.05,17.38 26.47,17.39 26.9,17.4 27.32,17.4 27.74,17.39 28.17,17.39 28.59,17.39 29.01,17.4 29.44,17.41 29.86,17.42 30.28,17.43 30.71,17.43 31.13,17.43 31.55,17.43 31.98,17.43 32.4,17.43 32.83,17.44 33.25,17.44 33.67,17.44 34.1,17.44 34.52,17.45 34.94,17.45 35.37,17.45 35.79,17.45 36.21,17.45 36.64,17.45 37.06,17.44 37.48,17.44 37.91,17.44 38.33,17.45 38.76,17.45 39.18,17.46 39.6,17.46 40.03,17.46 40.45,17.46 40.87,17.46 41.3,17.46 41.72,17.46 42.14,17.46 42.57,17.46 42.99,17.46 43.41,17.46 43.84,17.46 44.26,17.46 44.68,17.46 45.11,17.46 45.53,17.46 45.96,17.46 46.38,17.46 46.8,17.46 47.23,17.46 47.65,17.46 48.07,17.46 48.5,17.46 48.92,17.46 49.34,17.46 49.77,17.46 50.19,17.46 50.61,17.46 51.04,17.46 51.46,17.46 51.89,17.46 52.31,17.46 52.73,17.46 53.16,17.46 53.58,17.46 54,17.46  z" class="primitive"/>
          </g>
        </g>
      </g>
    </g>
  </g>
  <g class="guide ylabels" font-size="2.82" font-family="'PT Sans Caption','Helvetica Neue','Helvetica',sans-serif" fill="#6C606B" id="img-a61f33f1-22">
    <g transform="translate(9.97,108.01)" id="img-a61f33f1-23">
      <g class="primitive">
        <text text-anchor="end" dy="0.35em">0.0</text>
      </g>
    </g>
    <g transform="translate(9.97,84.16)" id="img-a61f33f1-24">
      <g class="primitive">
        <text text-anchor="end" dy="0.35em">0.2</text>
      </g>
    </g>
    <g transform="translate(9.97,60.31)" id="img-a61f33f1-25">
      <g class="primitive">
        <text text-anchor="end" dy="0.35em">0.4</text>
      </g>
    </g>
    <g transform="translate(9.97,36.47)" id="img-a61f33f1-26">
      <g class="primitive">
        <text text-anchor="end" dy="0.35em">0.6</text>
      </g>
    </g>
    <g transform="translate(9.97,12.62)" id="img-a61f33f1-27">
      <g class="primitive">
        <text text-anchor="end" dy="0.35em">0.8</text>
      </g>
    </g>
  </g>
  <g font-size="3.88" font-family="'PT Sans','Helvetica Neue','Helvetica',sans-serif" fill="#564A55" stroke="#000000" stroke-opacity="0.000" id="img-a61f33f1-28">
    <g transform="translate(66.49,5)" id="img-a61f33f1-29">
      <g class="primitive">
        <text text-anchor="middle" dy="0.6em">Erlang(7, 4)</text>
      </g>
    </g>
  </g>
</g>
<defs>
  <clipPath id="img-a61f33f1-4">
    <path d="M10.97,10.62 L122,10.62 122,110.01 10.97,110.01 " />
  </clipPath>
</defs>
</svg>
