<?xml version="1.0" encoding="UTF-8"?>
<svg xmlns="http://www.w3.org/2000/svg"
     xmlns:xlink="http://www.w3.org/1999/xlink"
     xmlns:gadfly="http://www.gadflyjl.org/ns"
     version="1.2"
     width="127mm" height="127mm" viewBox="0 0 127 127"
     stroke="none"
     fill="#000000"
     stroke-width="0.3"
     font-size="3.88"
>
<defs>
  <marker id="arrow" markerWidth="15" markerHeight="7" refX="5" refY="3.5" orient="auto" markerUnits="strokeWidth">
    <path d="M0,0 L15,3.5 L0,7 z" stroke="context-stroke" fill="context-stroke"/>
  </marker>
</defs>
<g class="plotroot xscalable yscalable" id="img-47c1e786-1">
  <g font-size="3.88" font-family="'PT Sans','Helvetica Neue','Helvetica',sans-serif" fill="#564A55" stroke="#000000" stroke-opacity="0.000" id="img-47c1e786-2">
    <g transform="translate(66.49,117.06)">
      <g class="primitive">
        <text text-anchor="middle" dy="0.6em">x</text>
      </g>
    </g>
  </g>
  <g class="guide xlabels" font-size="2.82" font-family="'PT Sans Caption','Helvetica Neue','Helvetica',sans-serif" fill="#6C606B" id="img-47c1e786-3">
    <g transform="translate(12.97,111.01)">
      <g class="primitive">
        <text text-anchor="middle" dy="0.6em">0</text>
      </g>
    </g>
    <g transform="translate(43.9,111.01)">
      <g class="primitive">
        <text text-anchor="middle" dy="0.6em">2</text>
      </g>
    </g>
    <g transform="translate(74.83,111.01)">
      <g class="primitive">
        <text text-anchor="middle" dy="0.6em">4</text>
      </g>
    </g>
    <g transform="translate(105.75,111.01)">
      <g class="primitive">
        <text text-anchor="middle" dy="0.6em">6</text>
      </g>
    </g>
  </g>
  <g clip-path="url(#img-47c1e786-4)">
    <g id="img-47c1e786-5">
      <g pointer-events="visible" stroke-width="0.3" fill="#000000" fill-opacity="0.000" stroke="#000000" stroke-opacity="0.000" class="guide background" id="img-47c1e786-6">
        <g transform="translate(66.49,60.31)" id="img-47c1e786-7">
          <path d="M-55.51,-49.7 L55.51,-49.7 55.51,49.7 -55.51,49.7  z" class="primitive"/>
        </g>
      </g>
      <g class="guide ygridlines xfixed" stroke-dasharray="0.5,0.5" stroke-width="0.2" stroke="#D0D0E0" id="img-47c1e786-8">
        <g transform="translate(66.49,108.01)" id="img-47c1e786-9">
          <path fill="none" d="M-55.51,0 L55.51,0 " class="primitive"/>
        </g>
        <g transform="translate(66.49,84.16)" id="img-47c1e786-10">
          <path fill="none" d="M-55.51,0 L55.51,0 " class="primitive"/>
        </g>
        <g transform="translate(66.49,60.31)" id="img-47c1e786-11">
          <path fill="none" d="M-55.51,0 L55.51,0 " class="primitive"/>
        </g>
        <g transform="translate(66.49,36.47)" id="img-47c1e786-12">
          <path fill="none" d="M-55.51,0 L55.51,0 " class="primitive"/>
        </g>
        <g transform="translate(66.49,12.62)" id="img-47c1e786-13">
          <path fill="none" d="M-55.51,0 L55.51,0 " class="primitive"/>
        </g>
      </g>
      <g class="guide xgridlines yfixed" stroke-dasharray="0.5,0.5" stroke-width="0.2" stroke="#D0D0E0" id="img-47c1e786-14">
        <g transform="translate(12.97,60.31)" id="img-47c1e786-15">
          <path fill="none" d="M0,-49.7 L0,49.7 " class="primitive"/>
        </g>
        <g transform="translate(43.9,60.31)" id="img-47c1e786-16">
          <path fill="none" d="M0,-49.7 L0,49.7 " class="primitive"/>
        </g>
        <g transform="translate(74.83,60.31)" id="img-47c1e786-17">
          <path fill="none" d="M0,-49.7 L0,49.7 " class="primitive"/>
        </g>
        <g transform="translate(105.75,60.31)" id="img-47c1e786-18">
          <path fill="none" d="M0,-49.7 L0,49.7 " class="primitive"/>
        </g>
      </g>
      <g class="plotpanel" id="img-47c1e786-19">
        <metadata>
          <boundingbox value="10.97116156684028mm 10.616661241319449mm 111.02883843315973mm 99.39426269531249mm"/>
          <unitbox value="-0.12933367801455717 0.8167724971585595 7.1798840201222855 -0.8335449943171188"/>
        </metadata>
        <g class="geometry" stroke-width="0.3" stroke-dasharray="none" fill-opacity="1" stroke="#FFFFFF" fill="#B9EAFF" id="img-47c1e786-20">
          <g transform="translate(66.25,90.92)" id="img-47c1e786-21">
            <path d="M-53.75,17.09 L-53.33,17.09 -52.91,17.09 -52.49,17.09 -52.06,17.08 -51.64,17.08 -51.22,17.06 -50.8,17.04 -50.38,17.01 -49.96,16.94 -49.53,16.83 -49.11,16.67 -48.69,16.45 -48.27,16.14 -47.85,15.73 -47.43,15.22 -47,14.59 -46.58,13.81 -46.16,12.89 -45.74,11.82 -45.32,10.57 -44.9,9.11 -44.48,7.45 -44.05,5.64 -43.63,3.69 -43.21,1.62 -42.79,-0.6 -42.37,-3.04 -41.95,-5.64 -41.52,-8.24 -41.1,-10.8 -40.68,-13.42 -40.26,-16.18 -39.84,-19.03 -39.42,-21.81 -38.99,-24.53 -38.57,-27.33 -38.15,-30.3 -37.73,-33.28 -37.31,-36.05 -36.89,-38.55 -36.47,-40.89 -36.04,-43.16 -35.62,-45.33 -35.2,-47.33 -34.78,-49.13 -34.36,-50.74 -33.94,-52.22 -33.51,-53.66 -33.09,-55 -32.67,-56.12 -32.25,-56.96 -31.83,-57.63 -31.41,-58.26 -30.99,-58.93 -30.56,-59.5 -30.14,-59.74 -29.72,-59.54 -29.3,-59.09 -28.88,-58.68 -28.46,-58.35 -28.03,-57.94 -27.61,-57.25 -27.19,-56.29 -26.77,-55.2 -26.35,-54.06 -25.93,-52.88 -25.5,-51.68 -25.08,-50.51 -24.66,-49.28 -24.24,-47.97 -23.82,-46.65 -23.4,-45.31 -22.98,-43.86 -22.55,-42.28 -22.13,-40.65 -21.71,-38.98 -21.29,-37.21 -20.87,-35.37 -20.45,-33.6 -20.02,-32.01 -19.6,-30.55 -19.18,-29.05 -18.76,-27.47 -18.34,-25.86 -17.92,-24.27 -17.5,-22.76 -17.07,-21.27 -16.65,-19.77 -16.23,-18.25 -15.81,-16.73 -15.39,-15.27 -14.97,-13.94 -14.54,-12.71 -14.12,-11.52 -13.7,-10.33 -13.28,-9.12 -12.86,-7.9 -12.44,-6.66 -12.01,-5.45 -11.59,-4.38 -11.17,-3.41 -10.75,-2.46 -10.33,-1.52 -9.91,-0.59 -9.49,0.33 -9.06,1.23 -8.64,2.06 -8.22,2.78 -7.8,3.41 -7.38,4.04 -6.96,4.74 -6.53,5.46 -6.11,6.08 -5.69,6.63 -5.27,7.18 -4.85,7.75 -4.43,8.29 -4,8.78 -3.58,9.23 -3.16,9.63 -2.74,10.02 -2.32,10.4 -1.9,10.8 -1.48,11.22 -1.05,11.61 -0.63,11.92 -0.21,12.18 0.21,12.44 0.63,12.74 1.05,13.03 1.48,13.29 1.9,13.5 2.32,13.69 2.74,13.89 3.16,14.1 3.58,14.31 4,14.49 4.43,14.65 4.85,14.79 5.27,14.92 5.69,15.04 6.11,15.16 6.53,15.27 6.96,15.39 7.38,15.51 7.8,15.63 8.22,15.75 8.64,15.84 9.06,15.9 9.49,15.97 9.91,16.05 10.33,16.11 10.75,16.18 11.17,16.24 11.59,16.31 12.01,16.37 12.44,16.42 12.86,16.46 13.28,16.49 13.7,16.53 14.12,16.56 14.54,16.6 14.97,16.63 15.39,16.66 15.81,16.7 16.23,16.74 16.65,16.78 17.07,16.81 17.5,16.82 17.92,16.83 18.34,16.84 18.76,16.86 19.18,16.88 19.6,16.9 20.02,16.91 20.45,16.93 20.87,16.94 21.29,16.95 21.71,16.95 22.13,16.96 22.55,16.96 22.98,16.97 23.4,16.98 23.82,16.99 24.24,17 24.66,17.01 25.08,17.02 25.5,17.02 25.93,17.02 26.35,17.03 26.77,17.04 27.19,17.04 27.61,17.04 28.03,17.04 28.46,17.05 28.88,17.05 29.3,17.05 29.72,17.06 30.14,17.06 30.56,17.07 30.99,17.07 31.41,17.07 31.83,17.06 32.25,17.07 32.67,17.07 33.09,17.07 33.51,17.07 33.94,17.07 34.36,17.08 34.78,17.08 35.2,17.08 35.62,17.08 36.04,17.08 36.47,17.08 36.89,17.08 37.31,17.08 37.73,17.08 38.15,17.08 38.57,17.08 38.99,17.08 39.42,17.08 39.84,17.08 40.26,17.08 40.68,17.08 41.1,17.08 41.52,17.08 41.95,17.08 42.37,17.08 42.79,17.08 43.21,17.08 43.63,17.09 44.05,17.09 44.48,17.09 44.9,17.09 45.32,17.09 45.74,17.08 46.16,17.08 46.58,17.08 47,17.09 47.43,17.09 47.85,17.09 48.27,17.09 48.69,17.09 49.11,17.09 49.53,17.09 49.96,17.09 50.38,17.09 50.8,17.09 51.22,17.09 51.64,17.09 52.06,17.09 52.49,17.09 52.91,17.09 53.33,17.09 53.75,17.09  z" class="primitive"/>
          </g>
        </g>
      </g>
    </g>
  </g>
  <g class="guide ylabels" font-size="2.82" font-family="'PT Sans Caption','Helvetica Neue','Helvetica',sans-serif" fill="#6C606B" id="img-47c1e786-22">
    <g transform="translate(9.97,108.01)" id="img-47c1e786-23">
      <g class="primitive">
        <text text-anchor="end" dy="0.35em">0.0</text>
      </g>
    </g>
    <g transform="translate(9.97,84.16)" id="img-47c1e786-24">
      <g class="primitive">
        <text text-anchor="end" dy="0.35em">0.2</text>
      </g>
    </g>
    <g transform="translate(9.97,60.31)" id="img-47c1e786-25">
      <g class="primitive">
        <text text-anchor="end" dy="0.35em">0.4</text>
      </g>
    </g>
    <g transform="translate(9.97,36.47)" id="img-47c1e786-26">
      <g class="primitive">
        <text text-anchor="end" dy="0.35em">0.6</text>
      </g>
    </g>
    <g transform="translate(9.97,12.62)" id="img-47c1e786-27">
      <g class="primitive">
        <text text-anchor="end" dy="0.35em">0.8</text>
      </g>
    </g>
  </g>
  <g font-size="3.88" font-family="'PT Sans','Helvetica Neue','Helvetica',sans-serif" fill="#564A55" stroke="#000000" stroke-opacity="0.000" id="img-47c1e786-28">
    <g transform="translate(66.49,5)" id="img-47c1e786-29">
      <g class="primitive">
        <text text-anchor="middle" dy="0.6em">Erlang(7, 4)</text>
      </g>
    </g>
  </g>
</g>
<defs>
  <clipPath id="img-47c1e786-4">
    <path d="M10.97,10.62 L122,10.62 122,110.01 10.97,110.01 " />
  </clipPath>
</defs>
</svg>
