<?xml version="1.0" encoding="UTF-8"?>
<svg xmlns="http://www.w3.org/2000/svg"
     xmlns:xlink="http://www.w3.org/1999/xlink"
     xmlns:gadfly="http://www.gadflyjl.org/ns"
     version="1.2"
     width="101.6mm" height="101.6mm" viewBox="0 0 101.6 101.6"
     stroke="none"
     fill="#000000"
     stroke-width="0.3"
     font-size="3.88"
>
<defs>
  <marker id="arrow" markerWidth="15" markerHeight="7" refX="5" refY="3.5" orient="auto" markerUnits="strokeWidth">
    <path d="M0,0 L15,3.5 L0,7 z" stroke="context-stroke" fill="context-stroke"/>
  </marker>
</defs>
<g class="plotroot xscalable yscalable" id="img-8ba0a9a2-1">
  <g font-size="3.88" font-family="'PT Sans','Helvetica Neue','Helvetica',sans-serif" fill="#564A55" stroke="#000000" stroke-opacity="0.000" id="img-8ba0a9a2-2">
    <g transform="translate(53.79,91.66)">
      <g class="primitive">
        <text text-anchor="middle" dy="0.6em">x</text>
      </g>
    </g>
  </g>
  <g class="guide xlabels" font-size="2.82" font-family="'PT Sans Caption','Helvetica Neue','Helvetica',sans-serif" fill="#6C606B" id="img-8ba0a9a2-3">
    <g transform="translate(12.97,85.61)">
      <g class="primitive">
        <text text-anchor="middle" dy="0.6em">0</text>
      </g>
    </g>
    <g transform="translate(36.9,85.61)">
      <g class="primitive">
        <text text-anchor="middle" dy="0.6em">2</text>
      </g>
    </g>
    <g transform="translate(60.84,85.61)">
      <g class="primitive">
        <text text-anchor="middle" dy="0.6em">4</text>
      </g>
    </g>
    <g transform="translate(84.77,85.61)">
      <g class="primitive">
        <text text-anchor="middle" dy="0.6em">6</text>
      </g>
    </g>
  </g>
  <g clip-path="url(#img-8ba0a9a2-4)">
    <g id="img-8ba0a9a2-5">
      <g pointer-events="visible" stroke-width="0.3" fill="#000000" fill-opacity="0.000" stroke="#000000" stroke-opacity="0.000" class="guide background" id="img-8ba0a9a2-6">
        <g transform="translate(53.79,47.61)" id="img-8ba0a9a2-7">
          <path d="M-42.81,-37 L42.81,-37 42.81,37 -42.81,37  z" class="primitive"/>
        </g>
      </g>
      <g class="guide ygridlines xfixed" stroke-dasharray="0.5,0.5" stroke-width="0.2" stroke="#D0D0E0" id="img-8ba0a9a2-8">
        <g transform="translate(53.79,82.61)" id="img-8ba0a9a2-9">
          <path fill="none" d="M-42.81,0 L42.81,0 " class="primitive"/>
        </g>
        <g transform="translate(53.79,65.11)" id="img-8ba0a9a2-10">
          <path fill="none" d="M-42.81,0 L42.81,0 " class="primitive"/>
        </g>
        <g transform="translate(53.79,47.61)" id="img-8ba0a9a2-11">
          <path fill="none" d="M-42.81,0 L42.81,0 " class="primitive"/>
        </g>
        <g transform="translate(53.79,30.12)" id="img-8ba0a9a2-12">
          <path fill="none" d="M-42.81,0 L42.81,0 " class="primitive"/>
        </g>
        <g transform="translate(53.79,12.62)" id="img-8ba0a9a2-13">
          <path fill="none" d="M-42.81,0 L42.81,0 " class="primitive"/>
        </g>
      </g>
      <g class="guide xgridlines yfixed" stroke-dasharray="0.5,0.5" stroke-width="0.2" stroke="#D0D0E0" id="img-8ba0a9a2-14">
        <g transform="translate(12.97,47.61)" id="img-8ba0a9a2-15">
          <path fill="none" d="M0,-37 L0,37 " class="primitive"/>
        </g>
        <g transform="translate(36.9,47.61)" id="img-8ba0a9a2-16">
          <path fill="none" d="M0,-37 L0,37 " class="primitive"/>
        </g>
        <g transform="translate(60.84,47.61)" id="img-8ba0a9a2-17">
          <path fill="none" d="M0,-37 L0,37 " class="primitive"/>
        </g>
        <g transform="translate(84.77,47.61)" id="img-8ba0a9a2-18">
          <path fill="none" d="M0,-37 L0,37 " class="primitive"/>
        </g>
      </g>
      <g class="plotpanel" id="img-8ba0a9a2-19">
        <metadata>
          <boundingbox value="10.97116156684028mm 10.616661241319449mm 85.62883843315973mm 73.99426269531249mm"/>
          <unitbox value="-0.16713476466537064 0.8228590164163149 7.155777880047598 -0.8457180328326297"/>
        </metadata>
        <g class="geometry" stroke-width="0.3" stroke-dasharray="none" fill-opacity="1" stroke="#FFFFFF" fill="#B9EAFF" id="img-8ba0a9a2-20">
          <g transform="translate(53.64,69.88)" id="img-8ba0a9a2-21">
            <path d="M-40.96,12.73 L-40.64,12.73 -40.32,12.73 -39.99,12.73 -39.67,12.73 -39.35,12.72 -39.03,12.72 -38.71,12.7 -38.39,12.66 -38.07,12.61 -37.75,12.53 -37.42,12.42 -37.1,12.26 -36.78,12.02 -36.46,11.71 -36.14,11.32 -35.82,10.85 -35.5,10.29 -35.18,9.63 -34.85,8.85 -34.53,7.97 -34.21,6.95 -33.89,5.8 -33.57,4.53 -33.25,3.13 -32.93,1.6 -32.61,-0.04 -32.29,-1.75 -31.96,-3.51 -31.64,-5.38 -31.32,-7.36 -31,-9.37 -30.68,-11.34 -30.36,-13.31 -30.04,-15.37 -29.72,-17.47 -29.39,-19.52 -29.07,-21.48 -28.75,-23.38 -28.43,-25.35 -28.11,-27.35 -27.79,-29.22 -27.47,-30.94 -27.15,-32.59 -26.82,-34.13 -26.5,-35.41 -26.18,-36.43 -25.86,-37.4 -25.54,-38.5 -25.22,-39.65 -24.9,-40.64 -24.58,-41.37 -24.25,-41.89 -23.93,-42.34 -23.61,-42.74 -23.29,-43.03 -22.97,-43.14 -22.65,-43.09 -22.33,-43 -22.01,-42.96 -21.68,-42.91 -21.36,-42.63 -21.04,-42.08 -20.72,-41.41 -20.4,-40.75 -20.08,-40.07 -19.76,-39.38 -19.44,-38.66 -19.11,-37.87 -18.79,-37.02 -18.47,-36.11 -18.15,-35.12 -17.83,-34.02 -17.51,-32.77 -17.19,-31.41 -16.87,-30.1 -16.54,-28.97 -16.22,-27.94 -15.9,-26.89 -15.58,-25.74 -15.26,-24.54 -14.94,-23.33 -14.62,-22.11 -14.3,-20.93 -13.97,-19.84 -13.65,-18.81 -13.33,-17.78 -13.01,-16.71 -12.69,-15.56 -12.37,-14.39 -12.05,-13.31 -11.73,-12.35 -11.4,-11.43 -11.08,-10.52 -10.76,-9.59 -10.44,-8.61 -10.12,-7.6 -9.8,-6.61 -9.48,-5.68 -9.16,-4.83 -8.83,-4.05 -8.51,-3.29 -8.19,-2.56 -7.87,-1.85 -7.55,-1.15 -7.23,-0.43 -6.91,0.26 -6.59,0.86 -6.26,1.35 -5.94,1.78 -5.62,2.25 -5.3,2.78 -4.98,3.31 -4.66,3.83 -4.34,4.35 -4.02,4.87 -3.69,5.34 -3.37,5.74 -3.05,6.09 -2.73,6.41 -2.41,6.73 -2.09,7.07 -1.77,7.41 -1.45,7.71 -1.12,7.99 -0.8,8.25 -0.48,8.51 -0.16,8.76 0.16,8.99 0.48,9.22 0.8,9.43 1.12,9.63 1.45,9.8 1.77,9.97 2.09,10.12 2.41,10.28 2.73,10.44 3.05,10.59 3.37,10.72 3.69,10.83 4.02,10.95 4.34,11.08 4.66,11.19 4.98,11.3 5.3,11.4 5.62,11.48 5.94,11.53 6.26,11.58 6.59,11.65 6.91,11.72 7.23,11.78 7.55,11.83 7.87,11.87 8.19,11.93 8.51,12 8.83,12.06 9.16,12.12 9.48,12.17 9.8,12.21 10.12,12.26 10.44,12.3 10.76,12.33 11.08,12.35 11.4,12.35 11.73,12.36 12.05,12.39 12.37,12.42 12.69,12.44 13.01,12.46 13.33,12.48 13.65,12.5 13.97,12.53 14.3,12.54 14.62,12.55 14.94,12.56 15.26,12.57 15.58,12.58 15.9,12.59 16.22,12.6 16.54,12.61 16.87,12.61 17.19,12.62 17.51,12.62 17.83,12.63 18.15,12.64 18.47,12.65 18.79,12.66 19.11,12.66 19.44,12.67 19.76,12.67 20.08,12.67 20.4,12.68 20.72,12.68 21.04,12.69 21.36,12.69 21.68,12.69 22.01,12.69 22.33,12.69 22.65,12.69 22.97,12.7 23.29,12.7 23.61,12.71 23.93,12.71 24.25,12.72 24.58,12.72 24.9,12.72 25.22,12.72 25.54,12.72 25.86,12.72 26.18,12.72 26.5,12.72 26.82,12.72 27.15,12.72 27.47,12.72 27.79,12.72 28.11,12.72 28.43,12.72 28.75,12.73 29.07,12.73 29.39,12.73 29.72,12.73 30.04,12.73 30.36,12.73 30.68,12.73 31,12.73 31.32,12.73 31.64,12.73 31.96,12.73 32.29,12.73 32.61,12.73 32.93,12.73 33.25,12.73 33.57,12.73 33.89,12.73 34.21,12.73 34.53,12.73 34.85,12.73 35.18,12.73 35.5,12.73 35.82,12.73 36.14,12.73 36.46,12.73 36.78,12.73 37.1,12.73 37.42,12.73 37.75,12.73 38.07,12.73 38.39,12.73 38.71,12.73 39.03,12.73 39.35,12.73 39.67,12.73 39.99,12.73 40.32,12.73 40.64,12.73 40.96,12.73  z" class="primitive"/>
          </g>
        </g>
      </g>
    </g>
  </g>
  <g class="guide ylabels" font-size="2.82" font-family="'PT Sans Caption','Helvetica Neue','Helvetica',sans-serif" fill="#6C606B" id="img-8ba0a9a2-22">
    <g transform="translate(9.97,82.61)" id="img-8ba0a9a2-23">
      <g class="primitive">
        <text text-anchor="end" dy="0.35em">0.0</text>
      </g>
    </g>
    <g transform="translate(9.97,65.11)" id="img-8ba0a9a2-24">
      <g class="primitive">
        <text text-anchor="end" dy="0.35em">0.2</text>
      </g>
    </g>
    <g transform="translate(9.97,47.61)" id="img-8ba0a9a2-25">
      <g class="primitive">
        <text text-anchor="end" dy="0.35em">0.4</text>
      </g>
    </g>
    <g transform="translate(9.97,30.12)" id="img-8ba0a9a2-26">
      <g class="primitive">
        <text text-anchor="end" dy="0.35em">0.6</text>
      </g>
    </g>
    <g transform="translate(9.97,12.62)" id="img-8ba0a9a2-27">
      <g class="primitive">
        <text text-anchor="end" dy="0.35em">0.8</text>
      </g>
    </g>
  </g>
  <g font-size="3.88" font-family="'PT Sans','Helvetica Neue','Helvetica',sans-serif" fill="#564A55" stroke="#000000" stroke-opacity="0.000" id="img-8ba0a9a2-28">
    <g transform="translate(53.79,5)" id="img-8ba0a9a2-29">
      <g class="primitive">
        <text text-anchor="middle" dy="0.6em">Erlang(7, 4)</text>
      </g>
    </g>
  </g>
</g>
<defs>
  <clipPath id="img-8ba0a9a2-4">
    <path d="M10.97,10.62 L96.6,10.62 96.6,84.61 10.97,84.61 " />
  </clipPath>
</defs>
</svg>
