<?xml version="1.0" encoding="UTF-8"?>
<svg xmlns="http://www.w3.org/2000/svg"
     xmlns:xlink="http://www.w3.org/1999/xlink"
     xmlns:gadfly="http://www.gadflyjl.org/ns"
     version="1.2"
     width="101.6mm" height="101.6mm" viewBox="0 0 101.6 101.6"
     stroke="none"
     fill="#000000"
     stroke-width="0.3"
     font-size="3.88"
>
<defs>
  <marker id="arrow" markerWidth="15" markerHeight="7" refX="5" refY="3.5" orient="auto" markerUnits="strokeWidth">
    <path d="M0,0 L15,3.5 L0,7 z" stroke="context-stroke" fill="context-stroke"/>
  </marker>
</defs>
<g class="plotroot xscalable yscalable" id="img-661c3a84-1">
  <g font-size="3.88" font-family="'PT Sans','Helvetica Neue','Helvetica',sans-serif" fill="#564A55" stroke="#000000" stroke-opacity="0.000" id="img-661c3a84-2">
    <g transform="translate(53.81,89.99)">
      <g class="primitive">
        <text text-anchor="middle" dy="0.6em">x</text>
      </g>
    </g>
  </g>
  <g class="guide xlabels" font-size="2.82" font-family="'PT Sans Caption','Helvetica Neue','Helvetica',sans-serif" fill="#6C606B" id="img-661c3a84-3">
    <g transform="translate(13.02,83.31)">
      <g class="primitive">
        <text text-anchor="middle" dy="0.6em">0</text>
      </g>
    </g>
    <g transform="translate(53.81,83.31)">
      <g class="primitive">
        <text text-anchor="middle" dy="0.6em">5</text>
      </g>
    </g>
    <g transform="translate(94.6,83.31)">
      <g class="primitive">
        <text text-anchor="middle" dy="0.6em">10</text>
      </g>
    </g>
  </g>
  <g clip-path="url(#img-661c3a84-4)">
    <g id="img-661c3a84-5">
      <g pointer-events="visible" stroke-width="0.3" fill="#000000" fill-opacity="0.000" stroke="#000000" stroke-opacity="0.000" class="guide background" id="img-661c3a84-6">
        <g transform="translate(53.81,43.66)" id="img-661c3a84-7">
          <path d="M-42.79,-38.66 L42.79,-38.66 42.79,38.66 -42.79,38.66  z" class="primitive"/>
        </g>
      </g>
      <g class="guide ygridlines xfixed" stroke-dasharray="0.5,0.5" stroke-width="0.2" stroke="#D0D0E0" id="img-661c3a84-8">
        <g transform="translate(53.81,80.31)" id="img-661c3a84-9">
          <path fill="none" d="M-42.79,0 L42.79,0 " class="primitive"/>
        </g>
        <g transform="translate(53.81,43.66)" id="img-661c3a84-10">
          <path fill="none" d="M-42.79,0 L42.79,0 " class="primitive"/>
        </g>
        <g transform="translate(53.81,7)" id="img-661c3a84-11">
          <path fill="none" d="M-42.79,0 L42.79,0 " class="primitive"/>
        </g>
      </g>
      <g class="guide xgridlines yfixed" stroke-dasharray="0.5,0.5" stroke-width="0.2" stroke="#D0D0E0" id="img-661c3a84-12">
        <g transform="translate(13.02,43.66)" id="img-661c3a84-13">
          <path fill="none" d="M0,-38.66 L0,38.66 " class="primitive"/>
        </g>
        <g transform="translate(53.81,43.66)" id="img-661c3a84-14">
          <path fill="none" d="M0,-38.66 L0,38.66 " class="primitive"/>
        </g>
        <g transform="translate(94.6,43.66)" id="img-661c3a84-15">
          <path fill="none" d="M0,-38.66 L0,38.66 " class="primitive"/>
        </g>
      </g>
      <g class="plotpanel" id="img-661c3a84-16">
        <metadata>
          <boundingbox value="11.019999999999996mm 5.0mm 85.58mm 77.31499999999998mm"/>
          <unitbox value="-0.2451581269919098 1.027279547159517 10.49031625398382 -1.0545590943190344"/>
        </metadata>
        <g shape-rendering="crispEdges" stroke-width="0.3" id="img-661c3a84-17">
          <g class="geometry" fill-opacity="1" stroke="#000000" stroke-opacity="0.000" fill="#00BFFF" id="img-661c3a84-18">
            <g transform="translate(13.28,43.98)" id="img-661c3a84-19">
              <path d="M-0.28,-36.33 L0.28,-36.33 0.28,36.33 -0.28,36.33  z" class="primitive"/>
            </g>
            <g transform="translate(13.79,46.62)" id="img-661c3a84-20">
              <path d="M-0.28,-33.69 L0.28,-33.69 0.28,33.69 -0.28,33.69  z" class="primitive"/>
            </g>
            <g transform="translate(14.3,50.55)" id="img-661c3a84-21">
              <path d="M-0.28,-29.77 L0.28,-29.77 0.28,29.77 -0.28,29.77  z" class="primitive"/>
            </g>
            <g transform="translate(14.81,51.07)" id="img-661c3a84-22">
              <path d="M-0.28,-29.24 L0.28,-29.24 0.28,29.24 -0.28,29.24  z" class="primitive"/>
            </g>
            <g transform="translate(15.32,52.36)" id="img-661c3a84-23">
              <path d="M-0.28,-27.95 L0.28,-27.95 0.28,27.95 -0.28,27.95  z" class="primitive"/>
            </g>
            <g transform="translate(15.83,55.47)" id="img-661c3a84-24">
              <path d="M-0.28,-24.85 L0.28,-24.85 0.28,24.85 -0.28,24.85  z" class="primitive"/>
            </g>
            <g transform="translate(16.34,55.18)" id="img-661c3a84-25">
              <path d="M-0.28,-25.14 L0.28,-25.14 0.28,25.14 -0.28,25.14  z" class="primitive"/>
            </g>
            <g transform="translate(16.85,58.17)" id="img-661c3a84-26">
              <path d="M-0.28,-22.15 L0.28,-22.15 0.28,22.15 -0.28,22.15  z" class="primitive"/>
            </g>
            <g transform="translate(17.36,58.4)" id="img-661c3a84-27">
              <path d="M-0.28,-21.92 L0.28,-21.92 0.28,21.92 -0.28,21.92  z" class="primitive"/>
            </g>
            <g transform="translate(17.87,58.99)" id="img-661c3a84-28">
              <path d="M-0.28,-21.33 L0.28,-21.33 0.28,21.33 -0.28,21.33  z" class="primitive"/>
            </g>
            <g transform="translate(18.38,61.33)" id="img-661c3a84-29">
              <path d="M-0.28,-18.99 L0.28,-18.99 0.28,18.99 -0.28,18.99  z" class="primitive"/>
            </g>
            <g transform="translate(18.89,64.02)" id="img-661c3a84-30">
              <path d="M-0.28,-16.29 L0.28,-16.29 0.28,16.29 -0.28,16.29  z" class="primitive"/>
            </g>
            <g transform="translate(19.4,62.38)" id="img-661c3a84-31">
              <path d="M-0.28,-17.93 L0.28,-17.93 0.28,17.93 -0.28,17.93  z" class="primitive"/>
            </g>
            <g transform="translate(19.91,63.79)" id="img-661c3a84-32">
              <path d="M-0.28,-16.52 L0.28,-16.52 0.28,16.52 -0.28,16.52  z" class="primitive"/>
            </g>
            <g transform="translate(20.42,66.08)" id="img-661c3a84-33">
              <path d="M-0.28,-14.24 L0.28,-14.24 0.28,14.24 -0.28,14.24  z" class="primitive"/>
            </g>
            <g transform="translate(20.93,67.54)" id="img-661c3a84-34">
              <path d="M-0.28,-12.77 L0.28,-12.77 0.28,12.77 -0.28,12.77  z" class="primitive"/>
            </g>
            <g transform="translate(21.44,69.18)" id="img-661c3a84-35">
              <path d="M-0.28,-11.13 L0.28,-11.13 0.28,11.13 -0.28,11.13  z" class="primitive"/>
            </g>
            <g transform="translate(21.95,67.72)" id="img-661c3a84-36">
              <path d="M-0.28,-12.6 L0.28,-12.6 0.28,12.6 -0.28,12.6  z" class="primitive"/>
            </g>
            <g transform="translate(22.46,67.25)" id="img-661c3a84-37">
              <path d="M-0.28,-13.07 L0.28,-13.07 0.28,13.07 -0.28,13.07  z" class="primitive"/>
            </g>
            <g transform="translate(22.97,69.47)" id="img-661c3a84-38">
              <path d="M-0.28,-10.84 L0.28,-10.84 0.28,10.84 -0.28,10.84  z" class="primitive"/>
            </g>
            <g transform="translate(23.48,70.29)" id="img-661c3a84-39">
              <path d="M-0.28,-10.02 L0.28,-10.02 0.28,10.02 -0.28,10.02  z" class="primitive"/>
            </g>
            <g transform="translate(23.99,69.24)" id="img-661c3a84-40">
              <path d="M-0.28,-11.07 L0.28,-11.07 0.28,11.07 -0.28,11.07  z" class="primitive"/>
            </g>
            <g transform="translate(24.5,71.76)" id="img-661c3a84-41">
              <path d="M-0.28,-8.56 L0.28,-8.56 0.28,8.56 -0.28,8.56  z" class="primitive"/>
            </g>
            <g transform="translate(25.01,71.12)" id="img-661c3a84-42">
              <path d="M-0.28,-9.2 L0.28,-9.2 0.28,9.2 -0.28,9.2  z" class="primitive"/>
            </g>
            <g transform="translate(25.52,73.28)" id="img-661c3a84-43">
              <path d="M-0.28,-7.03 L0.28,-7.03 0.28,7.03 -0.28,7.03  z" class="primitive"/>
            </g>
            <g transform="translate(26.03,73.87)" id="img-661c3a84-44">
              <path d="M-0.28,-6.45 L0.28,-6.45 0.28,6.45 -0.28,6.45  z" class="primitive"/>
            </g>
            <g transform="translate(26.54,74.05)" id="img-661c3a84-45">
              <path d="M-0.28,-6.27 L0.28,-6.27 0.28,6.27 -0.28,6.27  z" class="primitive"/>
            </g>
            <g transform="translate(27.05,72.64)" id="img-661c3a84-46">
              <path d="M-0.28,-7.68 L0.28,-7.68 0.28,7.68 -0.28,7.68  z" class="primitive"/>
            </g>
            <g transform="translate(27.57,73.63)" id="img-661c3a84-47">
              <path d="M-0.28,-6.68 L0.28,-6.68 0.28,6.68 -0.28,6.68  z" class="primitive"/>
            </g>
            <g transform="translate(28.08,75.16)" id="img-661c3a84-48">
              <path d="M-0.28,-5.16 L0.28,-5.16 0.28,5.16 -0.28,5.16  z" class="primitive"/>
            </g>
            <g transform="translate(28.59,74.87)" id="img-661c3a84-49">
              <path d="M-0.28,-5.45 L0.28,-5.45 0.28,5.45 -0.28,5.45  z" class="primitive"/>
            </g>
            <g transform="translate(29.1,75.28)" id="img-661c3a84-50">
              <path d="M-0.28,-5.04 L0.28,-5.04 0.28,5.04 -0.28,5.04  z" class="primitive"/>
            </g>
            <g transform="translate(29.61,76.1)" id="img-661c3a84-51">
              <path d="M-0.28,-4.22 L0.28,-4.22 0.28,4.22 -0.28,4.22  z" class="primitive"/>
            </g>
            <g transform="translate(30.12,74.92)" id="img-661c3a84-52">
              <path d="M-0.28,-5.39 L0.28,-5.39 0.28,5.39 -0.28,5.39  z" class="primitive"/>
            </g>
            <g transform="translate(30.63,75.69)" id="img-661c3a84-53">
              <path d="M-0.28,-4.63 L0.28,-4.63 0.28,4.63 -0.28,4.63  z" class="primitive"/>
            </g>
            <g transform="translate(31.14,76.92)" id="img-661c3a84-54">
              <path d="M-0.28,-3.4 L0.28,-3.4 0.28,3.4 -0.28,3.4  z" class="primitive"/>
            </g>
            <g transform="translate(31.65,76.21)" id="img-661c3a84-55">
              <path d="M-0.28,-4.1 L0.28,-4.1 0.28,4.1 -0.28,4.1  z" class="primitive"/>
            </g>
            <g transform="translate(32.16,77.68)" id="img-661c3a84-56">
              <path d="M-0.28,-2.64 L0.28,-2.64 0.28,2.64 -0.28,2.64  z" class="primitive"/>
            </g>
            <g transform="translate(32.67,76.68)" id="img-661c3a84-57">
              <path d="M-0.28,-3.63 L0.28,-3.63 0.28,3.63 -0.28,3.63  z" class="primitive"/>
            </g>
            <g transform="translate(33.18,77.56)" id="img-661c3a84-58">
              <path d="M-0.28,-2.75 L0.28,-2.75 0.28,2.75 -0.28,2.75  z" class="primitive"/>
            </g>
            <g transform="translate(33.69,76.74)" id="img-661c3a84-59">
              <path d="M-0.28,-3.57 L0.28,-3.57 0.28,3.57 -0.28,3.57  z" class="primitive"/>
            </g>
            <g transform="translate(34.2,77.03)" id="img-661c3a84-60">
              <path d="M-0.28,-3.28 L0.28,-3.28 0.28,3.28 -0.28,3.28  z" class="primitive"/>
            </g>
            <g transform="translate(34.71,78.09)" id="img-661c3a84-61">
              <path d="M-0.28,-2.23 L0.28,-2.23 0.28,2.23 -0.28,2.23  z" class="primitive"/>
            </g>
            <g transform="translate(35.22,77.74)" id="img-661c3a84-62">
              <path d="M-0.28,-2.58 L0.28,-2.58 0.28,2.58 -0.28,2.58  z" class="primitive"/>
            </g>
            <g transform="translate(35.73,77.97)" id="img-661c3a84-63">
              <path d="M-0.28,-2.34 L0.28,-2.34 0.28,2.34 -0.28,2.34  z" class="primitive"/>
            </g>
            <g transform="translate(36.24,78.38)" id="img-661c3a84-64">
              <path d="M-0.28,-1.93 L0.28,-1.93 0.28,1.93 -0.28,1.93  z" class="primitive"/>
            </g>
            <g transform="translate(36.75,78.21)" id="img-661c3a84-65">
              <path d="M-0.28,-2.11 L0.28,-2.11 0.28,2.11 -0.28,2.11  z" class="primitive"/>
            </g>
            <g transform="translate(37.26,78.32)" id="img-661c3a84-66">
              <path d="M-0.28,-1.99 L0.28,-1.99 0.28,1.99 -0.28,1.99  z" class="primitive"/>
            </g>
            <g transform="translate(37.77,79.03)" id="img-661c3a84-67">
              <path d="M-0.28,-1.29 L0.28,-1.29 0.28,1.29 -0.28,1.29  z" class="primitive"/>
            </g>
            <g transform="translate(38.28,78.62)" id="img-661c3a84-68">
              <path d="M-0.28,-1.7 L0.28,-1.7 0.28,1.7 -0.28,1.7  z" class="primitive"/>
            </g>
            <g transform="translate(38.79,78.44)" id="img-661c3a84-69">
              <path d="M-0.28,-1.88 L0.28,-1.88 0.28,1.88 -0.28,1.88  z" class="primitive"/>
            </g>
            <g transform="translate(39.3,78.79)" id="img-661c3a84-70">
              <path d="M-0.28,-1.52 L0.28,-1.52 0.28,1.52 -0.28,1.52  z" class="primitive"/>
            </g>
            <g transform="translate(39.81,78.73)" id="img-661c3a84-71">
              <path d="M-0.28,-1.58 L0.28,-1.58 0.28,1.58 -0.28,1.58  z" class="primitive"/>
            </g>
            <g transform="translate(40.32,79.2)" id="img-661c3a84-72">
              <path d="M-0.28,-1.11 L0.28,-1.11 0.28,1.11 -0.28,1.11  z" class="primitive"/>
            </g>
            <g transform="translate(40.83,79.44)" id="img-661c3a84-73">
              <path d="M-0.28,-0.88 L0.28,-0.88 0.28,0.88 -0.28,0.88  z" class="primitive"/>
            </g>
            <g transform="translate(41.34,79.03)" id="img-661c3a84-74">
              <path d="M-0.28,-1.29 L0.28,-1.29 0.28,1.29 -0.28,1.29  z" class="primitive"/>
            </g>
            <g transform="translate(41.85,78.79)" id="img-661c3a84-75">
              <path d="M-0.28,-1.52 L0.28,-1.52 0.28,1.52 -0.28,1.52  z" class="primitive"/>
            </g>
            <g transform="translate(42.37,79.38)" id="img-661c3a84-76">
              <path d="M-0.28,-0.94 L0.28,-0.94 0.28,0.94 -0.28,0.94  z" class="primitive"/>
            </g>
            <g transform="translate(42.88,79.03)" id="img-661c3a84-77">
              <path d="M-0.28,-1.29 L0.28,-1.29 0.28,1.29 -0.28,1.29  z" class="primitive"/>
            </g>
            <g transform="translate(43.39,79.2)" id="img-661c3a84-78">
              <path d="M-0.28,-1.11 L0.28,-1.11 0.28,1.11 -0.28,1.11  z" class="primitive"/>
            </g>
            <g transform="translate(43.9,79.03)" id="img-661c3a84-79">
              <path d="M-0.28,-1.29 L0.28,-1.29 0.28,1.29 -0.28,1.29  z" class="primitive"/>
            </g>
            <g transform="translate(44.41,79.61)" id="img-661c3a84-80">
              <path d="M-0.28,-0.7 L0.28,-0.7 0.28,0.7 -0.28,0.7  z" class="primitive"/>
            </g>
            <g transform="translate(44.92,79.73)" id="img-661c3a84-81">
              <path d="M-0.28,-0.59 L0.28,-0.59 0.28,0.59 -0.28,0.59  z" class="primitive"/>
            </g>
            <g transform="translate(45.43,79.61)" id="img-661c3a84-82">
              <path d="M-0.28,-0.7 L0.28,-0.7 0.28,0.7 -0.28,0.7  z" class="primitive"/>
            </g>
            <g transform="translate(45.94,79.79)" id="img-661c3a84-83">
              <path d="M-0.28,-0.53 L0.28,-0.53 0.28,0.53 -0.28,0.53  z" class="primitive"/>
            </g>
            <g transform="translate(46.45,79.79)" id="img-661c3a84-84">
              <path d="M-0.28,-0.53 L0.28,-0.53 0.28,0.53 -0.28,0.53  z" class="primitive"/>
            </g>
            <g transform="translate(46.96,79.55)" id="img-661c3a84-85">
              <path d="M-0.28,-0.76 L0.28,-0.76 0.28,0.76 -0.28,0.76  z" class="primitive"/>
            </g>
            <g transform="translate(47.47,79.55)" id="img-661c3a84-86">
              <path d="M-0.28,-0.76 L0.28,-0.76 0.28,0.76 -0.28,0.76  z" class="primitive"/>
            </g>
            <g transform="translate(47.98,79.79)" id="img-661c3a84-87">
              <path d="M-0.28,-0.53 L0.28,-0.53 0.28,0.53 -0.28,0.53  z" class="primitive"/>
            </g>
            <g transform="translate(48.49,80.02)" id="img-661c3a84-88">
              <path d="M-0.28,-0.29 L0.28,-0.29 0.28,0.29 -0.28,0.29  z" class="primitive"/>
            </g>
            <g transform="translate(49,79.85)" id="img-661c3a84-89">
              <path d="M-0.28,-0.47 L0.28,-0.47 0.28,0.47 -0.28,0.47  z" class="primitive"/>
            </g>
            <g transform="translate(49.51,80.14)" id="img-661c3a84-90">
              <path d="M-0.28,-0.18 L0.28,-0.18 0.28,0.18 -0.28,0.18  z" class="primitive"/>
            </g>
            <g transform="translate(50.02,80.02)" id="img-661c3a84-91">
              <path d="M-0.28,-0.29 L0.28,-0.29 0.28,0.29 -0.28,0.29  z" class="primitive"/>
            </g>
            <g transform="translate(50.53,79.96)" id="img-661c3a84-92">
              <path d="M-0.28,-0.35 L0.28,-0.35 0.28,0.35 -0.28,0.35  z" class="primitive"/>
            </g>
            <g transform="translate(51.04,79.85)" id="img-661c3a84-93">
              <path d="M-0.28,-0.47 L0.28,-0.47 0.28,0.47 -0.28,0.47  z" class="primitive"/>
            </g>
            <g transform="translate(51.55,79.96)" id="img-661c3a84-94">
              <path d="M-0.28,-0.35 L0.28,-0.35 0.28,0.35 -0.28,0.35  z" class="primitive"/>
            </g>
            <g transform="translate(52.06,80.14)" id="img-661c3a84-95">
              <path d="M-0.28,-0.18 L0.28,-0.18 0.28,0.18 -0.28,0.18  z" class="primitive"/>
            </g>
            <g transform="translate(52.57,80.08)" id="img-661c3a84-96">
              <path d="M-0.28,-0.23 L0.28,-0.23 0.28,0.23 -0.28,0.23  z" class="primitive"/>
            </g>
            <g transform="translate(53.08,80.02)" id="img-661c3a84-97">
              <path d="M-0.28,-0.29 L0.28,-0.29 0.28,0.29 -0.28,0.29  z" class="primitive"/>
            </g>
            <g transform="translate(53.59,80.08)" id="img-661c3a84-98">
              <path d="M-0.28,-0.23 L0.28,-0.23 0.28,0.23 -0.28,0.23  z" class="primitive"/>
            </g>
            <g transform="translate(54.1,80.2)" id="img-661c3a84-99">
              <path d="M-0.28,-0.12 L0.28,-0.12 0.28,0.12 -0.28,0.12  z" class="primitive"/>
            </g>
            <g transform="translate(54.61,80.08)" id="img-661c3a84-100">
              <path d="M-0.28,-0.23 L0.28,-0.23 0.28,0.23 -0.28,0.23  z" class="primitive"/>
            </g>
            <g transform="translate(55.12,80.14)" id="img-661c3a84-101">
              <path d="M-0.28,-0.18 L0.28,-0.18 0.28,0.18 -0.28,0.18  z" class="primitive"/>
            </g>
            <g transform="translate(55.63,80.02)" id="img-661c3a84-102">
              <path d="M-0.28,-0.29 L0.28,-0.29 0.28,0.29 -0.28,0.29  z" class="primitive"/>
            </g>
            <g transform="translate(56.14,80.14)" id="img-661c3a84-103">
              <path d="M-0.28,-0.18 L0.28,-0.18 0.28,0.18 -0.28,0.18  z" class="primitive"/>
            </g>
            <g transform="translate(56.65,80.32)" id="img-661c3a84-104">
              <path d="M-0.28,-0 L0.28,-0 0.28,0 -0.28,0  z" class="primitive"/>
            </g>
            <g transform="translate(57.17,80.08)" id="img-661c3a84-105">
              <path d="M-0.28,-0.23 L0.28,-0.23 0.28,0.23 -0.28,0.23  z" class="primitive"/>
            </g>
            <g transform="translate(57.68,80.08)" id="img-661c3a84-106">
              <path d="M-0.28,-0.23 L0.28,-0.23 0.28,0.23 -0.28,0.23  z" class="primitive"/>
            </g>
            <g transform="translate(58.19,80.14)" id="img-661c3a84-107">
              <path d="M-0.28,-0.18 L0.28,-0.18 0.28,0.18 -0.28,0.18  z" class="primitive"/>
            </g>
            <g transform="translate(58.7,80.14)" id="img-661c3a84-108">
              <path d="M-0.28,-0.18 L0.28,-0.18 0.28,0.18 -0.28,0.18  z" class="primitive"/>
            </g>
            <g transform="translate(59.21,80.32)" id="img-661c3a84-109">
              <path d="M-0.28,-0 L0.28,-0 0.28,0 -0.28,0  z" class="primitive"/>
            </g>
            <g transform="translate(59.72,80.2)" id="img-661c3a84-110">
              <path d="M-0.28,-0.12 L0.28,-0.12 0.28,0.12 -0.28,0.12  z" class="primitive"/>
            </g>
            <g transform="translate(60.23,80.02)" id="img-661c3a84-111">
              <path d="M-0.28,-0.29 L0.28,-0.29 0.28,0.29 -0.28,0.29  z" class="primitive"/>
            </g>
            <g transform="translate(60.74,80.32)" id="img-661c3a84-112">
              <path d="M-0.28,-0 L0.28,-0 0.28,0 -0.28,0  z" class="primitive"/>
            </g>
            <g transform="translate(61.25,80.14)" id="img-661c3a84-113">
              <path d="M-0.28,-0.18 L0.28,-0.18 0.28,0.18 -0.28,0.18  z" class="primitive"/>
            </g>
            <g transform="translate(61.76,80.26)" id="img-661c3a84-114">
              <path d="M-0.28,-0.06 L0.28,-0.06 0.28,0.06 -0.28,0.06  z" class="primitive"/>
            </g>
            <g transform="translate(62.27,80.14)" id="img-661c3a84-115">
              <path d="M-0.28,-0.18 L0.28,-0.18 0.28,0.18 -0.28,0.18  z" class="primitive"/>
            </g>
            <g transform="translate(62.78,80.26)" id="img-661c3a84-116">
              <path d="M-0.28,-0.06 L0.28,-0.06 0.28,0.06 -0.28,0.06  z" class="primitive"/>
            </g>
            <g transform="translate(63.29,80.2)" id="img-661c3a84-117">
              <path d="M-0.28,-0.12 L0.28,-0.12 0.28,0.12 -0.28,0.12  z" class="primitive"/>
            </g>
            <g transform="translate(63.8,80.26)" id="img-661c3a84-118">
              <path d="M-0.28,-0.06 L0.28,-0.06 0.28,0.06 -0.28,0.06  z" class="primitive"/>
            </g>
            <g transform="translate(64.31,80.26)" id="img-661c3a84-119">
              <path d="M-0.28,-0.06 L0.28,-0.06 0.28,0.06 -0.28,0.06  z" class="primitive"/>
            </g>
            <g transform="translate(64.82,80.32)" id="img-661c3a84-120">
              <path d="M-0.28,-0 L0.28,-0 0.28,0 -0.28,0  z" class="primitive"/>
            </g>
            <g transform="translate(65.33,80.32)" id="img-661c3a84-121">
              <path d="M-0.28,-0 L0.28,-0 0.28,0 -0.28,0  z" class="primitive"/>
            </g>
            <g transform="translate(65.84,80.32)" id="img-661c3a84-122">
              <path d="M-0.28,-0 L0.28,-0 0.28,0 -0.28,0  z" class="primitive"/>
            </g>
            <g transform="translate(66.35,80.26)" id="img-661c3a84-123">
              <path d="M-0.28,-0.06 L0.28,-0.06 0.28,0.06 -0.28,0.06  z" class="primitive"/>
            </g>
            <g transform="translate(66.86,80.26)" id="img-661c3a84-124">
              <path d="M-0.28,-0.06 L0.28,-0.06 0.28,0.06 -0.28,0.06  z" class="primitive"/>
            </g>
            <g transform="translate(67.37,80.26)" id="img-661c3a84-125">
              <path d="M-0.28,-0.06 L0.28,-0.06 0.28,0.06 -0.28,0.06  z" class="primitive"/>
            </g>
            <g transform="translate(67.88,80.32)" id="img-661c3a84-126">
              <path d="M-0.28,-0 L0.28,-0 0.28,0 -0.28,0  z" class="primitive"/>
            </g>
            <g transform="translate(68.39,80.2)" id="img-661c3a84-127">
              <path d="M-0.28,-0.12 L0.28,-0.12 0.28,0.12 -0.28,0.12  z" class="primitive"/>
            </g>
            <g transform="translate(68.9,80.26)" id="img-661c3a84-128">
              <path d="M-0.28,-0.06 L0.28,-0.06 0.28,0.06 -0.28,0.06  z" class="primitive"/>
            </g>
            <g transform="translate(69.41,80.26)" id="img-661c3a84-129">
              <path d="M-0.28,-0.06 L0.28,-0.06 0.28,0.06 -0.28,0.06  z" class="primitive"/>
            </g>
            <g transform="translate(69.92,80.32)" id="img-661c3a84-130">
              <path d="M-0.28,-0 L0.28,-0 0.28,0 -0.28,0  z" class="primitive"/>
            </g>
            <g transform="translate(70.43,80.2)" id="img-661c3a84-131">
              <path d="M-0.28,-0.12 L0.28,-0.12 0.28,0.12 -0.28,0.12  z" class="primitive"/>
            </g>
            <g transform="translate(70.94,80.26)" id="img-661c3a84-132">
              <path d="M-0.28,-0.06 L0.28,-0.06 0.28,0.06 -0.28,0.06  z" class="primitive"/>
            </g>
            <g transform="translate(71.45,80.32)" id="img-661c3a84-133">
              <path d="M-0.28,-0 L0.28,-0 0.28,0 -0.28,0  z" class="primitive"/>
            </g>
            <g transform="translate(71.97,80.26)" id="img-661c3a84-134">
              <path d="M-0.28,-0.06 L0.28,-0.06 0.28,0.06 -0.28,0.06  z" class="primitive"/>
            </g>
            <g transform="translate(72.48,80.32)" id="img-661c3a84-135">
              <path d="M-0.28,-0 L0.28,-0 0.28,0 -0.28,0  z" class="primitive"/>
            </g>
            <g transform="translate(72.99,80.32)" id="img-661c3a84-136">
              <path d="M-0.28,-0 L0.28,-0 0.28,0 -0.28,0  z" class="primitive"/>
            </g>
            <g transform="translate(73.5,80.32)" id="img-661c3a84-137">
              <path d="M-0.28,-0 L0.28,-0 0.28,0 -0.28,0  z" class="primitive"/>
            </g>
            <g transform="translate(74.01,80.26)" id="img-661c3a84-138">
              <path d="M-0.28,-0.06 L0.28,-0.06 0.28,0.06 -0.28,0.06  z" class="primitive"/>
            </g>
            <g transform="translate(74.52,80.32)" id="img-661c3a84-139">
              <path d="M-0.28,-0 L0.28,-0 0.28,0 -0.28,0  z" class="primitive"/>
            </g>
            <g transform="translate(75.03,80.26)" id="img-661c3a84-140">
              <path d="M-0.28,-0.06 L0.28,-0.06 0.28,0.06 -0.28,0.06  z" class="primitive"/>
            </g>
            <g transform="translate(75.54,80.32)" id="img-661c3a84-141">
              <path d="M-0.28,-0 L0.28,-0 0.28,0 -0.28,0  z" class="primitive"/>
            </g>
            <g transform="translate(76.05,80.32)" id="img-661c3a84-142">
              <path d="M-0.28,-0 L0.28,-0 0.28,0 -0.28,0  z" class="primitive"/>
            </g>
            <g transform="translate(76.56,80.32)" id="img-661c3a84-143">
              <path d="M-0.28,-0 L0.28,-0 0.28,0 -0.28,0  z" class="primitive"/>
            </g>
            <g transform="translate(77.07,80.32)" id="img-661c3a84-144">
              <path d="M-0.28,-0 L0.28,-0 0.28,0 -0.28,0  z" class="primitive"/>
            </g>
            <g transform="translate(77.58,80.32)" id="img-661c3a84-145">
              <path d="M-0.28,-0 L0.28,-0 0.28,0 -0.28,0  z" class="primitive"/>
            </g>
            <g transform="translate(78.09,80.32)" id="img-661c3a84-146">
              <path d="M-0.28,-0 L0.28,-0 0.28,0 -0.28,0  z" class="primitive"/>
            </g>
            <g transform="translate(78.6,80.32)" id="img-661c3a84-147">
              <path d="M-0.28,-0 L0.28,-0 0.28,0 -0.28,0  z" class="primitive"/>
            </g>
            <g transform="translate(79.11,80.26)" id="img-661c3a84-148">
              <path d="M-0.28,-0.06 L0.28,-0.06 0.28,0.06 -0.28,0.06  z" class="primitive"/>
            </g>
            <g transform="translate(79.62,80.32)" id="img-661c3a84-149">
              <path d="M-0.28,-0 L0.28,-0 0.28,0 -0.28,0  z" class="primitive"/>
            </g>
            <g transform="translate(80.13,80.32)" id="img-661c3a84-150">
              <path d="M-0.28,-0 L0.28,-0 0.28,0 -0.28,0  z" class="primitive"/>
            </g>
            <g transform="translate(80.64,80.32)" id="img-661c3a84-151">
              <path d="M-0.28,-0 L0.28,-0 0.28,0 -0.28,0  z" class="primitive"/>
            </g>
            <g transform="translate(81.15,80.26)" id="img-661c3a84-152">
              <path d="M-0.28,-0.06 L0.28,-0.06 0.28,0.06 -0.28,0.06  z" class="primitive"/>
            </g>
            <g transform="translate(81.66,80.32)" id="img-661c3a84-153">
              <path d="M-0.28,-0 L0.28,-0 0.28,0 -0.28,0  z" class="primitive"/>
            </g>
            <g transform="translate(82.17,80.32)" id="img-661c3a84-154">
              <path d="M-0.28,-0 L0.28,-0 0.28,0 -0.28,0  z" class="primitive"/>
            </g>
            <g transform="translate(82.68,80.32)" id="img-661c3a84-155">
              <path d="M-0.28,-0 L0.28,-0 0.28,0 -0.28,0  z" class="primitive"/>
            </g>
            <g transform="translate(83.19,80.32)" id="img-661c3a84-156">
              <path d="M-0.28,-0 L0.28,-0 0.28,0 -0.28,0  z" class="primitive"/>
            </g>
            <g transform="translate(83.7,80.26)" id="img-661c3a84-157">
              <path d="M-0.28,-0.06 L0.28,-0.06 0.28,0.06 -0.28,0.06  z" class="primitive"/>
            </g>
            <g transform="translate(84.21,80.26)" id="img-661c3a84-158">
              <path d="M-0.28,-0.06 L0.28,-0.06 0.28,0.06 -0.28,0.06  z" class="primitive"/>
            </g>
            <g transform="translate(84.72,80.32)" id="img-661c3a84-159">
              <path d="M-0.28,-0 L0.28,-0 0.28,0 -0.28,0  z" class="primitive"/>
            </g>
            <g transform="translate(85.23,80.32)" id="img-661c3a84-160">
              <path d="M-0.28,-0 L0.28,-0 0.28,0 -0.28,0  z" class="primitive"/>
            </g>
            <g transform="translate(85.74,80.32)" id="img-661c3a84-161">
              <path d="M-0.28,-0 L0.28,-0 0.28,0 -0.28,0  z" class="primitive"/>
            </g>
            <g transform="translate(86.26,80.32)" id="img-661c3a84-162">
              <path d="M-0.28,-0 L0.28,-0 0.28,0 -0.28,0  z" class="primitive"/>
            </g>
            <g transform="translate(86.77,80.32)" id="img-661c3a84-163">
              <path d="M-0.28,-0 L0.28,-0 0.28,0 -0.28,0  z" class="primitive"/>
            </g>
            <g transform="translate(87.28,80.32)" id="img-661c3a84-164">
              <path d="M-0.28,-0 L0.28,-0 0.28,0 -0.28,0  z" class="primitive"/>
            </g>
            <g transform="translate(87.79,80.32)" id="img-661c3a84-165">
              <path d="M-0.28,-0 L0.28,-0 0.28,0 -0.28,0  z" class="primitive"/>
            </g>
            <g transform="translate(88.3,80.32)" id="img-661c3a84-166">
              <path d="M-0.28,-0 L0.28,-0 0.28,0 -0.28,0  z" class="primitive"/>
            </g>
            <g transform="translate(88.81,80.32)" id="img-661c3a84-167">
              <path d="M-0.28,-0 L0.28,-0 0.28,0 -0.28,0  z" class="primitive"/>
            </g>
            <g transform="translate(89.32,80.26)" id="img-661c3a84-168">
              <path d="M-0.28,-0.06 L0.28,-0.06 0.28,0.06 -0.28,0.06  z" class="primitive"/>
            </g>
          </g>
        </g>
      </g>
    </g>
  </g>
  <g class="guide ylabels" font-size="2.82" font-family="'PT Sans Caption','Helvetica Neue','Helvetica',sans-serif" fill="#6C606B" id="img-661c3a84-169">
    <g transform="translate(10.02,80.31)" id="img-661c3a84-170">
      <g class="primitive">
        <text text-anchor="end" dy="0.35em">0.0</text>
      </g>
    </g>
    <g transform="translate(10.02,43.66)" id="img-661c3a84-171">
      <g class="primitive">
        <text text-anchor="end" dy="0.35em">0.5</text>
      </g>
    </g>
    <g transform="translate(10.02,7)" id="img-661c3a84-172">
      <g class="primitive">
        <text text-anchor="end" dy="0.35em">1.0</text>
      </g>
    </g>
  </g>
</g>
<defs>
  <clipPath id="img-661c3a84-4">
    <path d="M11.02,5 L96.6,5 96.6,82.31 11.02,82.31 " />
  </clipPath>
</defs>
</svg>
