<?xml version="1.0" encoding="UTF-8"?>
<svg xmlns="http://www.w3.org/2000/svg"
     xmlns:xlink="http://www.w3.org/1999/xlink"
     xmlns:gadfly="http://www.gadflyjl.org/ns"
     version="1.2"
     width="127mm" height="127mm" viewBox="0 0 127 127"
     stroke="none"
     fill="#000000"
     stroke-width="0.3"
     font-size="3.88"
>
<defs>
  <marker id="arrow" markerWidth="15" markerHeight="7" refX="5" refY="3.5" orient="auto" markerUnits="strokeWidth">
    <path d="M0,0 L15,3.5 L0,7 z" stroke="context-stroke" fill="context-stroke"/>
  </marker>
</defs>
<g class="plotroot xscalable yscalable" id="img-67f991af-1">
  <g font-size="3.88" font-family="'PT Sans','Helvetica Neue','Helvetica',sans-serif" fill="#564A55" stroke="#000000" stroke-opacity="0.000" id="img-67f991af-2">
    <g transform="translate(65.29,117.06)">
      <g class="primitive">
        <text text-anchor="middle" dy="0.6em">x</text>
      </g>
    </g>
  </g>
  <g class="guide xlabels" font-size="2.82" font-family="'PT Sans Caption','Helvetica Neue','Helvetica',sans-serif" fill="#6C606B" id="img-67f991af-3">
    <g transform="translate(10.57,111.01)">
      <g class="primitive">
        <text text-anchor="middle" dy="0.6em">0</text>
      </g>
    </g>
    <g transform="translate(43.33,111.01)">
      <g class="primitive">
        <text text-anchor="middle" dy="0.6em">1</text>
      </g>
    </g>
    <g transform="translate(76.09,111.01)">
      <g class="primitive">
        <text text-anchor="middle" dy="0.6em">2</text>
      </g>
    </g>
    <g transform="translate(108.85,111.01)">
      <g class="primitive">
        <text text-anchor="middle" dy="0.6em">3</text>
      </g>
    </g>
  </g>
  <g clip-path="url(#img-67f991af-4)">
    <g id="img-67f991af-5">
      <g pointer-events="visible" stroke-width="0.3" fill="#000000" fill-opacity="0.000" stroke="#000000" stroke-opacity="0.000" class="guide background" id="img-67f991af-6">
        <g transform="translate(65.29,60.31)" id="img-67f991af-7">
          <path d="M-56.71,-49.7 L56.71,-49.7 56.71,49.7 -56.71,49.7  z" class="primitive"/>
        </g>
      </g>
      <g class="guide ygridlines xfixed" stroke-dasharray="0.5,0.5" stroke-width="0.2" stroke="#D0D0E0" id="img-67f991af-8">
        <g transform="translate(65.29,108.01)" id="img-67f991af-9">
          <path fill="none" d="M-56.71,0 L56.71,0 " class="primitive"/>
        </g>
        <g transform="translate(65.29,84.16)" id="img-67f991af-10">
          <path fill="none" d="M-56.71,0 L56.71,0 " class="primitive"/>
        </g>
        <g transform="translate(65.29,60.31)" id="img-67f991af-11">
          <path fill="none" d="M-56.71,0 L56.71,0 " class="primitive"/>
        </g>
        <g transform="translate(65.29,36.47)" id="img-67f991af-12">
          <path fill="none" d="M-56.71,0 L56.71,0 " class="primitive"/>
        </g>
        <g transform="translate(65.29,12.62)" id="img-67f991af-13">
          <path fill="none" d="M-56.71,0 L56.71,0 " class="primitive"/>
        </g>
      </g>
      <g class="guide xgridlines yfixed" stroke-dasharray="0.5,0.5" stroke-width="0.2" stroke="#D0D0E0" id="img-67f991af-14">
        <g transform="translate(10.57,60.31)" id="img-67f991af-15">
          <path fill="none" d="M0,-49.7 L0,49.7 " class="primitive"/>
        </g>
        <g transform="translate(43.33,60.31)" id="img-67f991af-16">
          <path fill="none" d="M0,-49.7 L0,49.7 " class="primitive"/>
        </g>
        <g transform="translate(76.09,60.31)" id="img-67f991af-17">
          <path fill="none" d="M0,-49.7 L0,49.7 " class="primitive"/>
        </g>
        <g transform="translate(108.85,60.31)" id="img-67f991af-18">
          <path fill="none" d="M0,-49.7 L0,49.7 " class="primitive"/>
        </g>
      </g>
      <g class="plotpanel" id="img-67f991af-19">
        <metadata>
          <boundingbox value="8.571997070312506mm 10.616661241319449mm 113.4280029296875mm 99.39426269531249mm"/>
          <unitbox value="-0.06105243425712977 4.083862485792797 3.4625278458911346 -4.167724971585594"/>
        </metadata>
        <g class="geometry" stroke-width="0.3" stroke-dasharray="none" fill-opacity="1" stroke="#FFFFFF" fill="#B9EAFF" id="img-67f991af-20">
          <g transform="translate(64.52,101)" id="img-67f991af-21">
            <path d="M-55.48,7.01 L-55.04,6.48 -54.61,1.46 -54.17,-20.59 -53.74,-56.25 -53.3,-75.42 -52.86,-76.32 -52.43,-72.67 -51.99,-68.68 -51.56,-64.65 -51.12,-60.74 -50.69,-57.21 -50.25,-53.8 -49.82,-50.57 -49.38,-47.56 -48.95,-44.82 -48.51,-42.11 -48.08,-39.55 -47.64,-37.12 -47.21,-34.79 -46.77,-32.61 -46.34,-30.57 -45.9,-28.68 -45.47,-26.97 -45.03,-25.25 -44.6,-23.42 -44.16,-21.8 -43.73,-20.41 -43.29,-19.06 -42.86,-17.77 -42.42,-16.54 -41.99,-15.4 -41.55,-14.2 -41.12,-13 -40.68,-11.85 -40.25,-10.75 -39.81,-9.78 -39.38,-8.92 -38.94,-8.11 -38.51,-7.4 -38.07,-6.76 -37.64,-6.08 -37.2,-5.34 -36.77,-4.64 -36.33,-4.06 -35.9,-3.48 -35.46,-2.91 -35.03,-2.38 -34.59,-1.86 -34.16,-1.39 -33.72,-1.02 -33.29,-0.68 -32.85,-0.33 -32.42,0.03 -31.98,0.4 -31.54,0.79 -31.11,1.18 -30.67,1.49 -30.24,1.76 -29.8,2.04 -29.37,2.32 -28.93,2.6 -28.5,2.85 -28.06,3.05 -27.63,3.25 -27.19,3.44 -26.76,3.6 -26.32,3.73 -25.89,3.88 -25.45,4.03 -25.02,4.16 -24.58,4.31 -24.15,4.45 -23.71,4.61 -23.28,4.74 -22.84,4.86 -22.41,4.99 -21.97,5.1 -21.54,5.22 -21.1,5.36 -20.67,5.47 -20.23,5.54 -19.8,5.57 -19.36,5.62 -18.93,5.71 -18.49,5.8 -18.06,5.87 -17.62,5.94 -17.19,5.97 -16.75,5.99 -16.32,6.04 -15.88,6.08 -15.45,6.14 -15.01,6.19 -14.58,6.22 -14.14,6.25 -13.71,6.3 -13.27,6.36 -12.84,6.41 -12.4,6.45 -11.97,6.46 -11.53,6.47 -11.1,6.49 -10.66,6.52 -10.22,6.56 -9.79,6.6 -9.35,6.62 -8.92,6.63 -8.48,6.64 -8.05,6.67 -7.61,6.68 -7.18,6.69 -6.74,6.72 -6.31,6.74 -5.87,6.74 -5.44,6.75 -5,6.78 -4.57,6.79 -4.13,6.79 -3.7,6.79 -3.26,6.8 -2.83,6.81 -2.39,6.83 -1.96,6.84 -1.52,6.86 -1.09,6.87 -0.65,6.87 -0.22,6.88 0.22,6.89 0.65,6.89 1.09,6.91 1.52,6.91 1.96,6.92 2.39,6.92 2.83,6.92 3.26,6.92 3.7,6.92 4.13,6.92 4.57,6.93 5,6.94 5.44,6.95 5.87,6.95 6.31,6.96 6.74,6.96 7.18,6.96 7.61,6.96 8.05,6.96 8.48,6.97 8.92,6.98 9.35,6.98 9.79,6.97 10.22,6.98 10.66,6.98 11.1,6.98 11.53,6.99 11.97,6.98 12.4,6.98 12.84,6.98 13.27,6.99 13.71,6.99 14.14,6.99 14.58,6.99 15.01,6.99 15.45,7 15.88,7 16.32,7 16.75,7 17.19,7 17.62,7 18.06,7 18.49,7 18.93,7 19.36,7 19.8,7 20.23,7 20.67,7 21.1,7 21.54,7 21.97,7.01 22.41,7.01 22.84,7.01 23.28,7.01 23.71,7.01 24.15,7.01 24.58,7.01 25.02,7.01 25.45,7.01 25.89,7.01 26.32,7.01 26.76,7.01 27.19,7.01 27.63,7.01 28.06,7.01 28.5,7.01 28.93,7.01 29.37,7.01 29.8,7.01 30.24,7.01 30.67,7.01 31.11,7.01 31.54,7.01 31.98,7.01 32.42,7.01 32.85,7.01 33.29,7.01 33.72,7.01 34.16,7.01 34.59,7.01 35.03,7.01 35.46,7.01 35.9,7.01 36.33,7.01 36.77,7.01 37.2,7.01 37.64,7.01 38.07,7.01 38.51,7.01 38.94,7.01 39.38,7.01 39.81,7.01 40.25,7.01 40.68,7.01 41.12,7.01 41.55,7.01 41.99,7.01 42.42,7.01 42.86,7.01 43.29,7.01 43.73,7.01 44.16,7.01 44.6,7.01 45.03,7.01 45.47,7.01 45.9,7.01 46.34,7.01 46.77,7.01 47.21,7.01 47.64,7.01 48.08,7.01 48.51,7.01 48.95,7.01 49.38,7.01 49.82,7.01 50.25,7.01 50.69,7.01 51.12,7.01 51.56,7.01 51.99,7.01 52.43,7.01 52.86,7.01 53.3,7.01 53.74,7.01 54.17,7.01 54.61,7.01 55.04,7.01 55.48,7  z" class="primitive"/>
          </g>
        </g>
      </g>
    </g>
  </g>
  <g class="guide ylabels" font-size="2.82" font-family="'PT Sans Caption','Helvetica Neue','Helvetica',sans-serif" fill="#6C606B" id="img-67f991af-22">
    <g transform="translate(7.57,108.01)" id="img-67f991af-23">
      <g class="primitive">
        <text text-anchor="end" dy="0.35em">0</text>
      </g>
    </g>
    <g transform="translate(7.57,84.16)" id="img-67f991af-24">
      <g class="primitive">
        <text text-anchor="end" dy="0.35em">1</text>
      </g>
    </g>
    <g transform="translate(7.57,60.31)" id="img-67f991af-25">
      <g class="primitive">
        <text text-anchor="end" dy="0.35em">2</text>
      </g>
    </g>
    <g transform="translate(7.57,36.47)" id="img-67f991af-26">
      <g class="primitive">
        <text text-anchor="end" dy="0.35em">3</text>
      </g>
    </g>
    <g transform="translate(7.57,12.62)" id="img-67f991af-27">
      <g class="primitive">
        <text text-anchor="end" dy="0.35em">4</text>
      </g>
    </g>
  </g>
  <g font-size="3.88" font-family="'PT Sans','Helvetica Neue','Helvetica',sans-serif" fill="#564A55" stroke="#000000" stroke-opacity="0.000" id="img-67f991af-28">
    <g transform="translate(65.29,5)" id="img-67f991af-29">
      <g class="primitive">
        <text text-anchor="middle" dy="0.6em">Exponential(4)</text>
      </g>
    </g>
  </g>
</g>
<defs>
  <clipPath id="img-67f991af-4">
    <path d="M8.57,10.62 L122,10.62 122,110.01 8.57,110.01 " />
  </clipPath>
</defs>
</svg>
