<?xml version="1.0" encoding="UTF-8"?>
<svg xmlns="http://www.w3.org/2000/svg"
     xmlns:xlink="http://www.w3.org/1999/xlink"
     xmlns:gadfly="http://www.gadflyjl.org/ns"
     version="1.2"
     width="101.6mm" height="101.6mm" viewBox="0 0 101.6 101.6"
     stroke="none"
     fill="#000000"
     stroke-width="0.3"
     font-size="3.88"
>
<defs>
  <marker id="arrow" markerWidth="15" markerHeight="7" refX="5" refY="3.5" orient="auto" markerUnits="strokeWidth">
    <path d="M0,0 L15,3.5 L0,7 z" stroke="context-stroke" fill="context-stroke"/>
  </marker>
</defs>
<g class="plotroot xscalable yscalable" id="img-f7851904-1">
  <g font-size="3.88" font-family="'PT Sans','Helvetica Neue','Helvetica',sans-serif" fill="#564A55" stroke="#000000" stroke-opacity="0.000" id="img-f7851904-2">
    <g transform="translate(52.59,91.66)">
      <g class="primitive">
        <text text-anchor="middle" dy="0.6em">x</text>
      </g>
    </g>
  </g>
  <g class="guide xlabels" font-size="2.82" font-family="'PT Sans Caption','Helvetica Neue','Helvetica',sans-serif" fill="#6C606B" id="img-f7851904-3">
    <g transform="translate(10.57,85.61)">
      <g class="primitive">
        <text text-anchor="middle" dy="0.6em">0</text>
      </g>
    </g>
    <g transform="translate(36.13,85.61)">
      <g class="primitive">
        <text text-anchor="middle" dy="0.6em">1</text>
      </g>
    </g>
    <g transform="translate(61.69,85.61)">
      <g class="primitive">
        <text text-anchor="middle" dy="0.6em">2</text>
      </g>
    </g>
    <g transform="translate(87.26,85.61)">
      <g class="primitive">
        <text text-anchor="middle" dy="0.6em">3</text>
      </g>
    </g>
  </g>
  <g clip-path="url(#img-f7851904-4)">
    <g id="img-f7851904-5">
      <g pointer-events="visible" stroke-width="0.3" fill="#000000" fill-opacity="0.000" stroke="#000000" stroke-opacity="0.000" class="guide background" id="img-f7851904-6">
        <g transform="translate(52.59,47.61)" id="img-f7851904-7">
          <path d="M-44.01,-37 L44.01,-37 44.01,37 -44.01,37  z" class="primitive"/>
        </g>
      </g>
      <g class="guide ygridlines xfixed" stroke-dasharray="0.5,0.5" stroke-width="0.2" stroke="#D0D0E0" id="img-f7851904-8">
        <g transform="translate(52.59,82.61)" id="img-f7851904-9">
          <path fill="none" d="M-44.01,0 L44.01,0 " class="primitive"/>
        </g>
        <g transform="translate(52.59,65.11)" id="img-f7851904-10">
          <path fill="none" d="M-44.01,0 L44.01,0 " class="primitive"/>
        </g>
        <g transform="translate(52.59,47.61)" id="img-f7851904-11">
          <path fill="none" d="M-44.01,0 L44.01,0 " class="primitive"/>
        </g>
        <g transform="translate(52.59,30.12)" id="img-f7851904-12">
          <path fill="none" d="M-44.01,0 L44.01,0 " class="primitive"/>
        </g>
        <g transform="translate(52.59,12.62)" id="img-f7851904-13">
          <path fill="none" d="M-44.01,0 L44.01,0 " class="primitive"/>
        </g>
      </g>
      <g class="guide xgridlines yfixed" stroke-dasharray="0.5,0.5" stroke-width="0.2" stroke="#D0D0E0" id="img-f7851904-14">
        <g transform="translate(10.57,47.61)" id="img-f7851904-15">
          <path fill="none" d="M0,-37 L0,37 " class="primitive"/>
        </g>
        <g transform="translate(36.13,47.61)" id="img-f7851904-16">
          <path fill="none" d="M0,-37 L0,37 " class="primitive"/>
        </g>
        <g transform="translate(61.69,47.61)" id="img-f7851904-17">
          <path fill="none" d="M0,-37 L0,37 " class="primitive"/>
        </g>
        <g transform="translate(87.26,47.61)" id="img-f7851904-18">
          <path fill="none" d="M0,-37 L0,37 " class="primitive"/>
        </g>
      </g>
      <g class="plotpanel" id="img-f7851904-19">
        <metadata>
          <boundingbox value="8.571997070312506mm 10.616661241319449mm 88.02800292968749mm 73.99426269531249mm"/>
          <unitbox value="-0.07824278448502343 4.114295082081574 3.4437780309372745 -4.2285901641631485"/>
        </metadata>
        <g class="geometry" stroke-width="0.3" stroke-dasharray="none" fill-opacity="1" stroke="#FFFFFF" fill="#B9EAFF" id="img-f7851904-20">
          <g transform="translate(51.99,77.38)" id="img-f7851904-21">
            <path d="M-42.61,5.23 L-42.27,4.87 -41.94,1.48 -41.61,-14.04 -41.27,-40.03 -40.94,-54.83 -40.6,-55.89 -40.27,-53.12 -39.94,-50.25 -39.6,-47.63 -39.27,-44.93 -38.93,-42.35 -38.6,-39.9 -38.26,-37.47 -37.93,-35.18 -37.6,-33.15 -37.26,-31.2 -36.93,-29.42 -36.59,-27.81 -36.26,-26.11 -35.92,-24.36 -35.59,-22.88 -35.26,-21.55 -34.92,-20.17 -34.59,-18.88 -34.25,-17.73 -33.92,-16.61 -33.59,-15.43 -33.25,-14.27 -32.92,-13.2 -32.58,-12.23 -32.25,-11.37 -31.91,-10.52 -31.58,-9.72 -31.25,-8.97 -30.91,-8.26 -30.58,-7.61 -30.24,-6.99 -29.91,-6.36 -29.58,-5.73 -29.24,-5.13 -28.91,-4.61 -28.57,-4.18 -28.24,-3.75 -27.9,-3.26 -27.57,-2.81 -27.24,-2.41 -26.9,-2.01 -26.57,-1.62 -26.23,-1.29 -25.9,-0.96 -25.57,-0.63 -25.23,-0.32 -24.9,-0.06 -24.56,0.17 -24.23,0.42 -23.89,0.72 -23.56,1 -23.23,1.21 -22.89,1.36 -22.56,1.54 -22.22,1.74 -21.89,1.94 -21.55,2.12 -21.22,2.27 -20.89,2.4 -20.55,2.56 -20.22,2.69 -19.88,2.79 -19.55,2.91 -19.22,3.01 -18.88,3.12 -18.55,3.23 -18.21,3.33 -17.88,3.43 -17.54,3.52 -17.21,3.59 -16.88,3.71 -16.54,3.82 -16.21,3.9 -15.87,3.97 -15.54,4.02 -15.21,4.07 -14.87,4.13 -14.54,4.17 -14.2,4.22 -13.87,4.3 -13.53,4.36 -13.2,4.39 -12.87,4.43 -12.53,4.48 -12.2,4.52 -11.86,4.55 -11.53,4.58 -11.2,4.62 -10.86,4.66 -10.53,4.69 -10.19,4.72 -9.86,4.74 -9.52,4.76 -9.19,4.78 -8.86,4.81 -8.52,4.83 -8.19,4.85 -7.85,4.88 -7.52,4.88 -7.18,4.89 -6.85,4.9 -6.52,4.92 -6.18,4.94 -5.85,4.96 -5.51,4.98 -5.18,4.99 -4.85,4.99 -4.51,4.99 -4.18,5.01 -3.84,5.03 -3.51,5.04 -3.17,5.05 -2.84,5.06 -2.51,5.07 -2.17,5.09 -1.84,5.1 -1.5,5.1 -1.17,5.11 -0.84,5.11 -0.5,5.12 -0.17,5.12 0.17,5.11 0.5,5.11 0.84,5.13 1.17,5.14 1.5,5.14 1.84,5.14 2.17,5.15 2.51,5.16 2.84,5.16 3.17,5.16 3.51,5.17 3.84,5.18 4.18,5.18 4.51,5.18 4.85,5.18 5.18,5.18 5.51,5.18 5.85,5.18 6.18,5.19 6.52,5.19 6.85,5.19 7.18,5.2 7.52,5.2 7.85,5.2 8.19,5.19 8.52,5.2 8.86,5.2 9.19,5.2 9.52,5.2 9.86,5.2 10.19,5.21 10.53,5.21 10.86,5.21 11.2,5.21 11.53,5.22 11.86,5.22 12.2,5.22 12.53,5.21 12.87,5.21 13.2,5.22 13.53,5.22 13.87,5.22 14.2,5.22 14.54,5.22 14.87,5.22 15.21,5.21 15.54,5.21 15.87,5.22 16.21,5.22 16.54,5.22 16.88,5.22 17.21,5.22 17.54,5.22 17.88,5.22 18.21,5.22 18.55,5.22 18.88,5.22 19.22,5.22 19.55,5.22 19.88,5.23 20.22,5.22 20.55,5.22 20.89,5.23 21.22,5.23 21.55,5.23 21.89,5.23 22.22,5.23 22.56,5.23 22.89,5.23 23.23,5.23 23.56,5.22 23.89,5.22 24.23,5.22 24.56,5.23 24.9,5.23 25.23,5.23 25.57,5.23 25.9,5.23 26.23,5.23 26.57,5.23 26.9,5.23 27.24,5.23 27.57,5.23 27.9,5.23 28.24,5.23 28.57,5.23 28.91,5.23 29.24,5.23 29.58,5.23 29.91,5.23 30.24,5.23 30.58,5.23 30.91,5.23 31.25,5.23 31.58,5.23 31.91,5.23 32.25,5.23 32.58,5.23 32.92,5.23 33.25,5.23 33.59,5.23 33.92,5.23 34.25,5.23 34.59,5.23 34.92,5.23 35.26,5.23 35.59,5.23 35.92,5.23 36.26,5.23 36.59,5.23 36.93,5.23 37.26,5.23 37.6,5.23 37.93,5.23 38.26,5.23 38.6,5.23 38.93,5.23 39.27,5.23 39.6,5.23 39.94,5.23 40.27,5.23 40.6,5.23 40.94,5.23 41.27,5.22 41.61,5.23 41.94,5.22 42.27,5.23 42.61,5.22  z" class="primitive"/>
          </g>
        </g>
      </g>
    </g>
  </g>
  <g class="guide ylabels" font-size="2.82" font-family="'PT Sans Caption','Helvetica Neue','Helvetica',sans-serif" fill="#6C606B" id="img-f7851904-22">
    <g transform="translate(7.57,82.61)" id="img-f7851904-23">
      <g class="primitive">
        <text text-anchor="end" dy="0.35em">0</text>
      </g>
    </g>
    <g transform="translate(7.57,65.11)" id="img-f7851904-24">
      <g class="primitive">
        <text text-anchor="end" dy="0.35em">1</text>
      </g>
    </g>
    <g transform="translate(7.57,47.61)" id="img-f7851904-25">
      <g class="primitive">
        <text text-anchor="end" dy="0.35em">2</text>
      </g>
    </g>
    <g transform="translate(7.57,30.12)" id="img-f7851904-26">
      <g class="primitive">
        <text text-anchor="end" dy="0.35em">3</text>
      </g>
    </g>
    <g transform="translate(7.57,12.62)" id="img-f7851904-27">
      <g class="primitive">
        <text text-anchor="end" dy="0.35em">4</text>
      </g>
    </g>
  </g>
  <g font-size="3.88" font-family="'PT Sans','Helvetica Neue','Helvetica',sans-serif" fill="#564A55" stroke="#000000" stroke-opacity="0.000" id="img-f7851904-28">
    <g transform="translate(52.59,5)" id="img-f7851904-29">
      <g class="primitive">
        <text text-anchor="middle" dy="0.6em">Exponential(4)</text>
      </g>
    </g>
  </g>
</g>
<defs>
  <clipPath id="img-f7851904-4">
    <path d="M8.57,10.62 L96.6,10.62 96.6,84.61 8.57,84.61 " />
  </clipPath>
</defs>
</svg>
