<?xml version="1.0" encoding="UTF-8"?>
<svg xmlns="http://www.w3.org/2000/svg"
     xmlns:xlink="http://www.w3.org/1999/xlink"
     xmlns:gadfly="http://www.gadflyjl.org/ns"
     version="1.2"
     width="127mm" height="127mm" viewBox="0 0 127 127"
     stroke="none"
     fill="#000000"
     stroke-width="0.3"
     font-size="3.88"
>
<defs>
  <marker id="arrow" markerWidth="15" markerHeight="7" refX="5" refY="3.5" orient="auto" markerUnits="strokeWidth">
    <path d="M0,0 L15,3.5 L0,7 z" stroke="context-stroke" fill="context-stroke"/>
  </marker>
</defs>
<g class="plotroot xscalable yscalable" id="img-f32a4b29-1">
  <g font-size="3.88" font-family="'PT Sans','Helvetica Neue','Helvetica',sans-serif" fill="#564A55" stroke="#000000" stroke-opacity="0.000" id="img-f32a4b29-2">
    <g transform="translate(65.29,117.06)">
      <g class="primitive">
        <text text-anchor="middle" dy="0.6em">x</text>
      </g>
    </g>
  </g>
  <g class="guide xlabels" font-size="2.82" font-family="'PT Sans Caption','Helvetica Neue','Helvetica',sans-serif" fill="#6C606B" id="img-f32a4b29-3">
    <g transform="translate(10.57,111.01)">
      <g class="primitive">
        <text text-anchor="middle" dy="0.6em">0</text>
      </g>
    </g>
    <g transform="translate(42.9,111.01)">
      <g class="primitive">
        <text text-anchor="middle" dy="0.6em">1</text>
      </g>
    </g>
    <g transform="translate(75.22,111.01)">
      <g class="primitive">
        <text text-anchor="middle" dy="0.6em">2</text>
      </g>
    </g>
    <g transform="translate(107.55,111.01)">
      <g class="primitive">
        <text text-anchor="middle" dy="0.6em">3</text>
      </g>
    </g>
  </g>
  <g clip-path="url(#img-f32a4b29-4)">
    <g id="img-f32a4b29-5">
      <g pointer-events="visible" stroke-width="0.3" fill="#000000" fill-opacity="0.000" stroke="#000000" stroke-opacity="0.000" class="guide background" id="img-f32a4b29-6">
        <g transform="translate(65.29,60.31)" id="img-f32a4b29-7">
          <path d="M-56.71,-49.7 L56.71,-49.7 56.71,49.7 -56.71,49.7  z" class="primitive"/>
        </g>
      </g>
      <g class="guide ygridlines xfixed" stroke-dasharray="0.5,0.5" stroke-width="0.2" stroke="#D0D0E0" id="img-f32a4b29-8">
        <g transform="translate(65.29,108.01)" id="img-f32a4b29-9">
          <path fill="none" d="M-56.71,0 L56.71,0 " class="primitive"/>
        </g>
        <g transform="translate(65.29,84.16)" id="img-f32a4b29-10">
          <path fill="none" d="M-56.71,0 L56.71,0 " class="primitive"/>
        </g>
        <g transform="translate(65.29,60.31)" id="img-f32a4b29-11">
          <path fill="none" d="M-56.71,0 L56.71,0 " class="primitive"/>
        </g>
        <g transform="translate(65.29,36.47)" id="img-f32a4b29-12">
          <path fill="none" d="M-56.71,0 L56.71,0 " class="primitive"/>
        </g>
        <g transform="translate(65.29,12.62)" id="img-f32a4b29-13">
          <path fill="none" d="M-56.71,0 L56.71,0 " class="primitive"/>
        </g>
      </g>
      <g class="guide xgridlines yfixed" stroke-dasharray="0.5,0.5" stroke-width="0.2" stroke="#D0D0E0" id="img-f32a4b29-14">
        <g transform="translate(10.57,60.31)" id="img-f32a4b29-15">
          <path fill="none" d="M0,-49.7 L0,49.7 " class="primitive"/>
        </g>
        <g transform="translate(42.9,60.31)" id="img-f32a4b29-16">
          <path fill="none" d="M0,-49.7 L0,49.7 " class="primitive"/>
        </g>
        <g transform="translate(75.22,60.31)" id="img-f32a4b29-17">
          <path fill="none" d="M0,-49.7 L0,49.7 " class="primitive"/>
        </g>
        <g transform="translate(107.55,60.31)" id="img-f32a4b29-18">
          <path fill="none" d="M0,-49.7 L0,49.7 " class="primitive"/>
        </g>
      </g>
      <g class="plotpanel" id="img-f32a4b29-19">
        <metadata>
          <boundingbox value="8.571997070312506mm 10.616661241319449mm 113.4280029296875mm 99.39426269531249mm"/>
          <unitbox value="-0.06187073491017732 4.083862485792797 3.508936950326756 -4.167724971585594"/>
        </metadata>
        <g class="geometry" stroke-width="0.3" stroke-dasharray="none" fill-opacity="1" stroke="#FFFFFF" fill="#B9EAFF" id="img-f32a4b29-20">
          <g transform="translate(64.53,101.09)" id="img-f32a4b29-21">
            <path d="M-55.47,6.92 L-55.03,6.36 -54.6,1.04 -54.16,-21.76 -53.73,-57.54 -53.29,-75.69 -52.86,-76.16 -52.42,-72.44 -51.99,-68.23 -51.55,-64.18 -51.12,-60.25 -50.68,-56.69 -50.25,-53.46 -49.81,-50.33 -49.38,-47.21 -48.94,-44.29 -48.51,-41.62 -48.07,-39.13 -47.64,-36.7 -47.2,-34.32 -46.77,-32.2 -46.33,-30.31 -45.9,-28.43 -45.46,-26.5 -45.03,-24.61 -44.59,-22.87 -44.16,-21.32 -43.72,-19.94 -43.29,-18.66 -42.85,-17.3 -42.42,-15.83 -41.98,-14.58 -41.55,-13.6 -41.11,-12.59 -40.68,-11.43 -40.24,-10.34 -39.81,-9.49 -39.37,-8.76 -38.94,-7.96 -38.5,-7.22 -38.07,-6.54 -37.63,-5.87 -37.2,-5.18 -36.76,-4.5 -36.33,-3.85 -35.89,-3.27 -35.45,-2.68 -35.02,-2.12 -34.58,-1.67 -34.15,-1.25 -33.71,-0.83 -33.28,-0.43 -32.84,-0.05 -32.41,0.28 -31.97,0.62 -31.54,0.93 -31.1,1.27 -30.67,1.59 -30.23,1.86 -29.8,2.09 -29.36,2.3 -28.93,2.54 -28.49,2.76 -28.06,2.95 -27.62,3.14 -27.19,3.37 -26.75,3.62 -26.32,3.83 -25.88,3.98 -25.45,4.14 -25.01,4.28 -24.58,4.41 -24.14,4.52 -23.71,4.61 -23.27,4.7 -22.84,4.82 -22.4,4.98 -21.97,5.13 -21.53,5.21 -21.1,5.27 -20.66,5.37 -20.23,5.47 -19.79,5.55 -19.36,5.62 -18.92,5.69 -18.49,5.77 -18.05,5.84 -17.62,5.89 -17.18,5.92 -16.75,5.91 -16.31,5.96 -15.88,6.04 -15.44,6.11 -15.01,6.16 -14.57,6.2 -14.14,6.22 -13.7,6.24 -13.27,6.27 -12.83,6.32 -12.4,6.36 -11.96,6.38 -11.53,6.41 -11.09,6.43 -10.66,6.47 -10.22,6.49 -9.79,6.52 -9.35,6.54 -8.92,6.56 -8.48,6.58 -8.05,6.61 -7.61,6.63 -7.18,6.63 -6.74,6.63 -6.31,6.66 -5.87,6.69 -5.44,6.71 -5,6.73 -4.57,6.74 -4.13,6.74 -3.7,6.74 -3.26,6.74 -2.83,6.76 -2.39,6.77 -1.96,6.77 -1.52,6.78 -1.09,6.79 -0.65,6.8 -0.22,6.8 0.22,6.81 0.65,6.82 1.09,6.82 1.52,6.82 1.96,6.82 2.39,6.83 2.83,6.83 3.26,6.84 3.7,6.84 4.13,6.85 4.57,6.86 5,6.86 5.44,6.86 5.87,6.87 6.31,6.87 6.74,6.87 7.18,6.86 7.61,6.87 8.05,6.87 8.48,6.88 8.92,6.88 9.35,6.88 9.79,6.89 10.22,6.89 10.66,6.89 11.09,6.89 11.53,6.89 11.96,6.89 12.4,6.89 12.83,6.89 13.27,6.9 13.7,6.9 14.14,6.9 14.57,6.9 15.01,6.9 15.44,6.9 15.88,6.9 16.31,6.91 16.75,6.91 17.18,6.91 17.62,6.91 18.05,6.91 18.49,6.91 18.92,6.91 19.36,6.92 19.79,6.91 20.23,6.91 20.66,6.91 21.1,6.92 21.53,6.91 21.97,6.91 22.4,6.91 22.84,6.91 23.27,6.91 23.71,6.91 24.14,6.92 24.58,6.92 25.01,6.92 25.45,6.92 25.88,6.92 26.32,6.92 26.75,6.92 27.19,6.92 27.62,6.92 28.06,6.92 28.49,6.92 28.93,6.92 29.36,6.92 29.8,6.92 30.23,6.92 30.67,6.92 31.1,6.92 31.54,6.92 31.97,6.92 32.41,6.92 32.84,6.92 33.28,6.92 33.71,6.92 34.15,6.92 34.58,6.92 35.02,6.92 35.45,6.92 35.89,6.92 36.33,6.92 36.76,6.92 37.2,6.92 37.63,6.92 38.07,6.92 38.5,6.92 38.94,6.92 39.37,6.92 39.81,6.92 40.24,6.92 40.68,6.92 41.11,6.92 41.55,6.92 41.98,6.92 42.42,6.92 42.85,6.92 43.29,6.92 43.72,6.92 44.16,6.92 44.59,6.92 45.03,6.92 45.46,6.92 45.9,6.92 46.33,6.92 46.77,6.92 47.2,6.92 47.64,6.92 48.07,6.92 48.51,6.92 48.94,6.92 49.38,6.92 49.81,6.92 50.25,6.92 50.68,6.92 51.12,6.92 51.55,6.92 51.99,6.92 52.42,6.92 52.86,6.92 53.29,6.92 53.73,6.92 54.16,6.92 54.6,6.91 55.03,6.92 55.47,6.91  z" class="primitive"/>
          </g>
        </g>
      </g>
    </g>
  </g>
  <g class="guide ylabels" font-size="2.82" font-family="'PT Sans Caption','Helvetica Neue','Helvetica',sans-serif" fill="#6C606B" id="img-f32a4b29-22">
    <g transform="translate(7.57,108.01)" id="img-f32a4b29-23">
      <g class="primitive">
        <text text-anchor="end" dy="0.35em">0</text>
      </g>
    </g>
    <g transform="translate(7.57,84.16)" id="img-f32a4b29-24">
      <g class="primitive">
        <text text-anchor="end" dy="0.35em">1</text>
      </g>
    </g>
    <g transform="translate(7.57,60.31)" id="img-f32a4b29-25">
      <g class="primitive">
        <text text-anchor="end" dy="0.35em">2</text>
      </g>
    </g>
    <g transform="translate(7.57,36.47)" id="img-f32a4b29-26">
      <g class="primitive">
        <text text-anchor="end" dy="0.35em">3</text>
      </g>
    </g>
    <g transform="translate(7.57,12.62)" id="img-f32a4b29-27">
      <g class="primitive">
        <text text-anchor="end" dy="0.35em">4</text>
      </g>
    </g>
  </g>
  <g font-size="3.88" font-family="'PT Sans','Helvetica Neue','Helvetica',sans-serif" fill="#564A55" stroke="#000000" stroke-opacity="0.000" id="img-f32a4b29-28">
    <g transform="translate(65.29,5)" id="img-f32a4b29-29">
      <g class="primitive">
        <text text-anchor="middle" dy="0.6em">Exponential(4)</text>
      </g>
    </g>
  </g>
</g>
<defs>
  <clipPath id="img-f32a4b29-4">
    <path d="M8.57,10.62 L122,10.62 122,110.01 8.57,110.01 " />
  </clipPath>
</defs>
</svg>
