<?xml version="1.0" encoding="UTF-8"?>
<svg xmlns="http://www.w3.org/2000/svg"
     xmlns:xlink="http://www.w3.org/1999/xlink"
     xmlns:gadfly="http://www.gadflyjl.org/ns"
     version="1.2"
     width="127mm" height="127mm" viewBox="0 0 127 127"
     stroke="none"
     fill="#000000"
     stroke-width="0.3"
     font-size="3.88"
>
<defs>
  <marker id="arrow" markerWidth="15" markerHeight="7" refX="5" refY="3.5" orient="auto" markerUnits="strokeWidth">
    <path d="M0,0 L15,3.5 L0,7 z" stroke="context-stroke" fill="context-stroke"/>
  </marker>
</defs>
<g class="plotroot xscalable yscalable" id="img-a78f79f2-1">
  <g font-size="3.88" font-family="'PT Sans','Helvetica Neue','Helvetica',sans-serif" fill="#564A55" stroke="#000000" stroke-opacity="0.000" id="img-a78f79f2-2">
    <g transform="translate(66.45,117.06)">
      <g class="primitive">
        <text text-anchor="middle" dy="0.6em">x</text>
      </g>
    </g>
  </g>
  <g class="guide xlabels" font-size="2.82" font-family="'PT Sans Caption','Helvetica Neue','Helvetica',sans-serif" fill="#6C606B" id="img-a78f79f2-3">
    <g transform="translate(12.9,111.01)">
      <g class="primitive">
        <text text-anchor="middle" dy="0.6em">0</text>
      </g>
    </g>
    <g transform="translate(46.67,111.01)">
      <g class="primitive">
        <text text-anchor="middle" dy="0.6em">1</text>
      </g>
    </g>
    <g transform="translate(80.44,111.01)">
      <g class="primitive">
        <text text-anchor="middle" dy="0.6em">2</text>
      </g>
    </g>
    <g transform="translate(114.21,111.01)">
      <g class="primitive">
        <text text-anchor="middle" dy="0.6em">3</text>
      </g>
    </g>
  </g>
  <g clip-path="url(#img-a78f79f2-4)">
    <g id="img-a78f79f2-5">
      <g pointer-events="visible" stroke-width="0.3" fill="#000000" fill-opacity="0.000" stroke="#000000" stroke-opacity="0.000" class="guide background" id="img-a78f79f2-6">
        <g transform="translate(66.45,60.31)" id="img-a78f79f2-7">
          <path d="M-55.55,-49.7 L55.55,-49.7 55.55,49.7 -55.55,49.7  z" class="primitive"/>
        </g>
      </g>
      <g class="guide ygridlines xfixed" stroke-dasharray="0.5,0.5" stroke-width="0.2" stroke="#D0D0E0" id="img-a78f79f2-8">
        <g transform="translate(66.45,108.01)" id="img-a78f79f2-9">
          <path fill="none" d="M-55.55,0 L55.55,0 " class="primitive"/>
        </g>
        <g transform="translate(66.45,76.21)" id="img-a78f79f2-10">
          <path fill="none" d="M-55.55,0 L55.55,0 " class="primitive"/>
        </g>
        <g transform="translate(66.45,44.41)" id="img-a78f79f2-11">
          <path fill="none" d="M-55.55,0 L55.55,0 " class="primitive"/>
        </g>
        <g transform="translate(66.45,12.62)" id="img-a78f79f2-12">
          <path fill="none" d="M-55.55,0 L55.55,0 " class="primitive"/>
        </g>
      </g>
      <g class="guide xgridlines yfixed" stroke-dasharray="0.5,0.5" stroke-width="0.2" stroke="#D0D0E0" id="img-a78f79f2-13">
        <g transform="translate(12.9,60.31)" id="img-a78f79f2-14">
          <path fill="none" d="M0,-49.7 L0,49.7 " class="primitive"/>
        </g>
        <g transform="translate(46.67,60.31)" id="img-a78f79f2-15">
          <path fill="none" d="M0,-49.7 L0,49.7 " class="primitive"/>
        </g>
        <g transform="translate(80.44,60.31)" id="img-a78f79f2-16">
          <path fill="none" d="M0,-49.7 L0,49.7 " class="primitive"/>
        </g>
        <g transform="translate(114.21,60.31)" id="img-a78f79f2-17">
          <path fill="none" d="M0,-49.7 L0,49.7 " class="primitive"/>
        </g>
      </g>
      <g class="plotpanel" id="img-a78f79f2-18">
        <metadata>
          <boundingbox value="10.900192599826383mm 10.616661241319449mm 111.0998074001736mm 99.3942626953125mm"/>
          <unitbox value="-0.05922390834954738 1.531448432172299 3.289882405560124 -1.5628968643445977"/>
        </metadata>
        <g class="geometry" stroke-width="0.3" stroke-dasharray="none" fill-opacity="1" stroke="#FFFFFF" fill="#B9EAFF" id="img-a78f79f2-19">
          <g transform="translate(65.71,88.31)" id="img-a78f79f2-20">
            <path d="M-54.29,19.7 L-53.86,19.7 -53.44,19.7 -53.01,19.7 -52.58,19.7 -52.16,19.7 -51.73,19.7 -51.31,19.69 -50.88,19.68 -50.45,19.67 -50.03,19.66 -49.6,19.63 -49.18,19.59 -48.75,19.54 -48.33,19.48 -47.9,19.41 -47.47,19.31 -47.05,19.19 -46.62,19.06 -46.2,18.92 -45.77,18.76 -45.35,18.56 -44.92,18.33 -44.49,18.06 -44.07,17.75 -43.64,17.39 -43.22,16.95 -42.79,16.48 -42.36,15.99 -41.94,15.48 -41.51,14.95 -41.09,14.39 -40.66,13.79 -40.24,13.13 -39.81,12.39 -39.38,11.56 -38.96,10.65 -38.53,9.71 -38.11,8.73 -37.68,7.71 -37.26,6.64 -36.83,5.55 -36.4,4.44 -35.98,3.27 -35.55,2.03 -35.13,0.76 -34.7,-0.46 -34.28,-1.67 -33.85,-2.91 -33.42,-4.2 -33,-5.49 -32.57,-6.78 -32.15,-8.15 -31.72,-9.66 -31.29,-11.25 -30.87,-12.82 -30.44,-14.33 -30.02,-15.79 -29.59,-17.2 -29.17,-18.57 -28.74,-19.98 -28.31,-21.54 -27.89,-23.16 -27.46,-24.67 -27.04,-26.05 -26.61,-27.4 -26.19,-28.85 -25.76,-30.38 -25.33,-31.92 -24.91,-33.38 -24.48,-34.69 -24.06,-35.78 -23.63,-36.7 -23.2,-37.59 -22.78,-38.6 -22.35,-39.74 -21.93,-40.99 -21.5,-42.3 -21.08,-43.57 -20.65,-44.69 -20.22,-45.61 -19.8,-46.42 -19.37,-47.19 -18.95,-47.92 -18.52,-48.72 -18.1,-49.62 -17.67,-50.49 -17.24,-51.2 -16.82,-51.75 -16.39,-52.21 -15.97,-52.68 -15.54,-53.18 -15.12,-53.7 -14.69,-54.23 -14.26,-54.8 -13.84,-55.34 -13.41,-55.72 -12.99,-55.95 -12.56,-56.09 -12.13,-56.24 -11.71,-56.46 -11.28,-56.65 -10.86,-56.73 -10.43,-56.73 -10.01,-56.74 -9.58,-56.73 -9.15,-56.64 -8.73,-56.44 -8.3,-56.17 -7.88,-55.82 -7.45,-55.47 -7.03,-55.26 -6.6,-55.1 -6.17,-54.76 -5.75,-53.94 -5.32,-52.19 -4.9,-49.06 -4.47,-44.49 -4.04,-39.02 -3.62,-33.4 -3.19,-28.04 -2.77,-23.12 -2.34,-18.74 -1.92,-14.95 -1.49,-11.64 -1.06,-8.65 -0.64,-5.86 -0.21,-3.32 0.21,-1.07 0.64,0.93 1.06,2.76 1.49,4.43 1.92,5.87 2.34,7.08 2.77,8.15 3.19,9.25 3.62,10.36 4.04,11.35 4.47,12.13 4.9,12.77 5.32,13.38 5.75,13.96 6.17,14.5 6.6,14.99 7.03,15.42 7.45,15.81 7.88,16.15 8.3,16.45 8.73,16.73 9.15,17 9.58,17.23 10.01,17.43 10.43,17.64 10.86,17.83 11.28,18 11.71,18.16 12.13,18.31 12.56,18.43 12.99,18.53 13.41,18.62 13.84,18.69 14.26,18.76 14.69,18.82 15.12,18.89 15.54,18.96 15.97,19.04 16.39,19.12 16.82,19.18 17.24,19.24 17.67,19.28 18.1,19.32 18.52,19.35 18.95,19.38 19.37,19.41 19.8,19.44 20.22,19.46 20.65,19.48 21.08,19.49 21.5,19.5 21.93,19.52 22.35,19.54 22.78,19.55 23.2,19.56 23.63,19.57 24.06,19.58 24.48,19.59 24.91,19.6 25.33,19.6 25.76,19.61 26.19,19.62 26.61,19.63 27.04,19.63 27.46,19.64 27.89,19.64 28.31,19.65 28.74,19.65 29.17,19.66 29.59,19.67 30.02,19.67 30.44,19.67 30.87,19.67 31.29,19.67 31.72,19.68 32.15,19.68 32.57,19.68 33,19.68 33.42,19.68 33.85,19.69 34.28,19.69 34.7,19.69 35.13,19.69 35.55,19.69 35.98,19.69 36.4,19.7 36.83,19.7 37.26,19.7 37.68,19.7 38.11,19.7 38.53,19.7 38.96,19.7 39.38,19.7 39.81,19.7 40.24,19.7 40.66,19.7 41.09,19.7 41.51,19.7 41.94,19.7 42.36,19.7 42.79,19.7 43.22,19.7 43.64,19.7 44.07,19.7 44.49,19.7 44.92,19.7 45.35,19.7 45.77,19.7 46.2,19.7 46.62,19.7 47.05,19.7 47.47,19.7 47.9,19.7 48.33,19.7 48.75,19.7 49.18,19.7 49.6,19.7 50.03,19.7 50.45,19.7 50.88,19.7 51.31,19.7 51.73,19.7 52.16,19.7 52.58,19.7 53.01,19.7 53.44,19.7 53.86,19.7 54.29,19.7  z" class="primitive"/>
          </g>
        </g>
      </g>
    </g>
  </g>
  <g class="guide ylabels" font-size="2.82" font-family="'PT Sans Caption','Helvetica Neue','Helvetica',sans-serif" fill="#6C606B" id="img-a78f79f2-21">
    <g transform="translate(9.9,108.01)" id="img-a78f79f2-22">
      <g class="primitive">
        <text text-anchor="end" dy="0.35em">0.0</text>
      </g>
    </g>
    <g transform="translate(9.9,76.21)" id="img-a78f79f2-23">
      <g class="primitive">
        <text text-anchor="end" dy="0.35em">0.5</text>
      </g>
    </g>
    <g transform="translate(9.9,44.41)" id="img-a78f79f2-24">
      <g class="primitive">
        <text text-anchor="end" dy="0.35em">1.0</text>
      </g>
    </g>
    <g transform="translate(9.9,12.62)" id="img-a78f79f2-25">
      <g class="primitive">
        <text text-anchor="end" dy="0.35em">1.5</text>
      </g>
    </g>
  </g>
  <g font-size="3.88" font-family="'PT Sans','Helvetica Neue','Helvetica',sans-serif" fill="#564A55" stroke="#000000" stroke-opacity="0.000" id="img-a78f79f2-26">
    <g transform="translate(66.45,5)" id="img-a78f79f2-27">
      <g class="primitive">
        <text text-anchor="middle" dy="0.6em">Gamma(6,4)</text>
      </g>
    </g>
  </g>
</g>
<defs>
  <clipPath id="img-a78f79f2-4">
    <path d="M10.9,10.62 L122,10.62 122,110.01 10.9,110.01 " />
  </clipPath>
</defs>
</svg>
