<?xml version="1.0" encoding="UTF-8"?>
<svg xmlns="http://www.w3.org/2000/svg"
     xmlns:xlink="http://www.w3.org/1999/xlink"
     xmlns:gadfly="http://www.gadflyjl.org/ns"
     version="1.2"
     width="127mm" height="127mm" viewBox="0 0 127 127"
     stroke="none"
     fill="#000000"
     stroke-width="0.3"
     font-size="3.88"
>
<defs>
  <marker id="arrow" markerWidth="15" markerHeight="7" refX="5" refY="3.5" orient="auto" markerUnits="strokeWidth">
    <path d="M0,0 L15,3.5 L0,7 z" stroke="context-stroke" fill="context-stroke"/>
  </marker>
</defs>
<g class="plotroot xscalable yscalable" id="img-aec1408d-1">
  <g font-size="3.88" font-family="'PT Sans','Helvetica Neue','Helvetica',sans-serif" fill="#564A55" stroke="#000000" stroke-opacity="0.000" id="img-aec1408d-2">
    <g transform="translate(67.37,117.06)">
      <g class="primitive">
        <text text-anchor="middle" dy="0.6em">x</text>
      </g>
    </g>
  </g>
  <g class="guide xlabels" font-size="2.82" font-family="'PT Sans Caption','Helvetica Neue','Helvetica',sans-serif" fill="#6C606B" id="img-aec1408d-3">
    <g transform="translate(14.74,111.01)">
      <g class="primitive">
        <text text-anchor="middle" dy="0.6em">0</text>
      </g>
    </g>
    <g transform="translate(67.35,111.01)">
      <g class="primitive">
        <text text-anchor="middle" dy="0.6em">50</text>
      </g>
    </g>
    <g transform="translate(119.97,111.01)">
      <g class="primitive">
        <text text-anchor="middle" dy="0.6em">100</text>
      </g>
    </g>
  </g>
  <g clip-path="url(#img-aec1408d-4)">
    <g id="img-aec1408d-5">
      <g pointer-events="visible" stroke-width="0.3" fill="#000000" fill-opacity="0.000" stroke="#000000" stroke-opacity="0.000" class="guide background" id="img-aec1408d-6">
        <g transform="translate(67.37,60.31)" id="img-aec1408d-7">
          <path d="M-54.63,-49.7 L54.63,-49.7 54.63,49.7 -54.63,49.7  z" class="primitive"/>
        </g>
      </g>
      <g class="guide ygridlines xfixed" stroke-dasharray="0.5,0.5" stroke-width="0.2" stroke="#D0D0E0" id="img-aec1408d-8">
        <g transform="translate(67.37,108.01)" id="img-aec1408d-9">
          <path fill="none" d="M-54.63,0 L54.63,0 " class="primitive"/>
        </g>
        <g transform="translate(67.37,88.93)" id="img-aec1408d-10">
          <path fill="none" d="M-54.63,0 L54.63,0 " class="primitive"/>
        </g>
        <g transform="translate(67.37,69.85)" id="img-aec1408d-11">
          <path fill="none" d="M-54.63,0 L54.63,0 " class="primitive"/>
        </g>
        <g transform="translate(67.37,50.77)" id="img-aec1408d-12">
          <path fill="none" d="M-54.63,0 L54.63,0 " class="primitive"/>
        </g>
        <g transform="translate(67.37,31.7)" id="img-aec1408d-13">
          <path fill="none" d="M-54.63,0 L54.63,0 " class="primitive"/>
        </g>
        <g transform="translate(67.37,12.62)" id="img-aec1408d-14">
          <path fill="none" d="M-54.63,0 L54.63,0 " class="primitive"/>
        </g>
      </g>
      <g class="guide xgridlines yfixed" stroke-dasharray="0.5,0.5" stroke-width="0.2" stroke="#D0D0E0" id="img-aec1408d-15">
        <g transform="translate(14.74,60.31)" id="img-aec1408d-16">
          <path fill="none" d="M0,-49.7 L0,49.7 " class="primitive"/>
        </g>
        <g transform="translate(67.35,60.31)" id="img-aec1408d-17">
          <path fill="none" d="M0,-49.7 L0,49.7 " class="primitive"/>
        </g>
        <g transform="translate(119.97,60.31)" id="img-aec1408d-18">
          <path fill="none" d="M0,-49.7 L0,49.7 " class="primitive"/>
        </g>
      </g>
      <g class="plotpanel" id="img-aec1408d-19">
        <metadata>
          <boundingbox value="12.735050455729166mm 10.616661241319449mm 109.26494954427085mm 99.3939181857639mm"/>
          <unitbox value="-1.9005294319054582 0.051048284858215665 103.83062624227583 -0.05209656971643133"/>
        </metadata>
        <g class="geometry" stroke-width="0.3" stroke-dasharray="none" fill-opacity="1" stroke="#FFFFFF" fill="#B9EAFF" id="img-aec1408d-20">
          <g transform="translate(66.81,89.21)" id="img-aec1408d-21">
            <path d="M-53.19,18.8 L-52.77,18.8 -52.35,18.8 -51.93,18.8 -51.52,18.8 -51.1,18.79 -50.68,18.77 -50.27,18.73 -49.85,18.65 -49.43,18.51 -49.01,18.29 -48.6,17.97 -48.18,17.54 -47.76,16.97 -47.35,16.25 -46.93,15.37 -46.51,14.29 -46.09,13.01 -45.68,11.56 -45.26,9.93 -44.84,8.03 -44.43,5.85 -44.01,3.46 -43.59,0.91 -43.17,-1.8 -42.76,-4.61 -42.34,-7.49 -41.92,-10.46 -41.51,-13.53 -41.09,-16.61 -40.67,-19.65 -40.25,-22.75 -39.84,-25.96 -39.42,-29.22 -39,-32.46 -38.59,-35.61 -38.17,-38.56 -37.75,-41.31 -37.33,-43.95 -36.92,-46.54 -36.5,-49.04 -36.08,-51.37 -35.67,-53.51 -35.25,-55.53 -34.83,-57.39 -34.41,-59.03 -34,-60.4 -33.58,-61.53 -33.16,-62.55 -32.75,-63.52 -32.33,-64.3 -31.91,-64.72 -31.49,-64.83 -31.08,-64.79 -30.66,-64.71 -30.24,-64.5 -29.83,-64.15 -29.41,-63.74 -28.99,-63.26 -28.57,-62.57 -28.16,-61.67 -27.74,-60.59 -27.32,-59.29 -26.91,-57.87 -26.49,-56.5 -26.07,-55.19 -25.65,-53.84 -25.24,-52.43 -24.82,-50.94 -24.4,-49.37 -23.99,-47.79 -23.57,-46.21 -23.15,-44.55 -22.73,-42.81 -22.32,-41 -21.9,-39.14 -21.48,-37.24 -21.07,-35.35 -20.65,-33.5 -20.23,-31.73 -19.81,-30.07 -19.4,-28.52 -18.98,-26.96 -18.56,-25.31 -18.15,-23.65 -17.73,-22.09 -17.31,-20.65 -16.89,-19.32 -16.48,-18.01 -16.06,-16.66 -15.64,-15.27 -15.23,-13.88 -14.81,-12.46 -14.39,-11.01 -13.97,-9.6 -13.56,-8.36 -13.14,-7.26 -12.72,-6.14 -12.31,-4.98 -11.89,-3.84 -11.47,-2.72 -11.05,-1.59 -10.64,-0.47 -10.22,0.55 -9.8,1.44 -9.39,2.27 -8.97,3.06 -8.55,3.83 -8.13,4.54 -7.72,5.18 -7.3,5.78 -6.88,6.42 -6.47,7.08 -6.05,7.71 -5.63,8.3 -5.21,8.89 -4.8,9.44 -4.38,9.93 -3.96,10.37 -3.55,10.8 -3.13,11.23 -2.71,11.64 -2.29,12.05 -1.88,12.42 -1.46,12.77 -1.04,13.11 -0.63,13.46 -0.21,13.79 0.21,14.09 0.63,14.4 1.04,14.69 1.46,14.9 1.88,15.07 2.29,15.23 2.71,15.43 3.13,15.64 3.55,15.85 3.96,16.04 4.38,16.2 4.8,16.35 5.21,16.52 5.63,16.68 6.05,16.82 6.47,16.94 6.88,17.05 7.3,17.15 7.72,17.25 8.13,17.35 8.55,17.44 8.97,17.53 9.39,17.61 9.8,17.67 10.22,17.72 10.64,17.78 11.05,17.84 11.47,17.91 11.89,17.96 12.31,18.01 12.72,18.06 13.14,18.12 13.56,18.18 13.97,18.23 14.39,18.26 14.81,18.29 15.23,18.33 15.64,18.37 16.06,18.4 16.48,18.43 16.89,18.46 17.31,18.48 17.73,18.48 18.15,18.47 18.56,18.48 18.98,18.5 19.4,18.52 19.81,18.56 20.23,18.59 20.65,18.62 21.07,18.64 21.48,18.65 21.9,18.66 22.32,18.66 22.73,18.66 23.15,18.67 23.57,18.68 23.99,18.69 24.4,18.7 24.82,18.71 25.24,18.72 25.65,18.72 26.07,18.72 26.49,18.72 26.91,18.73 27.32,18.74 27.74,18.75 28.16,18.74 28.57,18.74 28.99,18.74 29.41,18.75 29.83,18.75 30.24,18.76 30.66,18.76 31.08,18.77 31.49,18.77 31.91,18.77 32.33,18.78 32.75,18.78 33.16,18.79 33.58,18.79 34,18.79 34.41,18.79 34.83,18.79 35.25,18.79 35.67,18.78 36.08,18.78 36.5,18.78 36.92,18.79 37.33,18.79 37.75,18.79 38.17,18.79 38.59,18.79 39,18.79 39.42,18.79 39.84,18.79 40.25,18.79 40.67,18.79 41.09,18.79 41.51,18.79 41.92,18.79 42.34,18.79 42.76,18.79 43.17,18.79 43.59,18.79 44.01,18.8 44.43,18.8 44.84,18.8 45.26,18.8 45.68,18.8 46.09,18.8 46.51,18.8 46.93,18.8 47.35,18.8 47.76,18.8 48.18,18.8 48.6,18.8 49.01,18.8 49.43,18.8 49.85,18.8 50.27,18.8 50.68,18.8 51.1,18.8 51.52,18.8 51.93,18.8 52.35,18.8 52.77,18.8 53.19,18.8  z" class="primitive"/>
          </g>
        </g>
      </g>
    </g>
  </g>
  <g class="guide ylabels" font-size="2.82" font-family="'PT Sans Caption','Helvetica Neue','Helvetica',sans-serif" fill="#6C606B" id="img-aec1408d-22">
    <g transform="translate(11.74,108.01)" id="img-aec1408d-23">
      <g class="primitive">
        <text text-anchor="end" dy="0.35em">0.00</text>
      </g>
    </g>
    <g transform="translate(11.74,88.93)" id="img-aec1408d-24">
      <g class="primitive">
        <text text-anchor="end" dy="0.35em">0.01</text>
      </g>
    </g>
    <g transform="translate(11.74,69.85)" id="img-aec1408d-25">
      <g class="primitive">
        <text text-anchor="end" dy="0.35em">0.02</text>
      </g>
    </g>
    <g transform="translate(11.74,50.77)" id="img-aec1408d-26">
      <g class="primitive">
        <text text-anchor="end" dy="0.35em">0.03</text>
      </g>
    </g>
    <g transform="translate(11.74,31.7)" id="img-aec1408d-27">
      <g class="primitive">
        <text text-anchor="end" dy="0.35em">0.04</text>
      </g>
    </g>
    <g transform="translate(11.74,12.62)" id="img-aec1408d-28">
      <g class="primitive">
        <text text-anchor="end" dy="0.35em">0.05</text>
      </g>
    </g>
  </g>
  <g font-size="3.88" font-family="'PT Sans','Helvetica Neue','Helvetica',sans-serif" fill="#564A55" stroke="#000000" stroke-opacity="0.000" id="img-aec1408d-29">
    <g transform="translate(67.37,5)" id="img-aec1408d-30">
      <g class="primitive">
        <text text-anchor="middle" dy="0.6em">Gamma(6,4)</text>
      </g>
    </g>
  </g>
</g>
<defs>
  <clipPath id="img-aec1408d-4">
    <path d="M12.74,10.62 L122,10.62 122,110.01 12.74,110.01 " />
  </clipPath>
</defs>
</svg>
