<?xml version="1.0" encoding="UTF-8"?>
<svg xmlns="http://www.w3.org/2000/svg"
     xmlns:xlink="http://www.w3.org/1999/xlink"
     xmlns:gadfly="http://www.gadflyjl.org/ns"
     version="1.2"
     width="101.6mm" height="101.6mm" viewBox="0 0 101.6 101.6"
     stroke="none"
     fill="#000000"
     stroke-width="0.3"
     font-size="3.88"
>
<defs>
  <marker id="arrow" markerWidth="15" markerHeight="7" refX="5" refY="3.5" orient="auto" markerUnits="strokeWidth">
    <path d="M0,0 L15,3.5 L0,7 z" stroke="context-stroke" fill="context-stroke"/>
  </marker>
</defs>
<g class="plotroot xscalable yscalable" id="img-914ad9aa-1">
  <g font-size="3.88" font-family="'PT Sans','Helvetica Neue','Helvetica',sans-serif" fill="#564A55" stroke="#000000" stroke-opacity="0.000" id="img-914ad9aa-2">
    <g transform="translate(53.75,91.66)">
      <g class="primitive">
        <text text-anchor="middle" dy="0.6em">x</text>
      </g>
    </g>
  </g>
  <g class="guide xlabels" font-size="2.82" font-family="'PT Sans Caption','Helvetica Neue','Helvetica',sans-serif" fill="#6C606B" id="img-914ad9aa-3">
    <g transform="translate(12.9,85.61)">
      <g class="primitive">
        <text text-anchor="middle" dy="0.6em">0</text>
      </g>
    </g>
    <g transform="translate(37.63,85.61)">
      <g class="primitive">
        <text text-anchor="middle" dy="0.6em">1</text>
      </g>
    </g>
    <g transform="translate(62.36,85.61)">
      <g class="primitive">
        <text text-anchor="middle" dy="0.6em">2</text>
      </g>
    </g>
    <g transform="translate(87.1,85.61)">
      <g class="primitive">
        <text text-anchor="middle" dy="0.6em">3</text>
      </g>
    </g>
  </g>
  <g clip-path="url(#img-914ad9aa-4)">
    <g id="img-914ad9aa-5">
      <g pointer-events="visible" stroke-width="0.3" fill="#000000" fill-opacity="0.000" stroke="#000000" stroke-opacity="0.000" class="guide background" id="img-914ad9aa-6">
        <g transform="translate(53.75,47.61)" id="img-914ad9aa-7">
          <path d="M-42.85,-37 L42.85,-37 42.85,37 -42.85,37  z" class="primitive"/>
        </g>
      </g>
      <g class="guide ygridlines xfixed" stroke-dasharray="0.5,0.5" stroke-width="0.2" stroke="#D0D0E0" id="img-914ad9aa-8">
        <g transform="translate(53.75,82.61)" id="img-914ad9aa-9">
          <path fill="none" d="M-42.85,0 L42.85,0 " class="primitive"/>
        </g>
        <g transform="translate(53.75,59.28)" id="img-914ad9aa-10">
          <path fill="none" d="M-42.85,0 L42.85,0 " class="primitive"/>
        </g>
        <g transform="translate(53.75,35.95)" id="img-914ad9aa-11">
          <path fill="none" d="M-42.85,0 L42.85,0 " class="primitive"/>
        </g>
        <g transform="translate(53.75,12.62)" id="img-914ad9aa-12">
          <path fill="none" d="M-42.85,0 L42.85,0 " class="primitive"/>
        </g>
      </g>
      <g class="guide xgridlines yfixed" stroke-dasharray="0.5,0.5" stroke-width="0.2" stroke="#D0D0E0" id="img-914ad9aa-13">
        <g transform="translate(12.9,47.61)" id="img-914ad9aa-14">
          <path fill="none" d="M0,-37 L0,37 " class="primitive"/>
        </g>
        <g transform="translate(37.63,47.61)" id="img-914ad9aa-15">
          <path fill="none" d="M0,-37 L0,37 " class="primitive"/>
        </g>
        <g transform="translate(62.36,47.61)" id="img-914ad9aa-16">
          <path fill="none" d="M0,-37 L0,37 " class="primitive"/>
        </g>
        <g transform="translate(87.1,47.61)" id="img-914ad9aa-17">
          <path fill="none" d="M0,-37 L0,37 " class="primitive"/>
        </g>
      </g>
      <g class="plotpanel" id="img-914ad9aa-18">
        <metadata>
          <boundingbox value="10.900192599826383mm 10.616661241319449mm 85.6998074001736mm 73.9942626953125mm"/>
          <unitbox value="-0.08086789084334209 1.5428606557805904 3.4651813350663394 -1.5857213115611808"/>
        </metadata>
        <g class="geometry" stroke-width="0.3" stroke-dasharray="none" fill-opacity="1" stroke="#FFFFFF" fill="#B9EAFF" id="img-914ad9aa-19">
          <g transform="translate(53.44,68.65)" id="img-914ad9aa-20">
            <path d="M-41.16,13.97 L-40.83,13.97 -40.51,13.97 -40.19,13.96 -39.86,13.96 -39.54,13.96 -39.22,13.95 -38.9,13.94 -38.57,13.94 -38.25,13.93 -37.93,13.91 -37.61,13.88 -37.28,13.84 -36.96,13.79 -36.64,13.73 -36.31,13.64 -35.99,13.54 -35.67,13.42 -35.35,13.26 -35.02,13.09 -34.7,12.89 -34.38,12.68 -34.05,12.43 -33.73,12.16 -33.41,11.87 -33.09,11.55 -32.76,11.17 -32.44,10.76 -32.12,10.31 -31.8,9.86 -31.47,9.38 -31.15,8.86 -30.83,8.25 -30.5,7.55 -30.18,6.83 -29.86,6.15 -29.54,5.47 -29.21,4.73 -28.89,3.89 -28.57,2.98 -28.24,2.09 -27.92,1.21 -27.6,0.31 -27.28,-0.65 -26.95,-1.64 -26.63,-2.64 -26.31,-3.68 -25.98,-4.75 -25.66,-5.82 -25.34,-6.91 -25.02,-8.03 -24.69,-9.15 -24.37,-10.26 -24.05,-11.34 -23.73,-12.39 -23.4,-13.47 -23.08,-14.64 -22.76,-15.83 -22.43,-16.95 -22.11,-18.05 -21.79,-19.13 -21.47,-20.15 -21.14,-21.14 -20.82,-22.15 -20.5,-23.21 -20.17,-24.27 -19.85,-25.28 -19.53,-26.25 -19.21,-27.28 -18.88,-28.36 -18.56,-29.41 -18.24,-30.33 -17.92,-31.15 -17.59,-31.95 -17.27,-32.76 -16.95,-33.5 -16.62,-34.13 -16.3,-34.7 -15.98,-35.26 -15.66,-35.83 -15.33,-36.46 -15.01,-37.11 -14.69,-37.75 -14.36,-38.39 -14.04,-39.04 -13.72,-39.57 -13.4,-39.87 -13.07,-40.02 -12.75,-40.18 -12.43,-40.43 -12.1,-40.72 -11.78,-41.02 -11.46,-41.37 -11.14,-41.71 -10.81,-41.99 -10.49,-42.17 -10.17,-42.27 -9.85,-42.3 -9.52,-42.24 -9.2,-42.15 -8.88,-42.11 -8.55,-42.1 -8.23,-41.96 -7.91,-41.67 -7.59,-41.32 -7.26,-41 -6.94,-40.74 -6.62,-40.51 -6.29,-40.22 -5.97,-39.56 -5.65,-38.01 -5.33,-35.19 -5,-31.35 -4.68,-27.11 -4.36,-23 -4.03,-19.21 -3.71,-15.74 -3.39,-12.6 -3.07,-9.8 -2.74,-7.33 -2.42,-5.2 -2.1,-3.38 -1.78,-1.78 -1.45,-0.3 -1.13,1.11 -0.81,2.43 -0.48,3.64 -0.16,4.73 0.16,5.71 0.48,6.55 0.81,7.24 1.13,7.83 1.45,8.38 1.78,8.91 2.1,9.4 2.42,9.86 2.74,10.27 3.07,10.63 3.39,10.94 3.71,11.23 4.03,11.5 4.36,11.73 4.68,11.92 5,12.07 5.33,12.22 5.65,12.4 5.97,12.57 6.29,12.72 6.62,12.83 6.94,12.94 7.26,13.04 7.59,13.13 7.91,13.21 8.23,13.28 8.55,13.33 8.88,13.38 9.2,13.42 9.52,13.47 9.85,13.52 10.17,13.57 10.49,13.6 10.81,13.62 11.14,13.65 11.46,13.68 11.78,13.71 12.1,13.73 12.43,13.75 12.75,13.77 13.07,13.78 13.4,13.79 13.72,13.8 14.04,13.82 14.36,13.83 14.69,13.84 15.01,13.86 15.33,13.88 15.66,13.89 15.98,13.9 16.3,13.9 16.62,13.91 16.95,13.91 17.27,13.91 17.59,13.9 17.92,13.91 18.24,13.92 18.56,13.92 18.88,13.93 19.21,13.94 19.53,13.94 19.85,13.94 20.17,13.94 20.5,13.94 20.82,13.94 21.14,13.95 21.47,13.95 21.79,13.95 22.11,13.95 22.43,13.95 22.76,13.95 23.08,13.95 23.4,13.95 23.73,13.95 24.05,13.95 24.37,13.95 24.69,13.96 25.02,13.96 25.34,13.96 25.66,13.96 25.98,13.96 26.31,13.96 26.63,13.96 26.95,13.96 27.28,13.96 27.6,13.96 27.92,13.96 28.24,13.96 28.57,13.96 28.89,13.96 29.21,13.96 29.54,13.96 29.86,13.96 30.18,13.96 30.5,13.96 30.83,13.96 31.15,13.96 31.47,13.96 31.8,13.96 32.12,13.96 32.44,13.96 32.76,13.96 33.09,13.96 33.41,13.96 33.73,13.96 34.05,13.97 34.38,13.97 34.7,13.97 35.02,13.97 35.35,13.97 35.67,13.97 35.99,13.97 36.31,13.97 36.64,13.97 36.96,13.97 37.28,13.97 37.61,13.97 37.93,13.97 38.25,13.97 38.57,13.97 38.9,13.97 39.22,13.96 39.54,13.96 39.86,13.96 40.19,13.97 40.51,13.97 40.83,13.97 41.16,13.97  z" class="primitive"/>
          </g>
        </g>
      </g>
    </g>
  </g>
  <g class="guide ylabels" font-size="2.82" font-family="'PT Sans Caption','Helvetica Neue','Helvetica',sans-serif" fill="#6C606B" id="img-914ad9aa-21">
    <g transform="translate(9.9,82.61)" id="img-914ad9aa-22">
      <g class="primitive">
        <text text-anchor="end" dy="0.35em">0.0</text>
      </g>
    </g>
    <g transform="translate(9.9,59.28)" id="img-914ad9aa-23">
      <g class="primitive">
        <text text-anchor="end" dy="0.35em">0.5</text>
      </g>
    </g>
    <g transform="translate(9.9,35.95)" id="img-914ad9aa-24">
      <g class="primitive">
        <text text-anchor="end" dy="0.35em">1.0</text>
      </g>
    </g>
    <g transform="translate(9.9,12.62)" id="img-914ad9aa-25">
      <g class="primitive">
        <text text-anchor="end" dy="0.35em">1.5</text>
      </g>
    </g>
  </g>
  <g font-size="3.88" font-family="'PT Sans','Helvetica Neue','Helvetica',sans-serif" fill="#564A55" stroke="#000000" stroke-opacity="0.000" id="img-914ad9aa-26">
    <g transform="translate(53.75,5)" id="img-914ad9aa-27">
      <g class="primitive">
        <text text-anchor="middle" dy="0.6em">Gamma(6,4)</text>
      </g>
    </g>
  </g>
</g>
<defs>
  <clipPath id="img-914ad9aa-4">
    <path d="M10.9,10.62 L96.6,10.62 96.6,84.61 10.9,84.61 " />
  </clipPath>
</defs>
</svg>
