<?xml version="1.0" encoding="UTF-8"?>
<svg xmlns="http://www.w3.org/2000/svg"
     xmlns:xlink="http://www.w3.org/1999/xlink"
     xmlns:gadfly="http://www.gadflyjl.org/ns"
     version="1.2"
     width="127mm" height="127mm" viewBox="0 0 127 127"
     stroke="none"
     fill="#000000"
     stroke-width="0.3"
     font-size="3.88"
>
<defs>
  <marker id="arrow" markerWidth="15" markerHeight="7" refX="5" refY="3.5" orient="auto" markerUnits="strokeWidth">
    <path d="M0,0 L15,3.5 L0,7 z" stroke="context-stroke" fill="context-stroke"/>
  </marker>
</defs>
<g class="plotroot xscalable yscalable" id="img-efc0e061-1">
  <g font-size="3.88" font-family="'PT Sans','Helvetica Neue','Helvetica',sans-serif" fill="#564A55" stroke="#000000" stroke-opacity="0.000" id="img-efc0e061-2">
    <g transform="translate(67.33,117.06)">
      <g class="primitive">
        <text text-anchor="middle" dy="0.6em">x</text>
      </g>
    </g>
  </g>
  <g class="guide xlabels" font-size="2.82" font-family="'PT Sans Caption','Helvetica Neue','Helvetica',sans-serif" fill="#6C606B" id="img-efc0e061-3">
    <g transform="translate(14.66,111.01)">
      <g class="primitive">
        <text text-anchor="middle" dy="0.6em">0</text>
      </g>
    </g>
    <g transform="translate(32.22,111.01)">
      <g class="primitive">
        <text text-anchor="middle" dy="0.6em">10</text>
      </g>
    </g>
    <g transform="translate(49.78,111.01)">
      <g class="primitive">
        <text text-anchor="middle" dy="0.6em">20</text>
      </g>
    </g>
    <g transform="translate(67.33,111.01)">
      <g class="primitive">
        <text text-anchor="middle" dy="0.6em">30</text>
      </g>
    </g>
    <g transform="translate(84.89,111.01)">
      <g class="primitive">
        <text text-anchor="middle" dy="0.6em">40</text>
      </g>
    </g>
    <g transform="translate(102.44,111.01)">
      <g class="primitive">
        <text text-anchor="middle" dy="0.6em">50</text>
      </g>
    </g>
    <g transform="translate(120,111.01)">
      <g class="primitive">
        <text text-anchor="middle" dy="0.6em">60</text>
      </g>
    </g>
  </g>
  <g clip-path="url(#img-efc0e061-4)">
    <g id="img-efc0e061-5">
      <g pointer-events="visible" stroke-width="0.3" fill="#000000" fill-opacity="0.000" stroke="#000000" stroke-opacity="0.000" class="guide background" id="img-efc0e061-6">
        <g transform="translate(67.33,60.31)" id="img-efc0e061-7">
          <path d="M-54.67,-49.7 L54.67,-49.7 54.67,49.7 -54.67,49.7  z" class="primitive"/>
        </g>
      </g>
      <g class="guide ygridlines xfixed" stroke-dasharray="0.5,0.5" stroke-width="0.2" stroke="#D0D0E0" id="img-efc0e061-8">
        <g transform="translate(67.33,108.01)" id="img-efc0e061-9">
          <path fill="none" d="M-54.67,0 L54.67,0 " class="primitive"/>
        </g>
        <g transform="translate(67.33,88.93)" id="img-efc0e061-10">
          <path fill="none" d="M-54.67,0 L54.67,0 " class="primitive"/>
        </g>
        <g transform="translate(67.33,69.85)" id="img-efc0e061-11">
          <path fill="none" d="M-54.67,0 L54.67,0 " class="primitive"/>
        </g>
        <g transform="translate(67.33,50.77)" id="img-efc0e061-12">
          <path fill="none" d="M-54.67,0 L54.67,0 " class="primitive"/>
        </g>
        <g transform="translate(67.33,31.7)" id="img-efc0e061-13">
          <path fill="none" d="M-54.67,0 L54.67,0 " class="primitive"/>
        </g>
        <g transform="translate(67.33,12.62)" id="img-efc0e061-14">
          <path fill="none" d="M-54.67,0 L54.67,0 " class="primitive"/>
        </g>
      </g>
      <g class="guide xgridlines yfixed" stroke-dasharray="0.5,0.5" stroke-width="0.2" stroke="#D0D0E0" id="img-efc0e061-15">
        <g transform="translate(14.66,60.31)" id="img-efc0e061-16">
          <path fill="none" d="M0,-49.7 L0,49.7 " class="primitive"/>
        </g>
        <g transform="translate(32.22,60.31)" id="img-efc0e061-17">
          <path fill="none" d="M0,-49.7 L0,49.7 " class="primitive"/>
        </g>
        <g transform="translate(49.78,60.31)" id="img-efc0e061-18">
          <path fill="none" d="M0,-49.7 L0,49.7 " class="primitive"/>
        </g>
        <g transform="translate(67.33,60.31)" id="img-efc0e061-19">
          <path fill="none" d="M0,-49.7 L0,49.7 " class="primitive"/>
        </g>
        <g transform="translate(84.89,60.31)" id="img-efc0e061-20">
          <path fill="none" d="M0,-49.7 L0,49.7 " class="primitive"/>
        </g>
        <g transform="translate(102.44,60.31)" id="img-efc0e061-21">
          <path fill="none" d="M0,-49.7 L0,49.7 " class="primitive"/>
        </g>
        <g transform="translate(120,60.31)" id="img-efc0e061-22">
          <path fill="none" d="M0,-49.7 L0,49.7 " class="primitive"/>
        </g>
      </g>
      <g class="plotpanel" id="img-efc0e061-23">
        <metadata>
          <boundingbox value="12.664081488715283mm 10.616661241319449mm 109.33591851128472mm 99.3939181857639mm"/>
          <unitbox value="-1.1392125468307783 0.2552414242910783 62.27842509366155 -0.26048284858215665"/>
        </metadata>
        <g shape-rendering="crispEdges" stroke-width="0.3" id="img-efc0e061-24">
          <g class="geometry" fill-opacity="1" stroke="#000000" stroke-opacity="0.000" fill="#00BFFF" id="img-efc0e061-25">
            <g transform="translate(15.54,69.76)" id="img-efc0e061-26">
              <path d="M-0.9,-38.25 L0.9,-38.25 0.9,38.25 -0.9,38.25  z" class="primitive"/>
            </g>
            <g transform="translate(17.3,77.54)" id="img-efc0e061-27">
              <path d="M-0.9,-30.47 L0.9,-30.47 0.9,30.47 -0.9,30.47  z" class="primitive"/>
            </g>
            <g transform="translate(19.05,83.67)" id="img-efc0e061-28">
              <path d="M-0.9,-24.34 L0.9,-24.34 0.9,24.34 -0.9,24.34  z" class="primitive"/>
            </g>
            <g transform="translate(20.81,88.46)" id="img-efc0e061-29">
              <path d="M-0.9,-19.55 L0.9,-19.55 0.9,19.55 -0.9,19.55  z" class="primitive"/>
            </g>
            <g transform="translate(22.56,92.48)" id="img-efc0e061-30">
              <path d="M-0.9,-15.53 L0.9,-15.53 0.9,15.53 -0.9,15.53  z" class="primitive"/>
            </g>
            <g transform="translate(24.32,95.52)" id="img-efc0e061-31">
              <path d="M-0.9,-12.5 L0.9,-12.5 0.9,12.5 -0.9,12.5  z" class="primitive"/>
            </g>
            <g transform="translate(26.08,98)" id="img-efc0e061-32">
              <path d="M-0.9,-10.01 L0.9,-10.01 0.9,10.01 -0.9,10.01  z" class="primitive"/>
            </g>
            <g transform="translate(27.83,99.99)" id="img-efc0e061-33">
              <path d="M-0.9,-8.02 L0.9,-8.02 0.9,8.02 -0.9,8.02  z" class="primitive"/>
            </g>
            <g transform="translate(29.59,101.6)" id="img-efc0e061-34">
              <path d="M-0.9,-6.41 L0.9,-6.41 0.9,6.41 -0.9,6.41  z" class="primitive"/>
            </g>
            <g transform="translate(31.34,102.88)" id="img-efc0e061-35">
              <path d="M-0.9,-5.13 L0.9,-5.13 0.9,5.13 -0.9,5.13  z" class="primitive"/>
            </g>
            <g transform="translate(33.1,103.91)" id="img-efc0e061-36">
              <path d="M-0.9,-4.1 L0.9,-4.1 0.9,4.1 -0.9,4.1  z" class="primitive"/>
            </g>
            <g transform="translate(34.85,104.72)" id="img-efc0e061-37">
              <path d="M-0.9,-3.29 L0.9,-3.29 0.9,3.29 -0.9,3.29  z" class="primitive"/>
            </g>
            <g transform="translate(36.61,105.39)" id="img-efc0e061-38">
              <path d="M-0.9,-2.62 L0.9,-2.62 0.9,2.62 -0.9,2.62  z" class="primitive"/>
            </g>
            <g transform="translate(38.36,105.89)" id="img-efc0e061-39">
              <path d="M-0.9,-2.12 L0.9,-2.12 0.9,2.12 -0.9,2.12  z" class="primitive"/>
            </g>
            <g transform="translate(40.12,106.33)" id="img-efc0e061-40">
              <path d="M-0.9,-1.68 L0.9,-1.68 0.9,1.68 -0.9,1.68  z" class="primitive"/>
            </g>
            <g transform="translate(41.88,106.65)" id="img-efc0e061-41">
              <path d="M-0.9,-1.36 L0.9,-1.36 0.9,1.36 -0.9,1.36  z" class="primitive"/>
            </g>
            <g transform="translate(43.63,106.94)" id="img-efc0e061-42">
              <path d="M-0.9,-1.07 L0.9,-1.07 0.9,1.07 -0.9,1.07  z" class="primitive"/>
            </g>
            <g transform="translate(45.39,107.14)" id="img-efc0e061-43">
              <path d="M-0.9,-0.87 L0.9,-0.87 0.9,0.87 -0.9,0.87  z" class="primitive"/>
            </g>
            <g transform="translate(47.14,107.31)" id="img-efc0e061-44">
              <path d="M-0.9,-0.7 L0.9,-0.7 0.9,0.7 -0.9,0.7  z" class="primitive"/>
            </g>
            <g transform="translate(48.9,107.45)" id="img-efc0e061-45">
              <path d="M-0.9,-0.57 L0.9,-0.57 0.9,0.57 -0.9,0.57  z" class="primitive"/>
            </g>
            <g transform="translate(50.65,107.57)" id="img-efc0e061-46">
              <path d="M-0.9,-0.44 L0.9,-0.44 0.9,0.44 -0.9,0.44  z" class="primitive"/>
            </g>
            <g transform="translate(52.41,107.66)" id="img-efc0e061-47">
              <path d="M-0.9,-0.35 L0.9,-0.35 0.9,0.35 -0.9,0.35  z" class="primitive"/>
            </g>
            <g transform="translate(54.17,107.73)" id="img-efc0e061-48">
              <path d="M-0.9,-0.28 L0.9,-0.28 0.9,0.28 -0.9,0.28  z" class="primitive"/>
            </g>
            <g transform="translate(55.92,107.79)" id="img-efc0e061-49">
              <path d="M-0.9,-0.23 L0.9,-0.23 0.9,0.23 -0.9,0.23  z" class="primitive"/>
            </g>
            <g transform="translate(57.68,107.84)" id="img-efc0e061-50">
              <path d="M-0.9,-0.17 L0.9,-0.17 0.9,0.17 -0.9,0.17  z" class="primitive"/>
            </g>
            <g transform="translate(59.43,107.87)" id="img-efc0e061-51">
              <path d="M-0.9,-0.14 L0.9,-0.14 0.9,0.14 -0.9,0.14  z" class="primitive"/>
            </g>
            <g transform="translate(61.19,107.89)" id="img-efc0e061-52">
              <path d="M-0.9,-0.13 L0.9,-0.13 0.9,0.13 -0.9,0.13  z" class="primitive"/>
            </g>
            <g transform="translate(62.94,107.91)" id="img-efc0e061-53">
              <path d="M-0.9,-0.1 L0.9,-0.1 0.9,0.1 -0.9,0.1  z" class="primitive"/>
            </g>
            <g transform="translate(64.7,107.94)" id="img-efc0e061-54">
              <path d="M-0.9,-0.07 L0.9,-0.07 0.9,0.07 -0.9,0.07  z" class="primitive"/>
            </g>
            <g transform="translate(66.45,107.94)" id="img-efc0e061-55">
              <path d="M-0.9,-0.07 L0.9,-0.07 0.9,0.07 -0.9,0.07  z" class="primitive"/>
            </g>
            <g transform="translate(68.21,107.96)" id="img-efc0e061-56">
              <path d="M-0.9,-0.05 L0.9,-0.05 0.9,0.05 -0.9,0.05  z" class="primitive"/>
            </g>
            <g transform="translate(69.97,107.97)" id="img-efc0e061-57">
              <path d="M-0.9,-0.04 L0.9,-0.04 0.9,0.04 -0.9,0.04  z" class="primitive"/>
            </g>
            <g transform="translate(71.72,107.98)" id="img-efc0e061-58">
              <path d="M-0.9,-0.03 L0.9,-0.03 0.9,0.03 -0.9,0.03  z" class="primitive"/>
            </g>
            <g transform="translate(73.48,107.98)" id="img-efc0e061-59">
              <path d="M-0.9,-0.03 L0.9,-0.03 0.9,0.03 -0.9,0.03  z" class="primitive"/>
            </g>
            <g transform="translate(75.23,107.99)" id="img-efc0e061-60">
              <path d="M-0.9,-0.02 L0.9,-0.02 0.9,0.02 -0.9,0.02  z" class="primitive"/>
            </g>
            <g transform="translate(76.99,108)" id="img-efc0e061-61">
              <path d="M-0.9,-0.02 L0.9,-0.02 0.9,0.02 -0.9,0.02  z" class="primitive"/>
            </g>
            <g transform="translate(78.74,108)" id="img-efc0e061-62">
              <path d="M-0.9,-0.01 L0.9,-0.01 0.9,0.01 -0.9,0.01  z" class="primitive"/>
            </g>
            <g transform="translate(80.5,108)" id="img-efc0e061-63">
              <path d="M-0.9,-0.01 L0.9,-0.01 0.9,0.01 -0.9,0.01  z" class="primitive"/>
            </g>
            <g transform="translate(82.25,108)" id="img-efc0e061-64">
              <path d="M-0.9,-0.01 L0.9,-0.01 0.9,0.01 -0.9,0.01  z" class="primitive"/>
            </g>
            <g transform="translate(84.01,108)" id="img-efc0e061-65">
              <path d="M-0.9,-0.01 L0.9,-0.01 0.9,0.01 -0.9,0.01  z" class="primitive"/>
            </g>
            <g transform="translate(85.77,108.01)" id="img-efc0e061-66">
              <path d="M-0.9,-0.01 L0.9,-0.01 0.9,0.01 -0.9,0.01  z" class="primitive"/>
            </g>
            <g transform="translate(87.52,108.01)" id="img-efc0e061-67">
              <path d="M-0.9,-0 L0.9,-0 0.9,0 -0.9,0  z" class="primitive"/>
            </g>
            <g transform="translate(89.28,108.01)" id="img-efc0e061-68">
              <path d="M-0.9,-0 L0.9,-0 0.9,0 -0.9,0  z" class="primitive"/>
            </g>
            <g transform="translate(91.03,108.01)" id="img-efc0e061-69">
              <path d="M-0.9,-0 L0.9,-0 0.9,0 -0.9,0  z" class="primitive"/>
            </g>
            <g transform="translate(92.79,108.01)" id="img-efc0e061-70">
              <path d="M-0.9,-0 L0.9,-0 0.9,0 -0.9,0  z" class="primitive"/>
            </g>
            <g transform="translate(94.54,108.01)" id="img-efc0e061-71">
              <path d="M-0.9,-0 L0.9,-0 0.9,0 -0.9,0  z" class="primitive"/>
            </g>
            <g transform="translate(96.3,108.01)" id="img-efc0e061-72">
              <path d="M-0.9,-0 L0.9,-0 0.9,0 -0.9,0  z" class="primitive"/>
            </g>
            <g transform="translate(98.06,108.02)" id="img-efc0e061-73">
              <path d="M-0.9,-0 L0.9,-0 0.9,0 -0.9,0  z" class="primitive"/>
            </g>
            <g transform="translate(99.81,108.01)" id="img-efc0e061-74">
              <path d="M-0.9,-0 L0.9,-0 0.9,0 -0.9,0  z" class="primitive"/>
            </g>
            <g transform="translate(101.57,108.01)" id="img-efc0e061-75">
              <path d="M-0.9,-0 L0.9,-0 0.9,0 -0.9,0  z" class="primitive"/>
            </g>
            <g transform="translate(103.32,108.01)" id="img-efc0e061-76">
              <path d="M-0.9,-0 L0.9,-0 0.9,0 -0.9,0  z" class="primitive"/>
            </g>
            <g transform="translate(105.08,108.01)" id="img-efc0e061-77">
              <path d="M-0.9,-0 L0.9,-0 0.9,0 -0.9,0  z" class="primitive"/>
            </g>
            <g transform="translate(106.83,108.02)" id="img-efc0e061-78">
              <path d="M-0.9,-0 L0.9,-0 0.9,0 -0.9,0  z" class="primitive"/>
            </g>
            <g transform="translate(108.59,108.02)" id="img-efc0e061-79">
              <path d="M-0.9,-0 L0.9,-0 0.9,0 -0.9,0  z" class="primitive"/>
            </g>
            <g transform="translate(110.34,108.02)" id="img-efc0e061-80">
              <path d="M-0.9,-0 L0.9,-0 0.9,0 -0.9,0  z" class="primitive"/>
            </g>
            <g transform="translate(112.1,108.01)" id="img-efc0e061-81">
              <path d="M-0.9,-0 L0.9,-0 0.9,0 -0.9,0  z" class="primitive"/>
            </g>
            <g transform="translate(113.86,108.01)" id="img-efc0e061-82">
              <path d="M-0.9,-0 L0.9,-0 0.9,0 -0.9,0  z" class="primitive"/>
            </g>
            <g transform="translate(115.61,108.02)" id="img-efc0e061-83">
              <path d="M-0.9,-0 L0.9,-0 0.9,0 -0.9,0  z" class="primitive"/>
            </g>
            <g transform="translate(117.37,108.02)" id="img-efc0e061-84">
              <path d="M-0.9,-0 L0.9,-0 0.9,0 -0.9,0  z" class="primitive"/>
            </g>
            <g transform="translate(119.12,108.01)" id="img-efc0e061-85">
              <path d="M-0.9,-0 L0.9,-0 0.9,0 -0.9,0  z" class="primitive"/>
            </g>
          </g>
        </g>
      </g>
    </g>
  </g>
  <g class="guide ylabels" font-size="2.82" font-family="'PT Sans Caption','Helvetica Neue','Helvetica',sans-serif" fill="#6C606B" id="img-efc0e061-86">
    <g transform="translate(11.66,108.01)" id="img-efc0e061-87">
      <g class="primitive">
        <text text-anchor="end" dy="0.35em">0.00</text>
      </g>
    </g>
    <g transform="translate(11.66,88.93)" id="img-efc0e061-88">
      <g class="primitive">
        <text text-anchor="end" dy="0.35em">0.05</text>
      </g>
    </g>
    <g transform="translate(11.66,69.85)" id="img-efc0e061-89">
      <g class="primitive">
        <text text-anchor="end" dy="0.35em">0.10</text>
      </g>
    </g>
    <g transform="translate(11.66,50.77)" id="img-efc0e061-90">
      <g class="primitive">
        <text text-anchor="end" dy="0.35em">0.15</text>
      </g>
    </g>
    <g transform="translate(11.66,31.7)" id="img-efc0e061-91">
      <g class="primitive">
        <text text-anchor="end" dy="0.35em">0.20</text>
      </g>
    </g>
    <g transform="translate(11.66,12.62)" id="img-efc0e061-92">
      <g class="primitive">
        <text text-anchor="end" dy="0.35em">0.25</text>
      </g>
    </g>
  </g>
  <g font-size="3.88" font-family="'PT Sans','Helvetica Neue','Helvetica',sans-serif" fill="#564A55" stroke="#000000" stroke-opacity="0.000" id="img-efc0e061-93">
    <g transform="translate(67.33,5)" id="img-efc0e061-94">
      <g class="primitive">
        <text text-anchor="middle" dy="0.6em">Geometric(.2)</text>
      </g>
    </g>
  </g>
</g>
<defs>
  <clipPath id="img-efc0e061-4">
    <path d="M12.66,10.62 L122,10.62 122,110.01 12.66,110.01 " />
  </clipPath>
</defs>
</svg>
