<?xml version="1.0" encoding="UTF-8"?>
<svg xmlns="http://www.w3.org/2000/svg"
     xmlns:xlink="http://www.w3.org/1999/xlink"
     xmlns:gadfly="http://www.gadflyjl.org/ns"
     version="1.2"
     width="127mm" height="127mm" viewBox="0 0 127 127"
     stroke="none"
     fill="#000000"
     stroke-width="0.3"
     font-size="3.88"
>
<defs>
  <marker id="arrow" markerWidth="15" markerHeight="7" refX="5" refY="3.5" orient="auto" markerUnits="strokeWidth">
    <path d="M0,0 L15,3.5 L0,7 z" stroke="context-stroke" fill="context-stroke"/>
  </marker>
</defs>
<g class="plotroot xscalable yscalable" id="img-60184f4d-1">
  <g font-size="3.88" font-family="'PT Sans','Helvetica Neue','Helvetica',sans-serif" fill="#564A55" stroke="#000000" stroke-opacity="0.000" id="img-60184f4d-2">
    <g transform="translate(67.33,117.06)">
      <g class="primitive">
        <text text-anchor="middle" dy="0.6em">x</text>
      </g>
    </g>
  </g>
  <g class="guide xlabels" font-size="2.82" font-family="'PT Sans Caption','Helvetica Neue','Helvetica',sans-serif" fill="#6C606B" id="img-60184f4d-3">
    <g transform="translate(14.66,111.01)">
      <g class="primitive">
        <text text-anchor="middle" dy="0.6em">0</text>
      </g>
    </g>
    <g transform="translate(47.58,111.01)">
      <g class="primitive">
        <text text-anchor="middle" dy="0.6em">20</text>
      </g>
    </g>
    <g transform="translate(80.5,111.01)">
      <g class="primitive">
        <text text-anchor="middle" dy="0.6em">40</text>
      </g>
    </g>
    <g transform="translate(113.42,111.01)">
      <g class="primitive">
        <text text-anchor="middle" dy="0.6em">60</text>
      </g>
    </g>
  </g>
  <g clip-path="url(#img-60184f4d-4)">
    <g id="img-60184f4d-5">
      <g pointer-events="visible" stroke-width="0.3" fill="#000000" fill-opacity="0.000" stroke="#000000" stroke-opacity="0.000" class="guide background" id="img-60184f4d-6">
        <g transform="translate(67.33,60.31)" id="img-60184f4d-7">
          <path d="M-54.67,-49.7 L54.67,-49.7 54.67,49.7 -54.67,49.7  z" class="primitive"/>
        </g>
      </g>
      <g class="guide ygridlines xfixed" stroke-dasharray="0.5,0.5" stroke-width="0.2" stroke="#D0D0E0" id="img-60184f4d-8">
        <g transform="translate(67.33,108.01)" id="img-60184f4d-9">
          <path fill="none" d="M-54.67,0 L54.67,0 " class="primitive"/>
        </g>
        <g transform="translate(67.33,88.93)" id="img-60184f4d-10">
          <path fill="none" d="M-54.67,0 L54.67,0 " class="primitive"/>
        </g>
        <g transform="translate(67.33,69.85)" id="img-60184f4d-11">
          <path fill="none" d="M-54.67,0 L54.67,0 " class="primitive"/>
        </g>
        <g transform="translate(67.33,50.77)" id="img-60184f4d-12">
          <path fill="none" d="M-54.67,0 L54.67,0 " class="primitive"/>
        </g>
        <g transform="translate(67.33,31.7)" id="img-60184f4d-13">
          <path fill="none" d="M-54.67,0 L54.67,0 " class="primitive"/>
        </g>
        <g transform="translate(67.33,12.62)" id="img-60184f4d-14">
          <path fill="none" d="M-54.67,0 L54.67,0 " class="primitive"/>
        </g>
      </g>
      <g class="guide xgridlines yfixed" stroke-dasharray="0.5,0.5" stroke-width="0.2" stroke="#D0D0E0" id="img-60184f4d-15">
        <g transform="translate(14.66,60.31)" id="img-60184f4d-16">
          <path fill="none" d="M0,-49.7 L0,49.7 " class="primitive"/>
        </g>
        <g transform="translate(47.58,60.31)" id="img-60184f4d-17">
          <path fill="none" d="M0,-49.7 L0,49.7 " class="primitive"/>
        </g>
        <g transform="translate(80.5,60.31)" id="img-60184f4d-18">
          <path fill="none" d="M0,-49.7 L0,49.7 " class="primitive"/>
        </g>
        <g transform="translate(113.42,60.31)" id="img-60184f4d-19">
          <path fill="none" d="M0,-49.7 L0,49.7 " class="primitive"/>
        </g>
      </g>
      <g class="plotpanel" id="img-60184f4d-20">
        <metadata>
          <boundingbox value="12.664081488715283mm 10.616661241319449mm 109.33591851128472mm 99.3942626953125mm"/>
          <unitbox value="-1.2151600499528303 0.2552414053620498 66.43032009990566 -0.2604828107240996"/>
        </metadata>
        <g shape-rendering="crispEdges" stroke-width="0.3" id="img-60184f4d-21">
          <g class="geometry" fill-opacity="1" stroke="#000000" stroke-opacity="0.000" fill="#00BFFF" id="img-60184f4d-22">
            <g transform="translate(15.49,69.74)" id="img-60184f4d-23">
              <path d="M-0.85,-38.27 L0.85,-38.27 0.85,38.27 -0.85,38.27  z" class="primitive"/>
            </g>
            <g transform="translate(17.13,77.51)" id="img-60184f4d-24">
              <path d="M-0.85,-30.5 L0.85,-30.5 0.85,30.5 -0.85,30.5  z" class="primitive"/>
            </g>
            <g transform="translate(18.78,83.55)" id="img-60184f4d-25">
              <path d="M-0.85,-24.46 L0.85,-24.46 0.85,24.46 -0.85,24.46  z" class="primitive"/>
            </g>
            <g transform="translate(20.42,88.5)" id="img-60184f4d-26">
              <path d="M-0.85,-19.51 L0.85,-19.51 0.85,19.51 -0.85,19.51  z" class="primitive"/>
            </g>
            <g transform="translate(22.07,92.39)" id="img-60184f4d-27">
              <path d="M-0.85,-15.62 L0.85,-15.62 0.85,15.62 -0.85,15.62  z" class="primitive"/>
            </g>
            <g transform="translate(23.72,95.57)" id="img-60184f4d-28">
              <path d="M-0.85,-12.44 L0.85,-12.44 0.85,12.44 -0.85,12.44  z" class="primitive"/>
            </g>
            <g transform="translate(25.36,97.98)" id="img-60184f4d-29">
              <path d="M-0.85,-10.03 L0.85,-10.03 0.85,10.03 -0.85,10.03  z" class="primitive"/>
            </g>
            <g transform="translate(27.01,99.97)" id="img-60184f4d-30">
              <path d="M-0.85,-8.04 L0.85,-8.04 0.85,8.04 -0.85,8.04  z" class="primitive"/>
            </g>
            <g transform="translate(28.65,101.62)" id="img-60184f4d-31">
              <path d="M-0.85,-6.39 L0.85,-6.39 0.85,6.39 -0.85,6.39  z" class="primitive"/>
            </g>
            <g transform="translate(30.3,102.92)" id="img-60184f4d-32">
              <path d="M-0.85,-5.09 L0.85,-5.09 0.85,5.09 -0.85,5.09  z" class="primitive"/>
            </g>
            <g transform="translate(31.95,103.89)" id="img-60184f4d-33">
              <path d="M-0.85,-4.13 L0.85,-4.13 0.85,4.13 -0.85,4.13  z" class="primitive"/>
            </g>
            <g transform="translate(33.59,104.74)" id="img-60184f4d-34">
              <path d="M-0.85,-3.27 L0.85,-3.27 0.85,3.27 -0.85,3.27  z" class="primitive"/>
            </g>
            <g transform="translate(35.24,105.41)" id="img-60184f4d-35">
              <path d="M-0.85,-2.6 L0.85,-2.6 0.85,2.6 -0.85,2.6  z" class="primitive"/>
            </g>
            <g transform="translate(36.88,105.95)" id="img-60184f4d-36">
              <path d="M-0.85,-2.06 L0.85,-2.06 0.85,2.06 -0.85,2.06  z" class="primitive"/>
            </g>
            <g transform="translate(38.53,106.34)" id="img-60184f4d-37">
              <path d="M-0.85,-1.67 L0.85,-1.67 0.85,1.67 -0.85,1.67  z" class="primitive"/>
            </g>
            <g transform="translate(40.18,106.69)" id="img-60184f4d-38">
              <path d="M-0.85,-1.32 L0.85,-1.32 0.85,1.32 -0.85,1.32  z" class="primitive"/>
            </g>
            <g transform="translate(41.82,106.92)" id="img-60184f4d-39">
              <path d="M-0.85,-1.09 L0.85,-1.09 0.85,1.09 -0.85,1.09  z" class="primitive"/>
            </g>
            <g transform="translate(43.47,107.14)" id="img-60184f4d-40">
              <path d="M-0.85,-0.87 L0.85,-0.87 0.85,0.87 -0.85,0.87  z" class="primitive"/>
            </g>
            <g transform="translate(45.11,107.33)" id="img-60184f4d-41">
              <path d="M-0.85,-0.68 L0.85,-0.68 0.85,0.68 -0.85,0.68  z" class="primitive"/>
            </g>
            <g transform="translate(46.76,107.46)" id="img-60184f4d-42">
              <path d="M-0.85,-0.55 L0.85,-0.55 0.85,0.55 -0.85,0.55  z" class="primitive"/>
            </g>
            <g transform="translate(48.4,107.57)" id="img-60184f4d-43">
              <path d="M-0.85,-0.44 L0.85,-0.44 0.85,0.44 -0.85,0.44  z" class="primitive"/>
            </g>
            <g transform="translate(50.05,107.66)" id="img-60184f4d-44">
              <path d="M-0.85,-0.35 L0.85,-0.35 0.85,0.35 -0.85,0.35  z" class="primitive"/>
            </g>
            <g transform="translate(51.7,107.72)" id="img-60184f4d-45">
              <path d="M-0.85,-0.29 L0.85,-0.29 0.85,0.29 -0.85,0.29  z" class="primitive"/>
            </g>
            <g transform="translate(53.34,107.79)" id="img-60184f4d-46">
              <path d="M-0.85,-0.22 L0.85,-0.22 0.85,0.22 -0.85,0.22  z" class="primitive"/>
            </g>
            <g transform="translate(54.99,107.84)" id="img-60184f4d-47">
              <path d="M-0.85,-0.17 L0.85,-0.17 0.85,0.17 -0.85,0.17  z" class="primitive"/>
            </g>
            <g transform="translate(56.63,107.87)" id="img-60184f4d-48">
              <path d="M-0.85,-0.14 L0.85,-0.14 0.85,0.14 -0.85,0.14  z" class="primitive"/>
            </g>
            <g transform="translate(58.28,107.89)" id="img-60184f4d-49">
              <path d="M-0.85,-0.12 L0.85,-0.12 0.85,0.12 -0.85,0.12  z" class="primitive"/>
            </g>
            <g transform="translate(59.93,107.93)" id="img-60184f4d-50">
              <path d="M-0.85,-0.08 L0.85,-0.08 0.85,0.08 -0.85,0.08  z" class="primitive"/>
            </g>
            <g transform="translate(61.57,107.94)" id="img-60184f4d-51">
              <path d="M-0.85,-0.07 L0.85,-0.07 0.85,0.07 -0.85,0.07  z" class="primitive"/>
            </g>
            <g transform="translate(63.22,107.95)" id="img-60184f4d-52">
              <path d="M-0.85,-0.06 L0.85,-0.06 0.85,0.06 -0.85,0.06  z" class="primitive"/>
            </g>
            <g transform="translate(64.86,107.97)" id="img-60184f4d-53">
              <path d="M-0.85,-0.04 L0.85,-0.04 0.85,0.04 -0.85,0.04  z" class="primitive"/>
            </g>
            <g transform="translate(66.51,107.97)" id="img-60184f4d-54">
              <path d="M-0.85,-0.04 L0.85,-0.04 0.85,0.04 -0.85,0.04  z" class="primitive"/>
            </g>
            <g transform="translate(68.15,107.98)" id="img-60184f4d-55">
              <path d="M-0.85,-0.03 L0.85,-0.03 0.85,0.03 -0.85,0.03  z" class="primitive"/>
            </g>
            <g transform="translate(69.8,107.99)" id="img-60184f4d-56">
              <path d="M-0.85,-0.02 L0.85,-0.02 0.85,0.02 -0.85,0.02  z" class="primitive"/>
            </g>
            <g transform="translate(71.45,107.99)" id="img-60184f4d-57">
              <path d="M-0.85,-0.02 L0.85,-0.02 0.85,0.02 -0.85,0.02  z" class="primitive"/>
            </g>
            <g transform="translate(73.09,108)" id="img-60184f4d-58">
              <path d="M-0.85,-0.01 L0.85,-0.01 0.85,0.01 -0.85,0.01  z" class="primitive"/>
            </g>
            <g transform="translate(74.74,108)" id="img-60184f4d-59">
              <path d="M-0.85,-0.01 L0.85,-0.01 0.85,0.01 -0.85,0.01  z" class="primitive"/>
            </g>
            <g transform="translate(76.38,108)" id="img-60184f4d-60">
              <path d="M-0.85,-0.01 L0.85,-0.01 0.85,0.01 -0.85,0.01  z" class="primitive"/>
            </g>
            <g transform="translate(78.03,108)" id="img-60184f4d-61">
              <path d="M-0.85,-0.01 L0.85,-0.01 0.85,0.01 -0.85,0.01  z" class="primitive"/>
            </g>
            <g transform="translate(79.68,108)" id="img-60184f4d-62">
              <path d="M-0.85,-0.01 L0.85,-0.01 0.85,0.01 -0.85,0.01  z" class="primitive"/>
            </g>
            <g transform="translate(81.32,108)" id="img-60184f4d-63">
              <path d="M-0.85,-0.01 L0.85,-0.01 0.85,0.01 -0.85,0.01  z" class="primitive"/>
            </g>
            <g transform="translate(82.97,108.01)" id="img-60184f4d-64">
              <path d="M-0.85,-0 L0.85,-0 0.85,0 -0.85,0  z" class="primitive"/>
            </g>
            <g transform="translate(84.61,108.01)" id="img-60184f4d-65">
              <path d="M-0.85,-0 L0.85,-0 0.85,0 -0.85,0  z" class="primitive"/>
            </g>
            <g transform="translate(86.26,108.01)" id="img-60184f4d-66">
              <path d="M-0.85,-0 L0.85,-0 0.85,0 -0.85,0  z" class="primitive"/>
            </g>
            <g transform="translate(87.91,108.01)" id="img-60184f4d-67">
              <path d="M-0.85,-0 L0.85,-0 0.85,0 -0.85,0  z" class="primitive"/>
            </g>
            <g transform="translate(89.55,108.01)" id="img-60184f4d-68">
              <path d="M-0.85,-0 L0.85,-0 0.85,0 -0.85,0  z" class="primitive"/>
            </g>
            <g transform="translate(91.2,108.01)" id="img-60184f4d-69">
              <path d="M-0.85,-0 L0.85,-0 0.85,0 -0.85,0  z" class="primitive"/>
            </g>
            <g transform="translate(92.84,108.01)" id="img-60184f4d-70">
              <path d="M-0.85,-0 L0.85,-0 0.85,0 -0.85,0  z" class="primitive"/>
            </g>
            <g transform="translate(94.49,108.01)" id="img-60184f4d-71">
              <path d="M-0.85,-0 L0.85,-0 0.85,0 -0.85,0  z" class="primitive"/>
            </g>
            <g transform="translate(96.13,108.02)" id="img-60184f4d-72">
              <path d="M-0.85,-0 L0.85,-0 0.85,0 -0.85,0  z" class="primitive"/>
            </g>
            <g transform="translate(97.78,108.01)" id="img-60184f4d-73">
              <path d="M-0.85,-0 L0.85,-0 0.85,0 -0.85,0  z" class="primitive"/>
            </g>
            <g transform="translate(99.43,108.01)" id="img-60184f4d-74">
              <path d="M-0.85,-0 L0.85,-0 0.85,0 -0.85,0  z" class="primitive"/>
            </g>
            <g transform="translate(101.07,108.01)" id="img-60184f4d-75">
              <path d="M-0.85,-0 L0.85,-0 0.85,0 -0.85,0  z" class="primitive"/>
            </g>
            <g transform="translate(102.72,108.02)" id="img-60184f4d-76">
              <path d="M-0.85,-0 L0.85,-0 0.85,0 -0.85,0  z" class="primitive"/>
            </g>
            <g transform="translate(104.36,108.01)" id="img-60184f4d-77">
              <path d="M-0.85,-0 L0.85,-0 0.85,0 -0.85,0  z" class="primitive"/>
            </g>
            <g transform="translate(106.01,108.02)" id="img-60184f4d-78">
              <path d="M-0.85,-0 L0.85,-0 0.85,0 -0.85,0  z" class="primitive"/>
            </g>
            <g transform="translate(107.66,108.02)" id="img-60184f4d-79">
              <path d="M-0.85,-0 L0.85,-0 0.85,0 -0.85,0  z" class="primitive"/>
            </g>
            <g transform="translate(109.3,108.02)" id="img-60184f4d-80">
              <path d="M-0.85,-0 L0.85,-0 0.85,0 -0.85,0  z" class="primitive"/>
            </g>
            <g transform="translate(110.95,108.02)" id="img-60184f4d-81">
              <path d="M-0.85,-0 L0.85,-0 0.85,0 -0.85,0  z" class="primitive"/>
            </g>
            <g transform="translate(112.59,108.02)" id="img-60184f4d-82">
              <path d="M-0.85,-0 L0.85,-0 0.85,0 -0.85,0  z" class="primitive"/>
            </g>
            <g transform="translate(114.24,108.02)" id="img-60184f4d-83">
              <path d="M-0.85,-0 L0.85,-0 0.85,0 -0.85,0  z" class="primitive"/>
            </g>
            <g transform="translate(115.89,108.02)" id="img-60184f4d-84">
              <path d="M-0.85,-0 L0.85,-0 0.85,0 -0.85,0  z" class="primitive"/>
            </g>
            <g transform="translate(117.53,108.02)" id="img-60184f4d-85">
              <path d="M-0.85,-0 L0.85,-0 0.85,0 -0.85,0  z" class="primitive"/>
            </g>
            <g transform="translate(119.18,108.02)" id="img-60184f4d-86">
              <path d="M-0.85,-0 L0.85,-0 0.85,0 -0.85,0  z" class="primitive"/>
            </g>
          </g>
        </g>
      </g>
    </g>
  </g>
  <g class="guide ylabels" font-size="2.82" font-family="'PT Sans Caption','Helvetica Neue','Helvetica',sans-serif" fill="#6C606B" id="img-60184f4d-87">
    <g transform="translate(11.66,108.01)" id="img-60184f4d-88">
      <g class="primitive">
        <text text-anchor="end" dy="0.35em">0.00</text>
      </g>
    </g>
    <g transform="translate(11.66,88.93)" id="img-60184f4d-89">
      <g class="primitive">
        <text text-anchor="end" dy="0.35em">0.05</text>
      </g>
    </g>
    <g transform="translate(11.66,69.85)" id="img-60184f4d-90">
      <g class="primitive">
        <text text-anchor="end" dy="0.35em">0.10</text>
      </g>
    </g>
    <g transform="translate(11.66,50.77)" id="img-60184f4d-91">
      <g class="primitive">
        <text text-anchor="end" dy="0.35em">0.15</text>
      </g>
    </g>
    <g transform="translate(11.66,31.7)" id="img-60184f4d-92">
      <g class="primitive">
        <text text-anchor="end" dy="0.35em">0.20</text>
      </g>
    </g>
    <g transform="translate(11.66,12.62)" id="img-60184f4d-93">
      <g class="primitive">
        <text text-anchor="end" dy="0.35em">0.25</text>
      </g>
    </g>
  </g>
  <g font-size="3.88" font-family="'PT Sans','Helvetica Neue','Helvetica',sans-serif" fill="#564A55" stroke="#000000" stroke-opacity="0.000" id="img-60184f4d-94">
    <g transform="translate(67.33,5)" id="img-60184f4d-95">
      <g class="primitive">
        <text text-anchor="middle" dy="0.6em">Geometric(.2)</text>
      </g>
    </g>
  </g>
</g>
<defs>
  <clipPath id="img-60184f4d-4">
    <path d="M12.66,10.62 L122,10.62 122,110.01 12.66,110.01 " />
  </clipPath>
</defs>
</svg>
