<?xml version="1.0" encoding="UTF-8"?>
<svg xmlns="http://www.w3.org/2000/svg"
     xmlns:xlink="http://www.w3.org/1999/xlink"
     xmlns:gadfly="http://www.gadflyjl.org/ns"
     version="1.2"
     width="101.6mm" height="101.6mm" viewBox="0 0 101.6 101.6"
     stroke="none"
     fill="#000000"
     stroke-width="0.3"
     font-size="3.88"
>
<defs>
  <marker id="arrow" markerWidth="15" markerHeight="7" refX="5" refY="3.5" orient="auto" markerUnits="strokeWidth">
    <path d="M0,0 L15,3.5 L0,7 z" stroke="context-stroke" fill="context-stroke"/>
  </marker>
</defs>
<g class="plotroot xscalable yscalable" id="img-532b7ca0-1">
  <g font-size="3.88" font-family="'PT Sans','Helvetica Neue','Helvetica',sans-serif" fill="#564A55" stroke="#000000" stroke-opacity="0.000" id="img-532b7ca0-2">
    <g transform="translate(54.63,91.66)">
      <g class="primitive">
        <text text-anchor="middle" dy="0.6em">x</text>
      </g>
    </g>
  </g>
  <g class="guide xlabels" font-size="2.82" font-family="'PT Sans Caption','Helvetica Neue','Helvetica',sans-serif" fill="#6C606B" id="img-532b7ca0-3">
    <g transform="translate(14.66,85.61)">
      <g class="primitive">
        <text text-anchor="middle" dy="0.6em">0</text>
      </g>
    </g>
    <g transform="translate(39.64,85.61)">
      <g class="primitive">
        <text text-anchor="middle" dy="0.6em">20</text>
      </g>
    </g>
    <g transform="translate(64.62,85.61)">
      <g class="primitive">
        <text text-anchor="middle" dy="0.6em">40</text>
      </g>
    </g>
    <g transform="translate(89.6,85.61)">
      <g class="primitive">
        <text text-anchor="middle" dy="0.6em">60</text>
      </g>
    </g>
  </g>
  <g clip-path="url(#img-532b7ca0-4)">
    <g id="img-532b7ca0-5">
      <g pointer-events="visible" stroke-width="0.3" fill="#000000" fill-opacity="0.000" stroke="#000000" stroke-opacity="0.000" class="guide background" id="img-532b7ca0-6">
        <g transform="translate(54.63,47.61)" id="img-532b7ca0-7">
          <path d="M-41.97,-37 L41.97,-37 41.97,37 -41.97,37  z" class="primitive"/>
        </g>
      </g>
      <g class="guide ygridlines xfixed" stroke-dasharray="0.5,0.5" stroke-width="0.2" stroke="#D0D0E0" id="img-532b7ca0-8">
        <g transform="translate(54.63,82.61)" id="img-532b7ca0-9">
          <path fill="none" d="M-41.97,0 L41.97,0 " class="primitive"/>
        </g>
        <g transform="translate(54.63,65.11)" id="img-532b7ca0-10">
          <path fill="none" d="M-41.97,0 L41.97,0 " class="primitive"/>
        </g>
        <g transform="translate(54.63,47.61)" id="img-532b7ca0-11">
          <path fill="none" d="M-41.97,0 L41.97,0 " class="primitive"/>
        </g>
        <g transform="translate(54.63,30.12)" id="img-532b7ca0-12">
          <path fill="none" d="M-41.97,0 L41.97,0 " class="primitive"/>
        </g>
        <g transform="translate(54.63,12.62)" id="img-532b7ca0-13">
          <path fill="none" d="M-41.97,0 L41.97,0 " class="primitive"/>
        </g>
      </g>
      <g class="guide xgridlines yfixed" stroke-dasharray="0.5,0.5" stroke-width="0.2" stroke="#D0D0E0" id="img-532b7ca0-14">
        <g transform="translate(14.66,47.61)" id="img-532b7ca0-15">
          <path fill="none" d="M0,-37 L0,37 " class="primitive"/>
        </g>
        <g transform="translate(39.64,47.61)" id="img-532b7ca0-16">
          <path fill="none" d="M0,-37 L0,37 " class="primitive"/>
        </g>
        <g transform="translate(64.62,47.61)" id="img-532b7ca0-17">
          <path fill="none" d="M0,-37 L0,37 " class="primitive"/>
        </g>
        <g transform="translate(89.6,47.61)" id="img-532b7ca0-18">
          <path fill="none" d="M0,-37 L0,37 " class="primitive"/>
        </g>
      </g>
      <g class="plotpanel" id="img-532b7ca0-19">
        <metadata>
          <boundingbox value="12.664081488715283mm 10.616661241319449mm 83.93591851128471mm 73.9942626953125mm"/>
          <unitbox value="-1.601282657206597 0.20571475410407872 67.20256531441319 -0.21142950820815742"/>
        </metadata>
        <g shape-rendering="crispEdges" stroke-width="0.3" id="img-532b7ca0-20">
          <g class="geometry" fill-opacity="1" stroke="#000000" stroke-opacity="0.000" fill="#00BFFF" id="img-532b7ca0-21">
            <g transform="translate(15.29,47.63)" id="img-532b7ca0-22">
              <path d="M-0.65,-34.98 L0.65,-34.98 0.65,34.98 -0.65,34.98  z" class="primitive"/>
            </g>
            <g transform="translate(16.54,54.72)" id="img-532b7ca0-23">
              <path d="M-0.65,-27.89 L0.65,-27.89 0.65,27.89 -0.65,27.89  z" class="primitive"/>
            </g>
            <g transform="translate(17.79,60.14)" id="img-532b7ca0-24">
              <path d="M-0.65,-22.47 L0.65,-22.47 0.65,22.47 -0.65,22.47  z" class="primitive"/>
            </g>
            <g transform="translate(19.04,64.76)" id="img-532b7ca0-25">
              <path d="M-0.65,-17.85 L0.65,-17.85 0.65,17.85 -0.65,17.85  z" class="primitive"/>
            </g>
            <g transform="translate(20.28,68.32)" id="img-532b7ca0-26">
              <path d="M-0.65,-14.29 L0.65,-14.29 0.65,14.29 -0.65,14.29  z" class="primitive"/>
            </g>
            <g transform="translate(21.53,71.14)" id="img-532b7ca0-27">
              <path d="M-0.65,-11.47 L0.65,-11.47 0.65,11.47 -0.65,11.47  z" class="primitive"/>
            </g>
            <g transform="translate(22.78,73.47)" id="img-532b7ca0-28">
              <path d="M-0.65,-9.14 L0.65,-9.14 0.65,9.14 -0.65,9.14  z" class="primitive"/>
            </g>
            <g transform="translate(24.03,75.25)" id="img-532b7ca0-29">
              <path d="M-0.65,-7.36 L0.65,-7.36 0.65,7.36 -0.65,7.36  z" class="primitive"/>
            </g>
            <g transform="translate(25.28,76.72)" id="img-532b7ca0-30">
              <path d="M-0.65,-5.89 L0.65,-5.89 0.65,5.89 -0.65,5.89  z" class="primitive"/>
            </g>
            <g transform="translate(26.53,77.87)" id="img-532b7ca0-31">
              <path d="M-0.65,-4.74 L0.65,-4.74 0.65,4.74 -0.65,4.74  z" class="primitive"/>
            </g>
            <g transform="translate(27.78,78.83)" id="img-532b7ca0-32">
              <path d="M-0.65,-3.78 L0.65,-3.78 0.65,3.78 -0.65,3.78  z" class="primitive"/>
            </g>
            <g transform="translate(29.03,79.61)" id="img-532b7ca0-33">
              <path d="M-0.65,-3 L0.65,-3 0.65,3 -0.65,3  z" class="primitive"/>
            </g>
            <g transform="translate(30.28,80.17)" id="img-532b7ca0-34">
              <path d="M-0.65,-2.44 L0.65,-2.44 0.65,2.44 -0.65,2.44  z" class="primitive"/>
            </g>
            <g transform="translate(31.53,80.66)" id="img-532b7ca0-35">
              <path d="M-0.65,-1.95 L0.65,-1.95 0.65,1.95 -0.65,1.95  z" class="primitive"/>
            </g>
            <g transform="translate(32.77,81.08)" id="img-532b7ca0-36">
              <path d="M-0.65,-1.53 L0.65,-1.53 0.65,1.53 -0.65,1.53  z" class="primitive"/>
            </g>
            <g transform="translate(34.02,81.38)" id="img-532b7ca0-37">
              <path d="M-0.65,-1.23 L0.65,-1.23 0.65,1.23 -0.65,1.23  z" class="primitive"/>
            </g>
            <g transform="translate(35.27,81.62)" id="img-532b7ca0-38">
              <path d="M-0.65,-0.99 L0.65,-0.99 0.65,0.99 -0.65,0.99  z" class="primitive"/>
            </g>
            <g transform="translate(36.52,81.81)" id="img-532b7ca0-39">
              <path d="M-0.65,-0.81 L0.65,-0.81 0.65,0.81 -0.65,0.81  z" class="primitive"/>
            </g>
            <g transform="translate(37.77,81.97)" id="img-532b7ca0-40">
              <path d="M-0.65,-0.64 L0.65,-0.64 0.65,0.64 -0.65,0.64  z" class="primitive"/>
            </g>
            <g transform="translate(39.02,82.11)" id="img-532b7ca0-41">
              <path d="M-0.65,-0.5 L0.65,-0.5 0.65,0.5 -0.65,0.5  z" class="primitive"/>
            </g>
            <g transform="translate(40.27,82.21)" id="img-532b7ca0-42">
              <path d="M-0.65,-0.4 L0.65,-0.4 0.65,0.4 -0.65,0.4  z" class="primitive"/>
            </g>
            <g transform="translate(41.52,82.31)" id="img-532b7ca0-43">
              <path d="M-0.65,-0.31 L0.65,-0.31 0.65,0.31 -0.65,0.31  z" class="primitive"/>
            </g>
            <g transform="translate(42.77,82.34)" id="img-532b7ca0-44">
              <path d="M-0.65,-0.27 L0.65,-0.27 0.65,0.27 -0.65,0.27  z" class="primitive"/>
            </g>
            <g transform="translate(44.02,82.4)" id="img-532b7ca0-45">
              <path d="M-0.65,-0.21 L0.65,-0.21 0.65,0.21 -0.65,0.21  z" class="primitive"/>
            </g>
            <g transform="translate(45.26,82.45)" id="img-532b7ca0-46">
              <path d="M-0.65,-0.16 L0.65,-0.16 0.65,0.16 -0.65,0.16  z" class="primitive"/>
            </g>
            <g transform="translate(46.51,82.47)" id="img-532b7ca0-47">
              <path d="M-0.65,-0.14 L0.65,-0.14 0.65,0.14 -0.65,0.14  z" class="primitive"/>
            </g>
            <g transform="translate(47.76,82.5)" id="img-532b7ca0-48">
              <path d="M-0.65,-0.11 L0.65,-0.11 0.65,0.11 -0.65,0.11  z" class="primitive"/>
            </g>
            <g transform="translate(49.01,82.52)" id="img-532b7ca0-49">
              <path d="M-0.65,-0.09 L0.65,-0.09 0.65,0.09 -0.65,0.09  z" class="primitive"/>
            </g>
            <g transform="translate(50.26,82.54)" id="img-532b7ca0-50">
              <path d="M-0.65,-0.07 L0.65,-0.07 0.65,0.07 -0.65,0.07  z" class="primitive"/>
            </g>
            <g transform="translate(51.51,82.55)" id="img-532b7ca0-51">
              <path d="M-0.65,-0.06 L0.65,-0.06 0.65,0.06 -0.65,0.06  z" class="primitive"/>
            </g>
            <g transform="translate(52.76,82.57)" id="img-532b7ca0-52">
              <path d="M-0.65,-0.04 L0.65,-0.04 0.65,0.04 -0.65,0.04  z" class="primitive"/>
            </g>
            <g transform="translate(54.01,82.58)" id="img-532b7ca0-53">
              <path d="M-0.65,-0.03 L0.65,-0.03 0.65,0.03 -0.65,0.03  z" class="primitive"/>
            </g>
            <g transform="translate(55.26,82.58)" id="img-532b7ca0-54">
              <path d="M-0.65,-0.03 L0.65,-0.03 0.65,0.03 -0.65,0.03  z" class="primitive"/>
            </g>
            <g transform="translate(56.51,82.59)" id="img-532b7ca0-55">
              <path d="M-0.65,-0.02 L0.65,-0.02 0.65,0.02 -0.65,0.02  z" class="primitive"/>
            </g>
            <g transform="translate(57.75,82.59)" id="img-532b7ca0-56">
              <path d="M-0.65,-0.02 L0.65,-0.02 0.65,0.02 -0.65,0.02  z" class="primitive"/>
            </g>
            <g transform="translate(59,82.6)" id="img-532b7ca0-57">
              <path d="M-0.65,-0.02 L0.65,-0.02 0.65,0.02 -0.65,0.02  z" class="primitive"/>
            </g>
            <g transform="translate(60.25,82.6)" id="img-532b7ca0-58">
              <path d="M-0.65,-0.01 L0.65,-0.01 0.65,0.01 -0.65,0.01  z" class="primitive"/>
            </g>
            <g transform="translate(61.5,82.6)" id="img-532b7ca0-59">
              <path d="M-0.65,-0.01 L0.65,-0.01 0.65,0.01 -0.65,0.01  z" class="primitive"/>
            </g>
            <g transform="translate(62.75,82.6)" id="img-532b7ca0-60">
              <path d="M-0.65,-0.01 L0.65,-0.01 0.65,0.01 -0.65,0.01  z" class="primitive"/>
            </g>
            <g transform="translate(64,82.61)" id="img-532b7ca0-61">
              <path d="M-0.65,-0.01 L0.65,-0.01 0.65,0.01 -0.65,0.01  z" class="primitive"/>
            </g>
            <g transform="translate(65.25,82.61)" id="img-532b7ca0-62">
              <path d="M-0.65,-0 L0.65,-0 0.65,0 -0.65,0  z" class="primitive"/>
            </g>
            <g transform="translate(66.5,82.61)" id="img-532b7ca0-63">
              <path d="M-0.65,-0.01 L0.65,-0.01 0.65,0.01 -0.65,0.01  z" class="primitive"/>
            </g>
            <g transform="translate(67.75,82.61)" id="img-532b7ca0-64">
              <path d="M-0.65,-0 L0.65,-0 0.65,0 -0.65,0  z" class="primitive"/>
            </g>
            <g transform="translate(69,82.61)" id="img-532b7ca0-65">
              <path d="M-0.65,-0 L0.65,-0 0.65,0 -0.65,0  z" class="primitive"/>
            </g>
            <g transform="translate(70.24,82.61)" id="img-532b7ca0-66">
              <path d="M-0.65,-0 L0.65,-0 0.65,0 -0.65,0  z" class="primitive"/>
            </g>
            <g transform="translate(71.49,82.61)" id="img-532b7ca0-67">
              <path d="M-0.65,-0 L0.65,-0 0.65,0 -0.65,0  z" class="primitive"/>
            </g>
            <g transform="translate(72.74,82.61)" id="img-532b7ca0-68">
              <path d="M-0.65,-0 L0.65,-0 0.65,0 -0.65,0  z" class="primitive"/>
            </g>
            <g transform="translate(73.99,82.61)" id="img-532b7ca0-69">
              <path d="M-0.65,-0 L0.65,-0 0.65,0 -0.65,0  z" class="primitive"/>
            </g>
            <g transform="translate(75.24,82.61)" id="img-532b7ca0-70">
              <path d="M-0.65,-0 L0.65,-0 0.65,0 -0.65,0  z" class="primitive"/>
            </g>
            <g transform="translate(76.49,82.61)" id="img-532b7ca0-71">
              <path d="M-0.65,-0 L0.65,-0 0.65,0 -0.65,0  z" class="primitive"/>
            </g>
            <g transform="translate(77.74,82.62)" id="img-532b7ca0-72">
              <path d="M-0.65,-0 L0.65,-0 0.65,0 -0.65,0  z" class="primitive"/>
            </g>
            <g transform="translate(78.99,82.61)" id="img-532b7ca0-73">
              <path d="M-0.65,-0 L0.65,-0 0.65,0 -0.65,0  z" class="primitive"/>
            </g>
            <g transform="translate(80.24,82.61)" id="img-532b7ca0-74">
              <path d="M-0.65,-0 L0.65,-0 0.65,0 -0.65,0  z" class="primitive"/>
            </g>
            <g transform="translate(81.49,82.62)" id="img-532b7ca0-75">
              <path d="M-0.65,-0 L0.65,-0 0.65,0 -0.65,0  z" class="primitive"/>
            </g>
            <g transform="translate(82.73,82.62)" id="img-532b7ca0-76">
              <path d="M-0.65,-0 L0.65,-0 0.65,0 -0.65,0  z" class="primitive"/>
            </g>
            <g transform="translate(83.98,82.62)" id="img-532b7ca0-77">
              <path d="M-0.65,-0 L0.65,-0 0.65,0 -0.65,0  z" class="primitive"/>
            </g>
            <g transform="translate(85.23,82.62)" id="img-532b7ca0-78">
              <path d="M-0.65,-0 L0.65,-0 0.65,0 -0.65,0  z" class="primitive"/>
            </g>
            <g transform="translate(86.48,82.62)" id="img-532b7ca0-79">
              <path d="M-0.65,-0 L0.65,-0 0.65,0 -0.65,0  z" class="primitive"/>
            </g>
            <g transform="translate(87.73,82.62)" id="img-532b7ca0-80">
              <path d="M-0.65,-0 L0.65,-0 0.65,0 -0.65,0  z" class="primitive"/>
            </g>
            <g transform="translate(88.98,82.62)" id="img-532b7ca0-81">
              <path d="M-0.65,-0 L0.65,-0 0.65,0 -0.65,0  z" class="primitive"/>
            </g>
            <g transform="translate(90.23,82.62)" id="img-532b7ca0-82">
              <path d="M-0.65,-0 L0.65,-0 0.65,0 -0.65,0  z" class="primitive"/>
            </g>
            <g transform="translate(91.48,82.62)" id="img-532b7ca0-83">
              <path d="M-0.65,-0 L0.65,-0 0.65,0 -0.65,0  z" class="primitive"/>
            </g>
            <g transform="translate(92.73,82.62)" id="img-532b7ca0-84">
              <path d="M-0.65,-0 L0.65,-0 0.65,0 -0.65,0  z" class="primitive"/>
            </g>
            <g transform="translate(93.98,82.62)" id="img-532b7ca0-85">
              <path d="M-0.65,-0 L0.65,-0 0.65,0 -0.65,0  z" class="primitive"/>
            </g>
          </g>
        </g>
      </g>
    </g>
  </g>
  <g class="guide ylabels" font-size="2.82" font-family="'PT Sans Caption','Helvetica Neue','Helvetica',sans-serif" fill="#6C606B" id="img-532b7ca0-86">
    <g transform="translate(11.66,82.61)" id="img-532b7ca0-87">
      <g class="primitive">
        <text text-anchor="end" dy="0.35em">0.00</text>
      </g>
    </g>
    <g transform="translate(11.66,65.11)" id="img-532b7ca0-88">
      <g class="primitive">
        <text text-anchor="end" dy="0.35em">0.05</text>
      </g>
    </g>
    <g transform="translate(11.66,47.61)" id="img-532b7ca0-89">
      <g class="primitive">
        <text text-anchor="end" dy="0.35em">0.10</text>
      </g>
    </g>
    <g transform="translate(11.66,30.12)" id="img-532b7ca0-90">
      <g class="primitive">
        <text text-anchor="end" dy="0.35em">0.15</text>
      </g>
    </g>
    <g transform="translate(11.66,12.62)" id="img-532b7ca0-91">
      <g class="primitive">
        <text text-anchor="end" dy="0.35em">0.20</text>
      </g>
    </g>
  </g>
  <g font-size="3.88" font-family="'PT Sans','Helvetica Neue','Helvetica',sans-serif" fill="#564A55" stroke="#000000" stroke-opacity="0.000" id="img-532b7ca0-92">
    <g transform="translate(54.63,5)" id="img-532b7ca0-93">
      <g class="primitive">
        <text text-anchor="middle" dy="0.6em">Geometric(.2)</text>
      </g>
    </g>
  </g>
</g>
<defs>
  <clipPath id="img-532b7ca0-4">
    <path d="M12.66,10.62 L96.6,10.62 96.6,84.61 12.66,84.61 " />
  </clipPath>
</defs>
</svg>
