<?xml version="1.0" encoding="UTF-8"?>
<svg xmlns="http://www.w3.org/2000/svg"
     xmlns:xlink="http://www.w3.org/1999/xlink"
     xmlns:gadfly="http://www.gadflyjl.org/ns"
     version="1.2"
     width="127mm" height="127mm" viewBox="0 0 127 127"
     stroke="none"
     fill="#000000"
     stroke-width="0.3"
     font-size="3.88"
>
<defs>
  <marker id="arrow" markerWidth="15" markerHeight="7" refX="5" refY="3.5" orient="auto" markerUnits="strokeWidth">
    <path d="M0,0 L15,3.5 L0,7 z" stroke="context-stroke" fill="context-stroke"/>
  </marker>
</defs>
<g class="plotroot xscalable yscalable" id="img-622c8713-1">
  <g font-size="3.88" font-family="'PT Sans','Helvetica Neue','Helvetica',sans-serif" fill="#564A55" stroke="#000000" stroke-opacity="0.000" id="img-622c8713-2">
    <g transform="translate(67.33,117.06)">
      <g class="primitive">
        <text text-anchor="middle" dy="0.6em">x</text>
      </g>
    </g>
  </g>
  <g class="guide xlabels" font-size="2.82" font-family="'PT Sans Caption','Helvetica Neue','Helvetica',sans-serif" fill="#6C606B" id="img-622c8713-3">
    <g transform="translate(14.66,111.01)">
      <g class="primitive">
        <text text-anchor="middle" dy="0.6em">0</text>
      </g>
    </g>
    <g transform="translate(48.53,111.01)">
      <g class="primitive">
        <text text-anchor="middle" dy="0.6em">100</text>
      </g>
    </g>
    <g transform="translate(82.4,111.01)">
      <g class="primitive">
        <text text-anchor="middle" dy="0.6em">200</text>
      </g>
    </g>
    <g transform="translate(116.27,111.01)">
      <g class="primitive">
        <text text-anchor="middle" dy="0.6em">300</text>
      </g>
    </g>
  </g>
  <g clip-path="url(#img-622c8713-4)">
    <g id="img-622c8713-5">
      <g pointer-events="visible" stroke-width="0.3" fill="#000000" fill-opacity="0.000" stroke="#000000" stroke-opacity="0.000" class="guide background" id="img-622c8713-6">
        <g transform="translate(67.33,60.31)" id="img-622c8713-7">
          <path d="M-54.67,-49.7 L54.67,-49.7 54.67,49.7 -54.67,49.7  z" class="primitive"/>
        </g>
      </g>
      <g class="guide ygridlines xfixed" stroke-dasharray="0.5,0.5" stroke-width="0.2" stroke="#D0D0E0" id="img-622c8713-8">
        <g transform="translate(67.33,108.01)" id="img-622c8713-9">
          <path fill="none" d="M-54.67,0 L54.67,0 " class="primitive"/>
        </g>
        <g transform="translate(67.33,76.21)" id="img-622c8713-10">
          <path fill="none" d="M-54.67,0 L54.67,0 " class="primitive"/>
        </g>
        <g transform="translate(67.33,44.41)" id="img-622c8713-11">
          <path fill="none" d="M-54.67,0 L54.67,0 " class="primitive"/>
        </g>
        <g transform="translate(67.33,12.62)" id="img-622c8713-12">
          <path fill="none" d="M-54.67,0 L54.67,0 " class="primitive"/>
        </g>
      </g>
      <g class="guide xgridlines yfixed" stroke-dasharray="0.5,0.5" stroke-width="0.2" stroke="#D0D0E0" id="img-622c8713-13">
        <g transform="translate(14.66,60.31)" id="img-622c8713-14">
          <path fill="none" d="M0,-49.7 L0,49.7 " class="primitive"/>
        </g>
        <g transform="translate(48.53,60.31)" id="img-622c8713-15">
          <path fill="none" d="M0,-49.7 L0,49.7 " class="primitive"/>
        </g>
        <g transform="translate(82.4,60.31)" id="img-622c8713-16">
          <path fill="none" d="M0,-49.7 L0,49.7 " class="primitive"/>
        </g>
        <g transform="translate(116.27,60.31)" id="img-622c8713-17">
          <path fill="none" d="M0,-49.7 L0,49.7 " class="primitive"/>
        </g>
      </g>
      <g class="plotpanel" id="img-622c8713-18">
        <metadata>
          <boundingbox value="12.664081488715283mm 10.616661241319449mm 109.33591851128473mm 99.39391818576388mm"/>
          <unitbox value="-5.904918367739533 0.030628970914929398 322.80983673547905 -0.0312579418298588"/>
        </metadata>
        <g shape-rendering="crispEdges" stroke-width="0.3" id="img-622c8713-19">
          <g class="geometry" fill-opacity="1" stroke="#000000" stroke-opacity="0.000" fill="#00BFFF" id="img-622c8713-20">
            <g transform="translate(18.73,108.01)" id="img-622c8713-21">
              <path d="M-0.36,-0.01 L0.36,-0.01 0.36,0.01 -0.36,0.01  z" class="primitive"/>
            </g>
            <g transform="translate(19.41,108)" id="img-622c8713-22">
              <path d="M-0.36,-0.01 L0.36,-0.01 0.36,0.01 -0.36,0.01  z" class="primitive"/>
            </g>
            <g transform="translate(20.08,107.97)" id="img-622c8713-23">
              <path d="M-0.36,-0.04 L0.36,-0.04 0.36,0.04 -0.36,0.04  z" class="primitive"/>
            </g>
            <g transform="translate(20.76,107.91)" id="img-622c8713-24">
              <path d="M-0.36,-0.1 L0.36,-0.1 0.36,0.1 -0.36,0.1  z" class="primitive"/>
            </g>
            <g transform="translate(21.44,107.77)" id="img-622c8713-25">
              <path d="M-0.36,-0.24 L0.36,-0.24 0.36,0.24 -0.36,0.24  z" class="primitive"/>
            </g>
            <g transform="translate(22.12,107.51)" id="img-622c8713-26">
              <path d="M-0.36,-0.5 L0.36,-0.5 0.36,0.5 -0.36,0.5  z" class="primitive"/>
            </g>
            <g transform="translate(22.79,106.99)" id="img-622c8713-27">
              <path d="M-0.36,-1.02 L0.36,-1.02 0.36,1.02 -0.36,1.02  z" class="primitive"/>
            </g>
            <g transform="translate(23.47,106.24)" id="img-622c8713-28">
              <path d="M-0.36,-1.77 L0.36,-1.77 0.36,1.77 -0.36,1.77  z" class="primitive"/>
            </g>
            <g transform="translate(24.15,105.14)" id="img-622c8713-29">
              <path d="M-0.36,-2.87 L0.36,-2.87 0.36,2.87 -0.36,2.87  z" class="primitive"/>
            </g>
            <g transform="translate(24.83,103.58)" id="img-622c8713-30">
              <path d="M-0.36,-4.43 L0.36,-4.43 0.36,4.43 -0.36,4.43  z" class="primitive"/>
            </g>
            <g transform="translate(25.5,101.59)" id="img-622c8713-31">
              <path d="M-0.36,-6.42 L0.36,-6.42 0.36,6.42 -0.36,6.42  z" class="primitive"/>
            </g>
            <g transform="translate(26.18,98.94)" id="img-622c8713-32">
              <path d="M-0.36,-9.07 L0.36,-9.07 0.36,9.07 -0.36,9.07  z" class="primitive"/>
            </g>
            <g transform="translate(26.86,96)" id="img-622c8713-33">
              <path d="M-0.36,-12.01 L0.36,-12.01 0.36,12.01 -0.36,12.01  z" class="primitive"/>
            </g>
            <g transform="translate(27.53,92.51)" id="img-622c8713-34">
              <path d="M-0.36,-15.5 L0.36,-15.5 0.36,15.5 -0.36,15.5  z" class="primitive"/>
            </g>
            <g transform="translate(28.21,88.66)" id="img-622c8713-35">
              <path d="M-0.36,-19.35 L0.36,-19.35 0.36,19.35 -0.36,19.35  z" class="primitive"/>
            </g>
            <g transform="translate(28.89,84.91)" id="img-622c8713-36">
              <path d="M-0.36,-23.1 L0.36,-23.1 0.36,23.1 -0.36,23.1  z" class="primitive"/>
            </g>
            <g transform="translate(29.57,80.73)" id="img-622c8713-37">
              <path d="M-0.36,-27.29 L0.36,-27.29 0.36,27.29 -0.36,27.29  z" class="primitive"/>
            </g>
            <g transform="translate(30.24,76.9)" id="img-622c8713-38">
              <path d="M-0.36,-31.11 L0.36,-31.11 0.36,31.11 -0.36,31.11  z" class="primitive"/>
            </g>
            <g transform="translate(30.92,73.66)" id="img-622c8713-39">
              <path d="M-0.36,-34.35 L0.36,-34.35 0.36,34.35 -0.36,34.35  z" class="primitive"/>
            </g>
            <g transform="translate(31.6,70.8)" id="img-622c8713-40">
              <path d="M-0.36,-37.21 L0.36,-37.21 0.36,37.21 -0.36,37.21  z" class="primitive"/>
            </g>
            <g transform="translate(32.28,68.38)" id="img-622c8713-41">
              <path d="M-0.36,-39.63 L0.36,-39.63 0.36,39.63 -0.36,39.63  z" class="primitive"/>
            </g>
            <g transform="translate(32.95,67.09)" id="img-622c8713-42">
              <path d="M-0.36,-40.92 L0.36,-40.92 0.36,40.92 -0.36,40.92  z" class="primitive"/>
            </g>
            <g transform="translate(33.63,66.33)" id="img-622c8713-43">
              <path d="M-0.36,-41.68 L0.36,-41.68 0.36,41.68 -0.36,41.68  z" class="primitive"/>
            </g>
            <g transform="translate(34.31,66.19)" id="img-622c8713-44">
              <path d="M-0.36,-41.83 L0.36,-41.83 0.36,41.83 -0.36,41.83  z" class="primitive"/>
            </g>
            <g transform="translate(34.99,67.01)" id="img-622c8713-45">
              <path d="M-0.36,-41 L0.36,-41 0.36,41 -0.36,41  z" class="primitive"/>
            </g>
            <g transform="translate(35.66,68.21)" id="img-622c8713-46">
              <path d="M-0.36,-39.8 L0.36,-39.8 0.36,39.8 -0.36,39.8  z" class="primitive"/>
            </g>
            <g transform="translate(36.34,70.28)" id="img-622c8713-47">
              <path d="M-0.36,-37.73 L0.36,-37.73 0.36,37.73 -0.36,37.73  z" class="primitive"/>
            </g>
            <g transform="translate(37.02,72.61)" id="img-622c8713-48">
              <path d="M-0.36,-35.4 L0.36,-35.4 0.36,35.4 -0.36,35.4  z" class="primitive"/>
            </g>
            <g transform="translate(37.7,75.22)" id="img-622c8713-49">
              <path d="M-0.36,-32.79 L0.36,-32.79 0.36,32.79 -0.36,32.79  z" class="primitive"/>
            </g>
            <g transform="translate(38.37,77.86)" id="img-622c8713-50">
              <path d="M-0.36,-30.15 L0.36,-30.15 0.36,30.15 -0.36,30.15  z" class="primitive"/>
            </g>
            <g transform="translate(39.05,80.6)" id="img-622c8713-51">
              <path d="M-0.36,-27.41 L0.36,-27.41 0.36,27.41 -0.36,27.41  z" class="primitive"/>
            </g>
            <g transform="translate(39.73,83.87)" id="img-622c8713-52">
              <path d="M-0.36,-24.14 L0.36,-24.14 0.36,24.14 -0.36,24.14  z" class="primitive"/>
            </g>
            <g transform="translate(40.41,86.59)" id="img-622c8713-53">
              <path d="M-0.36,-21.42 L0.36,-21.42 0.36,21.42 -0.36,21.42  z" class="primitive"/>
            </g>
            <g transform="translate(41.08,89.22)" id="img-622c8713-54">
              <path d="M-0.36,-18.79 L0.36,-18.79 0.36,18.79 -0.36,18.79  z" class="primitive"/>
            </g>
            <g transform="translate(41.76,91.8)" id="img-622c8713-55">
              <path d="M-0.36,-16.21 L0.36,-16.21 0.36,16.21 -0.36,16.21  z" class="primitive"/>
            </g>
            <g transform="translate(42.44,93.86)" id="img-622c8713-56">
              <path d="M-0.36,-14.15 L0.36,-14.15 0.36,14.15 -0.36,14.15  z" class="primitive"/>
            </g>
            <g transform="translate(43.11,96.05)" id="img-622c8713-57">
              <path d="M-0.36,-11.96 L0.36,-11.96 0.36,11.96 -0.36,11.96  z" class="primitive"/>
            </g>
            <g transform="translate(43.79,97.92)" id="img-622c8713-58">
              <path d="M-0.36,-10.09 L0.36,-10.09 0.36,10.09 -0.36,10.09  z" class="primitive"/>
            </g>
            <g transform="translate(44.47,99.65)" id="img-622c8713-59">
              <path d="M-0.36,-8.36 L0.36,-8.36 0.36,8.36 -0.36,8.36  z" class="primitive"/>
            </g>
            <g transform="translate(45.15,101.05)" id="img-622c8713-60">
              <path d="M-0.36,-6.96 L0.36,-6.96 0.36,6.96 -0.36,6.96  z" class="primitive"/>
            </g>
            <g transform="translate(45.82,102.24)" id="img-622c8713-61">
              <path d="M-0.36,-5.77 L0.36,-5.77 0.36,5.77 -0.36,5.77  z" class="primitive"/>
            </g>
            <g transform="translate(46.5,103.31)" id="img-622c8713-62">
              <path d="M-0.36,-4.7 L0.36,-4.7 0.36,4.7 -0.36,4.7  z" class="primitive"/>
            </g>
            <g transform="translate(47.18,104.23)" id="img-622c8713-63">
              <path d="M-0.36,-3.78 L0.36,-3.78 0.36,3.78 -0.36,3.78  z" class="primitive"/>
            </g>
            <g transform="translate(47.86,105.06)" id="img-622c8713-64">
              <path d="M-0.36,-2.95 L0.36,-2.95 0.36,2.95 -0.36,2.95  z" class="primitive"/>
            </g>
            <g transform="translate(48.53,105.57)" id="img-622c8713-65">
              <path d="M-0.36,-2.44 L0.36,-2.44 0.36,2.44 -0.36,2.44  z" class="primitive"/>
            </g>
            <g transform="translate(49.21,106.12)" id="img-622c8713-66">
              <path d="M-0.36,-1.89 L0.36,-1.89 0.36,1.89 -0.36,1.89  z" class="primitive"/>
            </g>
            <g transform="translate(49.89,106.53)" id="img-622c8713-67">
              <path d="M-0.36,-1.48 L0.36,-1.48 0.36,1.48 -0.36,1.48  z" class="primitive"/>
            </g>
            <g transform="translate(50.57,106.83)" id="img-622c8713-68">
              <path d="M-0.36,-1.18 L0.36,-1.18 0.36,1.18 -0.36,1.18  z" class="primitive"/>
            </g>
            <g transform="translate(51.24,107.06)" id="img-622c8713-69">
              <path d="M-0.36,-0.95 L0.36,-0.95 0.36,0.95 -0.36,0.95  z" class="primitive"/>
            </g>
            <g transform="translate(51.92,107.3)" id="img-622c8713-70">
              <path d="M-0.36,-0.71 L0.36,-0.71 0.36,0.71 -0.36,0.71  z" class="primitive"/>
            </g>
            <g transform="translate(52.6,107.49)" id="img-622c8713-71">
              <path d="M-0.36,-0.52 L0.36,-0.52 0.36,0.52 -0.36,0.52  z" class="primitive"/>
            </g>
            <g transform="translate(53.28,107.63)" id="img-622c8713-72">
              <path d="M-0.36,-0.38 L0.36,-0.38 0.36,0.38 -0.36,0.38  z" class="primitive"/>
            </g>
            <g transform="translate(53.95,107.67)" id="img-622c8713-73">
              <path d="M-0.36,-0.35 L0.36,-0.35 0.36,0.35 -0.36,0.35  z" class="primitive"/>
            </g>
            <g transform="translate(54.63,107.76)" id="img-622c8713-74">
              <path d="M-0.36,-0.25 L0.36,-0.25 0.36,0.25 -0.36,0.25  z" class="primitive"/>
            </g>
            <g transform="translate(55.31,107.82)" id="img-622c8713-75">
              <path d="M-0.36,-0.19 L0.36,-0.19 0.36,0.19 -0.36,0.19  z" class="primitive"/>
            </g>
            <g transform="translate(55.99,107.87)" id="img-622c8713-76">
              <path d="M-0.36,-0.14 L0.36,-0.14 0.36,0.14 -0.36,0.14  z" class="primitive"/>
            </g>
            <g transform="translate(56.66,107.89)" id="img-622c8713-77">
              <path d="M-0.36,-0.12 L0.36,-0.12 0.36,0.12 -0.36,0.12  z" class="primitive"/>
            </g>
            <g transform="translate(57.34,107.93)" id="img-622c8713-78">
              <path d="M-0.36,-0.08 L0.36,-0.08 0.36,0.08 -0.36,0.08  z" class="primitive"/>
            </g>
            <g transform="translate(58.02,107.95)" id="img-622c8713-79">
              <path d="M-0.36,-0.06 L0.36,-0.06 0.36,0.06 -0.36,0.06  z" class="primitive"/>
            </g>
            <g transform="translate(58.7,107.97)" id="img-622c8713-80">
              <path d="M-0.36,-0.04 L0.36,-0.04 0.36,0.04 -0.36,0.04  z" class="primitive"/>
            </g>
            <g transform="translate(59.37,107.98)" id="img-622c8713-81">
              <path d="M-0.36,-0.03 L0.36,-0.03 0.36,0.03 -0.36,0.03  z" class="primitive"/>
            </g>
            <g transform="translate(60.05,107.98)" id="img-622c8713-82">
              <path d="M-0.36,-0.03 L0.36,-0.03 0.36,0.03 -0.36,0.03  z" class="primitive"/>
            </g>
            <g transform="translate(60.73,108)" id="img-622c8713-83">
              <path d="M-0.36,-0.02 L0.36,-0.02 0.36,0.02 -0.36,0.02  z" class="primitive"/>
            </g>
            <g transform="translate(61.4,108)" id="img-622c8713-84">
              <path d="M-0.36,-0.01 L0.36,-0.01 0.36,0.01 -0.36,0.01  z" class="primitive"/>
            </g>
            <g transform="translate(62.08,108)" id="img-622c8713-85">
              <path d="M-0.36,-0.01 L0.36,-0.01 0.36,0.01 -0.36,0.01  z" class="primitive"/>
            </g>
            <g transform="translate(62.76,108.01)" id="img-622c8713-86">
              <path d="M-0.36,-0.01 L0.36,-0.01 0.36,0.01 -0.36,0.01  z" class="primitive"/>
            </g>
            <g transform="translate(63.44,108.01)" id="img-622c8713-87">
              <path d="M-0.36,-0 L0.36,-0 0.36,0 -0.36,0  z" class="primitive"/>
            </g>
            <g transform="translate(64.11,108.01)" id="img-622c8713-88">
              <path d="M-0.36,-0 L0.36,-0 0.36,0 -0.36,0  z" class="primitive"/>
            </g>
            <g transform="translate(64.79,108.01)" id="img-622c8713-89">
              <path d="M-0.36,-0 L0.36,-0 0.36,0 -0.36,0  z" class="primitive"/>
            </g>
            <g transform="translate(65.47,108.01)" id="img-622c8713-90">
              <path d="M-0.36,-0 L0.36,-0 0.36,0 -0.36,0  z" class="primitive"/>
            </g>
            <g transform="translate(66.15,108.01)" id="img-622c8713-91">
              <path d="M-0.36,-0 L0.36,-0 0.36,0 -0.36,0  z" class="primitive"/>
            </g>
            <g transform="translate(66.82,108.02)" id="img-622c8713-92">
              <path d="M-0.36,-0 L0.36,-0 0.36,0 -0.36,0  z" class="primitive"/>
            </g>
            <g transform="translate(67.5,108.01)" id="img-622c8713-93">
              <path d="M-0.36,-0 L0.36,-0 0.36,0 -0.36,0  z" class="primitive"/>
            </g>
            <g transform="translate(68.18,108.02)" id="img-622c8713-94">
              <path d="M-0.36,-0 L0.36,-0 0.36,0 -0.36,0  z" class="primitive"/>
            </g>
            <g transform="translate(68.86,108.01)" id="img-622c8713-95">
              <path d="M-0.36,-0 L0.36,-0 0.36,0 -0.36,0  z" class="primitive"/>
            </g>
            <g transform="translate(69.53,108.02)" id="img-622c8713-96">
              <path d="M-0.36,-0 L0.36,-0 0.36,0 -0.36,0  z" class="primitive"/>
            </g>
            <g transform="translate(70.21,108.02)" id="img-622c8713-97">
              <path d="M-0.36,-0 L0.36,-0 0.36,0 -0.36,0  z" class="primitive"/>
            </g>
            <g transform="translate(70.89,108.02)" id="img-622c8713-98">
              <path d="M-0.36,-0 L0.36,-0 0.36,0 -0.36,0  z" class="primitive"/>
            </g>
            <g transform="translate(71.57,108.02)" id="img-622c8713-99">
              <path d="M-0.36,-0 L0.36,-0 0.36,0 -0.36,0  z" class="primitive"/>
            </g>
            <g transform="translate(72.24,108.02)" id="img-622c8713-100">
              <path d="M-0.36,-0 L0.36,-0 0.36,0 -0.36,0  z" class="primitive"/>
            </g>
            <g transform="translate(72.92,108.02)" id="img-622c8713-101">
              <path d="M-0.36,-0 L0.36,-0 0.36,0 -0.36,0  z" class="primitive"/>
            </g>
            <g transform="translate(73.6,108.02)" id="img-622c8713-102">
              <path d="M-0.36,-0 L0.36,-0 0.36,0 -0.36,0  z" class="primitive"/>
            </g>
            <g transform="translate(74.28,108.01)" id="img-622c8713-103">
              <path d="M-0.36,-0 L0.36,-0 0.36,0 -0.36,0  z" class="primitive"/>
            </g>
            <g transform="translate(74.95,108.02)" id="img-622c8713-104">
              <path d="M-0.36,-0 L0.36,-0 0.36,0 -0.36,0  z" class="primitive"/>
            </g>
            <g transform="translate(75.63,108.02)" id="img-622c8713-105">
              <path d="M-0.36,-0 L0.36,-0 0.36,0 -0.36,0  z" class="primitive"/>
            </g>
            <g transform="translate(76.31,108.02)" id="img-622c8713-106">
              <path d="M-0.36,-0 L0.36,-0 0.36,0 -0.36,0  z" class="primitive"/>
            </g>
            <g transform="translate(76.99,108.02)" id="img-622c8713-107">
              <path d="M-0.36,-0 L0.36,-0 0.36,0 -0.36,0  z" class="primitive"/>
            </g>
            <g transform="translate(77.66,108.02)" id="img-622c8713-108">
              <path d="M-0.36,-0 L0.36,-0 0.36,0 -0.36,0  z" class="primitive"/>
            </g>
            <g transform="translate(78.34,108.02)" id="img-622c8713-109">
              <path d="M-0.36,-0 L0.36,-0 0.36,0 -0.36,0  z" class="primitive"/>
            </g>
            <g transform="translate(79.02,108.02)" id="img-622c8713-110">
              <path d="M-0.36,-0 L0.36,-0 0.36,0 -0.36,0  z" class="primitive"/>
            </g>
            <g transform="translate(79.69,108.02)" id="img-622c8713-111">
              <path d="M-0.36,-0 L0.36,-0 0.36,0 -0.36,0  z" class="primitive"/>
            </g>
            <g transform="translate(80.37,108.02)" id="img-622c8713-112">
              <path d="M-0.36,-0 L0.36,-0 0.36,0 -0.36,0  z" class="primitive"/>
            </g>
            <g transform="translate(81.05,108.02)" id="img-622c8713-113">
              <path d="M-0.36,-0 L0.36,-0 0.36,0 -0.36,0  z" class="primitive"/>
            </g>
            <g transform="translate(81.73,108.02)" id="img-622c8713-114">
              <path d="M-0.36,-0 L0.36,-0 0.36,0 -0.36,0  z" class="primitive"/>
            </g>
            <g transform="translate(82.4,108.02)" id="img-622c8713-115">
              <path d="M-0.36,-0 L0.36,-0 0.36,0 -0.36,0  z" class="primitive"/>
            </g>
            <g transform="translate(83.08,108.02)" id="img-622c8713-116">
              <path d="M-0.36,-0 L0.36,-0 0.36,0 -0.36,0  z" class="primitive"/>
            </g>
            <g transform="translate(83.76,108.02)" id="img-622c8713-117">
              <path d="M-0.36,-0 L0.36,-0 0.36,0 -0.36,0  z" class="primitive"/>
            </g>
            <g transform="translate(84.44,108.02)" id="img-622c8713-118">
              <path d="M-0.36,-0 L0.36,-0 0.36,0 -0.36,0  z" class="primitive"/>
            </g>
            <g transform="translate(85.11,108.02)" id="img-622c8713-119">
              <path d="M-0.36,-0 L0.36,-0 0.36,0 -0.36,0  z" class="primitive"/>
            </g>
            <g transform="translate(85.79,108.02)" id="img-622c8713-120">
              <path d="M-0.36,-0 L0.36,-0 0.36,0 -0.36,0  z" class="primitive"/>
            </g>
            <g transform="translate(86.47,108.02)" id="img-622c8713-121">
              <path d="M-0.36,-0 L0.36,-0 0.36,0 -0.36,0  z" class="primitive"/>
            </g>
            <g transform="translate(87.15,108.02)" id="img-622c8713-122">
              <path d="M-0.36,-0 L0.36,-0 0.36,0 -0.36,0  z" class="primitive"/>
            </g>
            <g transform="translate(87.82,108.02)" id="img-622c8713-123">
              <path d="M-0.36,-0 L0.36,-0 0.36,0 -0.36,0  z" class="primitive"/>
            </g>
            <g transform="translate(88.5,108.02)" id="img-622c8713-124">
              <path d="M-0.36,-0 L0.36,-0 0.36,0 -0.36,0  z" class="primitive"/>
            </g>
            <g transform="translate(89.18,108.02)" id="img-622c8713-125">
              <path d="M-0.36,-0 L0.36,-0 0.36,0 -0.36,0  z" class="primitive"/>
            </g>
            <g transform="translate(89.86,108.02)" id="img-622c8713-126">
              <path d="M-0.36,-0 L0.36,-0 0.36,0 -0.36,0  z" class="primitive"/>
            </g>
            <g transform="translate(90.53,108.02)" id="img-622c8713-127">
              <path d="M-0.36,-0 L0.36,-0 0.36,0 -0.36,0  z" class="primitive"/>
            </g>
            <g transform="translate(91.21,108.02)" id="img-622c8713-128">
              <path d="M-0.36,-0 L0.36,-0 0.36,0 -0.36,0  z" class="primitive"/>
            </g>
            <g transform="translate(91.89,108.02)" id="img-622c8713-129">
              <path d="M-0.36,-0 L0.36,-0 0.36,0 -0.36,0  z" class="primitive"/>
            </g>
            <g transform="translate(92.57,108.02)" id="img-622c8713-130">
              <path d="M-0.36,-0 L0.36,-0 0.36,0 -0.36,0  z" class="primitive"/>
            </g>
            <g transform="translate(93.24,108.02)" id="img-622c8713-131">
              <path d="M-0.36,-0 L0.36,-0 0.36,0 -0.36,0  z" class="primitive"/>
            </g>
            <g transform="translate(93.92,108.02)" id="img-622c8713-132">
              <path d="M-0.36,-0 L0.36,-0 0.36,0 -0.36,0  z" class="primitive"/>
            </g>
            <g transform="translate(94.6,108.02)" id="img-622c8713-133">
              <path d="M-0.36,-0 L0.36,-0 0.36,0 -0.36,0  z" class="primitive"/>
            </g>
            <g transform="translate(95.27,108.02)" id="img-622c8713-134">
              <path d="M-0.36,-0 L0.36,-0 0.36,0 -0.36,0  z" class="primitive"/>
            </g>
            <g transform="translate(95.95,108.02)" id="img-622c8713-135">
              <path d="M-0.36,-0 L0.36,-0 0.36,0 -0.36,0  z" class="primitive"/>
            </g>
            <g transform="translate(96.63,108.02)" id="img-622c8713-136">
              <path d="M-0.36,-0 L0.36,-0 0.36,0 -0.36,0  z" class="primitive"/>
            </g>
            <g transform="translate(97.31,108.02)" id="img-622c8713-137">
              <path d="M-0.36,-0 L0.36,-0 0.36,0 -0.36,0  z" class="primitive"/>
            </g>
            <g transform="translate(97.98,108.02)" id="img-622c8713-138">
              <path d="M-0.36,-0 L0.36,-0 0.36,0 -0.36,0  z" class="primitive"/>
            </g>
            <g transform="translate(98.66,108.02)" id="img-622c8713-139">
              <path d="M-0.36,-0 L0.36,-0 0.36,0 -0.36,0  z" class="primitive"/>
            </g>
            <g transform="translate(99.34,108.02)" id="img-622c8713-140">
              <path d="M-0.36,-0 L0.36,-0 0.36,0 -0.36,0  z" class="primitive"/>
            </g>
            <g transform="translate(100.02,108.02)" id="img-622c8713-141">
              <path d="M-0.36,-0 L0.36,-0 0.36,0 -0.36,0  z" class="primitive"/>
            </g>
            <g transform="translate(100.69,108.02)" id="img-622c8713-142">
              <path d="M-0.36,-0 L0.36,-0 0.36,0 -0.36,0  z" class="primitive"/>
            </g>
            <g transform="translate(101.37,108.02)" id="img-622c8713-143">
              <path d="M-0.36,-0 L0.36,-0 0.36,0 -0.36,0  z" class="primitive"/>
            </g>
            <g transform="translate(102.05,108.02)" id="img-622c8713-144">
              <path d="M-0.36,-0 L0.36,-0 0.36,0 -0.36,0  z" class="primitive"/>
            </g>
            <g transform="translate(102.73,108.02)" id="img-622c8713-145">
              <path d="M-0.36,-0 L0.36,-0 0.36,0 -0.36,0  z" class="primitive"/>
            </g>
            <g transform="translate(103.4,108.02)" id="img-622c8713-146">
              <path d="M-0.36,-0 L0.36,-0 0.36,0 -0.36,0  z" class="primitive"/>
            </g>
            <g transform="translate(104.08,108.02)" id="img-622c8713-147">
              <path d="M-0.36,-0 L0.36,-0 0.36,0 -0.36,0  z" class="primitive"/>
            </g>
            <g transform="translate(104.76,108.02)" id="img-622c8713-148">
              <path d="M-0.36,-0 L0.36,-0 0.36,0 -0.36,0  z" class="primitive"/>
            </g>
            <g transform="translate(105.44,108.02)" id="img-622c8713-149">
              <path d="M-0.36,-0 L0.36,-0 0.36,0 -0.36,0  z" class="primitive"/>
            </g>
            <g transform="translate(106.11,108.02)" id="img-622c8713-150">
              <path d="M-0.36,-0 L0.36,-0 0.36,0 -0.36,0  z" class="primitive"/>
            </g>
            <g transform="translate(106.79,108.02)" id="img-622c8713-151">
              <path d="M-0.36,-0 L0.36,-0 0.36,0 -0.36,0  z" class="primitive"/>
            </g>
            <g transform="translate(107.47,108.02)" id="img-622c8713-152">
              <path d="M-0.36,-0 L0.36,-0 0.36,0 -0.36,0  z" class="primitive"/>
            </g>
            <g transform="translate(108.15,108.02)" id="img-622c8713-153">
              <path d="M-0.36,-0 L0.36,-0 0.36,0 -0.36,0  z" class="primitive"/>
            </g>
            <g transform="translate(108.82,108.02)" id="img-622c8713-154">
              <path d="M-0.36,-0 L0.36,-0 0.36,0 -0.36,0  z" class="primitive"/>
            </g>
            <g transform="translate(109.5,108.02)" id="img-622c8713-155">
              <path d="M-0.36,-0 L0.36,-0 0.36,0 -0.36,0  z" class="primitive"/>
            </g>
            <g transform="translate(110.18,108.02)" id="img-622c8713-156">
              <path d="M-0.36,-0 L0.36,-0 0.36,0 -0.36,0  z" class="primitive"/>
            </g>
            <g transform="translate(110.86,108.02)" id="img-622c8713-157">
              <path d="M-0.36,-0 L0.36,-0 0.36,0 -0.36,0  z" class="primitive"/>
            </g>
            <g transform="translate(111.53,108.02)" id="img-622c8713-158">
              <path d="M-0.36,-0 L0.36,-0 0.36,0 -0.36,0  z" class="primitive"/>
            </g>
            <g transform="translate(112.21,108.02)" id="img-622c8713-159">
              <path d="M-0.36,-0 L0.36,-0 0.36,0 -0.36,0  z" class="primitive"/>
            </g>
            <g transform="translate(112.89,108.02)" id="img-622c8713-160">
              <path d="M-0.36,-0 L0.36,-0 0.36,0 -0.36,0  z" class="primitive"/>
            </g>
            <g transform="translate(113.56,108.02)" id="img-622c8713-161">
              <path d="M-0.36,-0 L0.36,-0 0.36,0 -0.36,0  z" class="primitive"/>
            </g>
            <g transform="translate(114.24,108.02)" id="img-622c8713-162">
              <path d="M-0.36,-0 L0.36,-0 0.36,0 -0.36,0  z" class="primitive"/>
            </g>
            <g transform="translate(114.92,108.02)" id="img-622c8713-163">
              <path d="M-0.36,-0 L0.36,-0 0.36,0 -0.36,0  z" class="primitive"/>
            </g>
            <g transform="translate(115.6,108.02)" id="img-622c8713-164">
              <path d="M-0.36,-0 L0.36,-0 0.36,0 -0.36,0  z" class="primitive"/>
            </g>
            <g transform="translate(116.27,108.02)" id="img-622c8713-165">
              <path d="M-0.36,-0 L0.36,-0 0.36,0 -0.36,0  z" class="primitive"/>
            </g>
            <g transform="translate(116.95,108.02)" id="img-622c8713-166">
              <path d="M-0.36,-0 L0.36,-0 0.36,0 -0.36,0  z" class="primitive"/>
            </g>
            <g transform="translate(117.63,108.02)" id="img-622c8713-167">
              <path d="M-0.36,-0 L0.36,-0 0.36,0 -0.36,0  z" class="primitive"/>
            </g>
            <g transform="translate(118.31,108.02)" id="img-622c8713-168">
              <path d="M-0.36,-0 L0.36,-0 0.36,0 -0.36,0  z" class="primitive"/>
            </g>
            <g transform="translate(118.98,108.02)" id="img-622c8713-169">
              <path d="M-0.36,-0 L0.36,-0 0.36,0 -0.36,0  z" class="primitive"/>
            </g>
            <g transform="translate(119.66,108.02)" id="img-622c8713-170">
              <path d="M-0.36,-0 L0.36,-0 0.36,0 -0.36,0  z" class="primitive"/>
            </g>
          </g>
        </g>
      </g>
    </g>
  </g>
  <g class="guide ylabels" font-size="2.82" font-family="'PT Sans Caption','Helvetica Neue','Helvetica',sans-serif" fill="#6C606B" id="img-622c8713-171">
    <g transform="translate(11.66,108.01)" id="img-622c8713-172">
      <g class="primitive">
        <text text-anchor="end" dy="0.35em">0.00</text>
      </g>
    </g>
    <g transform="translate(11.66,76.21)" id="img-622c8713-173">
      <g class="primitive">
        <text text-anchor="end" dy="0.35em">0.01</text>
      </g>
    </g>
    <g transform="translate(11.66,44.41)" id="img-622c8713-174">
      <g class="primitive">
        <text text-anchor="end" dy="0.35em">0.02</text>
      </g>
    </g>
    <g transform="translate(11.66,12.62)" id="img-622c8713-175">
      <g class="primitive">
        <text text-anchor="end" dy="0.35em">0.03</text>
      </g>
    </g>
  </g>
  <g font-size="3.88" font-family="'PT Sans','Helvetica Neue','Helvetica',sans-serif" fill="#564A55" stroke="#000000" stroke-opacity="0.000" id="img-622c8713-176">
    <g transform="translate(67.33,5)" id="img-622c8713-177">
      <g class="primitive">
        <text text-anchor="middle" dy="0.6em">Negative Binomial(.25, 20)</text>
      </g>
    </g>
  </g>
</g>
<defs>
  <clipPath id="img-622c8713-4">
    <path d="M12.66,10.62 L122,10.62 122,110.01 12.66,110.01 " />
  </clipPath>
</defs>
</svg>
