<?xml version="1.0" encoding="UTF-8"?>
<svg xmlns="http://www.w3.org/2000/svg"
     xmlns:xlink="http://www.w3.org/1999/xlink"
     xmlns:gadfly="http://www.gadflyjl.org/ns"
     version="1.2"
     width="101.6mm" height="101.6mm" viewBox="0 0 101.6 101.6"
     stroke="none"
     fill="#000000"
     stroke-width="0.3"
     font-size="3.88"
>
<defs>
  <marker id="arrow" markerWidth="15" markerHeight="7" refX="5" refY="3.5" orient="auto" markerUnits="strokeWidth">
    <path d="M0,0 L15,3.5 L0,7 z" stroke="context-stroke" fill="context-stroke"/>
  </marker>
</defs>
<g class="plotroot xscalable yscalable" id="img-cc88a6c2-1">
  <g font-size="3.88" font-family="'PT Sans','Helvetica Neue','Helvetica',sans-serif" fill="#564A55" stroke="#000000" stroke-opacity="0.000" id="img-cc88a6c2-2">
    <g transform="translate(54.63,91.66)">
      <g class="primitive">
        <text text-anchor="middle" dy="0.6em">x</text>
      </g>
    </g>
  </g>
  <g class="guide xlabels" font-size="2.82" font-family="'PT Sans Caption','Helvetica Neue','Helvetica',sans-serif" fill="#6C606B" id="img-cc88a6c2-3">
    <g transform="translate(14.66,85.61)">
      <g class="primitive">
        <text text-anchor="middle" dy="0.6em">0</text>
      </g>
    </g>
    <g transform="translate(40.12,85.61)">
      <g class="primitive">
        <text text-anchor="middle" dy="0.6em">50</text>
      </g>
    </g>
    <g transform="translate(65.58,85.61)">
      <g class="primitive">
        <text text-anchor="middle" dy="0.6em">100</text>
      </g>
    </g>
    <g transform="translate(91.04,85.61)">
      <g class="primitive">
        <text text-anchor="middle" dy="0.6em">150</text>
      </g>
    </g>
  </g>
  <g clip-path="url(#img-cc88a6c2-4)">
    <g id="img-cc88a6c2-5">
      <g pointer-events="visible" stroke-width="0.3" fill="#000000" fill-opacity="0.000" stroke="#000000" stroke-opacity="0.000" class="guide background" id="img-cc88a6c2-6">
        <g transform="translate(54.63,47.61)" id="img-cc88a6c2-7">
          <path d="M-41.97,-37 L41.97,-37 41.97,37 -41.97,37  z" class="primitive"/>
        </g>
      </g>
      <g class="guide ygridlines xfixed" stroke-dasharray="0.5,0.5" stroke-width="0.2" stroke="#D0D0E0" id="img-cc88a6c2-8">
        <g transform="translate(54.63,82.61)" id="img-cc88a6c2-9">
          <path fill="none" d="M-41.97,0 L41.97,0 " class="primitive"/>
        </g>
        <g transform="translate(54.63,59.28)" id="img-cc88a6c2-10">
          <path fill="none" d="M-41.97,0 L41.97,0 " class="primitive"/>
        </g>
        <g transform="translate(54.63,35.95)" id="img-cc88a6c2-11">
          <path fill="none" d="M-41.97,0 L41.97,0 " class="primitive"/>
        </g>
        <g transform="translate(54.63,12.62)" id="img-cc88a6c2-12">
          <path fill="none" d="M-41.97,0 L41.97,0 " class="primitive"/>
        </g>
      </g>
      <g class="guide xgridlines yfixed" stroke-dasharray="0.5,0.5" stroke-width="0.2" stroke="#D0D0E0" id="img-cc88a6c2-13">
        <g transform="translate(14.66,47.61)" id="img-cc88a6c2-14">
          <path fill="none" d="M0,-37 L0,37 " class="primitive"/>
        </g>
        <g transform="translate(40.12,47.61)" id="img-cc88a6c2-15">
          <path fill="none" d="M0,-37 L0,37 " class="primitive"/>
        </g>
        <g transform="translate(65.58,47.61)" id="img-cc88a6c2-16">
          <path fill="none" d="M0,-37 L0,37 " class="primitive"/>
        </g>
        <g transform="translate(91.04,47.61)" id="img-cc88a6c2-17">
          <path fill="none" d="M0,-37 L0,37 " class="primitive"/>
        </g>
      </g>
      <g class="plotpanel" id="img-cc88a6c2-18">
        <metadata>
          <boundingbox value="12.664081488715283mm 10.616661241319449mm 83.93591851128471mm 73.99391818576387mm"/>
          <unitbox value="-3.928146518459933 0.03085721733480843 164.85629303691985 -0.03171443466961686"/>
        </metadata>
        <g shape-rendering="crispEdges" stroke-width="0.3" id="img-cc88a6c2-19">
          <g class="geometry" fill-opacity="1" stroke="#000000" stroke-opacity="0.000" fill="#00BFFF" id="img-cc88a6c2-20">
            <g transform="translate(18.99,82.61)" id="img-cc88a6c2-21">
              <path d="M-0.28,-0 L0.28,-0 0.28,0 -0.28,0  z" class="primitive"/>
            </g>
            <g transform="translate(19.5,82.62)" id="img-cc88a6c2-22">
              <path d="M-0.28,-0 L0.28,-0 0.28,0 -0.28,0  z" class="primitive"/>
            </g>
            <g transform="translate(20.01,82.61)" id="img-cc88a6c2-23">
              <path d="M-0.28,-0 L0.28,-0 0.28,0 -0.28,0  z" class="primitive"/>
            </g>
            <g transform="translate(20.52,82.61)" id="img-cc88a6c2-24">
              <path d="M-0.28,-0 L0.28,-0 0.28,0 -0.28,0  z" class="primitive"/>
            </g>
            <g transform="translate(21.03,82.61)" id="img-cc88a6c2-25">
              <path d="M-0.28,-0 L0.28,-0 0.28,0 -0.28,0  z" class="primitive"/>
            </g>
            <g transform="translate(21.54,82.61)" id="img-cc88a6c2-26">
              <path d="M-0.28,-0 L0.28,-0 0.28,0 -0.28,0  z" class="primitive"/>
            </g>
            <g transform="translate(22.05,82.6)" id="img-cc88a6c2-27">
              <path d="M-0.28,-0.01 L0.28,-0.01 0.28,0.01 -0.28,0.01  z" class="primitive"/>
            </g>
            <g transform="translate(22.56,82.59)" id="img-cc88a6c2-28">
              <path d="M-0.28,-0.02 L0.28,-0.02 0.28,0.02 -0.28,0.02  z" class="primitive"/>
            </g>
            <g transform="translate(23.06,82.57)" id="img-cc88a6c2-29">
              <path d="M-0.28,-0.04 L0.28,-0.04 0.28,0.04 -0.28,0.04  z" class="primitive"/>
            </g>
            <g transform="translate(23.57,82.55)" id="img-cc88a6c2-30">
              <path d="M-0.28,-0.06 L0.28,-0.06 0.28,0.06 -0.28,0.06  z" class="primitive"/>
            </g>
            <g transform="translate(24.08,82.52)" id="img-cc88a6c2-31">
              <path d="M-0.28,-0.09 L0.28,-0.09 0.28,0.09 -0.28,0.09  z" class="primitive"/>
            </g>
            <g transform="translate(24.59,82.45)" id="img-cc88a6c2-32">
              <path d="M-0.28,-0.16 L0.28,-0.16 0.28,0.16 -0.28,0.16  z" class="primitive"/>
            </g>
            <g transform="translate(25.1,82.37)" id="img-cc88a6c2-33">
              <path d="M-0.28,-0.24 L0.28,-0.24 0.28,0.24 -0.28,0.24  z" class="primitive"/>
            </g>
            <g transform="translate(25.61,82.3)" id="img-cc88a6c2-34">
              <path d="M-0.28,-0.31 L0.28,-0.31 0.28,0.31 -0.28,0.31  z" class="primitive"/>
            </g>
            <g transform="translate(26.12,82.14)" id="img-cc88a6c2-35">
              <path d="M-0.28,-0.47 L0.28,-0.47 0.28,0.47 -0.28,0.47  z" class="primitive"/>
            </g>
            <g transform="translate(26.63,81.97)" id="img-cc88a6c2-36">
              <path d="M-0.28,-0.64 L0.28,-0.64 0.28,0.64 -0.28,0.64  z" class="primitive"/>
            </g>
            <g transform="translate(27.14,81.76)" id="img-cc88a6c2-37">
              <path d="M-0.28,-0.85 L0.28,-0.85 0.28,0.85 -0.28,0.85  z" class="primitive"/>
            </g>
            <g transform="translate(27.65,81.55)" id="img-cc88a6c2-38">
              <path d="M-0.28,-1.06 L0.28,-1.06 0.28,1.06 -0.28,1.06  z" class="primitive"/>
            </g>
            <g transform="translate(28.16,81.22)" id="img-cc88a6c2-39">
              <path d="M-0.28,-1.39 L0.28,-1.39 0.28,1.39 -0.28,1.39  z" class="primitive"/>
            </g>
            <g transform="translate(28.67,80.79)" id="img-cc88a6c2-40">
              <path d="M-0.28,-1.82 L0.28,-1.82 0.28,1.82 -0.28,1.82  z" class="primitive"/>
            </g>
            <g transform="translate(29.17,80.29)" id="img-cc88a6c2-41">
              <path d="M-0.28,-2.32 L0.28,-2.32 0.28,2.32 -0.28,2.32  z" class="primitive"/>
            </g>
            <g transform="translate(29.68,79.66)" id="img-cc88a6c2-42">
              <path d="M-0.28,-2.95 L0.28,-2.95 0.28,2.95 -0.28,2.95  z" class="primitive"/>
            </g>
            <g transform="translate(30.19,79.07)" id="img-cc88a6c2-43">
              <path d="M-0.28,-3.54 L0.28,-3.54 0.28,3.54 -0.28,3.54  z" class="primitive"/>
            </g>
            <g transform="translate(30.7,78.26)" id="img-cc88a6c2-44">
              <path d="M-0.28,-4.35 L0.28,-4.35 0.28,4.35 -0.28,4.35  z" class="primitive"/>
            </g>
            <g transform="translate(31.21,77.42)" id="img-cc88a6c2-45">
              <path d="M-0.28,-5.19 L0.28,-5.19 0.28,5.19 -0.28,5.19  z" class="primitive"/>
            </g>
            <g transform="translate(31.72,76.38)" id="img-cc88a6c2-46">
              <path d="M-0.28,-6.23 L0.28,-6.23 0.28,6.23 -0.28,6.23  z" class="primitive"/>
            </g>
            <g transform="translate(32.23,75.5)" id="img-cc88a6c2-47">
              <path d="M-0.28,-7.11 L0.28,-7.11 0.28,7.11 -0.28,7.11  z" class="primitive"/>
            </g>
            <g transform="translate(32.74,74.26)" id="img-cc88a6c2-48">
              <path d="M-0.28,-8.35 L0.28,-8.35 0.28,8.35 -0.28,8.35  z" class="primitive"/>
            </g>
            <g transform="translate(33.25,73.12)" id="img-cc88a6c2-49">
              <path d="M-0.28,-9.49 L0.28,-9.49 0.28,9.49 -0.28,9.49  z" class="primitive"/>
            </g>
            <g transform="translate(33.76,71.8)" id="img-cc88a6c2-50">
              <path d="M-0.28,-10.81 L0.28,-10.81 0.28,10.81 -0.28,10.81  z" class="primitive"/>
            </g>
            <g transform="translate(34.27,70.57)" id="img-cc88a6c2-51">
              <path d="M-0.28,-12.04 L0.28,-12.04 0.28,12.04 -0.28,12.04  z" class="primitive"/>
            </g>
            <g transform="translate(34.78,69.19)" id="img-cc88a6c2-52">
              <path d="M-0.28,-13.42 L0.28,-13.42 0.28,13.42 -0.28,13.42  z" class="primitive"/>
            </g>
            <g transform="translate(35.28,67.56)" id="img-cc88a6c2-53">
              <path d="M-0.28,-15.05 L0.28,-15.05 0.28,15.05 -0.28,15.05  z" class="primitive"/>
            </g>
            <g transform="translate(35.79,66.28)" id="img-cc88a6c2-54">
              <path d="M-0.28,-16.33 L0.28,-16.33 0.28,16.33 -0.28,16.33  z" class="primitive"/>
            </g>
            <g transform="translate(36.3,64.59)" id="img-cc88a6c2-55">
              <path d="M-0.28,-18.02 L0.28,-18.02 0.28,18.02 -0.28,18.02  z" class="primitive"/>
            </g>
            <g transform="translate(36.81,63.44)" id="img-cc88a6c2-56">
              <path d="M-0.28,-19.17 L0.28,-19.17 0.28,19.17 -0.28,19.17  z" class="primitive"/>
            </g>
            <g transform="translate(37.32,62.06)" id="img-cc88a6c2-57">
              <path d="M-0.28,-20.55 L0.28,-20.55 0.28,20.55 -0.28,20.55  z" class="primitive"/>
            </g>
            <g transform="translate(37.83,60.32)" id="img-cc88a6c2-58">
              <path d="M-0.28,-22.29 L0.28,-22.29 0.28,22.29 -0.28,22.29  z" class="primitive"/>
            </g>
            <g transform="translate(38.34,59.19)" id="img-cc88a6c2-59">
              <path d="M-0.28,-23.42 L0.28,-23.42 0.28,23.42 -0.28,23.42  z" class="primitive"/>
            </g>
            <g transform="translate(38.85,57.79)" id="img-cc88a6c2-60">
              <path d="M-0.28,-24.82 L0.28,-24.82 0.28,24.82 -0.28,24.82  z" class="primitive"/>
            </g>
            <g transform="translate(39.36,57.11)" id="img-cc88a6c2-61">
              <path d="M-0.28,-25.5 L0.28,-25.5 0.28,25.5 -0.28,25.5  z" class="primitive"/>
            </g>
            <g transform="translate(39.87,55.78)" id="img-cc88a6c2-62">
              <path d="M-0.28,-26.83 L0.28,-26.83 0.28,26.83 -0.28,26.83  z" class="primitive"/>
            </g>
            <g transform="translate(40.38,54.99)" id="img-cc88a6c2-63">
              <path d="M-0.28,-27.62 L0.28,-27.62 0.28,27.62 -0.28,27.62  z" class="primitive"/>
            </g>
            <g transform="translate(40.89,53.92)" id="img-cc88a6c2-64">
              <path d="M-0.28,-28.69 L0.28,-28.69 0.28,28.69 -0.28,28.69  z" class="primitive"/>
            </g>
            <g transform="translate(41.39,53.35)" id="img-cc88a6c2-65">
              <path d="M-0.28,-29.26 L0.28,-29.26 0.28,29.26 -0.28,29.26  z" class="primitive"/>
            </g>
            <g transform="translate(41.9,52.45)" id="img-cc88a6c2-66">
              <path d="M-0.28,-30.16 L0.28,-30.16 0.28,30.16 -0.28,30.16  z" class="primitive"/>
            </g>
            <g transform="translate(42.41,52.32)" id="img-cc88a6c2-67">
              <path d="M-0.28,-30.29 L0.28,-30.29 0.28,30.29 -0.28,30.29  z" class="primitive"/>
            </g>
            <g transform="translate(42.92,52.27)" id="img-cc88a6c2-68">
              <path d="M-0.28,-30.34 L0.28,-30.34 0.28,30.34 -0.28,30.34  z" class="primitive"/>
            </g>
            <g transform="translate(43.43,51.93)" id="img-cc88a6c2-69">
              <path d="M-0.28,-30.68 L0.28,-30.68 0.28,30.68 -0.28,30.68  z" class="primitive"/>
            </g>
            <g transform="translate(43.94,51.6)" id="img-cc88a6c2-70">
              <path d="M-0.28,-31.01 L0.28,-31.01 0.28,31.01 -0.28,31.01  z" class="primitive"/>
            </g>
            <g transform="translate(44.45,52.37)" id="img-cc88a6c2-71">
              <path d="M-0.28,-30.25 L0.28,-30.25 0.28,30.25 -0.28,30.25  z" class="primitive"/>
            </g>
            <g transform="translate(44.96,52.05)" id="img-cc88a6c2-72">
              <path d="M-0.28,-30.56 L0.28,-30.56 0.28,30.56 -0.28,30.56  z" class="primitive"/>
            </g>
            <g transform="translate(45.47,52.86)" id="img-cc88a6c2-73">
              <path d="M-0.28,-29.75 L0.28,-29.75 0.28,29.75 -0.28,29.75  z" class="primitive"/>
            </g>
            <g transform="translate(45.98,53.06)" id="img-cc88a6c2-74">
              <path d="M-0.28,-29.55 L0.28,-29.55 0.28,29.55 -0.28,29.55  z" class="primitive"/>
            </g>
            <g transform="translate(46.49,53.65)" id="img-cc88a6c2-75">
              <path d="M-0.28,-28.96 L0.28,-28.96 0.28,28.96 -0.28,28.96  z" class="primitive"/>
            </g>
            <g transform="translate(46.99,54.76)" id="img-cc88a6c2-76">
              <path d="M-0.28,-27.85 L0.28,-27.85 0.28,27.85 -0.28,27.85  z" class="primitive"/>
            </g>
            <g transform="translate(47.5,55.21)" id="img-cc88a6c2-77">
              <path d="M-0.28,-27.4 L0.28,-27.4 0.28,27.4 -0.28,27.4  z" class="primitive"/>
            </g>
            <g transform="translate(48.01,55.97)" id="img-cc88a6c2-78">
              <path d="M-0.28,-26.64 L0.28,-26.64 0.28,26.64 -0.28,26.64  z" class="primitive"/>
            </g>
            <g transform="translate(48.52,57.08)" id="img-cc88a6c2-79">
              <path d="M-0.28,-25.53 L0.28,-25.53 0.28,25.53 -0.28,25.53  z" class="primitive"/>
            </g>
            <g transform="translate(49.03,58.13)" id="img-cc88a6c2-80">
              <path d="M-0.28,-24.48 L0.28,-24.48 0.28,24.48 -0.28,24.48  z" class="primitive"/>
            </g>
            <g transform="translate(49.54,58.81)" id="img-cc88a6c2-81">
              <path d="M-0.28,-23.8 L0.28,-23.8 0.28,23.8 -0.28,23.8  z" class="primitive"/>
            </g>
            <g transform="translate(50.05,60.01)" id="img-cc88a6c2-82">
              <path d="M-0.28,-22.6 L0.28,-22.6 0.28,22.6 -0.28,22.6  z" class="primitive"/>
            </g>
            <g transform="translate(50.56,61.02)" id="img-cc88a6c2-83">
              <path d="M-0.28,-21.59 L0.28,-21.59 0.28,21.59 -0.28,21.59  z" class="primitive"/>
            </g>
            <g transform="translate(51.07,61.97)" id="img-cc88a6c2-84">
              <path d="M-0.28,-20.64 L0.28,-20.64 0.28,20.64 -0.28,20.64  z" class="primitive"/>
            </g>
            <g transform="translate(51.58,63.36)" id="img-cc88a6c2-85">
              <path d="M-0.28,-19.25 L0.28,-19.25 0.28,19.25 -0.28,19.25  z" class="primitive"/>
            </g>
            <g transform="translate(52.09,64.22)" id="img-cc88a6c2-86">
              <path d="M-0.28,-18.4 L0.28,-18.4 0.28,18.4 -0.28,18.4  z" class="primitive"/>
            </g>
            <g transform="translate(52.6,65.1)" id="img-cc88a6c2-87">
              <path d="M-0.28,-17.51 L0.28,-17.51 0.28,17.51 -0.28,17.51  z" class="primitive"/>
            </g>
            <g transform="translate(53.1,66.21)" id="img-cc88a6c2-88">
              <path d="M-0.28,-16.4 L0.28,-16.4 0.28,16.4 -0.28,16.4  z" class="primitive"/>
            </g>
            <g transform="translate(53.61,67.19)" id="img-cc88a6c2-89">
              <path d="M-0.28,-15.42 L0.28,-15.42 0.28,15.42 -0.28,15.42  z" class="primitive"/>
            </g>
            <g transform="translate(54.12,68.42)" id="img-cc88a6c2-90">
              <path d="M-0.28,-14.19 L0.28,-14.19 0.28,14.19 -0.28,14.19  z" class="primitive"/>
            </g>
            <g transform="translate(54.63,69.46)" id="img-cc88a6c2-91">
              <path d="M-0.28,-13.15 L0.28,-13.15 0.28,13.15 -0.28,13.15  z" class="primitive"/>
            </g>
            <g transform="translate(55.14,70.33)" id="img-cc88a6c2-92">
              <path d="M-0.28,-12.28 L0.28,-12.28 0.28,12.28 -0.28,12.28  z" class="primitive"/>
            </g>
            <g transform="translate(55.65,71.2)" id="img-cc88a6c2-93">
              <path d="M-0.28,-11.41 L0.28,-11.41 0.28,11.41 -0.28,11.41  z" class="primitive"/>
            </g>
            <g transform="translate(56.16,71.89)" id="img-cc88a6c2-94">
              <path d="M-0.28,-10.72 L0.28,-10.72 0.28,10.72 -0.28,10.72  z" class="primitive"/>
            </g>
            <g transform="translate(56.67,72.82)" id="img-cc88a6c2-95">
              <path d="M-0.28,-9.79 L0.28,-9.79 0.28,9.79 -0.28,9.79  z" class="primitive"/>
            </g>
            <g transform="translate(57.18,73.63)" id="img-cc88a6c2-96">
              <path d="M-0.28,-8.98 L0.28,-8.98 0.28,8.98 -0.28,8.98  z" class="primitive"/>
            </g>
            <g transform="translate(57.69,74.23)" id="img-cc88a6c2-97">
              <path d="M-0.28,-8.38 L0.28,-8.38 0.28,8.38 -0.28,8.38  z" class="primitive"/>
            </g>
            <g transform="translate(58.2,74.72)" id="img-cc88a6c2-98">
              <path d="M-0.28,-7.89 L0.28,-7.89 0.28,7.89 -0.28,7.89  z" class="primitive"/>
            </g>
            <g transform="translate(58.71,75.72)" id="img-cc88a6c2-99">
              <path d="M-0.28,-6.89 L0.28,-6.89 0.28,6.89 -0.28,6.89  z" class="primitive"/>
            </g>
            <g transform="translate(59.21,76.25)" id="img-cc88a6c2-100">
              <path d="M-0.28,-6.36 L0.28,-6.36 0.28,6.36 -0.28,6.36  z" class="primitive"/>
            </g>
            <g transform="translate(59.72,76.84)" id="img-cc88a6c2-101">
              <path d="M-0.28,-5.77 L0.28,-5.77 0.28,5.77 -0.28,5.77  z" class="primitive"/>
            </g>
            <g transform="translate(60.23,77.27)" id="img-cc88a6c2-102">
              <path d="M-0.28,-5.35 L0.28,-5.35 0.28,5.35 -0.28,5.35  z" class="primitive"/>
            </g>
            <g transform="translate(60.74,77.85)" id="img-cc88a6c2-103">
              <path d="M-0.28,-4.76 L0.28,-4.76 0.28,4.76 -0.28,4.76  z" class="primitive"/>
            </g>
            <g transform="translate(61.25,78.21)" id="img-cc88a6c2-104">
              <path d="M-0.28,-4.4 L0.28,-4.4 0.28,4.4 -0.28,4.4  z" class="primitive"/>
            </g>
            <g transform="translate(61.76,78.54)" id="img-cc88a6c2-105">
              <path d="M-0.28,-4.07 L0.28,-4.07 0.28,4.07 -0.28,4.07  z" class="primitive"/>
            </g>
            <g transform="translate(62.27,79.02)" id="img-cc88a6c2-106">
              <path d="M-0.28,-3.59 L0.28,-3.59 0.28,3.59 -0.28,3.59  z" class="primitive"/>
            </g>
            <g transform="translate(62.78,79.36)" id="img-cc88a6c2-107">
              <path d="M-0.28,-3.25 L0.28,-3.25 0.28,3.25 -0.28,3.25  z" class="primitive"/>
            </g>
            <g transform="translate(63.29,79.83)" id="img-cc88a6c2-108">
              <path d="M-0.28,-2.78 L0.28,-2.78 0.28,2.78 -0.28,2.78  z" class="primitive"/>
            </g>
            <g transform="translate(63.8,80.06)" id="img-cc88a6c2-109">
              <path d="M-0.28,-2.55 L0.28,-2.55 0.28,2.55 -0.28,2.55  z" class="primitive"/>
            </g>
            <g transform="translate(64.31,80.35)" id="img-cc88a6c2-110">
              <path d="M-0.28,-2.26 L0.28,-2.26 0.28,2.26 -0.28,2.26  z" class="primitive"/>
            </g>
            <g transform="translate(64.81,80.5)" id="img-cc88a6c2-111">
              <path d="M-0.28,-2.11 L0.28,-2.11 0.28,2.11 -0.28,2.11  z" class="primitive"/>
            </g>
            <g transform="translate(65.32,80.8)" id="img-cc88a6c2-112">
              <path d="M-0.28,-1.81 L0.28,-1.81 0.28,1.81 -0.28,1.81  z" class="primitive"/>
            </g>
            <g transform="translate(65.83,80.97)" id="img-cc88a6c2-113">
              <path d="M-0.28,-1.64 L0.28,-1.64 0.28,1.64 -0.28,1.64  z" class="primitive"/>
            </g>
            <g transform="translate(66.34,81.13)" id="img-cc88a6c2-114">
              <path d="M-0.28,-1.48 L0.28,-1.48 0.28,1.48 -0.28,1.48  z" class="primitive"/>
            </g>
            <g transform="translate(66.85,81.3)" id="img-cc88a6c2-115">
              <path d="M-0.28,-1.31 L0.28,-1.31 0.28,1.31 -0.28,1.31  z" class="primitive"/>
            </g>
            <g transform="translate(67.36,81.5)" id="img-cc88a6c2-116">
              <path d="M-0.28,-1.11 L0.28,-1.11 0.28,1.11 -0.28,1.11  z" class="primitive"/>
            </g>
            <g transform="translate(67.87,81.54)" id="img-cc88a6c2-117">
              <path d="M-0.28,-1.07 L0.28,-1.07 0.28,1.07 -0.28,1.07  z" class="primitive"/>
            </g>
            <g transform="translate(68.38,81.71)" id="img-cc88a6c2-118">
              <path d="M-0.28,-0.9 L0.28,-0.9 0.28,0.9 -0.28,0.9  z" class="primitive"/>
            </g>
            <g transform="translate(68.89,81.75)" id="img-cc88a6c2-119">
              <path d="M-0.28,-0.86 L0.28,-0.86 0.28,0.86 -0.28,0.86  z" class="primitive"/>
            </g>
            <g transform="translate(69.4,81.9)" id="img-cc88a6c2-120">
              <path d="M-0.28,-0.72 L0.28,-0.72 0.28,0.72 -0.28,0.72  z" class="primitive"/>
            </g>
            <g transform="translate(69.91,81.95)" id="img-cc88a6c2-121">
              <path d="M-0.28,-0.66 L0.28,-0.66 0.28,0.66 -0.28,0.66  z" class="primitive"/>
            </g>
            <g transform="translate(70.42,82.06)" id="img-cc88a6c2-122">
              <path d="M-0.28,-0.55 L0.28,-0.55 0.28,0.55 -0.28,0.55  z" class="primitive"/>
            </g>
            <g transform="translate(70.92,82.1)" id="img-cc88a6c2-123">
              <path d="M-0.28,-0.51 L0.28,-0.51 0.28,0.51 -0.28,0.51  z" class="primitive"/>
            </g>
            <g transform="translate(71.43,82.16)" id="img-cc88a6c2-124">
              <path d="M-0.28,-0.45 L0.28,-0.45 0.28,0.45 -0.28,0.45  z" class="primitive"/>
            </g>
            <g transform="translate(71.94,82.25)" id="img-cc88a6c2-125">
              <path d="M-0.28,-0.36 L0.28,-0.36 0.28,0.36 -0.28,0.36  z" class="primitive"/>
            </g>
            <g transform="translate(72.45,82.28)" id="img-cc88a6c2-126">
              <path d="M-0.28,-0.33 L0.28,-0.33 0.28,0.33 -0.28,0.33  z" class="primitive"/>
            </g>
            <g transform="translate(72.96,82.3)" id="img-cc88a6c2-127">
              <path d="M-0.28,-0.31 L0.28,-0.31 0.28,0.31 -0.28,0.31  z" class="primitive"/>
            </g>
            <g transform="translate(73.47,82.38)" id="img-cc88a6c2-128">
              <path d="M-0.28,-0.23 L0.28,-0.23 0.28,0.23 -0.28,0.23  z" class="primitive"/>
            </g>
            <g transform="translate(73.98,82.39)" id="img-cc88a6c2-129">
              <path d="M-0.28,-0.22 L0.28,-0.22 0.28,0.22 -0.28,0.22  z" class="primitive"/>
            </g>
            <g transform="translate(74.49,82.44)" id="img-cc88a6c2-130">
              <path d="M-0.28,-0.17 L0.28,-0.17 0.28,0.17 -0.28,0.17  z" class="primitive"/>
            </g>
            <g transform="translate(75,82.44)" id="img-cc88a6c2-131">
              <path d="M-0.28,-0.17 L0.28,-0.17 0.28,0.17 -0.28,0.17  z" class="primitive"/>
            </g>
            <g transform="translate(75.51,82.44)" id="img-cc88a6c2-132">
              <path d="M-0.28,-0.17 L0.28,-0.17 0.28,0.17 -0.28,0.17  z" class="primitive"/>
            </g>
            <g transform="translate(76.02,82.46)" id="img-cc88a6c2-133">
              <path d="M-0.28,-0.15 L0.28,-0.15 0.28,0.15 -0.28,0.15  z" class="primitive"/>
            </g>
            <g transform="translate(76.53,82.5)" id="img-cc88a6c2-134">
              <path d="M-0.28,-0.11 L0.28,-0.11 0.28,0.11 -0.28,0.11  z" class="primitive"/>
            </g>
            <g transform="translate(77.03,82.53)" id="img-cc88a6c2-135">
              <path d="M-0.28,-0.09 L0.28,-0.09 0.28,0.09 -0.28,0.09  z" class="primitive"/>
            </g>
            <g transform="translate(77.54,82.52)" id="img-cc88a6c2-136">
              <path d="M-0.28,-0.09 L0.28,-0.09 0.28,0.09 -0.28,0.09  z" class="primitive"/>
            </g>
            <g transform="translate(78.05,82.54)" id="img-cc88a6c2-137">
              <path d="M-0.28,-0.07 L0.28,-0.07 0.28,0.07 -0.28,0.07  z" class="primitive"/>
            </g>
            <g transform="translate(78.56,82.54)" id="img-cc88a6c2-138">
              <path d="M-0.28,-0.07 L0.28,-0.07 0.28,0.07 -0.28,0.07  z" class="primitive"/>
            </g>
            <g transform="translate(79.07,82.57)" id="img-cc88a6c2-139">
              <path d="M-0.28,-0.04 L0.28,-0.04 0.28,0.04 -0.28,0.04  z" class="primitive"/>
            </g>
            <g transform="translate(79.58,82.55)" id="img-cc88a6c2-140">
              <path d="M-0.28,-0.06 L0.28,-0.06 0.28,0.06 -0.28,0.06  z" class="primitive"/>
            </g>
            <g transform="translate(80.09,82.57)" id="img-cc88a6c2-141">
              <path d="M-0.28,-0.05 L0.28,-0.05 0.28,0.05 -0.28,0.05  z" class="primitive"/>
            </g>
            <g transform="translate(80.6,82.57)" id="img-cc88a6c2-142">
              <path d="M-0.28,-0.04 L0.28,-0.04 0.28,0.04 -0.28,0.04  z" class="primitive"/>
            </g>
            <g transform="translate(81.11,82.58)" id="img-cc88a6c2-143">
              <path d="M-0.28,-0.03 L0.28,-0.03 0.28,0.03 -0.28,0.03  z" class="primitive"/>
            </g>
            <g transform="translate(81.62,82.58)" id="img-cc88a6c2-144">
              <path d="M-0.28,-0.03 L0.28,-0.03 0.28,0.03 -0.28,0.03  z" class="primitive"/>
            </g>
            <g transform="translate(82.13,82.58)" id="img-cc88a6c2-145">
              <path d="M-0.28,-0.03 L0.28,-0.03 0.28,0.03 -0.28,0.03  z" class="primitive"/>
            </g>
            <g transform="translate(82.64,82.59)" id="img-cc88a6c2-146">
              <path d="M-0.28,-0.02 L0.28,-0.02 0.28,0.02 -0.28,0.02  z" class="primitive"/>
            </g>
            <g transform="translate(83.14,82.59)" id="img-cc88a6c2-147">
              <path d="M-0.28,-0.02 L0.28,-0.02 0.28,0.02 -0.28,0.02  z" class="primitive"/>
            </g>
            <g transform="translate(83.65,82.6)" id="img-cc88a6c2-148">
              <path d="M-0.28,-0.01 L0.28,-0.01 0.28,0.01 -0.28,0.01  z" class="primitive"/>
            </g>
            <g transform="translate(84.16,82.59)" id="img-cc88a6c2-149">
              <path d="M-0.28,-0.02 L0.28,-0.02 0.28,0.02 -0.28,0.02  z" class="primitive"/>
            </g>
            <g transform="translate(84.67,82.6)" id="img-cc88a6c2-150">
              <path d="M-0.28,-0.01 L0.28,-0.01 0.28,0.01 -0.28,0.01  z" class="primitive"/>
            </g>
            <g transform="translate(85.18,82.6)" id="img-cc88a6c2-151">
              <path d="M-0.28,-0.01 L0.28,-0.01 0.28,0.01 -0.28,0.01  z" class="primitive"/>
            </g>
            <g transform="translate(85.69,82.6)" id="img-cc88a6c2-152">
              <path d="M-0.28,-0.01 L0.28,-0.01 0.28,0.01 -0.28,0.01  z" class="primitive"/>
            </g>
            <g transform="translate(86.2,82.61)" id="img-cc88a6c2-153">
              <path d="M-0.28,-0 L0.28,-0 0.28,0 -0.28,0  z" class="primitive"/>
            </g>
            <g transform="translate(86.71,82.6)" id="img-cc88a6c2-154">
              <path d="M-0.28,-0.01 L0.28,-0.01 0.28,0.01 -0.28,0.01  z" class="primitive"/>
            </g>
            <g transform="translate(87.22,82.61)" id="img-cc88a6c2-155">
              <path d="M-0.28,-0 L0.28,-0 0.28,0 -0.28,0  z" class="primitive"/>
            </g>
            <g transform="translate(87.73,82.6)" id="img-cc88a6c2-156">
              <path d="M-0.28,-0.01 L0.28,-0.01 0.28,0.01 -0.28,0.01  z" class="primitive"/>
            </g>
            <g transform="translate(88.24,82.61)" id="img-cc88a6c2-157">
              <path d="M-0.28,-0 L0.28,-0 0.28,0 -0.28,0  z" class="primitive"/>
            </g>
            <g transform="translate(88.74,82.61)" id="img-cc88a6c2-158">
              <path d="M-0.28,-0 L0.28,-0 0.28,0 -0.28,0  z" class="primitive"/>
            </g>
            <g transform="translate(89.25,82.61)" id="img-cc88a6c2-159">
              <path d="M-0.28,-0 L0.28,-0 0.28,0 -0.28,0  z" class="primitive"/>
            </g>
            <g transform="translate(89.76,82.61)" id="img-cc88a6c2-160">
              <path d="M-0.28,-0 L0.28,-0 0.28,0 -0.28,0  z" class="primitive"/>
            </g>
            <g transform="translate(90.27,82.61)" id="img-cc88a6c2-161">
              <path d="M-0.28,-0 L0.28,-0 0.28,0 -0.28,0  z" class="primitive"/>
            </g>
            <g transform="translate(90.78,82.61)" id="img-cc88a6c2-162">
              <path d="M-0.28,-0 L0.28,-0 0.28,0 -0.28,0  z" class="primitive"/>
            </g>
            <g transform="translate(91.29,82.61)" id="img-cc88a6c2-163">
              <path d="M-0.28,-0 L0.28,-0 0.28,0 -0.28,0  z" class="primitive"/>
            </g>
            <g transform="translate(91.8,82.62)" id="img-cc88a6c2-164">
              <path d="M-0.28,-0 L0.28,-0 0.28,0 -0.28,0  z" class="primitive"/>
            </g>
            <g transform="translate(92.31,82.62)" id="img-cc88a6c2-165">
              <path d="M-0.28,-0 L0.28,-0 0.28,0 -0.28,0  z" class="primitive"/>
            </g>
            <g transform="translate(92.82,82.62)" id="img-cc88a6c2-166">
              <path d="M-0.28,-0 L0.28,-0 0.28,0 -0.28,0  z" class="primitive"/>
            </g>
            <g transform="translate(93.33,82.62)" id="img-cc88a6c2-167">
              <path d="M-0.28,-0 L0.28,-0 0.28,0 -0.28,0  z" class="primitive"/>
            </g>
            <g transform="translate(93.84,82.62)" id="img-cc88a6c2-168">
              <path d="M-0.28,-0 L0.28,-0 0.28,0 -0.28,0  z" class="primitive"/>
            </g>
            <g transform="translate(94.35,82.61)" id="img-cc88a6c2-169">
              <path d="M-0.28,-0 L0.28,-0 0.28,0 -0.28,0  z" class="primitive"/>
            </g>
          </g>
        </g>
      </g>
    </g>
  </g>
  <g class="guide ylabels" font-size="2.82" font-family="'PT Sans Caption','Helvetica Neue','Helvetica',sans-serif" fill="#6C606B" id="img-cc88a6c2-170">
    <g transform="translate(11.66,82.61)" id="img-cc88a6c2-171">
      <g class="primitive">
        <text text-anchor="end" dy="0.35em">0.00</text>
      </g>
    </g>
    <g transform="translate(11.66,59.28)" id="img-cc88a6c2-172">
      <g class="primitive">
        <text text-anchor="end" dy="0.35em">0.01</text>
      </g>
    </g>
    <g transform="translate(11.66,35.95)" id="img-cc88a6c2-173">
      <g class="primitive">
        <text text-anchor="end" dy="0.35em">0.02</text>
      </g>
    </g>
    <g transform="translate(11.66,12.62)" id="img-cc88a6c2-174">
      <g class="primitive">
        <text text-anchor="end" dy="0.35em">0.03</text>
      </g>
    </g>
  </g>
  <g font-size="3.88" font-family="'PT Sans','Helvetica Neue','Helvetica',sans-serif" fill="#564A55" stroke="#000000" stroke-opacity="0.000" id="img-cc88a6c2-175">
    <g transform="translate(54.63,5)" id="img-cc88a6c2-176">
      <g class="primitive">
        <text text-anchor="middle" dy="0.6em">Negative Binomial(.25, 20)</text>
      </g>
    </g>
  </g>
</g>
<defs>
  <clipPath id="img-cc88a6c2-4">
    <path d="M12.66,10.62 L96.6,10.62 96.6,84.61 12.66,84.61 " />
  </clipPath>
</defs>
</svg>
