<?xml version="1.0" encoding="UTF-8"?>
<svg xmlns="http://www.w3.org/2000/svg"
     xmlns:xlink="http://www.w3.org/1999/xlink"
     xmlns:gadfly="http://www.gadflyjl.org/ns"
     version="1.2"
     width="127mm" height="127mm" viewBox="0 0 127 127"
     stroke="none"
     fill="#000000"
     stroke-width="0.3"
     font-size="3.88"
>
<defs>
  <marker id="arrow" markerWidth="15" markerHeight="7" refX="5" refY="3.5" orient="auto" markerUnits="strokeWidth">
    <path d="M0,0 L15,3.5 L0,7 z" stroke="context-stroke" fill="context-stroke"/>
  </marker>
</defs>
<g class="plotroot xscalable yscalable" id="img-aa334f00-1">
  <g font-size="3.88" font-family="'PT Sans','Helvetica Neue','Helvetica',sans-serif" fill="#564A55" stroke="#000000" stroke-opacity="0.000" id="img-aa334f00-2">
    <g transform="translate(67.33,117.06)">
      <g class="primitive">
        <text text-anchor="middle" dy="0.6em">x</text>
      </g>
    </g>
  </g>
  <g class="guide xlabels" font-size="2.82" font-family="'PT Sans Caption','Helvetica Neue','Helvetica',sans-serif" fill="#6C606B" id="img-aa334f00-3">
    <g transform="translate(14.66,111.01)">
      <g class="primitive">
        <text text-anchor="middle" dy="0.6em">0</text>
      </g>
    </g>
    <g transform="translate(48.64,111.01)">
      <g class="primitive">
        <text text-anchor="middle" dy="0.6em">100</text>
      </g>
    </g>
    <g transform="translate(82.62,111.01)">
      <g class="primitive">
        <text text-anchor="middle" dy="0.6em">200</text>
      </g>
    </g>
    <g transform="translate(116.6,111.01)">
      <g class="primitive">
        <text text-anchor="middle" dy="0.6em">300</text>
      </g>
    </g>
  </g>
  <g clip-path="url(#img-aa334f00-4)">
    <g id="img-aa334f00-5">
      <g pointer-events="visible" stroke-width="0.3" fill="#000000" fill-opacity="0.000" stroke="#000000" stroke-opacity="0.000" class="guide background" id="img-aa334f00-6">
        <g transform="translate(67.33,60.31)" id="img-aa334f00-7">
          <path d="M-54.67,-49.7 L54.67,-49.7 54.67,49.7 -54.67,49.7  z" class="primitive"/>
        </g>
      </g>
      <g class="guide ygridlines xfixed" stroke-dasharray="0.5,0.5" stroke-width="0.2" stroke="#D0D0E0" id="img-aa334f00-8">
        <g transform="translate(67.33,108.01)" id="img-aa334f00-9">
          <path fill="none" d="M-54.67,0 L54.67,0 " class="primitive"/>
        </g>
        <g transform="translate(67.33,76.21)" id="img-aa334f00-10">
          <path fill="none" d="M-54.67,0 L54.67,0 " class="primitive"/>
        </g>
        <g transform="translate(67.33,44.41)" id="img-aa334f00-11">
          <path fill="none" d="M-54.67,0 L54.67,0 " class="primitive"/>
        </g>
        <g transform="translate(67.33,12.62)" id="img-aa334f00-12">
          <path fill="none" d="M-54.67,0 L54.67,0 " class="primitive"/>
        </g>
      </g>
      <g class="guide xgridlines yfixed" stroke-dasharray="0.5,0.5" stroke-width="0.2" stroke="#D0D0E0" id="img-aa334f00-13">
        <g transform="translate(14.66,60.31)" id="img-aa334f00-14">
          <path fill="none" d="M0,-49.7 L0,49.7 " class="primitive"/>
        </g>
        <g transform="translate(48.64,60.31)" id="img-aa334f00-15">
          <path fill="none" d="M0,-49.7 L0,49.7 " class="primitive"/>
        </g>
        <g transform="translate(82.62,60.31)" id="img-aa334f00-16">
          <path fill="none" d="M0,-49.7 L0,49.7 " class="primitive"/>
        </g>
        <g transform="translate(116.6,60.31)" id="img-aa334f00-17">
          <path fill="none" d="M0,-49.7 L0,49.7 " class="primitive"/>
        </g>
      </g>
      <g class="plotpanel" id="img-aa334f00-18">
        <metadata>
          <boundingbox value="12.664081488715283mm 10.616661241319449mm 109.33591851128473mm 99.39391818576388mm"/>
          <unitbox value="-5.88593149195902 0.030628970914929398 321.771862983918 -0.0312579418298588"/>
        </metadata>
        <g shape-rendering="crispEdges" stroke-width="0.3" id="img-aa334f00-19">
          <g class="geometry" fill-opacity="1" stroke="#000000" stroke-opacity="0.000" fill="#00BFFF" id="img-aa334f00-20">
            <g transform="translate(18.4,108.01)" id="img-aa334f00-21">
              <path d="M-0.36,-0 L0.36,-0 0.36,0 -0.36,0  z" class="primitive"/>
            </g>
            <g transform="translate(19.08,108)" id="img-aa334f00-22">
              <path d="M-0.36,-0.01 L0.36,-0.01 0.36,0.01 -0.36,0.01  z" class="primitive"/>
            </g>
            <g transform="translate(19.76,107.99)" id="img-aa334f00-23">
              <path d="M-0.36,-0.02 L0.36,-0.02 0.36,0.02 -0.36,0.02  z" class="primitive"/>
            </g>
            <g transform="translate(20.44,107.93)" id="img-aa334f00-24">
              <path d="M-0.36,-0.08 L0.36,-0.08 0.36,0.08 -0.36,0.08  z" class="primitive"/>
            </g>
            <g transform="translate(21.12,107.84)" id="img-aa334f00-25">
              <path d="M-0.36,-0.17 L0.36,-0.17 0.36,0.17 -0.36,0.17  z" class="primitive"/>
            </g>
            <g transform="translate(21.8,107.6)" id="img-aa334f00-26">
              <path d="M-0.36,-0.41 L0.36,-0.41 0.36,0.41 -0.36,0.41  z" class="primitive"/>
            </g>
            <g transform="translate(22.48,107.3)" id="img-aa334f00-27">
              <path d="M-0.36,-0.71 L0.36,-0.71 0.36,0.71 -0.36,0.71  z" class="primitive"/>
            </g>
            <g transform="translate(23.16,106.65)" id="img-aa334f00-28">
              <path d="M-0.36,-1.36 L0.36,-1.36 0.36,1.36 -0.36,1.36  z" class="primitive"/>
            </g>
            <g transform="translate(23.84,105.72)" id="img-aa334f00-29">
              <path d="M-0.36,-2.29 L0.36,-2.29 0.36,2.29 -0.36,2.29  z" class="primitive"/>
            </g>
            <g transform="translate(24.52,104.42)" id="img-aa334f00-30">
              <path d="M-0.36,-3.59 L0.36,-3.59 0.36,3.59 -0.36,3.59  z" class="primitive"/>
            </g>
            <g transform="translate(25.2,102.63)" id="img-aa334f00-31">
              <path d="M-0.36,-5.38 L0.36,-5.38 0.36,5.38 -0.36,5.38  z" class="primitive"/>
            </g>
            <g transform="translate(25.88,100.22)" id="img-aa334f00-32">
              <path d="M-0.36,-7.79 L0.36,-7.79 0.36,7.79 -0.36,7.79  z" class="primitive"/>
            </g>
            <g transform="translate(26.56,97.5)" id="img-aa334f00-33">
              <path d="M-0.36,-10.51 L0.36,-10.51 0.36,10.51 -0.36,10.51  z" class="primitive"/>
            </g>
            <g transform="translate(27.24,94.37)" id="img-aa334f00-34">
              <path d="M-0.36,-13.64 L0.36,-13.64 0.36,13.64 -0.36,13.64  z" class="primitive"/>
            </g>
            <g transform="translate(27.92,90.5)" id="img-aa334f00-35">
              <path d="M-0.36,-17.51 L0.36,-17.51 0.36,17.51 -0.36,17.51  z" class="primitive"/>
            </g>
            <g transform="translate(28.6,86.68)" id="img-aa334f00-36">
              <path d="M-0.36,-21.33 L0.36,-21.33 0.36,21.33 -0.36,21.33  z" class="primitive"/>
            </g>
            <g transform="translate(29.28,82.89)" id="img-aa334f00-37">
              <path d="M-0.36,-25.12 L0.36,-25.12 0.36,25.12 -0.36,25.12  z" class="primitive"/>
            </g>
            <g transform="translate(29.95,78.85)" id="img-aa334f00-38">
              <path d="M-0.36,-29.16 L0.36,-29.16 0.36,29.16 -0.36,29.16  z" class="primitive"/>
            </g>
            <g transform="translate(30.63,75.24)" id="img-aa334f00-39">
              <path d="M-0.36,-32.77 L0.36,-32.77 0.36,32.77 -0.36,32.77  z" class="primitive"/>
            </g>
            <g transform="translate(31.31,72.09)" id="img-aa334f00-40">
              <path d="M-0.36,-35.92 L0.36,-35.92 0.36,35.92 -0.36,35.92  z" class="primitive"/>
            </g>
            <g transform="translate(31.99,69.51)" id="img-aa334f00-41">
              <path d="M-0.36,-38.5 L0.36,-38.5 0.36,38.5 -0.36,38.5  z" class="primitive"/>
            </g>
            <g transform="translate(32.67,67.59)" id="img-aa334f00-42">
              <path d="M-0.36,-40.42 L0.36,-40.42 0.36,40.42 -0.36,40.42  z" class="primitive"/>
            </g>
            <g transform="translate(33.35,66.54)" id="img-aa334f00-43">
              <path d="M-0.36,-41.47 L0.36,-41.47 0.36,41.47 -0.36,41.47  z" class="primitive"/>
            </g>
            <g transform="translate(34.03,66.21)" id="img-aa334f00-44">
              <path d="M-0.36,-41.8 L0.36,-41.8 0.36,41.8 -0.36,41.8  z" class="primitive"/>
            </g>
            <g transform="translate(34.71,66.25)" id="img-aa334f00-45">
              <path d="M-0.36,-41.76 L0.36,-41.76 0.36,41.76 -0.36,41.76  z" class="primitive"/>
            </g>
            <g transform="translate(35.39,67.93)" id="img-aa334f00-46">
              <path d="M-0.36,-40.08 L0.36,-40.08 0.36,40.08 -0.36,40.08  z" class="primitive"/>
            </g>
            <g transform="translate(36.07,69.26)" id="img-aa334f00-47">
              <path d="M-0.36,-38.75 L0.36,-38.75 0.36,38.75 -0.36,38.75  z" class="primitive"/>
            </g>
            <g transform="translate(36.75,71.64)" id="img-aa334f00-48">
              <path d="M-0.36,-36.37 L0.36,-36.37 0.36,36.37 -0.36,36.37  z" class="primitive"/>
            </g>
            <g transform="translate(37.43,74.02)" id="img-aa334f00-49">
              <path d="M-0.36,-33.99 L0.36,-33.99 0.36,33.99 -0.36,33.99  z" class="primitive"/>
            </g>
            <g transform="translate(38.11,76.22)" id="img-aa334f00-50">
              <path d="M-0.36,-31.79 L0.36,-31.79 0.36,31.79 -0.36,31.79  z" class="primitive"/>
            </g>
            <g transform="translate(38.79,79.42)" id="img-aa334f00-51">
              <path d="M-0.36,-28.59 L0.36,-28.59 0.36,28.59 -0.36,28.59  z" class="primitive"/>
            </g>
            <g transform="translate(39.47,82.13)" id="img-aa334f00-52">
              <path d="M-0.36,-25.88 L0.36,-25.88 0.36,25.88 -0.36,25.88  z" class="primitive"/>
            </g>
            <g transform="translate(40.15,84.88)" id="img-aa334f00-53">
              <path d="M-0.36,-23.13 L0.36,-23.13 0.36,23.13 -0.36,23.13  z" class="primitive"/>
            </g>
            <g transform="translate(40.83,87.74)" id="img-aa334f00-54">
              <path d="M-0.36,-20.27 L0.36,-20.27 0.36,20.27 -0.36,20.27  z" class="primitive"/>
            </g>
            <g transform="translate(41.51,90.59)" id="img-aa334f00-55">
              <path d="M-0.36,-17.42 L0.36,-17.42 0.36,17.42 -0.36,17.42  z" class="primitive"/>
            </g>
            <g transform="translate(42.19,92.85)" id="img-aa334f00-56">
              <path d="M-0.36,-15.17 L0.36,-15.17 0.36,15.17 -0.36,15.17  z" class="primitive"/>
            </g>
            <g transform="translate(42.87,95.05)" id="img-aa334f00-57">
              <path d="M-0.36,-12.96 L0.36,-12.96 0.36,12.96 -0.36,12.96  z" class="primitive"/>
            </g>
            <g transform="translate(43.55,97.17)" id="img-aa334f00-58">
              <path d="M-0.36,-10.84 L0.36,-10.84 0.36,10.84 -0.36,10.84  z" class="primitive"/>
            </g>
            <g transform="translate(44.23,98.89)" id="img-aa334f00-59">
              <path d="M-0.36,-9.12 L0.36,-9.12 0.36,9.12 -0.36,9.12  z" class="primitive"/>
            </g>
            <g transform="translate(44.91,100.48)" id="img-aa334f00-60">
              <path d="M-0.36,-7.53 L0.36,-7.53 0.36,7.53 -0.36,7.53  z" class="primitive"/>
            </g>
            <g transform="translate(45.59,101.77)" id="img-aa334f00-61">
              <path d="M-0.36,-6.24 L0.36,-6.24 0.36,6.24 -0.36,6.24  z" class="primitive"/>
            </g>
            <g transform="translate(46.26,102.88)" id="img-aa334f00-62">
              <path d="M-0.36,-5.13 L0.36,-5.13 0.36,5.13 -0.36,5.13  z" class="primitive"/>
            </g>
            <g transform="translate(46.94,103.78)" id="img-aa334f00-63">
              <path d="M-0.36,-4.23 L0.36,-4.23 0.36,4.23 -0.36,4.23  z" class="primitive"/>
            </g>
            <g transform="translate(47.62,104.71)" id="img-aa334f00-64">
              <path d="M-0.36,-3.3 L0.36,-3.3 0.36,3.3 -0.36,3.3  z" class="primitive"/>
            </g>
            <g transform="translate(48.3,105.26)" id="img-aa334f00-65">
              <path d="M-0.36,-2.75 L0.36,-2.75 0.36,2.75 -0.36,2.75  z" class="primitive"/>
            </g>
            <g transform="translate(48.98,105.82)" id="img-aa334f00-66">
              <path d="M-0.36,-2.19 L0.36,-2.19 0.36,2.19 -0.36,2.19  z" class="primitive"/>
            </g>
            <g transform="translate(49.66,106.29)" id="img-aa334f00-67">
              <path d="M-0.36,-1.72 L0.36,-1.72 0.36,1.72 -0.36,1.72  z" class="primitive"/>
            </g>
            <g transform="translate(50.34,106.71)" id="img-aa334f00-68">
              <path d="M-0.36,-1.3 L0.36,-1.3 0.36,1.3 -0.36,1.3  z" class="primitive"/>
            </g>
            <g transform="translate(51.02,106.98)" id="img-aa334f00-69">
              <path d="M-0.36,-1.03 L0.36,-1.03 0.36,1.03 -0.36,1.03  z" class="primitive"/>
            </g>
            <g transform="translate(51.7,107.21)" id="img-aa334f00-70">
              <path d="M-0.36,-0.81 L0.36,-0.81 0.36,0.81 -0.36,0.81  z" class="primitive"/>
            </g>
            <g transform="translate(52.38,107.38)" id="img-aa334f00-71">
              <path d="M-0.36,-0.63 L0.36,-0.63 0.36,0.63 -0.36,0.63  z" class="primitive"/>
            </g>
            <g transform="translate(53.06,107.51)" id="img-aa334f00-72">
              <path d="M-0.36,-0.5 L0.36,-0.5 0.36,0.5 -0.36,0.5  z" class="primitive"/>
            </g>
            <g transform="translate(53.74,107.62)" id="img-aa334f00-73">
              <path d="M-0.36,-0.39 L0.36,-0.39 0.36,0.39 -0.36,0.39  z" class="primitive"/>
            </g>
            <g transform="translate(54.42,107.75)" id="img-aa334f00-74">
              <path d="M-0.36,-0.27 L0.36,-0.27 0.36,0.27 -0.36,0.27  z" class="primitive"/>
            </g>
            <g transform="translate(55.1,107.79)" id="img-aa334f00-75">
              <path d="M-0.36,-0.22 L0.36,-0.22 0.36,0.22 -0.36,0.22  z" class="primitive"/>
            </g>
            <g transform="translate(55.78,107.85)" id="img-aa334f00-76">
              <path d="M-0.36,-0.16 L0.36,-0.16 0.36,0.16 -0.36,0.16  z" class="primitive"/>
            </g>
            <g transform="translate(56.46,107.89)" id="img-aa334f00-77">
              <path d="M-0.36,-0.12 L0.36,-0.12 0.36,0.12 -0.36,0.12  z" class="primitive"/>
            </g>
            <g transform="translate(57.14,107.93)" id="img-aa334f00-78">
              <path d="M-0.36,-0.08 L0.36,-0.08 0.36,0.08 -0.36,0.08  z" class="primitive"/>
            </g>
            <g transform="translate(57.82,107.96)" id="img-aa334f00-79">
              <path d="M-0.36,-0.05 L0.36,-0.05 0.36,0.05 -0.36,0.05  z" class="primitive"/>
            </g>
            <g transform="translate(58.5,107.95)" id="img-aa334f00-80">
              <path d="M-0.36,-0.06 L0.36,-0.06 0.36,0.06 -0.36,0.06  z" class="primitive"/>
            </g>
            <g transform="translate(59.18,107.97)" id="img-aa334f00-81">
              <path d="M-0.36,-0.04 L0.36,-0.04 0.36,0.04 -0.36,0.04  z" class="primitive"/>
            </g>
            <g transform="translate(59.86,107.97)" id="img-aa334f00-82">
              <path d="M-0.36,-0.04 L0.36,-0.04 0.36,0.04 -0.36,0.04  z" class="primitive"/>
            </g>
            <g transform="translate(60.54,107.99)" id="img-aa334f00-83">
              <path d="M-0.36,-0.02 L0.36,-0.02 0.36,0.02 -0.36,0.02  z" class="primitive"/>
            </g>
            <g transform="translate(61.22,107.99)" id="img-aa334f00-84">
              <path d="M-0.36,-0.02 L0.36,-0.02 0.36,0.02 -0.36,0.02  z" class="primitive"/>
            </g>
            <g transform="translate(61.9,108)" id="img-aa334f00-85">
              <path d="M-0.36,-0.01 L0.36,-0.01 0.36,0.01 -0.36,0.01  z" class="primitive"/>
            </g>
            <g transform="translate(62.57,108)" id="img-aa334f00-86">
              <path d="M-0.36,-0.01 L0.36,-0.01 0.36,0.01 -0.36,0.01  z" class="primitive"/>
            </g>
            <g transform="translate(63.25,108.01)" id="img-aa334f00-87">
              <path d="M-0.36,-0 L0.36,-0 0.36,0 -0.36,0  z" class="primitive"/>
            </g>
            <g transform="translate(63.93,108.01)" id="img-aa334f00-88">
              <path d="M-0.36,-0.01 L0.36,-0.01 0.36,0.01 -0.36,0.01  z" class="primitive"/>
            </g>
            <g transform="translate(64.61,108.01)" id="img-aa334f00-89">
              <path d="M-0.36,-0 L0.36,-0 0.36,0 -0.36,0  z" class="primitive"/>
            </g>
            <g transform="translate(65.29,108.01)" id="img-aa334f00-90">
              <path d="M-0.36,-0 L0.36,-0 0.36,0 -0.36,0  z" class="primitive"/>
            </g>
            <g transform="translate(65.97,108.01)" id="img-aa334f00-91">
              <path d="M-0.36,-0 L0.36,-0 0.36,0 -0.36,0  z" class="primitive"/>
            </g>
            <g transform="translate(66.65,108.01)" id="img-aa334f00-92">
              <path d="M-0.36,-0 L0.36,-0 0.36,0 -0.36,0  z" class="primitive"/>
            </g>
            <g transform="translate(67.33,108.01)" id="img-aa334f00-93">
              <path d="M-0.36,-0 L0.36,-0 0.36,0 -0.36,0  z" class="primitive"/>
            </g>
            <g transform="translate(68.01,108.02)" id="img-aa334f00-94">
              <path d="M-0.36,-0 L0.36,-0 0.36,0 -0.36,0  z" class="primitive"/>
            </g>
            <g transform="translate(68.69,108.02)" id="img-aa334f00-95">
              <path d="M-0.36,-0 L0.36,-0 0.36,0 -0.36,0  z" class="primitive"/>
            </g>
            <g transform="translate(69.37,108.01)" id="img-aa334f00-96">
              <path d="M-0.36,-0 L0.36,-0 0.36,0 -0.36,0  z" class="primitive"/>
            </g>
            <g transform="translate(70.05,108.01)" id="img-aa334f00-97">
              <path d="M-0.36,-0 L0.36,-0 0.36,0 -0.36,0  z" class="primitive"/>
            </g>
            <g transform="translate(70.73,108.01)" id="img-aa334f00-98">
              <path d="M-0.36,-0 L0.36,-0 0.36,0 -0.36,0  z" class="primitive"/>
            </g>
            <g transform="translate(71.41,108.02)" id="img-aa334f00-99">
              <path d="M-0.36,-0 L0.36,-0 0.36,0 -0.36,0  z" class="primitive"/>
            </g>
            <g transform="translate(72.09,108.02)" id="img-aa334f00-100">
              <path d="M-0.36,-0 L0.36,-0 0.36,0 -0.36,0  z" class="primitive"/>
            </g>
            <g transform="translate(72.77,108.01)" id="img-aa334f00-101">
              <path d="M-0.36,-0 L0.36,-0 0.36,0 -0.36,0  z" class="primitive"/>
            </g>
            <g transform="translate(73.45,108.02)" id="img-aa334f00-102">
              <path d="M-0.36,-0 L0.36,-0 0.36,0 -0.36,0  z" class="primitive"/>
            </g>
            <g transform="translate(74.13,108.02)" id="img-aa334f00-103">
              <path d="M-0.36,-0 L0.36,-0 0.36,0 -0.36,0  z" class="primitive"/>
            </g>
            <g transform="translate(74.81,108.02)" id="img-aa334f00-104">
              <path d="M-0.36,-0 L0.36,-0 0.36,0 -0.36,0  z" class="primitive"/>
            </g>
            <g transform="translate(75.49,108.02)" id="img-aa334f00-105">
              <path d="M-0.36,-0 L0.36,-0 0.36,0 -0.36,0  z" class="primitive"/>
            </g>
            <g transform="translate(76.17,108.02)" id="img-aa334f00-106">
              <path d="M-0.36,-0 L0.36,-0 0.36,0 -0.36,0  z" class="primitive"/>
            </g>
            <g transform="translate(76.85,108.02)" id="img-aa334f00-107">
              <path d="M-0.36,-0 L0.36,-0 0.36,0 -0.36,0  z" class="primitive"/>
            </g>
            <g transform="translate(77.53,108.02)" id="img-aa334f00-108">
              <path d="M-0.36,-0 L0.36,-0 0.36,0 -0.36,0  z" class="primitive"/>
            </g>
            <g transform="translate(78.21,108.02)" id="img-aa334f00-109">
              <path d="M-0.36,-0 L0.36,-0 0.36,0 -0.36,0  z" class="primitive"/>
            </g>
            <g transform="translate(78.89,108.02)" id="img-aa334f00-110">
              <path d="M-0.36,-0 L0.36,-0 0.36,0 -0.36,0  z" class="primitive"/>
            </g>
            <g transform="translate(79.56,108.02)" id="img-aa334f00-111">
              <path d="M-0.36,-0 L0.36,-0 0.36,0 -0.36,0  z" class="primitive"/>
            </g>
            <g transform="translate(80.24,108.02)" id="img-aa334f00-112">
              <path d="M-0.36,-0 L0.36,-0 0.36,0 -0.36,0  z" class="primitive"/>
            </g>
            <g transform="translate(80.92,108.02)" id="img-aa334f00-113">
              <path d="M-0.36,-0 L0.36,-0 0.36,0 -0.36,0  z" class="primitive"/>
            </g>
            <g transform="translate(81.6,108.02)" id="img-aa334f00-114">
              <path d="M-0.36,-0 L0.36,-0 0.36,0 -0.36,0  z" class="primitive"/>
            </g>
            <g transform="translate(82.28,108.02)" id="img-aa334f00-115">
              <path d="M-0.36,-0 L0.36,-0 0.36,0 -0.36,0  z" class="primitive"/>
            </g>
            <g transform="translate(82.96,108.02)" id="img-aa334f00-116">
              <path d="M-0.36,-0 L0.36,-0 0.36,0 -0.36,0  z" class="primitive"/>
            </g>
            <g transform="translate(83.64,108.02)" id="img-aa334f00-117">
              <path d="M-0.36,-0 L0.36,-0 0.36,0 -0.36,0  z" class="primitive"/>
            </g>
            <g transform="translate(84.32,108.02)" id="img-aa334f00-118">
              <path d="M-0.36,-0 L0.36,-0 0.36,0 -0.36,0  z" class="primitive"/>
            </g>
            <g transform="translate(85,108.02)" id="img-aa334f00-119">
              <path d="M-0.36,-0 L0.36,-0 0.36,0 -0.36,0  z" class="primitive"/>
            </g>
            <g transform="translate(85.68,108.02)" id="img-aa334f00-120">
              <path d="M-0.36,-0 L0.36,-0 0.36,0 -0.36,0  z" class="primitive"/>
            </g>
            <g transform="translate(86.36,108.02)" id="img-aa334f00-121">
              <path d="M-0.36,-0 L0.36,-0 0.36,0 -0.36,0  z" class="primitive"/>
            </g>
            <g transform="translate(87.04,108.02)" id="img-aa334f00-122">
              <path d="M-0.36,-0 L0.36,-0 0.36,0 -0.36,0  z" class="primitive"/>
            </g>
            <g transform="translate(87.72,108.02)" id="img-aa334f00-123">
              <path d="M-0.36,-0 L0.36,-0 0.36,0 -0.36,0  z" class="primitive"/>
            </g>
            <g transform="translate(88.4,108.02)" id="img-aa334f00-124">
              <path d="M-0.36,-0 L0.36,-0 0.36,0 -0.36,0  z" class="primitive"/>
            </g>
            <g transform="translate(89.08,108.02)" id="img-aa334f00-125">
              <path d="M-0.36,-0 L0.36,-0 0.36,0 -0.36,0  z" class="primitive"/>
            </g>
            <g transform="translate(89.76,108.02)" id="img-aa334f00-126">
              <path d="M-0.36,-0 L0.36,-0 0.36,0 -0.36,0  z" class="primitive"/>
            </g>
            <g transform="translate(90.44,108.02)" id="img-aa334f00-127">
              <path d="M-0.36,-0 L0.36,-0 0.36,0 -0.36,0  z" class="primitive"/>
            </g>
            <g transform="translate(91.12,108.02)" id="img-aa334f00-128">
              <path d="M-0.36,-0 L0.36,-0 0.36,0 -0.36,0  z" class="primitive"/>
            </g>
            <g transform="translate(91.8,108.02)" id="img-aa334f00-129">
              <path d="M-0.36,-0 L0.36,-0 0.36,0 -0.36,0  z" class="primitive"/>
            </g>
            <g transform="translate(92.48,108.02)" id="img-aa334f00-130">
              <path d="M-0.36,-0 L0.36,-0 0.36,0 -0.36,0  z" class="primitive"/>
            </g>
            <g transform="translate(93.16,108.02)" id="img-aa334f00-131">
              <path d="M-0.36,-0 L0.36,-0 0.36,0 -0.36,0  z" class="primitive"/>
            </g>
            <g transform="translate(93.84,108.02)" id="img-aa334f00-132">
              <path d="M-0.36,-0 L0.36,-0 0.36,0 -0.36,0  z" class="primitive"/>
            </g>
            <g transform="translate(94.52,108.02)" id="img-aa334f00-133">
              <path d="M-0.36,-0 L0.36,-0 0.36,0 -0.36,0  z" class="primitive"/>
            </g>
            <g transform="translate(95.2,108.02)" id="img-aa334f00-134">
              <path d="M-0.36,-0 L0.36,-0 0.36,0 -0.36,0  z" class="primitive"/>
            </g>
            <g transform="translate(95.87,108.02)" id="img-aa334f00-135">
              <path d="M-0.36,-0 L0.36,-0 0.36,0 -0.36,0  z" class="primitive"/>
            </g>
            <g transform="translate(96.55,108.02)" id="img-aa334f00-136">
              <path d="M-0.36,-0 L0.36,-0 0.36,0 -0.36,0  z" class="primitive"/>
            </g>
            <g transform="translate(97.23,108.02)" id="img-aa334f00-137">
              <path d="M-0.36,-0 L0.36,-0 0.36,0 -0.36,0  z" class="primitive"/>
            </g>
            <g transform="translate(97.91,108.02)" id="img-aa334f00-138">
              <path d="M-0.36,-0 L0.36,-0 0.36,0 -0.36,0  z" class="primitive"/>
            </g>
            <g transform="translate(98.59,108.02)" id="img-aa334f00-139">
              <path d="M-0.36,-0 L0.36,-0 0.36,0 -0.36,0  z" class="primitive"/>
            </g>
            <g transform="translate(99.27,108.02)" id="img-aa334f00-140">
              <path d="M-0.36,-0 L0.36,-0 0.36,0 -0.36,0  z" class="primitive"/>
            </g>
            <g transform="translate(99.95,108.02)" id="img-aa334f00-141">
              <path d="M-0.36,-0 L0.36,-0 0.36,0 -0.36,0  z" class="primitive"/>
            </g>
            <g transform="translate(100.63,108.02)" id="img-aa334f00-142">
              <path d="M-0.36,-0 L0.36,-0 0.36,0 -0.36,0  z" class="primitive"/>
            </g>
            <g transform="translate(101.31,108.02)" id="img-aa334f00-143">
              <path d="M-0.36,-0 L0.36,-0 0.36,0 -0.36,0  z" class="primitive"/>
            </g>
            <g transform="translate(101.99,108.02)" id="img-aa334f00-144">
              <path d="M-0.36,-0 L0.36,-0 0.36,0 -0.36,0  z" class="primitive"/>
            </g>
            <g transform="translate(102.67,108.02)" id="img-aa334f00-145">
              <path d="M-0.36,-0 L0.36,-0 0.36,0 -0.36,0  z" class="primitive"/>
            </g>
            <g transform="translate(103.35,108.02)" id="img-aa334f00-146">
              <path d="M-0.36,-0 L0.36,-0 0.36,0 -0.36,0  z" class="primitive"/>
            </g>
            <g transform="translate(104.03,108.02)" id="img-aa334f00-147">
              <path d="M-0.36,-0 L0.36,-0 0.36,0 -0.36,0  z" class="primitive"/>
            </g>
            <g transform="translate(104.71,108.02)" id="img-aa334f00-148">
              <path d="M-0.36,-0 L0.36,-0 0.36,0 -0.36,0  z" class="primitive"/>
            </g>
            <g transform="translate(105.39,108.02)" id="img-aa334f00-149">
              <path d="M-0.36,-0 L0.36,-0 0.36,0 -0.36,0  z" class="primitive"/>
            </g>
            <g transform="translate(106.07,108.02)" id="img-aa334f00-150">
              <path d="M-0.36,-0 L0.36,-0 0.36,0 -0.36,0  z" class="primitive"/>
            </g>
            <g transform="translate(106.75,108.02)" id="img-aa334f00-151">
              <path d="M-0.36,-0 L0.36,-0 0.36,0 -0.36,0  z" class="primitive"/>
            </g>
            <g transform="translate(107.43,108.02)" id="img-aa334f00-152">
              <path d="M-0.36,-0 L0.36,-0 0.36,0 -0.36,0  z" class="primitive"/>
            </g>
            <g transform="translate(108.11,108.02)" id="img-aa334f00-153">
              <path d="M-0.36,-0 L0.36,-0 0.36,0 -0.36,0  z" class="primitive"/>
            </g>
            <g transform="translate(108.79,108.02)" id="img-aa334f00-154">
              <path d="M-0.36,-0 L0.36,-0 0.36,0 -0.36,0  z" class="primitive"/>
            </g>
            <g transform="translate(109.47,108.02)" id="img-aa334f00-155">
              <path d="M-0.36,-0 L0.36,-0 0.36,0 -0.36,0  z" class="primitive"/>
            </g>
            <g transform="translate(110.15,108.02)" id="img-aa334f00-156">
              <path d="M-0.36,-0 L0.36,-0 0.36,0 -0.36,0  z" class="primitive"/>
            </g>
            <g transform="translate(110.83,108.02)" id="img-aa334f00-157">
              <path d="M-0.36,-0 L0.36,-0 0.36,0 -0.36,0  z" class="primitive"/>
            </g>
            <g transform="translate(111.51,108.02)" id="img-aa334f00-158">
              <path d="M-0.36,-0 L0.36,-0 0.36,0 -0.36,0  z" class="primitive"/>
            </g>
            <g transform="translate(112.18,108.02)" id="img-aa334f00-159">
              <path d="M-0.36,-0 L0.36,-0 0.36,0 -0.36,0  z" class="primitive"/>
            </g>
            <g transform="translate(112.86,108.02)" id="img-aa334f00-160">
              <path d="M-0.36,-0 L0.36,-0 0.36,0 -0.36,0  z" class="primitive"/>
            </g>
            <g transform="translate(113.54,108.02)" id="img-aa334f00-161">
              <path d="M-0.36,-0 L0.36,-0 0.36,0 -0.36,0  z" class="primitive"/>
            </g>
            <g transform="translate(114.22,108.02)" id="img-aa334f00-162">
              <path d="M-0.36,-0 L0.36,-0 0.36,0 -0.36,0  z" class="primitive"/>
            </g>
            <g transform="translate(114.9,108.02)" id="img-aa334f00-163">
              <path d="M-0.36,-0 L0.36,-0 0.36,0 -0.36,0  z" class="primitive"/>
            </g>
            <g transform="translate(115.58,108.02)" id="img-aa334f00-164">
              <path d="M-0.36,-0 L0.36,-0 0.36,0 -0.36,0  z" class="primitive"/>
            </g>
            <g transform="translate(116.26,108.02)" id="img-aa334f00-165">
              <path d="M-0.36,-0 L0.36,-0 0.36,0 -0.36,0  z" class="primitive"/>
            </g>
            <g transform="translate(116.94,108.02)" id="img-aa334f00-166">
              <path d="M-0.36,-0 L0.36,-0 0.36,0 -0.36,0  z" class="primitive"/>
            </g>
            <g transform="translate(117.62,108.02)" id="img-aa334f00-167">
              <path d="M-0.36,-0 L0.36,-0 0.36,0 -0.36,0  z" class="primitive"/>
            </g>
            <g transform="translate(118.3,108.02)" id="img-aa334f00-168">
              <path d="M-0.36,-0 L0.36,-0 0.36,0 -0.36,0  z" class="primitive"/>
            </g>
            <g transform="translate(118.98,108.02)" id="img-aa334f00-169">
              <path d="M-0.36,-0 L0.36,-0 0.36,0 -0.36,0  z" class="primitive"/>
            </g>
            <g transform="translate(119.66,108.02)" id="img-aa334f00-170">
              <path d="M-0.36,-0 L0.36,-0 0.36,0 -0.36,0  z" class="primitive"/>
            </g>
          </g>
        </g>
      </g>
    </g>
  </g>
  <g class="guide ylabels" font-size="2.82" font-family="'PT Sans Caption','Helvetica Neue','Helvetica',sans-serif" fill="#6C606B" id="img-aa334f00-171">
    <g transform="translate(11.66,108.01)" id="img-aa334f00-172">
      <g class="primitive">
        <text text-anchor="end" dy="0.35em">0.00</text>
      </g>
    </g>
    <g transform="translate(11.66,76.21)" id="img-aa334f00-173">
      <g class="primitive">
        <text text-anchor="end" dy="0.35em">0.01</text>
      </g>
    </g>
    <g transform="translate(11.66,44.41)" id="img-aa334f00-174">
      <g class="primitive">
        <text text-anchor="end" dy="0.35em">0.02</text>
      </g>
    </g>
    <g transform="translate(11.66,12.62)" id="img-aa334f00-175">
      <g class="primitive">
        <text text-anchor="end" dy="0.35em">0.03</text>
      </g>
    </g>
  </g>
  <g font-size="3.88" font-family="'PT Sans','Helvetica Neue','Helvetica',sans-serif" fill="#564A55" stroke="#000000" stroke-opacity="0.000" id="img-aa334f00-176">
    <g transform="translate(67.33,5)" id="img-aa334f00-177">
      <g class="primitive">
        <text text-anchor="middle" dy="0.6em">Negative Binomial(.25, 20)</text>
      </g>
    </g>
  </g>
</g>
<defs>
  <clipPath id="img-aa334f00-4">
    <path d="M12.66,10.62 L122,10.62 122,110.01 12.66,110.01 " />
  </clipPath>
</defs>
</svg>
