<?xml version="1.0" encoding="UTF-8"?>
<svg xmlns="http://www.w3.org/2000/svg"
     xmlns:xlink="http://www.w3.org/1999/xlink"
     xmlns:gadfly="http://www.gadflyjl.org/ns"
     version="1.2"
     width="101.6mm" height="101.6mm" viewBox="0 0 101.6 101.6"
     stroke="none"
     fill="#000000"
     stroke-width="0.3"
     font-size="3.88"
>
<defs>
  <marker id="arrow" markerWidth="15" markerHeight="7" refX="5" refY="3.5" orient="auto" markerUnits="strokeWidth">
    <path d="M0,0 L15,3.5 L0,7 z" stroke="context-stroke" fill="context-stroke"/>
  </marker>
</defs>
<g class="plotroot xscalable yscalable" id="img-2a0eecde-1">
  <g font-size="3.88" font-family="'PT Sans','Helvetica Neue','Helvetica',sans-serif" fill="#564A55" stroke="#000000" stroke-opacity="0.000" id="img-2a0eecde-2">
    <g transform="translate(54.63,91.66)">
      <g class="primitive">
        <text text-anchor="middle" dy="0.6em">x</text>
      </g>
    </g>
  </g>
  <g class="guide xlabels" font-size="2.82" font-family="'PT Sans Caption','Helvetica Neue','Helvetica',sans-serif" fill="#6C606B" id="img-2a0eecde-3">
    <g transform="translate(14.66,85.61)">
      <g class="primitive">
        <text text-anchor="middle" dy="0.6em">0</text>
      </g>
    </g>
    <g transform="translate(42.23,85.61)">
      <g class="primitive">
        <text text-anchor="middle" dy="0.6em">10</text>
      </g>
    </g>
    <g transform="translate(69.79,85.61)">
      <g class="primitive">
        <text text-anchor="middle" dy="0.6em">20</text>
      </g>
    </g>
  </g>
  <g clip-path="url(#img-2a0eecde-4)">
    <g id="img-2a0eecde-5">
      <g pointer-events="visible" stroke-width="0.3" fill="#000000" fill-opacity="0.000" stroke="#000000" stroke-opacity="0.000" class="guide background" id="img-2a0eecde-6">
        <g transform="translate(54.63,47.61)" id="img-2a0eecde-7">
          <path d="M-41.97,-37 L41.97,-37 41.97,37 -41.97,37  z" class="primitive"/>
        </g>
      </g>
      <g class="guide ygridlines xfixed" stroke-dasharray="0.5,0.5" stroke-width="0.2" stroke="#D0D0E0" id="img-2a0eecde-8">
        <g transform="translate(54.63,82.61)" id="img-2a0eecde-9">
          <path fill="none" d="M-41.97,0 L41.97,0 " class="primitive"/>
        </g>
        <g transform="translate(54.63,59.28)" id="img-2a0eecde-10">
          <path fill="none" d="M-41.97,0 L41.97,0 " class="primitive"/>
        </g>
        <g transform="translate(54.63,35.95)" id="img-2a0eecde-11">
          <path fill="none" d="M-41.97,0 L41.97,0 " class="primitive"/>
        </g>
        <g transform="translate(54.63,12.62)" id="img-2a0eecde-12">
          <path fill="none" d="M-41.97,0 L41.97,0 " class="primitive"/>
        </g>
      </g>
      <g class="guide xgridlines yfixed" stroke-dasharray="0.5,0.5" stroke-width="0.2" stroke="#D0D0E0" id="img-2a0eecde-13">
        <g transform="translate(14.66,47.61)" id="img-2a0eecde-14">
          <path fill="none" d="M0,-37 L0,37 " class="primitive"/>
        </g>
        <g transform="translate(42.23,47.61)" id="img-2a0eecde-15">
          <path fill="none" d="M0,-37 L0,37 " class="primitive"/>
        </g>
        <g transform="translate(69.79,47.61)" id="img-2a0eecde-16">
          <path fill="none" d="M0,-37 L0,37 " class="primitive"/>
        </g>
      </g>
      <g class="plotpanel" id="img-2a0eecde-17">
        <metadata>
          <boundingbox value="12.664081488715283mm 10.616661241319449mm 83.93591851128471mm 73.99426269531249mm"/>
          <unitbox value="-0.7255812040467393 0.15428606557805905 30.451162408093477 -0.1585721311561181"/>
        </metadata>
        <g shape-rendering="crispEdges" stroke-width="0.3" id="img-2a0eecde-18">
          <g class="geometry" fill-opacity="1" stroke="#000000" stroke-opacity="0.000" fill="#00BFFF" id="img-2a0eecde-19">
            <g transform="translate(16.04,82.6)" id="img-2a0eecde-20">
              <path d="M-1.4,-0.01 L1.4,-0.01 1.4,0.01 -1.4,0.01  z" class="primitive"/>
            </g>
            <g transform="translate(18.8,82.5)" id="img-2a0eecde-21">
              <path d="M-1.4,-0.11 L1.4,-0.11 1.4,0.11 -1.4,0.11  z" class="primitive"/>
            </g>
            <g transform="translate(21.56,82.07)" id="img-2a0eecde-22">
              <path d="M-1.4,-0.55 L1.4,-0.55 1.4,0.55 -1.4,0.55  z" class="primitive"/>
            </g>
            <g transform="translate(24.31,80.88)" id="img-2a0eecde-23">
              <path d="M-1.4,-1.73 L1.4,-1.73 1.4,1.73 -1.4,1.73  z" class="primitive"/>
            </g>
            <g transform="translate(27.07,78.24)" id="img-2a0eecde-24">
              <path d="M-1.4,-4.37 L1.4,-4.37 1.4,4.37 -1.4,4.37  z" class="primitive"/>
            </g>
            <g transform="translate(29.82,73.73)" id="img-2a0eecde-25">
              <path d="M-1.4,-8.88 L1.4,-8.88 1.4,8.88 -1.4,8.88  z" class="primitive"/>
            </g>
            <g transform="translate(32.58,67.87)" id="img-2a0eecde-26">
              <path d="M-1.4,-14.74 L1.4,-14.74 1.4,14.74 -1.4,14.74  z" class="primitive"/>
            </g>
            <g transform="translate(35.34,61.54)" id="img-2a0eecde-27">
              <path d="M-1.4,-21.07 L1.4,-21.07 1.4,21.07 -1.4,21.07  z" class="primitive"/>
            </g>
            <g transform="translate(38.09,56.44)" id="img-2a0eecde-28">
              <path d="M-1.4,-26.17 L1.4,-26.17 1.4,26.17 -1.4,26.17  z" class="primitive"/>
            </g>
            <g transform="translate(40.85,53.29)" id="img-2a0eecde-29">
              <path d="M-1.4,-29.32 L1.4,-29.32 1.4,29.32 -1.4,29.32  z" class="primitive"/>
            </g>
            <g transform="translate(43.61,53.47)" id="img-2a0eecde-30">
              <path d="M-1.4,-29.14 L1.4,-29.14 1.4,29.14 -1.4,29.14  z" class="primitive"/>
            </g>
            <g transform="translate(46.36,56.16)" id="img-2a0eecde-31">
              <path d="M-1.4,-26.45 L1.4,-26.45 1.4,26.45 -1.4,26.45  z" class="primitive"/>
            </g>
            <g transform="translate(49.12,60.52)" id="img-2a0eecde-32">
              <path d="M-1.4,-22.09 L1.4,-22.09 1.4,22.09 -1.4,22.09  z" class="primitive"/>
            </g>
            <g transform="translate(51.88,65.57)" id="img-2a0eecde-33">
              <path d="M-1.4,-17.04 L1.4,-17.04 1.4,17.04 -1.4,17.04  z" class="primitive"/>
            </g>
            <g transform="translate(54.63,70.51)" id="img-2a0eecde-34">
              <path d="M-1.4,-12.1 L1.4,-12.1 1.4,12.1 -1.4,12.1  z" class="primitive"/>
            </g>
            <g transform="translate(57.39,74.45)" id="img-2a0eecde-35">
              <path d="M-1.4,-8.16 L1.4,-8.16 1.4,8.16 -1.4,8.16  z" class="primitive"/>
            </g>
            <g transform="translate(60.14,77.55)" id="img-2a0eecde-36">
              <path d="M-1.4,-5.06 L1.4,-5.06 1.4,5.06 -1.4,5.06  z" class="primitive"/>
            </g>
            <g transform="translate(62.9,79.66)" id="img-2a0eecde-37">
              <path d="M-1.4,-2.95 L1.4,-2.95 1.4,2.95 -1.4,2.95  z" class="primitive"/>
            </g>
            <g transform="translate(65.66,80.91)" id="img-2a0eecde-38">
              <path d="M-1.4,-1.7 L1.4,-1.7 1.4,1.7 -1.4,1.7  z" class="primitive"/>
            </g>
            <g transform="translate(68.41,81.74)" id="img-2a0eecde-39">
              <path d="M-1.4,-0.87 L1.4,-0.87 1.4,0.87 -1.4,0.87  z" class="primitive"/>
            </g>
            <g transform="translate(71.17,82.17)" id="img-2a0eecde-40">
              <path d="M-1.4,-0.44 L1.4,-0.44 1.4,0.44 -1.4,0.44  z" class="primitive"/>
            </g>
            <g transform="translate(73.93,82.41)" id="img-2a0eecde-41">
              <path d="M-1.4,-0.2 L1.4,-0.2 1.4,0.2 -1.4,0.2  z" class="primitive"/>
            </g>
            <g transform="translate(76.68,82.52)" id="img-2a0eecde-42">
              <path d="M-1.4,-0.09 L1.4,-0.09 1.4,0.09 -1.4,0.09  z" class="primitive"/>
            </g>
            <g transform="translate(79.44,82.57)" id="img-2a0eecde-43">
              <path d="M-1.4,-0.04 L1.4,-0.04 1.4,0.04 -1.4,0.04  z" class="primitive"/>
            </g>
            <g transform="translate(82.2,82.59)" id="img-2a0eecde-44">
              <path d="M-1.4,-0.02 L1.4,-0.02 1.4,0.02 -1.4,0.02  z" class="primitive"/>
            </g>
            <g transform="translate(84.95,82.6)" id="img-2a0eecde-45">
              <path d="M-1.4,-0.01 L1.4,-0.01 1.4,0.01 -1.4,0.01  z" class="primitive"/>
            </g>
            <g transform="translate(87.71,82.61)" id="img-2a0eecde-46">
              <path d="M-1.4,-0 L1.4,-0 1.4,0 -1.4,0  z" class="primitive"/>
            </g>
            <g transform="translate(90.47,82.61)" id="img-2a0eecde-47">
              <path d="M-1.4,-0 L1.4,-0 1.4,0 -1.4,0  z" class="primitive"/>
            </g>
            <g transform="translate(93.22,82.61)" id="img-2a0eecde-48">
              <path d="M-1.4,-0 L1.4,-0 1.4,0 -1.4,0  z" class="primitive"/>
            </g>
          </g>
        </g>
      </g>
    </g>
  </g>
  <g class="guide ylabels" font-size="2.82" font-family="'PT Sans Caption','Helvetica Neue','Helvetica',sans-serif" fill="#6C606B" id="img-2a0eecde-49">
    <g transform="translate(11.66,82.61)" id="img-2a0eecde-50">
      <g class="primitive">
        <text text-anchor="end" dy="0.35em">0.00</text>
      </g>
    </g>
    <g transform="translate(11.66,59.28)" id="img-2a0eecde-51">
      <g class="primitive">
        <text text-anchor="end" dy="0.35em">0.05</text>
      </g>
    </g>
    <g transform="translate(11.66,35.95)" id="img-2a0eecde-52">
      <g class="primitive">
        <text text-anchor="end" dy="0.35em">0.10</text>
      </g>
    </g>
    <g transform="translate(11.66,12.62)" id="img-2a0eecde-53">
      <g class="primitive">
        <text text-anchor="end" dy="0.35em">0.15</text>
      </g>
    </g>
  </g>
  <g font-size="3.88" font-family="'PT Sans','Helvetica Neue','Helvetica',sans-serif" fill="#564A55" stroke="#000000" stroke-opacity="0.000" id="img-2a0eecde-54">
    <g transform="translate(54.63,5)" id="img-2a0eecde-55">
      <g class="primitive">
        <text text-anchor="middle" dy="0.6em">Poission(10)</text>
      </g>
    </g>
  </g>
</g>
<defs>
  <clipPath id="img-2a0eecde-4">
    <path d="M12.66,10.62 L96.6,10.62 96.6,84.61 12.66,84.61 " />
  </clipPath>
</defs>
</svg>
