<?xml version="1.0" encoding="UTF-8"?>
<svg xmlns="http://www.w3.org/2000/svg"
     xmlns:xlink="http://www.w3.org/1999/xlink"
     xmlns:gadfly="http://www.gadflyjl.org/ns"
     version="1.2"
     width="127mm" height="127mm" viewBox="0 0 127 127"
     stroke="none"
     fill="#000000"
     stroke-width="0.3"
     font-size="3.88"
>
<defs>
  <marker id="arrow" markerWidth="15" markerHeight="7" refX="5" refY="3.5" orient="auto" markerUnits="strokeWidth">
    <path d="M0,0 L15,3.5 L0,7 z" stroke="context-stroke" fill="context-stroke"/>
  </marker>
</defs>
<g class="plotroot xscalable yscalable" id="img-e8b9219b-1">
  <g font-size="3.88" font-family="'PT Sans','Helvetica Neue','Helvetica',sans-serif" fill="#564A55" stroke="#000000" stroke-opacity="0.000" id="img-e8b9219b-2">
    <g transform="translate(67.33,117.06)">
      <g class="primitive">
        <text text-anchor="middle" dy="0.6em">x</text>
      </g>
    </g>
  </g>
  <g class="guide xlabels" font-size="2.82" font-family="'PT Sans Caption','Helvetica Neue','Helvetica',sans-serif" fill="#6C606B" id="img-e8b9219b-3">
    <g transform="translate(14.66,111.01)">
      <g class="primitive">
        <text text-anchor="middle" dy="0.6em">0</text>
      </g>
    </g>
    <g transform="translate(50.99,111.01)">
      <g class="primitive">
        <text text-anchor="middle" dy="0.6em">10</text>
      </g>
    </g>
    <g transform="translate(87.31,111.01)">
      <g class="primitive">
        <text text-anchor="middle" dy="0.6em">20</text>
      </g>
    </g>
  </g>
  <g clip-path="url(#img-e8b9219b-4)">
    <g id="img-e8b9219b-5">
      <g pointer-events="visible" stroke-width="0.3" fill="#000000" fill-opacity="0.000" stroke="#000000" stroke-opacity="0.000" class="guide background" id="img-e8b9219b-6">
        <g transform="translate(67.33,60.31)" id="img-e8b9219b-7">
          <path d="M-54.67,-49.7 L54.67,-49.7 54.67,49.7 -54.67,49.7  z" class="primitive"/>
        </g>
      </g>
      <g class="guide ygridlines xfixed" stroke-dasharray="0.5,0.5" stroke-width="0.2" stroke="#D0D0E0" id="img-e8b9219b-8">
        <g transform="translate(67.33,108.01)" id="img-e8b9219b-9">
          <path fill="none" d="M-54.67,0 L54.67,0 " class="primitive"/>
        </g>
        <g transform="translate(67.33,76.21)" id="img-e8b9219b-10">
          <path fill="none" d="M-54.67,0 L54.67,0 " class="primitive"/>
        </g>
        <g transform="translate(67.33,44.41)" id="img-e8b9219b-11">
          <path fill="none" d="M-54.67,0 L54.67,0 " class="primitive"/>
        </g>
        <g transform="translate(67.33,12.62)" id="img-e8b9219b-12">
          <path fill="none" d="M-54.67,0 L54.67,0 " class="primitive"/>
        </g>
      </g>
      <g class="guide xgridlines yfixed" stroke-dasharray="0.5,0.5" stroke-width="0.2" stroke="#D0D0E0" id="img-e8b9219b-13">
        <g transform="translate(14.66,60.31)" id="img-e8b9219b-14">
          <path fill="none" d="M0,-49.7 L0,49.7 " class="primitive"/>
        </g>
        <g transform="translate(50.99,60.31)" id="img-e8b9219b-15">
          <path fill="none" d="M0,-49.7 L0,49.7 " class="primitive"/>
        </g>
        <g transform="translate(87.31,60.31)" id="img-e8b9219b-16">
          <path fill="none" d="M0,-49.7 L0,49.7 " class="primitive"/>
        </g>
      </g>
      <g class="plotpanel" id="img-e8b9219b-17">
        <metadata>
          <boundingbox value="12.664081488715283mm 10.616661241319449mm 109.33591851128472mm 99.39426269531249mm"/>
          <unitbox value="-0.5506193976348762 0.1531448432172299 30.10123879526975 -0.15628968643445978"/>
        </metadata>
        <g shape-rendering="crispEdges" stroke-width="0.3" id="img-e8b9219b-18">
          <g class="geometry" fill-opacity="1" stroke="#000000" stroke-opacity="0.000" fill="#00BFFF" id="img-e8b9219b-19">
            <g transform="translate(16.48,108)" id="img-e8b9219b-20">
              <path d="M-1.84,-0.01 L1.84,-0.01 1.84,0.01 -1.84,0.01  z" class="primitive"/>
            </g>
            <g transform="translate(20.11,107.87)" id="img-e8b9219b-21">
              <path d="M-1.84,-0.14 L1.84,-0.14 1.84,0.14 -1.84,0.14  z" class="primitive"/>
            </g>
            <g transform="translate(23.74,107.27)" id="img-e8b9219b-22">
              <path d="M-1.84,-0.74 L1.84,-0.74 1.84,0.74 -1.84,0.74  z" class="primitive"/>
            </g>
            <g transform="translate(27.38,105.59)" id="img-e8b9219b-23">
              <path d="M-1.84,-2.42 L1.84,-2.42 1.84,2.42 -1.84,2.42  z" class="primitive"/>
            </g>
            <g transform="translate(31.01,101.89)" id="img-e8b9219b-24">
              <path d="M-1.84,-6.12 L1.84,-6.12 1.84,6.12 -1.84,6.12  z" class="primitive"/>
            </g>
            <g transform="translate(34.64,96.12)" id="img-e8b9219b-25">
              <path d="M-1.84,-11.89 L1.84,-11.89 1.84,11.89 -1.84,11.89  z" class="primitive"/>
            </g>
            <g transform="translate(38.27,87.86)" id="img-e8b9219b-26">
              <path d="M-1.84,-20.15 L1.84,-20.15 1.84,20.15 -1.84,20.15  z" class="primitive"/>
            </g>
            <g transform="translate(41.91,79.3)" id="img-e8b9219b-27">
              <path d="M-1.84,-28.71 L1.84,-28.71 1.84,28.71 -1.84,28.71  z" class="primitive"/>
            </g>
            <g transform="translate(45.54,72.44)" id="img-e8b9219b-28">
              <path d="M-1.84,-35.58 L1.84,-35.58 1.84,35.58 -1.84,35.58  z" class="primitive"/>
            </g>
            <g transform="translate(49.17,68.15)" id="img-e8b9219b-29">
              <path d="M-1.84,-39.86 L1.84,-39.86 1.84,39.86 -1.84,39.86  z" class="primitive"/>
            </g>
            <g transform="translate(52.8,68.12)" id="img-e8b9219b-30">
              <path d="M-1.84,-39.89 L1.84,-39.89 1.84,39.89 -1.84,39.89  z" class="primitive"/>
            </g>
            <g transform="translate(56.44,71.77)" id="img-e8b9219b-31">
              <path d="M-1.84,-36.24 L1.84,-36.24 1.84,36.24 -1.84,36.24  z" class="primitive"/>
            </g>
            <g transform="translate(60.07,78.03)" id="img-e8b9219b-32">
              <path d="M-1.84,-29.98 L1.84,-29.98 1.84,29.98 -1.84,29.98  z" class="primitive"/>
            </g>
            <g transform="translate(63.7,84.83)" id="img-e8b9219b-33">
              <path d="M-1.84,-23.18 L1.84,-23.18 1.84,23.18 -1.84,23.18  z" class="primitive"/>
            </g>
            <g transform="translate(67.33,91.45)" id="img-e8b9219b-34">
              <path d="M-1.84,-16.56 L1.84,-16.56 1.84,16.56 -1.84,16.56  z" class="primitive"/>
            </g>
            <g transform="translate(70.96,96.96)" id="img-e8b9219b-35">
              <path d="M-1.84,-11.05 L1.84,-11.05 1.84,11.05 -1.84,11.05  z" class="primitive"/>
            </g>
            <g transform="translate(74.6,101.15)" id="img-e8b9219b-36">
              <path d="M-1.84,-6.86 L1.84,-6.86 1.84,6.86 -1.84,6.86  z" class="primitive"/>
            </g>
            <g transform="translate(78.23,103.92)" id="img-e8b9219b-37">
              <path d="M-1.84,-4.09 L1.84,-4.09 1.84,4.09 -1.84,4.09  z" class="primitive"/>
            </g>
            <g transform="translate(81.86,105.81)" id="img-e8b9219b-38">
              <path d="M-1.84,-2.2 L1.84,-2.2 1.84,2.2 -1.84,2.2  z" class="primitive"/>
            </g>
            <g transform="translate(85.49,106.79)" id="img-e8b9219b-39">
              <path d="M-1.84,-1.22 L1.84,-1.22 1.84,1.22 -1.84,1.22  z" class="primitive"/>
            </g>
            <g transform="translate(89.13,107.43)" id="img-e8b9219b-40">
              <path d="M-1.84,-0.58 L1.84,-0.58 1.84,0.58 -1.84,0.58  z" class="primitive"/>
            </g>
            <g transform="translate(92.76,107.75)" id="img-e8b9219b-41">
              <path d="M-1.84,-0.26 L1.84,-0.26 1.84,0.26 -1.84,0.26  z" class="primitive"/>
            </g>
            <g transform="translate(96.39,107.89)" id="img-e8b9219b-42">
              <path d="M-1.84,-0.12 L1.84,-0.12 1.84,0.12 -1.84,0.12  z" class="primitive"/>
            </g>
            <g transform="translate(100.02,107.95)" id="img-e8b9219b-43">
              <path d="M-1.84,-0.06 L1.84,-0.06 1.84,0.06 -1.84,0.06  z" class="primitive"/>
            </g>
            <g transform="translate(103.65,107.98)" id="img-e8b9219b-44">
              <path d="M-1.84,-0.03 L1.84,-0.03 1.84,0.03 -1.84,0.03  z" class="primitive"/>
            </g>
            <g transform="translate(107.29,108)" id="img-e8b9219b-45">
              <path d="M-1.84,-0.01 L1.84,-0.01 1.84,0.01 -1.84,0.01  z" class="primitive"/>
            </g>
            <g transform="translate(110.92,108.01)" id="img-e8b9219b-46">
              <path d="M-1.84,-0 L1.84,-0 1.84,0 -1.84,0  z" class="primitive"/>
            </g>
            <g transform="translate(114.55,108.01)" id="img-e8b9219b-47">
              <path d="M-1.84,-0 L1.84,-0 1.84,0 -1.84,0  z" class="primitive"/>
            </g>
            <g transform="translate(118.18,108.02)" id="img-e8b9219b-48">
              <path d="M-1.84,-0 L1.84,-0 1.84,0 -1.84,0  z" class="primitive"/>
            </g>
          </g>
        </g>
      </g>
    </g>
  </g>
  <g class="guide ylabels" font-size="2.82" font-family="'PT Sans Caption','Helvetica Neue','Helvetica',sans-serif" fill="#6C606B" id="img-e8b9219b-49">
    <g transform="translate(11.66,108.01)" id="img-e8b9219b-50">
      <g class="primitive">
        <text text-anchor="end" dy="0.35em">0.00</text>
      </g>
    </g>
    <g transform="translate(11.66,76.21)" id="img-e8b9219b-51">
      <g class="primitive">
        <text text-anchor="end" dy="0.35em">0.05</text>
      </g>
    </g>
    <g transform="translate(11.66,44.41)" id="img-e8b9219b-52">
      <g class="primitive">
        <text text-anchor="end" dy="0.35em">0.10</text>
      </g>
    </g>
    <g transform="translate(11.66,12.62)" id="img-e8b9219b-53">
      <g class="primitive">
        <text text-anchor="end" dy="0.35em">0.15</text>
      </g>
    </g>
  </g>
  <g font-size="3.88" font-family="'PT Sans','Helvetica Neue','Helvetica',sans-serif" fill="#564A55" stroke="#000000" stroke-opacity="0.000" id="img-e8b9219b-54">
    <g transform="translate(67.33,5)" id="img-e8b9219b-55">
      <g class="primitive">
        <text text-anchor="middle" dy="0.6em">Poission(10)</text>
      </g>
    </g>
  </g>
</g>
<defs>
  <clipPath id="img-e8b9219b-4">
    <path d="M12.66,10.62 L122,10.62 122,110.01 12.66,110.01 " />
  </clipPath>
</defs>
</svg>
