<?xml version="1.0" encoding="UTF-8"?>
<svg xmlns="http://www.w3.org/2000/svg"
     xmlns:xlink="http://www.w3.org/1999/xlink"
     xmlns:gadfly="http://www.gadflyjl.org/ns"
     version="1.2"
     width="101.6mm" height="101.6mm" viewBox="0 0 101.6 101.6"
     stroke="none"
     fill="#000000"
     stroke-width="0.3"
     font-size="3.88"
>
<defs>
  <marker id="arrow" markerWidth="15" markerHeight="7" refX="5" refY="3.5" orient="auto" markerUnits="strokeWidth">
    <path d="M0,0 L15,3.5 L0,7 z" stroke="context-stroke" fill="context-stroke"/>
  </marker>
</defs>
<g class="plotroot xscalable yscalable" id="img-0a82c470-1">
  <g font-size="3.88" font-family="'PT Sans','Helvetica Neue','Helvetica',sans-serif" fill="#564A55" stroke="#000000" stroke-opacity="0.000" id="img-0a82c470-2">
    <g transform="translate(53.79,91.66)">
      <g class="primitive">
        <text text-anchor="middle" dy="0.6em">x</text>
      </g>
    </g>
  </g>
  <g class="guide xlabels" font-size="2.82" font-family="'PT Sans Caption','Helvetica Neue','Helvetica',sans-serif" fill="#6C606B" id="img-0a82c470-3">
    <g transform="translate(12.97,85.61)">
      <g class="primitive">
        <text text-anchor="middle" dy="0.6em">-6</text>
      </g>
    </g>
    <g transform="translate(26.58,85.61)">
      <g class="primitive">
        <text text-anchor="middle" dy="0.6em">-4</text>
      </g>
    </g>
    <g transform="translate(40.18,85.61)">
      <g class="primitive">
        <text text-anchor="middle" dy="0.6em">-2</text>
      </g>
    </g>
    <g transform="translate(53.79,85.61)">
      <g class="primitive">
        <text text-anchor="middle" dy="0.6em">0</text>
      </g>
    </g>
    <g transform="translate(67.39,85.61)">
      <g class="primitive">
        <text text-anchor="middle" dy="0.6em">2</text>
      </g>
    </g>
    <g transform="translate(81,85.61)">
      <g class="primitive">
        <text text-anchor="middle" dy="0.6em">4</text>
      </g>
    </g>
    <g transform="translate(94.6,85.61)">
      <g class="primitive">
        <text text-anchor="middle" dy="0.6em">6</text>
      </g>
    </g>
  </g>
  <g clip-path="url(#img-0a82c470-4)">
    <g id="img-0a82c470-5">
      <g pointer-events="visible" stroke-width="0.3" fill="#000000" fill-opacity="0.000" stroke="#000000" stroke-opacity="0.000" class="guide background" id="img-0a82c470-6">
        <g transform="translate(53.79,47.21)" id="img-0a82c470-7">
          <path d="M-42.81,-37.4 L42.81,-37.4 42.81,37.4 -42.81,37.4  z" class="primitive"/>
        </g>
      </g>
      <g class="guide ygridlines xfixed" stroke-dasharray="0.5,0.5" stroke-width="0.2" stroke="#D0D0E0" id="img-0a82c470-8">
        <g transform="translate(53.79,82.61)" id="img-0a82c470-9">
          <path fill="none" d="M-42.81,0 L42.81,0 " class="primitive"/>
        </g>
        <g transform="translate(53.79,64.91)" id="img-0a82c470-10">
          <path fill="none" d="M-42.81,0 L42.81,0 " class="primitive"/>
        </g>
        <g transform="translate(53.79,47.21)" id="img-0a82c470-11">
          <path fill="none" d="M-42.81,0 L42.81,0 " class="primitive"/>
        </g>
        <g transform="translate(53.79,29.51)" id="img-0a82c470-12">
          <path fill="none" d="M-42.81,0 L42.81,0 " class="primitive"/>
        </g>
        <g transform="translate(53.79,11.81)" id="img-0a82c470-13">
          <path fill="none" d="M-42.81,0 L42.81,0 " class="primitive"/>
        </g>
      </g>
      <g class="guide xgridlines yfixed" stroke-dasharray="0.5,0.5" stroke-width="0.2" stroke="#D0D0E0" id="img-0a82c470-14">
        <g transform="translate(12.97,47.21)" id="img-0a82c470-15">
          <path fill="none" d="M0,-37.4 L0,37.4 " class="primitive"/>
        </g>
        <g transform="translate(26.58,47.21)" id="img-0a82c470-16">
          <path fill="none" d="M0,-37.4 L0,37.4 " class="primitive"/>
        </g>
        <g transform="translate(40.18,47.21)" id="img-0a82c470-17">
          <path fill="none" d="M0,-37.4 L0,37.4 " class="primitive"/>
        </g>
        <g transform="translate(53.79,47.21)" id="img-0a82c470-18">
          <path fill="none" d="M0,-37.4 L0,37.4 " class="primitive"/>
        </g>
        <g transform="translate(67.39,47.21)" id="img-0a82c470-19">
          <path fill="none" d="M0,-37.4 L0,37.4 " class="primitive"/>
        </g>
        <g transform="translate(81,47.21)" id="img-0a82c470-20">
          <path fill="none" d="M0,-37.4 L0,37.4 " class="primitive"/>
        </g>
        <g transform="translate(94.6,47.21)" id="img-0a82c470-21">
          <path fill="none" d="M0,-37.4 L0,37.4 " class="primitive"/>
        </g>
      </g>
      <g class="plotpanel" id="img-0a82c470-22">
        <metadata>
          <boundingbox value="10.97116156684028mm 9.809475368923614mm 85.62883843315971mm 74.80144856770833mm"/>
          <unitbox value="-6.294013739024988 0.41129920384658447 12.588027478049979 -0.4225984076931689"/>
        </metadata>
        <g class="geometry" stroke-width="0.3" stroke-dasharray="none" fill-opacity="1" stroke="#FFFFFF" fill="#B9EAFF" id="img-0a82c470-23">
          <g transform="translate(53.4,66.36)" id="img-0a82c470-24">
            <path d="M-36.9,16.25 L-36.61,16.25 -36.32,16.25 -36.03,16.25 -35.74,16.25 -35.45,16.25 -35.17,16.25 -34.88,16.25 -34.59,16.25 -34.3,16.25 -34.01,16.25 -33.72,16.25 -33.43,16.25 -33.14,16.25 -32.85,16.25 -32.56,16.25 -32.27,16.25 -31.98,16.25 -31.69,16.25 -31.4,16.25 -31.11,16.25 -30.82,16.25 -30.53,16.25 -30.25,16.25 -29.96,16.24 -29.67,16.24 -29.38,16.24 -29.09,16.24 -28.8,16.24 -28.51,16.24 -28.22,16.24 -27.93,16.24 -27.64,16.23 -27.35,16.23 -27.06,16.22 -26.77,16.22 -26.48,16.22 -26.19,16.22 -25.9,16.21 -25.61,16.2 -25.32,16.2 -25.04,16.19 -24.75,16.19 -24.46,16.16 -24.17,16.14 -23.88,16.11 -23.59,16.1 -23.3,16.08 -23.01,16.06 -22.72,16.02 -22.43,15.98 -22.14,15.94 -21.85,15.9 -21.56,15.87 -21.27,15.82 -20.98,15.75 -20.69,15.65 -20.4,15.55 -20.12,15.46 -19.83,15.37 -19.54,15.27 -19.25,15.16 -18.96,15.03 -18.67,14.85 -18.38,14.66 -18.09,14.45 -17.8,14.22 -17.51,13.97 -17.22,13.71 -16.93,13.39 -16.64,13.03 -16.35,12.65 -16.06,12.29 -15.77,11.95 -15.48,11.61 -15.19,11.21 -14.91,10.68 -14.62,10.03 -14.33,9.36 -14.04,8.7 -13.75,8.03 -13.46,7.31 -13.17,6.51 -12.88,5.61 -12.59,4.66 -12.3,3.7 -12.01,2.74 -11.72,1.74 -11.43,0.63 -11.14,-0.57 -10.85,-1.81 -10.56,-3.09 -10.27,-4.42 -9.99,-5.82 -9.7,-7.31 -9.41,-8.89 -9.12,-10.52 -8.83,-12.08 -8.54,-13.57 -8.25,-15.07 -7.96,-16.64 -7.67,-18.3 -7.38,-20.03 -7.09,-21.8 -6.8,-23.62 -6.51,-25.52 -6.22,-27.5 -5.93,-29.46 -5.64,-31.41 -5.35,-33.35 -5.06,-35.14 -4.78,-36.75 -4.49,-38.27 -4.2,-39.81 -3.91,-41.33 -3.62,-42.8 -3.33,-44.23 -3.04,-45.63 -2.75,-46.95 -2.46,-48.24 -2.17,-49.5 -1.88,-50.59 -1.59,-51.43 -1.3,-52.18 -1.01,-52.91 -0.72,-53.5 -0.43,-53.81 -0.14,-53.99 0.14,-54.18 0.43,-54.31 0.72,-54.25 1.01,-54.11 1.3,-53.91 1.59,-53.51 1.88,-52.84 2.17,-51.99 2.46,-51.07 2.75,-50.15 3.04,-49.23 3.33,-48.23 3.62,-47.08 3.91,-45.74 4.2,-44.25 4.49,-42.64 4.78,-40.98 5.06,-39.33 5.35,-37.73 5.64,-36.18 5.93,-34.6 6.22,-32.87 6.51,-30.97 6.8,-29.08 7.09,-27.26 7.38,-25.42 7.67,-23.52 7.96,-21.59 8.25,-19.75 8.54,-18.03 8.83,-16.37 9.12,-14.71 9.41,-13.07 9.7,-11.47 9.99,-9.9 10.27,-8.38 10.56,-6.96 10.85,-5.65 11.14,-4.33 11.43,-2.96 11.72,-1.61 12.01,-0.33 12.3,0.91 12.59,2.09 12.88,3.17 13.17,4.15 13.46,5.07 13.75,5.96 14.04,6.79 14.33,7.57 14.62,8.31 14.91,9.01 15.19,9.68 15.48,10.31 15.77,10.88 16.06,11.38 16.35,11.82 16.64,12.2 16.93,12.53 17.22,12.85 17.51,13.18 17.8,13.5 18.09,13.8 18.38,14.06 18.67,14.29 18.96,14.5 19.25,14.68 19.54,14.86 19.83,15.02 20.12,15.18 20.4,15.32 20.69,15.44 20.98,15.54 21.27,15.62 21.56,15.68 21.85,15.74 22.14,15.8 22.43,15.87 22.72,15.93 23.01,15.97 23.3,16 23.59,16.03 23.88,16.06 24.17,16.08 24.46,16.11 24.75,16.14 25.04,16.16 25.32,16.17 25.61,16.18 25.9,16.18 26.19,16.19 26.48,16.2 26.77,16.21 27.06,16.22 27.35,16.23 27.64,16.24 27.93,16.24 28.22,16.24 28.51,16.24 28.8,16.24 29.09,16.24 29.38,16.25 29.67,16.24 29.96,16.25 30.25,16.25 30.53,16.25 30.82,16.25 31.11,16.25 31.4,16.25 31.69,16.25 31.98,16.24 32.27,16.25 32.56,16.25 32.85,16.25 33.14,16.25 33.43,16.25 33.72,16.25 34.01,16.25 34.3,16.25 34.59,16.25 34.88,16.25 35.17,16.25 35.45,16.25 35.74,16.25 36.03,16.25 36.32,16.25 36.61,16.25 36.9,16.25  z" class="primitive"/>
          </g>
        </g>
      </g>
    </g>
  </g>
  <g class="guide ylabels" font-size="2.82" font-family="'PT Sans Caption','Helvetica Neue','Helvetica',sans-serif" fill="#6C606B" id="img-0a82c470-25">
    <g transform="translate(9.97,82.61)" id="img-0a82c470-26">
      <g class="primitive">
        <text text-anchor="end" dy="0.35em">0.0</text>
      </g>
    </g>
    <g transform="translate(9.97,64.91)" id="img-0a82c470-27">
      <g class="primitive">
        <text text-anchor="end" dy="0.35em">0.1</text>
      </g>
    </g>
    <g transform="translate(9.97,47.21)" id="img-0a82c470-28">
      <g class="primitive">
        <text text-anchor="end" dy="0.35em">0.2</text>
      </g>
    </g>
    <g transform="translate(9.97,29.51)" id="img-0a82c470-29">
      <g class="primitive">
        <text text-anchor="end" dy="0.35em">0.3</text>
      </g>
    </g>
    <g transform="translate(9.97,11.81)" id="img-0a82c470-30">
      <g class="primitive">
        <text text-anchor="end" dy="0.35em">0.4</text>
      </g>
    </g>
  </g>
  <g font-size="3.88" font-family="'PT Sans','Helvetica Neue','Helvetica',sans-serif" fill="#564A55" stroke="#000000" stroke-opacity="0.000" id="img-0a82c470-31">
    <g transform="translate(53.79,5)" id="img-0a82c470-32">
      <g class="primitive">
        <text text-anchor="middle" dy="0.6em">Standard Normal</text>
      </g>
    </g>
  </g>
</g>
<defs>
  <clipPath id="img-0a82c470-4">
    <path d="M10.97,9.81 L96.6,9.81 96.6,84.61 10.97,84.61 " />
  </clipPath>
</defs>
</svg>
