<?xml version="1.0" encoding="UTF-8"?>
<svg xmlns="http://www.w3.org/2000/svg"
     xmlns:xlink="http://www.w3.org/1999/xlink"
     xmlns:gadfly="http://www.gadflyjl.org/ns"
     version="1.2"
     width="127mm" height="127mm" viewBox="0 0 127 127"
     stroke="none"
     fill="#000000"
     stroke-width="0.3"
     font-size="3.88"
>
<defs>
  <marker id="arrow" markerWidth="15" markerHeight="7" refX="5" refY="3.5" orient="auto" markerUnits="strokeWidth">
    <path d="M0,0 L15,3.5 L0,7 z" stroke="context-stroke" fill="context-stroke"/>
  </marker>
</defs>
<g class="plotroot xscalable yscalable" id="img-3ce9067e-1">
  <g font-size="3.88" font-family="'PT Sans','Helvetica Neue','Helvetica',sans-serif" fill="#564A55" stroke="#000000" stroke-opacity="0.000" id="img-3ce9067e-2">
    <g transform="translate(66.45,117.06)">
      <g class="primitive">
        <text text-anchor="middle" dy="0.6em">x</text>
      </g>
    </g>
  </g>
  <g class="guide xlabels" font-size="2.82" font-family="'PT Sans Caption','Helvetica Neue','Helvetica',sans-serif" fill="#6C606B" id="img-3ce9067e-3">
    <g transform="translate(12.9,111.01)">
      <g class="primitive">
        <text text-anchor="middle" dy="0.6em">0.0</text>
      </g>
    </g>
    <g transform="translate(66.45,111.01)">
      <g class="primitive">
        <text text-anchor="middle" dy="0.6em">0.5</text>
      </g>
    </g>
    <g transform="translate(120,111.01)">
      <g class="primitive">
        <text text-anchor="middle" dy="0.6em">1.0</text>
      </g>
    </g>
  </g>
  <g clip-path="url(#img-3ce9067e-4)">
    <g id="img-3ce9067e-5">
      <g pointer-events="visible" stroke-width="0.3" fill="#000000" fill-opacity="0.000" stroke="#000000" stroke-opacity="0.000" class="guide background" id="img-3ce9067e-6">
        <g transform="translate(66.45,59.91)" id="img-3ce9067e-7">
          <path d="M-55.55,-50.1 L55.55,-50.1 55.55,50.1 -55.55,50.1  z" class="primitive"/>
        </g>
      </g>
      <g class="guide ygridlines xfixed" stroke-dasharray="0.5,0.5" stroke-width="0.2" stroke="#D0D0E0" id="img-3ce9067e-8">
        <g transform="translate(66.45,108.01)" id="img-3ce9067e-9">
          <path fill="none" d="M-55.55,0 L55.55,0 " class="primitive"/>
        </g>
        <g transform="translate(66.45,75.94)" id="img-3ce9067e-10">
          <path fill="none" d="M-55.55,0 L55.55,0 " class="primitive"/>
        </g>
        <g transform="translate(66.45,43.88)" id="img-3ce9067e-11">
          <path fill="none" d="M-55.55,0 L55.55,0 " class="primitive"/>
        </g>
        <g transform="translate(66.45,11.81)" id="img-3ce9067e-12">
          <path fill="none" d="M-55.55,0 L55.55,0 " class="primitive"/>
        </g>
      </g>
      <g class="guide xgridlines yfixed" stroke-dasharray="0.5,0.5" stroke-width="0.2" stroke="#D0D0E0" id="img-3ce9067e-13">
        <g transform="translate(12.9,59.91)" id="img-3ce9067e-14">
          <path fill="none" d="M0,-50.1 L0,50.1 " class="primitive"/>
        </g>
        <g transform="translate(66.45,59.91)" id="img-3ce9067e-15">
          <path fill="none" d="M0,-50.1 L0,50.1 " class="primitive"/>
        </g>
        <g transform="translate(120,59.91)" id="img-3ce9067e-16">
          <path fill="none" d="M0,-50.1 L0,50.1 " class="primitive"/>
        </g>
      </g>
      <g class="plotpanel" id="img-3ce9067e-17">
        <metadata>
          <boundingbox value="10.900192599826383mm 9.809475368923614mm 111.0998074001736mm 100.20110405815973mm"/>
          <unitbox value="-0.018674169903285538 1.5311846732880146 1.037348339806571 -1.562369346576029"/>
        </metadata>
        <g class="geometry" stroke-width="0.3" stroke-dasharray="none" fill-opacity="1" stroke="#FFFFFF" fill="#B9EAFF" id="img-3ce9067e-18">
          <g transform="translate(66.45,51.53)" id="img-3ce9067e-19">
            <path d="M-60.57,56.48 L-60.09,56.47 -59.62,56.46 -59.14,56.43 -58.67,56.36 -58.19,56.21 -57.72,55.91 -57.24,55.33 -56.77,54.33 -56.29,52.69 -55.82,50.2 -55.34,46.69 -54.87,42.08 -54.39,36.43 -53.92,30.01 -53.44,23.2 -52.97,16.47 -52.49,10.29 -52.02,5 -51.54,0.78 -51.07,-2.34 -50.59,-4.5 -50.12,-5.88 -49.64,-6.72 -49.17,-7.18 -48.69,-7.43 -48.22,-7.55 -47.74,-7.6 -47.27,-7.61 -46.79,-7.6 -46.32,-7.57 -45.84,-7.54 -45.37,-7.51 -44.89,-7.48 -44.42,-7.46 -43.94,-7.45 -43.47,-7.45 -42.99,-7.45 -42.52,-7.45 -42.04,-7.45 -41.57,-7.43 -41.09,-7.42 -40.62,-7.42 -40.14,-7.43 -39.67,-7.47 -39.19,-7.54 -38.72,-7.64 -38.24,-7.76 -37.77,-7.88 -37.29,-8 -36.82,-8.09 -36.34,-8.15 -35.87,-8.18 -35.39,-8.17 -34.92,-8.13 -34.44,-8.08 -33.97,-8.02 -33.49,-7.95 -33.02,-7.88 -32.54,-7.81 -32.07,-7.75 -31.59,-7.7 -31.12,-7.66 -30.64,-7.63 -30.17,-7.63 -29.69,-7.65 -29.22,-7.68 -28.74,-7.73 -28.27,-7.77 -27.79,-7.8 -27.32,-7.81 -26.84,-7.8 -26.37,-7.78 -25.89,-7.75 -25.42,-7.72 -24.94,-7.7 -24.47,-7.69 -23.99,-7.69 -23.52,-7.69 -23.04,-7.7 -22.57,-7.71 -22.09,-7.73 -21.62,-7.75 -21.14,-7.78 -20.66,-7.81 -20.19,-7.83 -19.71,-7.85 -19.24,-7.85 -18.76,-7.82 -18.29,-7.77 -17.81,-7.7 -17.34,-7.61 -16.86,-7.53 -16.39,-7.45 -15.91,-7.39 -15.44,-7.34 -14.96,-7.3 -14.49,-7.27 -14.01,-7.22 -13.54,-7.16 -13.06,-7.09 -12.59,-7.01 -12.11,-6.95 -11.64,-6.9 -11.16,-6.9 -10.69,-6.93 -10.21,-7.01 -9.74,-7.13 -9.26,-7.26 -8.79,-7.41 -8.31,-7.55 -7.84,-7.68 -7.36,-7.81 -6.89,-7.92 -6.41,-8.02 -5.94,-8.1 -5.46,-8.16 -4.99,-8.2 -4.51,-8.22 -4.04,-8.21 -3.56,-8.2 -3.09,-8.18 -2.61,-8.16 -2.14,-8.15 -1.66,-8.15 -1.19,-8.16 -0.71,-8.16 -0.24,-8.16 0.24,-8.15 0.71,-8.12 1.19,-8.09 1.66,-8.04 2.14,-7.99 2.61,-7.92 3.09,-7.86 3.56,-7.79 4.04,-7.73 4.51,-7.67 4.99,-7.64 5.46,-7.61 5.94,-7.61 6.41,-7.62 6.89,-7.64 7.36,-7.67 7.84,-7.7 8.31,-7.72 8.79,-7.73 9.26,-7.73 9.74,-7.72 10.21,-7.71 10.69,-7.69 11.16,-7.68 11.64,-7.68 12.11,-7.7 12.59,-7.73 13.06,-7.76 13.54,-7.81 14.01,-7.85 14.49,-7.89 14.96,-7.92 15.44,-7.93 15.91,-7.93 16.39,-7.92 16.86,-7.9 17.34,-7.86 17.81,-7.82 18.29,-7.78 18.76,-7.72 19.24,-7.66 19.71,-7.6 20.19,-7.54 20.66,-7.49 21.14,-7.44 21.62,-7.42 22.09,-7.4 22.57,-7.4 23.04,-7.39 23.52,-7.39 23.99,-7.38 24.47,-7.38 24.94,-7.38 25.42,-7.39 25.89,-7.41 26.37,-7.45 26.84,-7.51 27.32,-7.57 27.79,-7.63 28.27,-7.7 28.74,-7.75 29.22,-7.8 29.69,-7.83 30.17,-7.84 30.64,-7.84 31.12,-7.82 31.59,-7.78 32.07,-7.73 32.54,-7.66 33.02,-7.59 33.49,-7.51 33.97,-7.44 34.44,-7.36 34.92,-7.3 35.39,-7.25 35.87,-7.21 36.34,-7.2 36.82,-7.21 37.29,-7.25 37.77,-7.31 38.24,-7.38 38.72,-7.47 39.19,-7.55 39.67,-7.62 40.14,-7.66 40.62,-7.67 41.09,-7.66 41.57,-7.62 42.04,-7.56 42.52,-7.5 42.99,-7.45 43.47,-7.42 43.94,-7.43 44.42,-7.47 44.89,-7.53 45.37,-7.61 45.84,-7.7 46.32,-7.76 46.79,-7.8 47.27,-7.8 47.74,-7.76 48.22,-7.67 48.69,-7.53 49.17,-7.28 49.64,-6.83 50.12,-6.04 50.59,-4.72 51.07,-2.64 51.54,0.41 52.02,4.55 52.49,9.8 52.97,15.98 53.44,22.74 53.92,29.62 54.39,36.12 54.87,41.84 55.34,46.53 55.82,50.1 56.29,52.62 56.77,54.29 57.24,55.31 57.72,55.9 58.19,56.21 58.67,56.36 59.14,56.43 59.62,56.46 60.09,56.47 60.57,56.48  z" class="primitive"/>
          </g>
        </g>
      </g>
    </g>
  </g>
  <g class="guide ylabels" font-size="2.82" font-family="'PT Sans Caption','Helvetica Neue','Helvetica',sans-serif" fill="#6C606B" id="img-3ce9067e-20">
    <g transform="translate(9.9,108.01)" id="img-3ce9067e-21">
      <g class="primitive">
        <text text-anchor="end" dy="0.35em">0.0</text>
      </g>
    </g>
    <g transform="translate(9.9,75.94)" id="img-3ce9067e-22">
      <g class="primitive">
        <text text-anchor="end" dy="0.35em">0.5</text>
      </g>
    </g>
    <g transform="translate(9.9,43.88)" id="img-3ce9067e-23">
      <g class="primitive">
        <text text-anchor="end" dy="0.35em">1.0</text>
      </g>
    </g>
    <g transform="translate(9.9,11.81)" id="img-3ce9067e-24">
      <g class="primitive">
        <text text-anchor="end" dy="0.35em">1.5</text>
      </g>
    </g>
  </g>
  <g font-size="3.88" font-family="'PT Sans','Helvetica Neue','Helvetica',sans-serif" fill="#564A55" stroke="#000000" stroke-opacity="0.000" id="img-3ce9067e-25">
    <g transform="translate(66.45,5)" id="img-3ce9067e-26">
      <g class="primitive">
        <text text-anchor="middle" dy="0.6em">Standard Uniform</text>
      </g>
    </g>
  </g>
</g>
<defs>
  <clipPath id="img-3ce9067e-4">
    <path d="M10.9,9.81 L122,9.81 122,110.01 10.9,110.01 " />
  </clipPath>
</defs>
</svg>
