<?xml version="1.0" encoding="UTF-8"?>
<svg xmlns="http://www.w3.org/2000/svg"
     xmlns:xlink="http://www.w3.org/1999/xlink"
     xmlns:gadfly="http://www.gadflyjl.org/ns"
     version="1.2"
     width="127mm" height="127mm" viewBox="0 0 127 127"
     stroke="none"
     fill="#000000"
     stroke-width="0.3"
     font-size="3.88"
>
<defs>
  <marker id="arrow" markerWidth="15" markerHeight="7" refX="5" refY="3.5" orient="auto" markerUnits="strokeWidth">
    <path d="M0,0 L15,3.5 L0,7 z" stroke="context-stroke" fill="context-stroke"/>
  </marker>
</defs>
<g class="plotroot xscalable yscalable" id="img-5347fe28-1">
  <g font-size="3.88" font-family="'PT Sans','Helvetica Neue','Helvetica',sans-serif" fill="#564A55" stroke="#000000" stroke-opacity="0.000" id="img-5347fe28-2">
    <g transform="translate(66.45,117.06)">
      <g class="primitive">
        <text text-anchor="middle" dy="0.6em">x</text>
      </g>
    </g>
  </g>
  <g class="guide xlabels" font-size="2.82" font-family="'PT Sans Caption','Helvetica Neue','Helvetica',sans-serif" fill="#6C606B" id="img-5347fe28-3">
    <g transform="translate(12.9,111.01)">
      <g class="primitive">
        <text text-anchor="middle" dy="0.6em">0.0</text>
      </g>
    </g>
    <g transform="translate(66.45,111.01)">
      <g class="primitive">
        <text text-anchor="middle" dy="0.6em">0.5</text>
      </g>
    </g>
    <g transform="translate(120,111.01)">
      <g class="primitive">
        <text text-anchor="middle" dy="0.6em">1.0</text>
      </g>
    </g>
  </g>
  <g clip-path="url(#img-5347fe28-4)">
    <g id="img-5347fe28-5">
      <g pointer-events="visible" stroke-width="0.3" fill="#000000" fill-opacity="0.000" stroke="#000000" stroke-opacity="0.000" class="guide background" id="img-5347fe28-6">
        <g transform="translate(66.45,59.91)" id="img-5347fe28-7">
          <path d="M-55.55,-50.1 L55.55,-50.1 55.55,50.1 -55.55,50.1  z" class="primitive"/>
        </g>
      </g>
      <g class="guide ygridlines xfixed" stroke-dasharray="0.5,0.5" stroke-width="0.2" stroke="#D0D0E0" id="img-5347fe28-8">
        <g transform="translate(66.45,108.01)" id="img-5347fe28-9">
          <path fill="none" d="M-55.55,0 L55.55,0 " class="primitive"/>
        </g>
        <g transform="translate(66.45,75.94)" id="img-5347fe28-10">
          <path fill="none" d="M-55.55,0 L55.55,0 " class="primitive"/>
        </g>
        <g transform="translate(66.45,43.88)" id="img-5347fe28-11">
          <path fill="none" d="M-55.55,0 L55.55,0 " class="primitive"/>
        </g>
        <g transform="translate(66.45,11.81)" id="img-5347fe28-12">
          <path fill="none" d="M-55.55,0 L55.55,0 " class="primitive"/>
        </g>
      </g>
      <g class="guide xgridlines yfixed" stroke-dasharray="0.5,0.5" stroke-width="0.2" stroke="#D0D0E0" id="img-5347fe28-13">
        <g transform="translate(12.9,59.91)" id="img-5347fe28-14">
          <path fill="none" d="M0,-50.1 L0,50.1 " class="primitive"/>
        </g>
        <g transform="translate(66.45,59.91)" id="img-5347fe28-15">
          <path fill="none" d="M0,-50.1 L0,50.1 " class="primitive"/>
        </g>
        <g transform="translate(120,59.91)" id="img-5347fe28-16">
          <path fill="none" d="M0,-50.1 L0,50.1 " class="primitive"/>
        </g>
      </g>
      <g class="plotpanel" id="img-5347fe28-17">
        <metadata>
          <boundingbox value="10.900192599826383mm 9.809475368923614mm 111.0998074001736mm 100.20110405815973mm"/>
          <unitbox value="-0.018674169903285538 1.5311846732880146 1.037348339806571 -1.562369346576029"/>
        </metadata>
        <g class="geometry" stroke-width="0.3" stroke-dasharray="none" fill-opacity="1" stroke="#FFFFFF" fill="#B9EAFF" id="img-5347fe28-18">
          <g transform="translate(66.45,51.53)" id="img-5347fe28-19">
            <path d="M-60.57,56.48 L-60.1,56.47 -59.62,56.46 -59.15,56.43 -58.67,56.36 -58.2,56.21 -57.72,55.9 -57.25,55.33 -56.77,54.32 -56.3,52.68 -55.82,50.18 -55.35,46.66 -54.87,42.04 -54.39,36.39 -53.92,29.97 -53.44,23.17 -52.97,16.47 -52.49,10.33 -52.02,5.09 -51.54,0.92 -51.07,-2.17 -50.59,-4.32 -50.12,-5.73 -49.64,-6.59 -49.17,-7.1 -48.69,-7.38 -48.22,-7.54 -47.74,-7.62 -47.27,-7.65 -46.79,-7.66 -46.32,-7.64 -45.84,-7.62 -45.37,-7.58 -44.89,-7.54 -44.42,-7.51 -43.94,-7.48 -43.47,-7.47 -42.99,-7.48 -42.52,-7.49 -42.04,-7.52 -41.57,-7.55 -41.09,-7.59 -40.62,-7.63 -40.14,-7.68 -39.67,-7.73 -39.19,-7.79 -38.72,-7.85 -38.24,-7.9 -37.77,-7.95 -37.29,-7.99 -36.82,-8.02 -36.34,-8.04 -35.87,-8.06 -35.39,-8.07 -34.92,-8.09 -34.44,-8.09 -33.97,-8.1 -33.49,-8.09 -33.02,-8.08 -32.54,-8.05 -32.07,-8.02 -31.59,-7.97 -31.12,-7.92 -30.64,-7.86 -30.17,-7.8 -29.69,-7.73 -29.22,-7.67 -28.74,-7.62 -28.27,-7.59 -27.79,-7.58 -27.32,-7.59 -26.84,-7.61 -26.37,-7.64 -25.89,-7.67 -25.42,-7.7 -24.94,-7.73 -24.47,-7.76 -23.99,-7.78 -23.52,-7.8 -23.04,-7.81 -22.57,-7.81 -22.09,-7.8 -21.62,-7.78 -21.14,-7.76 -20.67,-7.74 -20.19,-7.73 -19.72,-7.73 -19.24,-7.74 -18.77,-7.76 -18.29,-7.77 -17.81,-7.77 -17.34,-7.77 -16.86,-7.76 -16.39,-7.76 -15.91,-7.76 -15.44,-7.77 -14.96,-7.78 -14.49,-7.79 -14.01,-7.78 -13.54,-7.76 -13.06,-7.72 -12.59,-7.67 -12.11,-7.63 -11.64,-7.59 -11.16,-7.56 -10.69,-7.54 -10.21,-7.54 -9.74,-7.55 -9.26,-7.56 -8.79,-7.58 -8.31,-7.59 -7.84,-7.61 -7.36,-7.63 -6.89,-7.64 -6.41,-7.64 -5.94,-7.63 -5.46,-7.62 -4.99,-7.6 -4.51,-7.59 -4.04,-7.58 -3.56,-7.58 -3.09,-7.59 -2.61,-7.62 -2.14,-7.65 -1.66,-7.69 -1.19,-7.74 -0.71,-7.79 -0.24,-7.84 0.24,-7.87 0.71,-7.9 1.19,-7.91 1.66,-7.9 2.14,-7.86 2.61,-7.81 3.09,-7.75 3.56,-7.69 4.04,-7.63 4.51,-7.58 4.99,-7.55 5.46,-7.54 5.94,-7.52 6.41,-7.52 6.89,-7.5 7.36,-7.48 7.84,-7.45 8.31,-7.42 8.79,-7.38 9.26,-7.34 9.74,-7.31 10.21,-7.3 10.69,-7.31 11.16,-7.32 11.64,-7.34 12.11,-7.36 12.59,-7.37 13.06,-7.37 13.54,-7.38 14.01,-7.38 14.49,-7.39 14.96,-7.42 15.44,-7.46 15.91,-7.5 16.39,-7.55 16.86,-7.6 17.34,-7.65 17.81,-7.69 18.29,-7.73 18.77,-7.77 19.24,-7.79 19.72,-7.8 20.19,-7.79 20.67,-7.77 21.14,-7.75 21.62,-7.72 22.09,-7.7 22.57,-7.69 23.04,-7.68 23.52,-7.67 23.99,-7.67 24.47,-7.65 24.94,-7.65 25.42,-7.65 25.89,-7.66 26.37,-7.7 26.84,-7.76 27.32,-7.83 27.79,-7.9 28.27,-7.98 28.74,-8.05 29.22,-8.09 29.69,-8.12 30.17,-8.11 30.64,-8.07 31.12,-8 31.59,-7.9 32.07,-7.78 32.54,-7.66 33.02,-7.54 33.49,-7.44 33.97,-7.38 34.44,-7.36 34.92,-7.38 35.39,-7.42 35.87,-7.47 36.34,-7.53 36.82,-7.57 37.29,-7.6 37.77,-7.59 38.24,-7.57 38.72,-7.52 39.19,-7.47 39.67,-7.42 40.14,-7.4 40.62,-7.39 41.09,-7.41 41.57,-7.44 42.04,-7.49 42.52,-7.53 42.99,-7.57 43.47,-7.6 43.94,-7.63 44.42,-7.65 44.89,-7.67 45.37,-7.69 45.84,-7.71 46.32,-7.72 46.79,-7.73 47.27,-7.72 47.74,-7.69 48.22,-7.62 48.69,-7.5 49.17,-7.26 49.64,-6.8 50.12,-5.99 50.59,-4.64 51.07,-2.52 51.54,0.55 52.02,4.72 52.49,9.98 52.97,16.15 53.44,22.89 53.92,29.74 54.39,36.21 54.87,41.91 55.35,46.57 55.82,50.12 56.3,52.64 56.77,54.3 57.25,55.32 57.72,55.9 58.2,56.21 58.67,56.36 59.15,56.43 59.62,56.46 60.1,56.47 60.57,56.48  z" class="primitive"/>
          </g>
        </g>
      </g>
    </g>
  </g>
  <g class="guide ylabels" font-size="2.82" font-family="'PT Sans Caption','Helvetica Neue','Helvetica',sans-serif" fill="#6C606B" id="img-5347fe28-20">
    <g transform="translate(9.9,108.01)" id="img-5347fe28-21">
      <g class="primitive">
        <text text-anchor="end" dy="0.35em">0.0</text>
      </g>
    </g>
    <g transform="translate(9.9,75.94)" id="img-5347fe28-22">
      <g class="primitive">
        <text text-anchor="end" dy="0.35em">0.5</text>
      </g>
    </g>
    <g transform="translate(9.9,43.88)" id="img-5347fe28-23">
      <g class="primitive">
        <text text-anchor="end" dy="0.35em">1.0</text>
      </g>
    </g>
    <g transform="translate(9.9,11.81)" id="img-5347fe28-24">
      <g class="primitive">
        <text text-anchor="end" dy="0.35em">1.5</text>
      </g>
    </g>
  </g>
  <g font-size="3.88" font-family="'PT Sans','Helvetica Neue','Helvetica',sans-serif" fill="#564A55" stroke="#000000" stroke-opacity="0.000" id="img-5347fe28-25">
    <g transform="translate(66.45,5)" id="img-5347fe28-26">
      <g class="primitive">
        <text text-anchor="middle" dy="0.6em">Standard Uniform</text>
      </g>
    </g>
  </g>
</g>
<defs>
  <clipPath id="img-5347fe28-4">
    <path d="M10.9,9.81 L122,9.81 122,110.01 10.9,110.01 " />
  </clipPath>
</defs>
</svg>
