<?xml version="1.0" encoding="UTF-8"?>
<svg xmlns="http://www.w3.org/2000/svg"
     xmlns:xlink="http://www.w3.org/1999/xlink"
     xmlns:gadfly="http://www.gadflyjl.org/ns"
     version="1.2"
     width="127mm" height="127mm" viewBox="0 0 127 127"
     stroke="none"
     fill="#000000"
     stroke-width="0.3"
     font-size="3.88"
>
<defs>
  <marker id="arrow" markerWidth="15" markerHeight="7" refX="5" refY="3.5" orient="auto" markerUnits="strokeWidth">
    <path d="M0,0 L15,3.5 L0,7 z" stroke="context-stroke" fill="context-stroke"/>
  </marker>
</defs>
<g class="plotroot xscalable yscalable" id="img-891d7e56-1">
  <g font-size="3.88" font-family="'PT Sans','Helvetica Neue','Helvetica',sans-serif" fill="#564A55" stroke="#000000" stroke-opacity="0.000" id="img-891d7e56-2">
    <g transform="translate(66.49,117.06)">
      <g class="primitive">
        <text text-anchor="middle" dy="0.6em">x</text>
      </g>
    </g>
  </g>
  <g class="guide xlabels" font-size="2.82" font-family="'PT Sans Caption','Helvetica Neue','Helvetica',sans-serif" fill="#6C606B" id="img-891d7e56-3">
    <g transform="translate(12.97,111.01)">
      <g class="primitive">
        <text text-anchor="middle" dy="0.6em">-6</text>
      </g>
    </g>
    <g transform="translate(30.81,111.01)">
      <g class="primitive">
        <text text-anchor="middle" dy="0.6em">-4</text>
      </g>
    </g>
    <g transform="translate(48.65,111.01)">
      <g class="primitive">
        <text text-anchor="middle" dy="0.6em">-2</text>
      </g>
    </g>
    <g transform="translate(66.49,111.01)">
      <g class="primitive">
        <text text-anchor="middle" dy="0.6em">0</text>
      </g>
    </g>
    <g transform="translate(84.32,111.01)">
      <g class="primitive">
        <text text-anchor="middle" dy="0.6em">2</text>
      </g>
    </g>
    <g transform="translate(102.16,111.01)">
      <g class="primitive">
        <text text-anchor="middle" dy="0.6em">4</text>
      </g>
    </g>
    <g transform="translate(120,111.01)">
      <g class="primitive">
        <text text-anchor="middle" dy="0.6em">6</text>
      </g>
    </g>
  </g>
  <g clip-path="url(#img-891d7e56-4)">
    <g id="img-891d7e56-5">
      <g pointer-events="visible" stroke-width="0.3" fill="#000000" fill-opacity="0.000" stroke="#000000" stroke-opacity="0.000" class="guide background" id="img-891d7e56-6">
        <g transform="translate(66.49,59.91)" id="img-891d7e56-7">
          <path d="M-55.51,-50.1 L55.51,-50.1 55.51,50.1 -55.51,50.1  z" class="primitive"/>
        </g>
      </g>
      <g class="guide ygridlines xfixed" stroke-dasharray="0.5,0.5" stroke-width="0.2" stroke="#D0D0E0" id="img-891d7e56-8">
        <g transform="translate(66.49,108.01)" id="img-891d7e56-9">
          <path fill="none" d="M-55.51,0 L55.51,0 " class="primitive"/>
        </g>
        <g transform="translate(66.49,83.96)" id="img-891d7e56-10">
          <path fill="none" d="M-55.51,0 L55.51,0 " class="primitive"/>
        </g>
        <g transform="translate(66.49,59.91)" id="img-891d7e56-11">
          <path fill="none" d="M-55.51,0 L55.51,0 " class="primitive"/>
        </g>
        <g transform="translate(66.49,35.86)" id="img-891d7e56-12">
          <path fill="none" d="M-55.51,0 L55.51,0 " class="primitive"/>
        </g>
        <g transform="translate(66.49,11.81)" id="img-891d7e56-13">
          <path fill="none" d="M-55.51,0 L55.51,0 " class="primitive"/>
        </g>
      </g>
      <g class="guide xgridlines yfixed" stroke-dasharray="0.5,0.5" stroke-width="0.2" stroke="#D0D0E0" id="img-891d7e56-14">
        <g transform="translate(12.97,59.91)" id="img-891d7e56-15">
          <path fill="none" d="M0,-50.1 L0,50.1 " class="primitive"/>
        </g>
        <g transform="translate(30.81,59.91)" id="img-891d7e56-16">
          <path fill="none" d="M0,-50.1 L0,50.1 " class="primitive"/>
        </g>
        <g transform="translate(48.65,59.91)" id="img-891d7e56-17">
          <path fill="none" d="M0,-50.1 L0,50.1 " class="primitive"/>
        </g>
        <g transform="translate(66.49,59.91)" id="img-891d7e56-18">
          <path fill="none" d="M0,-50.1 L0,50.1 " class="primitive"/>
        </g>
        <g transform="translate(84.32,59.91)" id="img-891d7e56-19">
          <path fill="none" d="M0,-50.1 L0,50.1 " class="primitive"/>
        </g>
        <g transform="translate(102.16,59.91)" id="img-891d7e56-20">
          <path fill="none" d="M0,-50.1 L0,50.1 " class="primitive"/>
        </g>
        <g transform="translate(120,59.91)" id="img-891d7e56-21">
          <path fill="none" d="M0,-50.1 L0,50.1 " class="primitive"/>
        </g>
      </g>
      <g class="plotpanel" id="img-891d7e56-22">
        <metadata>
          <boundingbox value="10.97116156684028mm 9.809475368923614mm 111.02883843315972mm 100.20144856770834mm"/>
          <unitbox value="-6.224238629058729 0.40831588309646866 12.44847725811746 -0.41663176619293724"/>
        </metadata>
        <g class="geometry" stroke-width="0.3" stroke-dasharray="none" fill-opacity="1" stroke="#FFFFFF" fill="#B9EAFF" id="img-891d7e56-23">
          <g transform="translate(66.22,84.24)" id="img-891d7e56-24">
            <path d="M-44.94,23.77 L-44.59,23.77 -44.23,23.77 -43.88,23.77 -43.53,23.77 -43.18,23.77 -42.82,23.77 -42.47,23.77 -42.12,23.77 -41.77,23.77 -41.41,23.77 -41.06,23.77 -40.71,23.77 -40.36,23.77 -40,23.77 -39.65,23.77 -39.3,23.77 -38.95,23.77 -38.59,23.77 -38.24,23.76 -37.89,23.76 -37.54,23.76 -37.18,23.75 -36.83,23.75 -36.48,23.74 -36.13,23.74 -35.77,23.73 -35.42,23.73 -35.07,23.74 -34.72,23.73 -34.36,23.73 -34.01,23.72 -33.66,23.71 -33.31,23.69 -32.95,23.68 -32.6,23.67 -32.25,23.66 -31.9,23.64 -31.54,23.62 -31.19,23.6 -30.84,23.57 -30.49,23.54 -30.13,23.5 -29.78,23.46 -29.43,23.4 -29.08,23.35 -28.73,23.3 -28.37,23.24 -28.02,23.18 -27.67,23.09 -27.32,22.98 -26.96,22.86 -26.61,22.73 -26.26,22.6 -25.91,22.46 -25.55,22.32 -25.2,22.16 -24.85,21.99 -24.5,21.78 -24.14,21.55 -23.79,21.3 -23.44,21 -23.09,20.65 -22.73,20.26 -22.38,19.87 -22.03,19.5 -21.68,19.1 -21.32,18.64 -20.97,18.1 -20.62,17.53 -20.27,16.98 -19.91,16.44 -19.56,15.81 -19.21,15.04 -18.86,14.16 -18.5,13.24 -18.15,12.3 -17.8,11.36 -17.45,10.37 -17.09,9.3 -16.74,8.11 -16.39,6.83 -16.04,5.5 -15.68,4.14 -15.33,2.69 -14.98,1.15 -14.63,-0.4 -14.27,-1.95 -13.92,-3.52 -13.57,-5.15 -13.22,-6.88 -12.86,-8.69 -12.51,-10.53 -12.16,-12.46 -11.81,-14.56 -11.45,-16.84 -11.1,-19.2 -10.75,-21.48 -10.4,-23.57 -10.04,-25.56 -9.69,-27.68 -9.34,-30.01 -8.99,-32.41 -8.64,-34.7 -8.28,-36.82 -7.93,-38.87 -7.58,-41.04 -7.23,-43.39 -6.87,-45.76 -6.52,-48 -6.17,-50.08 -5.82,-52.08 -5.46,-53.98 -5.11,-55.8 -4.76,-57.63 -4.41,-59.46 -4.05,-61.21 -3.7,-62.88 -3.35,-64.49 -3,-65.91 -2.64,-67.02 -2.29,-67.88 -1.94,-68.68 -1.59,-69.57 -1.23,-70.61 -0.88,-71.53 -0.53,-72.03 -0.18,-72.11 0.18,-72.04 0.53,-71.94 0.88,-71.64 1.23,-71.13 1.59,-70.56 1.94,-70 2.29,-69.39 2.64,-68.63 3,-67.77 3.35,-66.79 3.7,-65.62 4.05,-64.17 4.41,-62.54 4.76,-60.79 5.11,-58.9 5.46,-56.91 5.82,-54.91 6.17,-52.91 6.52,-50.92 6.87,-48.92 7.23,-46.86 7.58,-44.71 7.93,-42.57 8.28,-40.42 8.64,-38.21 8.99,-35.95 9.34,-33.67 9.69,-31.37 10.04,-29.08 10.4,-26.8 10.75,-24.6 11.1,-22.48 11.45,-20.33 11.81,-18.04 12.16,-15.66 12.51,-13.38 12.86,-11.33 13.22,-9.46 13.57,-7.68 13.92,-5.92 14.27,-4.17 14.63,-2.47 14.98,-0.88 15.33,0.58 15.68,1.98 16.04,3.39 16.39,4.84 16.74,6.28 17.09,7.67 17.45,8.96 17.8,10.09 18.15,11.06 18.5,11.96 18.86,12.86 19.21,13.73 19.56,14.52 19.91,15.23 20.27,15.89 20.62,16.52 20.97,17.1 21.32,17.64 21.68,18.18 22.03,18.73 22.38,19.25 22.73,19.7 23.09,20.09 23.44,20.44 23.79,20.76 24.14,21.05 24.5,21.3 24.85,21.53 25.2,21.74 25.55,21.95 25.91,22.15 26.26,22.33 26.61,22.51 26.96,22.66 27.32,22.79 27.67,22.91 28.02,23 28.37,23.07 28.73,23.14 29.08,23.21 29.43,23.28 29.78,23.35 30.13,23.41 30.49,23.46 30.84,23.5 31.19,23.54 31.54,23.57 31.9,23.59 32.25,23.62 32.6,23.64 32.95,23.66 33.31,23.67 33.66,23.69 34.01,23.7 34.36,23.72 34.72,23.73 35.07,23.73 35.42,23.74 35.77,23.74 36.13,23.74 36.48,23.74 36.83,23.75 37.18,23.75 37.54,23.76 37.89,23.76 38.24,23.76 38.59,23.77 38.95,23.77 39.3,23.77 39.65,23.77 40,23.77 40.36,23.77 40.71,23.77 41.06,23.77 41.41,23.77 41.77,23.77 42.12,23.77 42.47,23.77 42.82,23.77 43.18,23.77 43.53,23.77 43.88,23.77 44.23,23.77 44.59,23.77 44.94,23.77  z" class="primitive"/>
          </g>
        </g>
      </g>
    </g>
  </g>
  <g class="guide ylabels" font-size="2.82" font-family="'PT Sans Caption','Helvetica Neue','Helvetica',sans-serif" fill="#6C606B" id="img-891d7e56-25">
    <g transform="translate(9.97,108.01)" id="img-891d7e56-26">
      <g class="primitive">
        <text text-anchor="end" dy="0.35em">0.0</text>
      </g>
    </g>
    <g transform="translate(9.97,83.96)" id="img-891d7e56-27">
      <g class="primitive">
        <text text-anchor="end" dy="0.35em">0.1</text>
      </g>
    </g>
    <g transform="translate(9.97,59.91)" id="img-891d7e56-28">
      <g class="primitive">
        <text text-anchor="end" dy="0.35em">0.2</text>
      </g>
    </g>
    <g transform="translate(9.97,35.86)" id="img-891d7e56-29">
      <g class="primitive">
        <text text-anchor="end" dy="0.35em">0.3</text>
      </g>
    </g>
    <g transform="translate(9.97,11.81)" id="img-891d7e56-30">
      <g class="primitive">
        <text text-anchor="end" dy="0.35em">0.4</text>
      </g>
    </g>
  </g>
  <g font-size="3.88" font-family="'PT Sans','Helvetica Neue','Helvetica',sans-serif" fill="#564A55" stroke="#000000" stroke-opacity="0.000" id="img-891d7e56-31">
    <g transform="translate(66.49,5)" id="img-891d7e56-32">
      <g class="primitive">
        <text text-anchor="middle" dy="0.6em">Standard Normal</text>
      </g>
    </g>
  </g>
</g>
<defs>
  <clipPath id="img-891d7e56-4">
    <path d="M10.97,9.81 L122,9.81 122,110.01 10.97,110.01 " />
  </clipPath>
</defs>
</svg>
