<?xml version="1.0" encoding="UTF-8"?>
<svg xmlns="http://www.w3.org/2000/svg"
     xmlns:xlink="http://www.w3.org/1999/xlink"
     xmlns:gadfly="http://www.gadflyjl.org/ns"
     version="1.2"
     width="127mm" height="127mm" viewBox="0 0 127 127"
     stroke="none"
     fill="#000000"
     stroke-width="0.3"
     font-size="3.88"
>
<defs>
  <marker id="arrow" markerWidth="15" markerHeight="7" refX="5" refY="3.5" orient="auto" markerUnits="strokeWidth">
    <path d="M0,0 L15,3.5 L0,7 z" stroke="context-stroke" fill="context-stroke"/>
  </marker>
</defs>
<g class="plotroot xscalable yscalable" id="img-526b9429-1">
  <g font-size="3.88" font-family="'PT Sans','Helvetica Neue','Helvetica',sans-serif" fill="#564A55" stroke="#000000" stroke-opacity="0.000" id="img-526b9429-2">
    <g transform="translate(66.49,117.06)">
      <g class="primitive">
        <text text-anchor="middle" dy="0.6em">x</text>
      </g>
    </g>
  </g>
  <g class="guide xlabels" font-size="2.82" font-family="'PT Sans Caption','Helvetica Neue','Helvetica',sans-serif" fill="#6C606B" id="img-526b9429-3">
    <g transform="translate(12.97,111.01)">
      <g class="primitive">
        <text text-anchor="middle" dy="0.6em">-5</text>
      </g>
    </g>
    <g transform="translate(48.65,111.01)">
      <g class="primitive">
        <text text-anchor="middle" dy="0.6em">0</text>
      </g>
    </g>
    <g transform="translate(84.32,111.01)">
      <g class="primitive">
        <text text-anchor="middle" dy="0.6em">5</text>
      </g>
    </g>
    <g transform="translate(120,111.01)">
      <g class="primitive">
        <text text-anchor="middle" dy="0.6em">10</text>
      </g>
    </g>
  </g>
  <g clip-path="url(#img-526b9429-4)">
    <g id="img-526b9429-5">
      <g pointer-events="visible" stroke-width="0.3" fill="#000000" fill-opacity="0.000" stroke="#000000" stroke-opacity="0.000" class="guide background" id="img-526b9429-6">
        <g transform="translate(66.49,59.91)" id="img-526b9429-7">
          <path d="M-55.51,-50.1 L55.51,-50.1 55.51,50.1 -55.51,50.1  z" class="primitive"/>
        </g>
      </g>
      <g class="guide ygridlines xfixed" stroke-dasharray="0.5,0.5" stroke-width="0.2" stroke="#D0D0E0" id="img-526b9429-8">
        <g transform="translate(66.49,108.01)" id="img-526b9429-9">
          <path fill="none" d="M-55.51,0 L55.51,0 " class="primitive"/>
        </g>
        <g transform="translate(66.49,83.96)" id="img-526b9429-10">
          <path fill="none" d="M-55.51,0 L55.51,0 " class="primitive"/>
        </g>
        <g transform="translate(66.49,59.91)" id="img-526b9429-11">
          <path fill="none" d="M-55.51,0 L55.51,0 " class="primitive"/>
        </g>
        <g transform="translate(66.49,35.86)" id="img-526b9429-12">
          <path fill="none" d="M-55.51,0 L55.51,0 " class="primitive"/>
        </g>
        <g transform="translate(66.49,11.81)" id="img-526b9429-13">
          <path fill="none" d="M-55.51,0 L55.51,0 " class="primitive"/>
        </g>
      </g>
      <g class="guide xgridlines yfixed" stroke-dasharray="0.5,0.5" stroke-width="0.2" stroke="#D0D0E0" id="img-526b9429-14">
        <g transform="translate(12.97,59.91)" id="img-526b9429-15">
          <path fill="none" d="M0,-50.1 L0,50.1 " class="primitive"/>
        </g>
        <g transform="translate(48.65,59.91)" id="img-526b9429-16">
          <path fill="none" d="M0,-50.1 L0,50.1 " class="primitive"/>
        </g>
        <g transform="translate(84.32,59.91)" id="img-526b9429-17">
          <path fill="none" d="M0,-50.1 L0,50.1 " class="primitive"/>
        </g>
        <g transform="translate(120,59.91)" id="img-526b9429-18">
          <path fill="none" d="M0,-50.1 L0,50.1 " class="primitive"/>
        </g>
      </g>
      <g class="plotpanel" id="img-526b9429-19">
        <metadata>
          <boundingbox value="10.97116156684028mm 9.809475368923614mm 111.02883843315972mm 100.20144856770834mm"/>
          <unitbox value="-5.280298286323412 0.40831588309646866 15.560596572646824 -0.41663176619293724"/>
        </metadata>
        <g class="geometry" stroke-width="0.3" stroke-dasharray="none" fill-opacity="1" stroke="#FFFFFF" fill="#B9EAFF" id="img-526b9429-20">
          <g transform="translate(49.11,84.06)" id="img-526b9429-21">
            <path d="M-35.68,23.96 L-35.4,23.96 -35.12,23.95 -34.84,23.95 -34.56,23.95 -34.28,23.95 -34,23.95 -33.72,23.95 -33.44,23.95 -33.16,23.95 -32.88,23.95 -32.6,23.95 -32.32,23.95 -32.04,23.95 -31.76,23.95 -31.48,23.95 -31.2,23.95 -30.92,23.94 -30.64,23.94 -30.36,23.94 -30.08,23.93 -29.8,23.93 -29.52,23.93 -29.24,23.92 -28.96,23.92 -28.68,23.91 -28.4,23.91 -28.12,23.91 -27.84,23.9 -27.56,23.88 -27.28,23.86 -27,23.84 -26.72,23.83 -26.44,23.82 -26.16,23.8 -25.88,23.77 -25.6,23.74 -25.32,23.71 -25.04,23.67 -24.76,23.63 -24.49,23.6 -24.21,23.56 -23.93,23.52 -23.65,23.47 -23.37,23.4 -23.09,23.33 -22.81,23.25 -22.53,23.16 -22.25,23.07 -21.97,22.94 -21.69,22.8 -21.41,22.64 -21.13,22.47 -20.85,22.28 -20.57,22.07 -20.29,21.87 -20.01,21.66 -19.73,21.42 -19.45,21.13 -19.17,20.8 -18.89,20.45 -18.61,20.09 -18.33,19.71 -18.05,19.28 -17.77,18.8 -17.49,18.28 -17.21,17.72 -16.93,17.11 -16.65,16.46 -16.37,15.8 -16.09,15.1 -15.81,14.33 -15.53,13.5 -15.25,12.64 -14.97,11.77 -14.69,10.82 -14.41,9.69 -14.13,8.42 -13.85,7.12 -13.57,5.8 -13.29,4.48 -13.01,3.15 -12.73,1.76 -12.45,0.3 -12.17,-1.19 -11.89,-2.72 -11.61,-4.34 -11.33,-6.09 -11.05,-7.98 -10.77,-10.05 -10.49,-12.24 -10.21,-14.37 -9.93,-16.37 -9.65,-18.36 -9.37,-20.41 -9.09,-22.47 -8.81,-24.54 -8.53,-26.64 -8.25,-28.85 -7.98,-31.14 -7.7,-33.41 -7.42,-35.63 -7.14,-37.82 -6.86,-39.99 -6.58,-42.17 -6.3,-44.4 -6.02,-46.63 -5.74,-48.79 -5.46,-50.88 -5.18,-52.95 -4.9,-54.97 -4.62,-56.88 -4.34,-58.7 -4.06,-60.46 -3.78,-62.1 -3.5,-63.59 -3.22,-64.96 -2.94,-66.19 -2.66,-67.32 -2.38,-68.31 -2.1,-69.18 -1.82,-69.99 -1.54,-70.79 -1.26,-71.5 -0.98,-71.96 -0.7,-72.19 -0.42,-72.22 -0.14,-72.03 0.14,-71.63 0.42,-71.13 0.7,-70.6 0.98,-69.9 1.26,-68.9 1.54,-67.72 1.82,-66.53 2.1,-65.38 2.38,-64.19 2.66,-62.88 2.94,-61.4 3.22,-59.71 3.5,-57.82 3.78,-55.79 4.06,-53.74 4.34,-51.75 4.62,-49.82 4.9,-47.87 5.18,-45.86 5.46,-43.77 5.74,-41.59 6.02,-39.38 6.3,-37.17 6.58,-35 6.86,-32.85 7.14,-30.71 7.42,-28.53 7.7,-26.28 7.98,-24.03 8.25,-21.87 8.53,-19.8 8.81,-17.75 9.09,-15.68 9.37,-13.53 9.65,-11.39 9.93,-9.39 10.21,-7.57 10.49,-5.81 10.77,-4.08 11.05,-2.39 11.33,-0.74 11.61,0.88 11.89,2.49 12.17,4.06 12.45,5.54 12.73,6.9 13.01,8.14 13.29,9.28 13.57,10.32 13.85,11.31 14.13,12.23 14.41,13.07 14.69,13.87 14.97,14.68 15.25,15.44 15.53,16.08 15.81,16.64 16.09,17.22 16.37,17.85 16.65,18.49 16.93,19.06 17.21,19.53 17.49,19.92 17.77,20.25 18.05,20.58 18.33,20.89 18.61,21.2 18.89,21.48 19.17,21.73 19.45,21.95 19.73,22.15 20.01,22.34 20.29,22.52 20.57,22.68 20.85,22.81 21.13,22.92 21.41,23.02 21.69,23.14 21.97,23.25 22.25,23.36 22.53,23.43 22.81,23.47 23.09,23.5 23.37,23.55 23.65,23.62 23.93,23.67 24.21,23.71 24.49,23.74 24.76,23.76 25.04,23.79 25.32,23.82 25.6,23.85 25.88,23.86 26.16,23.87 26.44,23.89 26.72,23.9 27,23.91 27.28,23.92 27.56,23.93 27.84,23.93 28.12,23.93 28.4,23.92 28.68,23.93 28.96,23.93 29.24,23.93 29.52,23.93 29.8,23.94 30.08,23.94 30.36,23.95 30.64,23.95 30.92,23.95 31.2,23.95 31.48,23.95 31.76,23.95 32.04,23.95 32.32,23.95 32.6,23.95 32.88,23.95 33.16,23.95 33.44,23.95 33.72,23.95 34,23.95 34.28,23.95 34.56,23.95 34.84,23.95 35.12,23.95 35.4,23.96 35.68,23.96  z" class="primitive"/>
          </g>
        </g>
      </g>
    </g>
  </g>
  <g class="guide ylabels" font-size="2.82" font-family="'PT Sans Caption','Helvetica Neue','Helvetica',sans-serif" fill="#6C606B" id="img-526b9429-22">
    <g transform="translate(9.97,108.01)" id="img-526b9429-23">
      <g class="primitive">
        <text text-anchor="end" dy="0.35em">0.0</text>
      </g>
    </g>
    <g transform="translate(9.97,83.96)" id="img-526b9429-24">
      <g class="primitive">
        <text text-anchor="end" dy="0.35em">0.1</text>
      </g>
    </g>
    <g transform="translate(9.97,59.91)" id="img-526b9429-25">
      <g class="primitive">
        <text text-anchor="end" dy="0.35em">0.2</text>
      </g>
    </g>
    <g transform="translate(9.97,35.86)" id="img-526b9429-26">
      <g class="primitive">
        <text text-anchor="end" dy="0.35em">0.3</text>
      </g>
    </g>
    <g transform="translate(9.97,11.81)" id="img-526b9429-27">
      <g class="primitive">
        <text text-anchor="end" dy="0.35em">0.4</text>
      </g>
    </g>
  </g>
  <g font-size="3.88" font-family="'PT Sans','Helvetica Neue','Helvetica',sans-serif" fill="#564A55" stroke="#000000" stroke-opacity="0.000" id="img-526b9429-28">
    <g transform="translate(66.49,5)" id="img-526b9429-29">
      <g class="primitive">
        <text text-anchor="middle" dy="0.6em">Standard Normal</text>
      </g>
    </g>
  </g>
</g>
<defs>
  <clipPath id="img-526b9429-4">
    <path d="M10.97,9.81 L122,9.81 122,110.01 10.97,110.01 " />
  </clipPath>
</defs>
</svg>
