<?xml version="1.0" encoding="UTF-8"?>
<svg xmlns="http://www.w3.org/2000/svg"
     xmlns:xlink="http://www.w3.org/1999/xlink"
     xmlns:gadfly="http://www.gadflyjl.org/ns"
     version="1.2"
     width="101.6mm" height="101.6mm" viewBox="0 0 101.6 101.6"
     stroke="none"
     fill="#000000"
     stroke-width="0.3"
     font-size="3.88"
>
<defs>
  <marker id="arrow" markerWidth="15" markerHeight="7" refX="5" refY="3.5" orient="auto" markerUnits="strokeWidth">
    <path d="M0,0 L15,3.5 L0,7 z" stroke="context-stroke" fill="context-stroke"/>
  </marker>
</defs>
<g class="plotroot xscalable yscalable" id="img-ea9bd553-1">
  <g font-size="3.88" font-family="'PT Sans','Helvetica Neue','Helvetica',sans-serif" fill="#564A55" stroke="#000000" stroke-opacity="0.000" id="img-ea9bd553-2">
    <g transform="translate(53.75,91.66)">
      <g class="primitive">
        <text text-anchor="middle" dy="0.6em">x</text>
      </g>
    </g>
  </g>
  <g class="guide xlabels" font-size="2.82" font-family="'PT Sans Caption','Helvetica Neue','Helvetica',sans-serif" fill="#6C606B" id="img-ea9bd553-3">
    <g transform="translate(12.9,85.61)">
      <g class="primitive">
        <text text-anchor="middle" dy="0.6em">0.0</text>
      </g>
    </g>
    <g transform="translate(53.75,85.61)">
      <g class="primitive">
        <text text-anchor="middle" dy="0.6em">0.5</text>
      </g>
    </g>
    <g transform="translate(94.6,85.61)">
      <g class="primitive">
        <text text-anchor="middle" dy="0.6em">1.0</text>
      </g>
    </g>
  </g>
  <g clip-path="url(#img-ea9bd553-4)">
    <g id="img-ea9bd553-5">
      <g pointer-events="visible" stroke-width="0.3" fill="#000000" fill-opacity="0.000" stroke="#000000" stroke-opacity="0.000" class="guide background" id="img-ea9bd553-6">
        <g transform="translate(53.75,47.21)" id="img-ea9bd553-7">
          <path d="M-42.85,-37.4 L42.85,-37.4 42.85,37.4 -42.85,37.4  z" class="primitive"/>
        </g>
      </g>
      <g class="guide ygridlines xfixed" stroke-dasharray="0.5,0.5" stroke-width="0.2" stroke="#D0D0E0" id="img-ea9bd553-8">
        <g transform="translate(53.75,82.61)" id="img-ea9bd553-9">
          <path fill="none" d="M-42.85,0 L42.85,0 " class="primitive"/>
        </g>
        <g transform="translate(53.75,59.01)" id="img-ea9bd553-10">
          <path fill="none" d="M-42.85,0 L42.85,0 " class="primitive"/>
        </g>
        <g transform="translate(53.75,35.41)" id="img-ea9bd553-11">
          <path fill="none" d="M-42.85,0 L42.85,0 " class="primitive"/>
        </g>
        <g transform="translate(53.75,11.81)" id="img-ea9bd553-12">
          <path fill="none" d="M-42.85,0 L42.85,0 " class="primitive"/>
        </g>
      </g>
      <g class="guide xgridlines yfixed" stroke-dasharray="0.5,0.5" stroke-width="0.2" stroke="#D0D0E0" id="img-ea9bd553-13">
        <g transform="translate(12.9,47.21)" id="img-ea9bd553-14">
          <path fill="none" d="M0,-37.4 L0,37.4 " class="primitive"/>
        </g>
        <g transform="translate(53.75,47.21)" id="img-ea9bd553-15">
          <path fill="none" d="M0,-37.4 L0,37.4 " class="primitive"/>
        </g>
        <g transform="translate(94.6,47.21)" id="img-ea9bd553-16">
          <path fill="none" d="M0,-37.4 L0,37.4 " class="primitive"/>
        </g>
      </g>
      <g class="plotpanel" id="img-ea9bd553-17">
        <metadata>
          <boundingbox value="10.900192599826383mm 9.809475368923614mm 85.6998074001736mm 74.80110405815972mm"/>
          <unitbox value="-0.024479861870466912 1.5423722206017527 1.0489597237409338 -1.5847444412035054"/>
        </metadata>
        <g class="geometry" stroke-width="0.3" stroke-dasharray="none" fill-opacity="1" stroke="#FFFFFF" fill="#B9EAFF" id="img-ea9bd553-18">
          <g transform="translate(53.75,41.04)" id="img-ea9bd553-19">
            <path d="M-46.2,41.57 L-45.84,41.56 -45.48,41.55 -45.12,41.53 -44.76,41.48 -44.39,41.37 -44.03,41.14 -43.67,40.71 -43.31,39.96 -42.94,38.74 -42.58,36.89 -42.22,34.28 -41.86,30.86 -41.49,26.67 -41.13,21.91 -40.77,16.87 -40.41,11.91 -40.04,7.36 -39.68,3.47 -39.32,0.38 -38.96,-1.91 -38.59,-3.47 -38.23,-4.47 -37.87,-5.04 -37.51,-5.33 -37.14,-5.46 -36.78,-5.49 -36.42,-5.49 -36.06,-5.47 -35.7,-5.45 -35.33,-5.44 -34.97,-5.44 -34.61,-5.44 -34.25,-5.45 -33.88,-5.46 -33.52,-5.48 -33.16,-5.49 -32.8,-5.52 -32.43,-5.54 -32.07,-5.58 -31.71,-5.62 -31.35,-5.67 -30.98,-5.73 -30.62,-5.78 -30.26,-5.82 -29.9,-5.84 -29.53,-5.85 -29.17,-5.85 -28.81,-5.84 -28.45,-5.82 -28.09,-5.8 -27.72,-5.78 -27.36,-5.76 -27,-5.75 -26.64,-5.73 -26.27,-5.72 -25.91,-5.72 -25.55,-5.72 -25.19,-5.72 -24.82,-5.72 -24.46,-5.71 -24.1,-5.71 -23.74,-5.71 -23.37,-5.72 -23.01,-5.73 -22.65,-5.76 -22.29,-5.79 -21.92,-5.82 -21.56,-5.84 -21.2,-5.85 -20.84,-5.84 -20.48,-5.81 -20.11,-5.76 -19.75,-5.7 -19.39,-5.62 -19.03,-5.55 -18.66,-5.48 -18.3,-5.41 -17.94,-5.36 -17.58,-5.32 -17.21,-5.3 -16.85,-5.3 -16.49,-5.32 -16.13,-5.36 -15.76,-5.42 -15.4,-5.49 -15.04,-5.57 -14.68,-5.64 -14.31,-5.7 -13.95,-5.74 -13.59,-5.75 -13.23,-5.73 -12.86,-5.68 -12.5,-5.63 -12.14,-5.57 -11.78,-5.51 -11.42,-5.48 -11.05,-5.47 -10.69,-5.48 -10.33,-5.5 -9.97,-5.54 -9.6,-5.57 -9.24,-5.6 -8.88,-5.61 -8.52,-5.61 -8.15,-5.6 -7.79,-5.58 -7.43,-5.56 -7.07,-5.55 -6.7,-5.56 -6.34,-5.58 -5.98,-5.61 -5.62,-5.65 -5.25,-5.7 -4.89,-5.75 -4.53,-5.8 -4.17,-5.83 -3.81,-5.84 -3.44,-5.84 -3.08,-5.81 -2.72,-5.77 -2.36,-5.71 -1.99,-5.64 -1.63,-5.58 -1.27,-5.54 -0.91,-5.52 -0.54,-5.53 -0.18,-5.58 0.18,-5.65 0.54,-5.74 0.91,-5.83 1.27,-5.91 1.63,-5.96 1.99,-5.97 2.36,-5.95 2.72,-5.9 3.08,-5.82 3.44,-5.73 3.81,-5.66 4.17,-5.6 4.53,-5.56 4.89,-5.56 5.25,-5.58 5.62,-5.61 5.98,-5.65 6.34,-5.69 6.7,-5.72 7.07,-5.74 7.43,-5.75 7.79,-5.75 8.15,-5.75 8.52,-5.73 8.88,-5.7 9.24,-5.67 9.6,-5.63 9.97,-5.59 10.33,-5.56 10.69,-5.55 11.05,-5.56 11.42,-5.6 11.78,-5.66 12.14,-5.73 12.5,-5.81 12.86,-5.88 13.23,-5.93 13.59,-5.95 13.95,-5.96 14.31,-5.94 14.68,-5.9 15.04,-5.86 15.4,-5.82 15.76,-5.78 16.13,-5.75 16.49,-5.73 16.85,-5.72 17.21,-5.71 17.58,-5.71 17.94,-5.7 18.3,-5.7 18.66,-5.69 19.03,-5.67 19.39,-5.64 19.75,-5.61 20.11,-5.57 20.48,-5.53 20.84,-5.5 21.2,-5.48 21.56,-5.47 21.92,-5.48 22.29,-5.49 22.65,-5.5 23.01,-5.51 23.37,-5.52 23.74,-5.52 24.1,-5.53 24.46,-5.54 24.82,-5.54 25.19,-5.55 25.55,-5.55 25.91,-5.55 26.27,-5.54 26.64,-5.54 27,-5.52 27.36,-5.51 27.72,-5.49 28.09,-5.47 28.45,-5.45 28.81,-5.44 29.17,-5.44 29.53,-5.45 29.9,-5.49 30.26,-5.53 30.62,-5.58 30.98,-5.63 31.35,-5.68 31.71,-5.72 32.07,-5.76 32.43,-5.78 32.8,-5.78 33.16,-5.78 33.52,-5.77 33.88,-5.74 34.25,-5.71 34.61,-5.69 34.97,-5.66 35.33,-5.64 35.7,-5.62 36.06,-5.6 36.42,-5.57 36.78,-5.52 37.14,-5.42 37.51,-5.23 37.87,-4.87 38.23,-4.25 38.59,-3.23 38.96,-1.66 39.32,0.62 39.68,3.7 40.04,7.56 40.41,12.09 40.77,17.02 41.13,22.03 41.49,26.77 41.86,30.93 42.22,34.33 42.58,36.93 42.94,38.77 43.31,39.98 43.67,40.72 44.03,41.14 44.39,41.37 44.76,41.48 45.12,41.53 45.48,41.55 45.84,41.56 46.2,41.57  z" class="primitive"/>
          </g>
        </g>
      </g>
    </g>
  </g>
  <g class="guide ylabels" font-size="2.82" font-family="'PT Sans Caption','Helvetica Neue','Helvetica',sans-serif" fill="#6C606B" id="img-ea9bd553-20">
    <g transform="translate(9.9,82.61)" id="img-ea9bd553-21">
      <g class="primitive">
        <text text-anchor="end" dy="0.35em">0.0</text>
      </g>
    </g>
    <g transform="translate(9.9,59.01)" id="img-ea9bd553-22">
      <g class="primitive">
        <text text-anchor="end" dy="0.35em">0.5</text>
      </g>
    </g>
    <g transform="translate(9.9,35.41)" id="img-ea9bd553-23">
      <g class="primitive">
        <text text-anchor="end" dy="0.35em">1.0</text>
      </g>
    </g>
    <g transform="translate(9.9,11.81)" id="img-ea9bd553-24">
      <g class="primitive">
        <text text-anchor="end" dy="0.35em">1.5</text>
      </g>
    </g>
  </g>
  <g font-size="3.88" font-family="'PT Sans','Helvetica Neue','Helvetica',sans-serif" fill="#564A55" stroke="#000000" stroke-opacity="0.000" id="img-ea9bd553-25">
    <g transform="translate(53.75,5)" id="img-ea9bd553-26">
      <g class="primitive">
        <text text-anchor="middle" dy="0.6em">Standard Uniform</text>
      </g>
    </g>
  </g>
</g>
<defs>
  <clipPath id="img-ea9bd553-4">
    <path d="M10.9,9.81 L96.6,9.81 96.6,84.61 10.9,84.61 " />
  </clipPath>
</defs>
</svg>
