<?xml version="1.0" encoding="UTF-8"?>
<svg xmlns="http://www.w3.org/2000/svg"
     xmlns:xlink="http://www.w3.org/1999/xlink"
     xmlns:gadfly="http://www.gadflyjl.org/ns"
     version="1.2"
     width="101.6mm" height="101.6mm" viewBox="0 0 101.6 101.6"
     stroke="none"
     fill="#000000"
     stroke-width="0.3"
     font-size="3.88"
>
<defs>
  <marker id="arrow" markerWidth="15" markerHeight="7" refX="5" refY="3.5" orient="auto" markerUnits="strokeWidth">
    <path d="M0,0 L15,3.5 L0,7 z" stroke="context-stroke" fill="context-stroke"/>
  </marker>
</defs>
<g class="plotroot xscalable yscalable" id="img-c3dc8c31-1">
  <g font-size="3.88" font-family="'PT Sans','Helvetica Neue','Helvetica',sans-serif" fill="#564A55" stroke="#000000" stroke-opacity="0.000" id="img-c3dc8c31-2">
    <g transform="translate(53.79,91.66)">
      <g class="primitive">
        <text text-anchor="middle" dy="0.6em">x</text>
      </g>
    </g>
  </g>
  <g class="guide xlabels" font-size="2.82" font-family="'PT Sans Caption','Helvetica Neue','Helvetica',sans-serif" fill="#6C606B" id="img-c3dc8c31-3">
    <g transform="translate(12.97,85.61)">
      <g class="primitive">
        <text text-anchor="middle" dy="0.6em">0</text>
      </g>
    </g>
    <g transform="translate(26.58,85.61)">
      <g class="primitive">
        <text text-anchor="middle" dy="0.6em">1</text>
      </g>
    </g>
    <g transform="translate(40.18,85.61)">
      <g class="primitive">
        <text text-anchor="middle" dy="0.6em">2</text>
      </g>
    </g>
    <g transform="translate(53.79,85.61)">
      <g class="primitive">
        <text text-anchor="middle" dy="0.6em">3</text>
      </g>
    </g>
    <g transform="translate(67.39,85.61)">
      <g class="primitive">
        <text text-anchor="middle" dy="0.6em">4</text>
      </g>
    </g>
    <g transform="translate(81,85.61)">
      <g class="primitive">
        <text text-anchor="middle" dy="0.6em">5</text>
      </g>
    </g>
    <g transform="translate(94.6,85.61)">
      <g class="primitive">
        <text text-anchor="middle" dy="0.6em">6</text>
      </g>
    </g>
  </g>
  <g clip-path="url(#img-c3dc8c31-4)">
    <g id="img-c3dc8c31-5">
      <g pointer-events="visible" stroke-width="0.3" fill="#000000" fill-opacity="0.000" stroke="#000000" stroke-opacity="0.000" class="guide background" id="img-c3dc8c31-6">
        <g transform="translate(53.79,47.61)" id="img-c3dc8c31-7">
          <path d="M-42.81,-37 L42.81,-37 42.81,37 -42.81,37  z" class="primitive"/>
        </g>
      </g>
      <g class="guide ygridlines xfixed" stroke-dasharray="0.5,0.5" stroke-width="0.2" stroke="#D0D0E0" id="img-c3dc8c31-8">
        <g transform="translate(53.79,82.61)" id="img-c3dc8c31-9">
          <path fill="none" d="M-42.81,0 L42.81,0 " class="primitive"/>
        </g>
        <g transform="translate(53.79,68.61)" id="img-c3dc8c31-10">
          <path fill="none" d="M-42.81,0 L42.81,0 " class="primitive"/>
        </g>
        <g transform="translate(53.79,54.61)" id="img-c3dc8c31-11">
          <path fill="none" d="M-42.81,0 L42.81,0 " class="primitive"/>
        </g>
        <g transform="translate(53.79,40.61)" id="img-c3dc8c31-12">
          <path fill="none" d="M-42.81,0 L42.81,0 " class="primitive"/>
        </g>
        <g transform="translate(53.79,26.62)" id="img-c3dc8c31-13">
          <path fill="none" d="M-42.81,0 L42.81,0 " class="primitive"/>
        </g>
        <g transform="translate(53.79,12.62)" id="img-c3dc8c31-14">
          <path fill="none" d="M-42.81,0 L42.81,0 " class="primitive"/>
        </g>
      </g>
      <g class="guide xgridlines yfixed" stroke-dasharray="0.5,0.5" stroke-width="0.2" stroke="#D0D0E0" id="img-c3dc8c31-15">
        <g transform="translate(12.97,47.61)" id="img-c3dc8c31-16">
          <path fill="none" d="M0,-37 L0,37 " class="primitive"/>
        </g>
        <g transform="translate(26.58,47.61)" id="img-c3dc8c31-17">
          <path fill="none" d="M0,-37 L0,37 " class="primitive"/>
        </g>
        <g transform="translate(40.18,47.61)" id="img-c3dc8c31-18">
          <path fill="none" d="M0,-37 L0,37 " class="primitive"/>
        </g>
        <g transform="translate(53.79,47.61)" id="img-c3dc8c31-19">
          <path fill="none" d="M0,-37 L0,37 " class="primitive"/>
        </g>
        <g transform="translate(67.39,47.61)" id="img-c3dc8c31-20">
          <path fill="none" d="M0,-37 L0,37 " class="primitive"/>
        </g>
        <g transform="translate(81,47.61)" id="img-c3dc8c31-21">
          <path fill="none" d="M0,-37 L0,37 " class="primitive"/>
        </g>
        <g transform="translate(94.6,47.61)" id="img-c3dc8c31-22">
          <path fill="none" d="M0,-37 L0,37 " class="primitive"/>
        </g>
      </g>
      <g class="plotpanel" id="img-c3dc8c31-23">
        <metadata>
          <boundingbox value="10.97116156684028mm 10.616661241319449mm 85.62883843315971mm 73.9942626953125mm"/>
          <unitbox value="-0.14700686951249442 0.5142868852601967 6.294013739024989 -0.5285737705203936"/>
        </metadata>
        <g class="geometry" stroke-width="0.3" stroke-dasharray="none" fill-opacity="1" stroke="#FFFFFF" fill="#B9EAFF" id="img-c3dc8c31-24">
          <g transform="translate(53.78,50.78)" id="img-c3dc8c31-25">
            <path d="M-29.8,31.83 L-29.57,31.83 -29.34,31.83 -29.1,31.82 -28.87,31.82 -28.63,31.81 -28.4,31.78 -28.17,31.71 -27.93,31.59 -27.7,31.37 -27.47,31.02 -27.23,30.52 -27,29.84 -26.76,29.01 -26.53,28.05 -26.3,27 -26.06,25.89 -25.83,24.76 -25.6,23.61 -25.36,22.45 -25.13,21.27 -24.89,20.07 -24.66,18.85 -24.43,17.63 -24.19,16.4 -23.96,15.17 -23.73,13.95 -23.49,12.73 -23.26,11.52 -23.02,10.32 -22.79,9.14 -22.56,7.97 -22.32,6.79 -22.09,5.61 -21.86,4.42 -21.62,3.2 -21.39,1.96 -21.15,0.72 -20.92,-0.53 -20.69,-1.77 -20.45,-3.01 -20.22,-4.24 -19.99,-5.47 -19.75,-6.69 -19.52,-7.89 -19.28,-9.09 -19.05,-10.27 -18.82,-11.44 -18.58,-12.61 -18.35,-13.78 -18.12,-14.95 -17.88,-16.1 -17.65,-17.25 -17.41,-18.4 -17.18,-19.58 -16.95,-20.8 -16.71,-22.06 -16.48,-23.34 -16.25,-24.63 -16.01,-25.9 -15.78,-27.15 -15.54,-28.39 -15.31,-29.63 -15.08,-30.86 -14.84,-32.06 -14.61,-33.21 -14.38,-34.27 -14.14,-35.21 -13.91,-35.99 -13.67,-36.56 -13.44,-36.91 -13.21,-37.06 -12.97,-37.04 -12.74,-36.89 -12.51,-36.65 -12.27,-36.36 -12.04,-36.02 -11.8,-35.63 -11.57,-35.21 -11.34,-34.75 -11.1,-34.27 -10.87,-33.78 -10.64,-33.31 -10.4,-32.86 -10.17,-32.43 -9.93,-32 -9.7,-31.57 -9.47,-31.12 -9.23,-30.66 -9,-30.21 -8.77,-29.79 -8.53,-29.41 -8.3,-29.07 -8.06,-28.73 -7.83,-28.37 -7.6,-27.96 -7.36,-27.5 -7.13,-27.02 -6.9,-26.55 -6.66,-26.1 -6.43,-25.71 -6.19,-25.38 -5.96,-25.11 -5.73,-24.84 -5.49,-24.56 -5.26,-24.22 -5.03,-23.8 -4.79,-23.33 -4.56,-22.83 -4.32,-22.32 -4.09,-21.84 -3.86,-21.41 -3.62,-21.02 -3.39,-20.66 -3.16,-20.32 -2.92,-19.97 -2.69,-19.61 -2.45,-19.23 -2.22,-18.82 -1.99,-18.38 -1.75,-17.93 -1.52,-17.46 -1.29,-16.97 -1.05,-16.49 -0.82,-16.03 -0.58,-15.61 -0.35,-15.22 -0.12,-14.86 0.12,-14.51 0.35,-14.16 0.58,-13.77 0.82,-13.37 1.05,-12.94 1.29,-12.51 1.52,-12.08 1.75,-11.67 1.99,-11.28 2.22,-10.9 2.45,-10.53 2.69,-10.17 2.92,-9.81 3.16,-9.44 3.39,-9.05 3.62,-8.66 3.86,-8.24 4.09,-7.81 4.32,-7.38 4.56,-6.95 4.79,-6.53 5.03,-6.13 5.26,-5.75 5.49,-5.39 5.73,-5.03 5.96,-4.66 6.19,-4.26 6.43,-3.81 6.66,-3.33 6.9,-2.83 7.13,-2.34 7.36,-1.86 7.6,-1.42 7.83,-1.01 8.06,-0.63 8.3,-0.27 8.53,0.07 8.77,0.4 9,0.72 9.23,1.05 9.47,1.39 9.7,1.76 9.93,2.16 10.17,2.6 10.4,3.05 10.64,3.52 10.87,3.99 11.1,4.45 11.34,4.89 11.57,5.31 11.8,5.72 12.04,6.12 12.27,6.5 12.51,6.87 12.74,7.22 12.97,7.53 13.21,7.84 13.44,8.14 13.67,8.47 13.91,8.84 14.14,9.26 14.38,9.7 14.61,10.17 14.84,10.63 15.08,11.09 15.31,11.52 15.54,11.93 15.78,12.32 16.01,12.68 16.25,13.03 16.48,13.38 16.71,13.74 16.95,14.12 17.18,14.52 17.41,14.93 17.65,15.35 17.88,15.78 18.12,16.2 18.35,16.61 18.58,17.02 18.82,17.44 19.05,17.85 19.28,18.27 19.52,18.69 19.75,19.1 19.99,19.5 20.22,19.89 20.45,20.27 20.69,20.66 20.92,21.04 21.15,21.44 21.39,21.86 21.62,22.3 21.86,22.74 22.09,23.17 22.32,23.6 22.56,24 22.79,24.39 23.02,24.77 23.26,25.14 23.49,25.53 23.73,25.93 23.96,26.33 24.19,26.74 24.43,27.15 24.66,27.56 24.89,27.96 25.13,28.35 25.36,28.74 25.6,29.13 25.83,29.51 26.06,29.89 26.3,30.26 26.53,30.61 26.76,30.93 27,31.2 27.23,31.41 27.47,31.57 27.7,31.68 27.93,31.75 28.17,31.79 28.4,31.81 28.63,31.82 28.87,31.82 29.1,31.83 29.34,31.83 29.57,31.83 29.8,31.83  z" class="primitive"/>
          </g>
        </g>
      </g>
    </g>
  </g>
  <g class="guide ylabels" font-size="2.82" font-family="'PT Sans Caption','Helvetica Neue','Helvetica',sans-serif" fill="#6C606B" id="img-c3dc8c31-26">
    <g transform="translate(9.97,82.61)" id="img-c3dc8c31-27">
      <g class="primitive">
        <text text-anchor="end" dy="0.35em">0.0</text>
      </g>
    </g>
    <g transform="translate(9.97,68.61)" id="img-c3dc8c31-28">
      <g class="primitive">
        <text text-anchor="end" dy="0.35em">0.1</text>
      </g>
    </g>
    <g transform="translate(9.97,54.61)" id="img-c3dc8c31-29">
      <g class="primitive">
        <text text-anchor="end" dy="0.35em">0.2</text>
      </g>
    </g>
    <g transform="translate(9.97,40.61)" id="img-c3dc8c31-30">
      <g class="primitive">
        <text text-anchor="end" dy="0.35em">0.3</text>
      </g>
    </g>
    <g transform="translate(9.97,26.62)" id="img-c3dc8c31-31">
      <g class="primitive">
        <text text-anchor="end" dy="0.35em">0.4</text>
      </g>
    </g>
    <g transform="translate(9.97,12.62)" id="img-c3dc8c31-32">
      <g class="primitive">
        <text text-anchor="end" dy="0.35em">0.5</text>
      </g>
    </g>
  </g>
  <g font-size="3.88" font-family="'PT Sans','Helvetica Neue','Helvetica',sans-serif" fill="#564A55" stroke="#000000" stroke-opacity="0.000" id="img-c3dc8c31-33">
    <g transform="translate(53.79,5)" id="img-c3dc8c31-34">
      <g class="primitive">
        <text text-anchor="middle" dy="0.6em">Triangular(1,5,2)</text>
      </g>
    </g>
  </g>
</g>
<defs>
  <clipPath id="img-c3dc8c31-4">
    <path d="M10.97,10.62 L96.6,10.62 96.6,84.61 10.97,84.61 " />
  </clipPath>
</defs>
</svg>
