<?xml version="1.0" encoding="UTF-8"?>
<svg xmlns="http://www.w3.org/2000/svg"
     xmlns:xlink="http://www.w3.org/1999/xlink"
     xmlns:gadfly="http://www.gadflyjl.org/ns"
     version="1.2"
     width="127mm" height="127mm" viewBox="0 0 127 127"
     stroke="none"
     fill="#000000"
     stroke-width="0.3"
     font-size="3.88"
>
<defs>
  <marker id="arrow" markerWidth="15" markerHeight="7" refX="5" refY="3.5" orient="auto" markerUnits="strokeWidth">
    <path d="M0,0 L15,3.5 L0,7 z" stroke="context-stroke" fill="context-stroke"/>
  </marker>
</defs>
<g class="plotroot xscalable yscalable" id="img-0822eafa-1">
  <g font-size="3.88" font-family="'PT Sans','Helvetica Neue','Helvetica',sans-serif" fill="#564A55" stroke="#000000" stroke-opacity="0.000" id="img-0822eafa-2">
    <g transform="translate(66.49,117.06)">
      <g class="primitive">
        <text text-anchor="middle" dy="0.6em">x</text>
      </g>
    </g>
  </g>
  <g class="guide xlabels" font-size="2.82" font-family="'PT Sans Caption','Helvetica Neue','Helvetica',sans-serif" fill="#6C606B" id="img-0822eafa-3">
    <g transform="translate(12.97,111.01)">
      <g class="primitive">
        <text text-anchor="middle" dy="0.6em">0</text>
      </g>
    </g>
    <g transform="translate(30.81,111.01)">
      <g class="primitive">
        <text text-anchor="middle" dy="0.6em">1</text>
      </g>
    </g>
    <g transform="translate(48.65,111.01)">
      <g class="primitive">
        <text text-anchor="middle" dy="0.6em">2</text>
      </g>
    </g>
    <g transform="translate(66.49,111.01)">
      <g class="primitive">
        <text text-anchor="middle" dy="0.6em">3</text>
      </g>
    </g>
    <g transform="translate(84.32,111.01)">
      <g class="primitive">
        <text text-anchor="middle" dy="0.6em">4</text>
      </g>
    </g>
    <g transform="translate(102.16,111.01)">
      <g class="primitive">
        <text text-anchor="middle" dy="0.6em">5</text>
      </g>
    </g>
    <g transform="translate(120,111.01)">
      <g class="primitive">
        <text text-anchor="middle" dy="0.6em">6</text>
      </g>
    </g>
  </g>
  <g clip-path="url(#img-0822eafa-4)">
    <g id="img-0822eafa-5">
      <g pointer-events="visible" stroke-width="0.3" fill="#000000" fill-opacity="0.000" stroke="#000000" stroke-opacity="0.000" class="guide background" id="img-0822eafa-6">
        <g transform="translate(66.49,60.31)" id="img-0822eafa-7">
          <path d="M-55.51,-49.7 L55.51,-49.7 55.51,49.7 -55.51,49.7  z" class="primitive"/>
        </g>
      </g>
      <g class="guide ygridlines xfixed" stroke-dasharray="0.5,0.5" stroke-width="0.2" stroke="#D0D0E0" id="img-0822eafa-8">
        <g transform="translate(66.49,108.01)" id="img-0822eafa-9">
          <path fill="none" d="M-55.51,0 L55.51,0 " class="primitive"/>
        </g>
        <g transform="translate(66.49,88.93)" id="img-0822eafa-10">
          <path fill="none" d="M-55.51,0 L55.51,0 " class="primitive"/>
        </g>
        <g transform="translate(66.49,69.85)" id="img-0822eafa-11">
          <path fill="none" d="M-55.51,0 L55.51,0 " class="primitive"/>
        </g>
        <g transform="translate(66.49,50.77)" id="img-0822eafa-12">
          <path fill="none" d="M-55.51,0 L55.51,0 " class="primitive"/>
        </g>
        <g transform="translate(66.49,31.7)" id="img-0822eafa-13">
          <path fill="none" d="M-55.51,0 L55.51,0 " class="primitive"/>
        </g>
        <g transform="translate(66.49,12.62)" id="img-0822eafa-14">
          <path fill="none" d="M-55.51,0 L55.51,0 " class="primitive"/>
        </g>
      </g>
      <g class="guide xgridlines yfixed" stroke-dasharray="0.5,0.5" stroke-width="0.2" stroke="#D0D0E0" id="img-0822eafa-15">
        <g transform="translate(12.97,60.31)" id="img-0822eafa-16">
          <path fill="none" d="M0,-49.7 L0,49.7 " class="primitive"/>
        </g>
        <g transform="translate(30.81,60.31)" id="img-0822eafa-17">
          <path fill="none" d="M0,-49.7 L0,49.7 " class="primitive"/>
        </g>
        <g transform="translate(48.65,60.31)" id="img-0822eafa-18">
          <path fill="none" d="M0,-49.7 L0,49.7 " class="primitive"/>
        </g>
        <g transform="translate(66.49,60.31)" id="img-0822eafa-19">
          <path fill="none" d="M0,-49.7 L0,49.7 " class="primitive"/>
        </g>
        <g transform="translate(84.32,60.31)" id="img-0822eafa-20">
          <path fill="none" d="M0,-49.7 L0,49.7 " class="primitive"/>
        </g>
        <g transform="translate(102.16,60.31)" id="img-0822eafa-21">
          <path fill="none" d="M0,-49.7 L0,49.7 " class="primitive"/>
        </g>
        <g transform="translate(120,60.31)" id="img-0822eafa-22">
          <path fill="none" d="M0,-49.7 L0,49.7 " class="primitive"/>
        </g>
      </g>
      <g class="plotpanel" id="img-0822eafa-23">
        <metadata>
          <boundingbox value="10.97116156684028mm 10.616661241319449mm 111.02883843315972mm 99.3942626953125mm"/>
          <unitbox value="-0.11211931452936479 0.5104828107240996 6.22423862905873 -0.5209656214481992"/>
        </metadata>
        <g class="geometry" stroke-width="0.3" stroke-dasharray="none" fill-opacity="1" stroke="#FFFFFF" fill="#B9EAFF" id="img-0822eafa-24">
          <g transform="translate(66.5,64.63)" id="img-0822eafa-25">
            <path d="M-39.07,43.38 L-38.76,43.38 -38.46,43.38 -38.15,43.38 -37.84,43.37 -37.54,43.36 -37.23,43.32 -36.93,43.23 -36.62,43.05 -36.31,42.75 -36.01,42.27 -35.7,41.58 -35.39,40.66 -35.09,39.52 -34.78,38.2 -34.47,36.75 -34.17,35.22 -33.86,33.62 -33.55,32 -33.25,30.36 -32.94,28.72 -32.63,27.09 -32.33,25.49 -32.02,23.9 -31.72,22.31 -31.41,20.69 -31.1,19.02 -30.8,17.3 -30.49,15.55 -30.18,13.79 -29.88,12.05 -29.57,10.34 -29.26,8.68 -28.96,7.07 -28.65,5.48 -28.34,3.91 -28.04,2.33 -27.73,0.74 -27.43,-0.88 -27.12,-2.5 -26.81,-4.13 -26.51,-5.75 -26.2,-7.38 -25.89,-9.01 -25.59,-10.65 -25.28,-12.28 -24.97,-13.92 -24.67,-15.56 -24.36,-17.21 -24.05,-18.88 -23.75,-20.58 -23.44,-22.28 -23.14,-23.99 -22.83,-25.69 -22.52,-27.36 -22.22,-29.01 -21.91,-30.63 -21.6,-32.25 -21.3,-33.87 -20.99,-35.52 -20.68,-37.2 -20.38,-38.9 -20.07,-40.58 -19.76,-42.23 -19.46,-43.8 -19.15,-45.27 -18.85,-46.61 -18.54,-47.78 -18.23,-48.73 -17.93,-49.42 -17.62,-49.82 -17.31,-49.93 -17.01,-49.78 -16.7,-49.45 -16.39,-49 -16.09,-48.51 -15.78,-48.01 -15.47,-47.54 -15.17,-47.1 -14.86,-46.66 -14.56,-46.23 -14.25,-45.79 -13.94,-45.35 -13.64,-44.92 -13.33,-44.5 -13.02,-44.07 -12.72,-43.61 -12.41,-43.12 -12.1,-42.59 -11.8,-42 -11.49,-41.37 -11.18,-40.71 -10.88,-40.02 -10.57,-39.32 -10.27,-38.64 -9.96,-37.99 -9.65,-37.36 -9.35,-36.77 -9.04,-36.2 -8.73,-35.64 -8.43,-35.1 -8.12,-34.55 -7.81,-33.99 -7.51,-33.43 -7.2,-32.88 -6.89,-32.33 -6.59,-31.81 -6.28,-31.3 -5.98,-30.81 -5.67,-30.31 -5.36,-29.79 -5.06,-29.23 -4.75,-28.63 -4.44,-28.01 -4.14,-27.38 -3.83,-26.76 -3.52,-26.16 -3.22,-25.58 -2.91,-25.02 -2.6,-24.46 -2.3,-23.9 -1.99,-23.34 -1.69,-22.78 -1.38,-22.2 -1.07,-21.62 -0.77,-21.05 -0.46,-20.49 -0.15,-19.96 0.15,-19.47 0.46,-19.01 0.77,-18.56 1.07,-18.1 1.38,-17.61 1.69,-17.08 1.99,-16.51 2.3,-15.94 2.6,-15.37 2.91,-14.82 3.22,-14.28 3.52,-13.76 3.83,-13.28 4.14,-12.84 4.44,-12.43 4.75,-12.03 5.06,-11.58 5.36,-11.06 5.67,-10.46 5.98,-9.82 6.28,-9.17 6.59,-8.54 6.89,-7.91 7.2,-7.29 7.51,-6.66 7.81,-6.03 8.12,-5.39 8.43,-4.78 8.73,-4.21 9.04,-3.69 9.35,-3.21 9.65,-2.75 9.96,-2.31 10.27,-1.88 10.57,-1.44 10.88,-0.98 11.18,-0.51 11.49,-0.01 11.8,0.52 12.1,1.08 12.41,1.65 12.72,2.25 13.02,2.87 13.33,3.51 13.64,4.17 13.94,4.85 14.25,5.53 14.56,6.17 14.86,6.77 15.17,7.31 15.47,7.79 15.78,8.25 16.09,8.69 16.39,9.15 16.7,9.64 17.01,10.15 17.31,10.68 17.62,11.22 17.93,11.75 18.23,12.27 18.54,12.77 18.85,13.27 19.15,13.77 19.46,14.28 19.76,14.81 20.07,15.35 20.38,15.92 20.68,16.51 20.99,17.12 21.3,17.73 21.6,18.35 21.91,18.97 22.22,19.58 22.52,20.17 22.83,20.75 23.14,21.31 23.44,21.86 23.75,22.41 24.05,22.96 24.36,23.51 24.67,24.04 24.97,24.57 25.28,25.08 25.59,25.58 25.89,26.09 26.2,26.6 26.51,27.11 26.81,27.64 27.12,28.16 27.43,28.7 27.73,29.23 28.04,29.77 28.34,30.31 28.65,30.85 28.96,31.4 29.26,31.95 29.57,32.51 29.88,33.07 30.18,33.64 30.49,34.21 30.8,34.78 31.1,35.34 31.41,35.91 31.72,36.47 32.02,37.02 32.33,37.56 32.63,38.09 32.94,38.61 33.25,39.12 33.55,39.64 33.86,40.15 34.17,40.67 34.47,41.18 34.78,41.66 35.09,42.1 35.39,42.49 35.7,42.8 36.01,43.03 36.31,43.18 36.62,43.28 36.93,43.34 37.23,43.36 37.54,43.38 37.84,43.38 38.15,43.38 38.46,43.38 38.76,43.38 39.07,43.38  z" class="primitive"/>
          </g>
        </g>
      </g>
    </g>
  </g>
  <g class="guide ylabels" font-size="2.82" font-family="'PT Sans Caption','Helvetica Neue','Helvetica',sans-serif" fill="#6C606B" id="img-0822eafa-26">
    <g transform="translate(9.97,108.01)" id="img-0822eafa-27">
      <g class="primitive">
        <text text-anchor="end" dy="0.35em">0.0</text>
      </g>
    </g>
    <g transform="translate(9.97,88.93)" id="img-0822eafa-28">
      <g class="primitive">
        <text text-anchor="end" dy="0.35em">0.1</text>
      </g>
    </g>
    <g transform="translate(9.97,69.85)" id="img-0822eafa-29">
      <g class="primitive">
        <text text-anchor="end" dy="0.35em">0.2</text>
      </g>
    </g>
    <g transform="translate(9.97,50.77)" id="img-0822eafa-30">
      <g class="primitive">
        <text text-anchor="end" dy="0.35em">0.3</text>
      </g>
    </g>
    <g transform="translate(9.97,31.7)" id="img-0822eafa-31">
      <g class="primitive">
        <text text-anchor="end" dy="0.35em">0.4</text>
      </g>
    </g>
    <g transform="translate(9.97,12.62)" id="img-0822eafa-32">
      <g class="primitive">
        <text text-anchor="end" dy="0.35em">0.5</text>
      </g>
    </g>
  </g>
  <g font-size="3.88" font-family="'PT Sans','Helvetica Neue','Helvetica',sans-serif" fill="#564A55" stroke="#000000" stroke-opacity="0.000" id="img-0822eafa-33">
    <g transform="translate(66.49,5)" id="img-0822eafa-34">
      <g class="primitive">
        <text text-anchor="middle" dy="0.6em">Triangular(1,5,2)</text>
      </g>
    </g>
  </g>
</g>
<defs>
  <clipPath id="img-0822eafa-4">
    <path d="M10.97,10.62 L122,10.62 122,110.01 10.97,110.01 " />
  </clipPath>
</defs>
</svg>
