<?xml version="1.0" encoding="UTF-8"?>
<svg xmlns="http://www.w3.org/2000/svg"
     xmlns:xlink="http://www.w3.org/1999/xlink"
     xmlns:gadfly="http://www.gadflyjl.org/ns"
     version="1.2"
     width="101.6mm" height="101.6mm" viewBox="0 0 101.6 101.6"
     stroke="none"
     fill="#000000"
     stroke-width="0.3"
     font-size="3.88"
>
<defs>
  <marker id="arrow" markerWidth="15" markerHeight="7" refX="5" refY="3.5" orient="auto" markerUnits="strokeWidth">
    <path d="M0,0 L15,3.5 L0,7 z" stroke="context-stroke" fill="context-stroke"/>
  </marker>
</defs>
<g class="plotroot xscalable yscalable" id="img-72e39571-1">
  <g font-size="3.88" font-family="'PT Sans','Helvetica Neue','Helvetica',sans-serif" fill="#564A55" stroke="#000000" stroke-opacity="0.000" id="img-72e39571-2">
    <g transform="translate(53.75,91.66)">
      <g class="primitive">
        <text text-anchor="middle" dy="0.6em">x</text>
      </g>
    </g>
  </g>
  <g class="guide xlabels" font-size="2.82" font-family="'PT Sans Caption','Helvetica Neue','Helvetica',sans-serif" fill="#6C606B" id="img-72e39571-3">
    <g transform="translate(12.9,85.61)">
      <g class="primitive">
        <text text-anchor="middle" dy="0.6em">0.0</text>
      </g>
    </g>
    <g transform="translate(36.73,85.61)">
      <g class="primitive">
        <text text-anchor="middle" dy="0.6em">0.5</text>
      </g>
    </g>
    <g transform="translate(60.56,85.61)">
      <g class="primitive">
        <text text-anchor="middle" dy="0.6em">1.0</text>
      </g>
    </g>
    <g transform="translate(84.39,85.61)">
      <g class="primitive">
        <text text-anchor="middle" dy="0.6em">1.5</text>
      </g>
    </g>
  </g>
  <g clip-path="url(#img-72e39571-4)">
    <g id="img-72e39571-5">
      <g pointer-events="visible" stroke-width="0.3" fill="#000000" fill-opacity="0.000" stroke="#000000" stroke-opacity="0.000" class="guide background" id="img-72e39571-6">
        <g transform="translate(53.75,47.61)" id="img-72e39571-7">
          <path d="M-42.85,-37 L42.85,-37 42.85,37 -42.85,37  z" class="primitive"/>
        </g>
      </g>
      <g class="guide ygridlines xfixed" stroke-dasharray="0.5,0.5" stroke-width="0.2" stroke="#D0D0E0" id="img-72e39571-8">
        <g transform="translate(53.75,82.61)" id="img-72e39571-9">
          <path fill="none" d="M-42.85,0 L42.85,0 " class="primitive"/>
        </g>
        <g transform="translate(53.75,65.11)" id="img-72e39571-10">
          <path fill="none" d="M-42.85,0 L42.85,0 " class="primitive"/>
        </g>
        <g transform="translate(53.75,47.61)" id="img-72e39571-11">
          <path fill="none" d="M-42.85,0 L42.85,0 " class="primitive"/>
        </g>
        <g transform="translate(53.75,30.12)" id="img-72e39571-12">
          <path fill="none" d="M-42.85,0 L42.85,0 " class="primitive"/>
        </g>
        <g transform="translate(53.75,12.62)" id="img-72e39571-13">
          <path fill="none" d="M-42.85,0 L42.85,0 " class="primitive"/>
        </g>
      </g>
      <g class="guide xgridlines yfixed" stroke-dasharray="0.5,0.5" stroke-width="0.2" stroke="#D0D0E0" id="img-72e39571-14">
        <g transform="translate(12.9,47.61)" id="img-72e39571-15">
          <path fill="none" d="M0,-37 L0,37 " class="primitive"/>
        </g>
        <g transform="translate(36.73,47.61)" id="img-72e39571-16">
          <path fill="none" d="M0,-37 L0,37 " class="primitive"/>
        </g>
        <g transform="translate(60.56,47.61)" id="img-72e39571-17">
          <path fill="none" d="M0,-37 L0,37 " class="primitive"/>
        </g>
        <g transform="translate(84.39,47.61)" id="img-72e39571-18">
          <path fill="none" d="M0,-37 L0,37 " class="primitive"/>
        </g>
      </g>
      <g class="plotpanel" id="img-72e39571-19">
        <metadata>
          <boundingbox value="10.900192599826383mm 10.616661241319449mm 85.69980740017361mm 73.99391818576389mm"/>
          <unitbox value="-0.04196563484897996 2.0571478223205624 1.7982234119917981 -2.1142956446411243"/>
        </metadata>
        <g class="geometry" stroke-width="0.3" stroke-dasharray="none" fill-opacity="1" stroke="#FFFFFF" fill="#B9EAFF" id="img-72e39571-20">
          <g transform="translate(54.03,62.14)" id="img-72e39571-21">
            <path d="M-40.57,20.47 L-40.26,20.47 -39.94,20.47 -39.62,20.47 -39.3,20.47 -38.98,20.47 -38.66,20.47 -38.35,20.47 -38.03,20.47 -37.71,20.47 -37.39,20.46 -37.07,20.46 -36.76,20.46 -36.44,20.45 -36.12,20.44 -35.8,20.43 -35.48,20.43 -35.16,20.42 -34.85,20.41 -34.53,20.4 -34.21,20.39 -33.89,20.37 -33.57,20.36 -33.25,20.33 -32.94,20.31 -32.62,20.28 -32.3,20.25 -31.98,20.22 -31.66,20.19 -31.35,20.17 -31.03,20.13 -30.71,20.08 -30.39,20.02 -30.07,19.96 -29.75,19.91 -29.44,19.85 -29.12,19.8 -28.8,19.73 -28.48,19.65 -28.16,19.56 -27.84,19.46 -27.53,19.35 -27.21,19.23 -26.89,19.1 -26.57,18.98 -26.25,18.85 -25.94,18.69 -25.62,18.51 -25.3,18.34 -24.98,18.16 -24.66,18 -24.34,17.83 -24.03,17.65 -23.71,17.46 -23.39,17.25 -23.07,16.99 -22.75,16.68 -22.44,16.35 -22.12,16.04 -21.8,15.76 -21.48,15.5 -21.16,15.22 -20.84,14.89 -20.53,14.52 -20.21,14.12 -19.89,13.7 -19.57,13.26 -19.25,12.82 -18.93,12.37 -18.62,11.93 -18.3,11.47 -17.98,10.97 -17.66,10.43 -17.34,9.85 -17.03,9.28 -16.71,8.71 -16.39,8.16 -16.07,7.59 -15.75,7.01 -15.43,6.4 -15.12,5.78 -14.8,5.12 -14.48,4.41 -14.16,3.69 -13.84,2.96 -13.52,2.21 -13.21,1.42 -12.89,0.58 -12.57,-0.3 -12.25,-1.19 -11.93,-2.1 -11.62,-3 -11.3,-3.9 -10.98,-4.77 -10.66,-5.66 -10.34,-6.61 -10.02,-7.65 -9.71,-8.77 -9.39,-9.93 -9.07,-11.08 -8.75,-12.19 -8.43,-13.22 -8.11,-14.19 -7.8,-15.13 -7.48,-16.09 -7.16,-17.09 -6.84,-18.14 -6.52,-19.24 -6.21,-20.36 -5.89,-21.51 -5.57,-22.65 -5.25,-23.75 -4.93,-24.81 -4.61,-25.86 -4.3,-26.93 -3.98,-28 -3.66,-29.05 -3.34,-30.05 -3.02,-31.06 -2.7,-32.12 -2.39,-33.19 -2.07,-34.19 -1.75,-35.07 -1.43,-35.86 -1.11,-36.6 -0.8,-37.4 -0.48,-38.31 -0.16,-39.33 0.16,-40.35 0.48,-41.27 0.8,-42.02 1.11,-42.57 1.43,-42.98 1.75,-43.3 2.07,-43.58 2.39,-43.88 2.7,-44.22 3.02,-44.59 3.34,-44.92 3.66,-45.16 3.98,-45.31 4.3,-45.35 4.61,-45.31 4.93,-45.18 5.25,-44.97 5.57,-44.71 5.89,-44.41 6.21,-44.1 6.52,-43.75 6.84,-43.33 7.16,-42.84 7.48,-42.26 7.8,-41.64 8.11,-41.02 8.43,-40.36 8.75,-39.55 9.07,-38.55 9.39,-37.42 9.71,-36.28 10.02,-35.19 10.34,-34.13 10.66,-33.05 10.98,-31.91 11.3,-30.67 11.62,-29.33 11.93,-27.92 12.25,-26.52 12.57,-25.16 12.89,-23.85 13.21,-22.54 13.52,-21.18 13.84,-19.75 14.16,-18.27 14.48,-16.78 14.8,-15.31 15.12,-13.87 15.43,-12.44 15.75,-10.98 16.07,-9.51 16.39,-8.02 16.71,-6.55 17.03,-5.16 17.34,-3.85 17.66,-2.6 17.98,-1.38 18.3,-0.19 18.62,0.98 18.93,2.13 19.25,3.25 19.57,4.33 19.89,5.35 20.21,6.32 20.53,7.24 20.84,8.16 21.16,9.06 21.48,9.92 21.8,10.72 22.12,11.46 22.44,12.16 22.75,12.84 23.07,13.52 23.39,14.16 23.71,14.75 24.03,15.28 24.34,15.74 24.66,16.16 24.98,16.56 25.3,16.97 25.62,17.34 25.94,17.68 26.25,17.99 26.57,18.28 26.89,18.55 27.21,18.78 27.53,18.98 27.84,19.14 28.16,19.28 28.48,19.42 28.8,19.54 29.12,19.65 29.44,19.76 29.75,19.85 30.07,19.94 30.39,20.01 30.71,20.08 31.03,20.14 31.35,20.19 31.66,20.23 31.98,20.26 32.3,20.29 32.62,20.31 32.94,20.34 33.25,20.37 33.57,20.39 33.89,20.41 34.21,20.42 34.53,20.43 34.85,20.44 35.16,20.45 35.48,20.45 35.8,20.45 36.12,20.46 36.44,20.46 36.76,20.47 37.07,20.47 37.39,20.47 37.71,20.47 38.03,20.47 38.35,20.47 38.66,20.47 38.98,20.47 39.3,20.47 39.62,20.47 39.94,20.47 40.26,20.47 40.57,20.47  z" class="primitive"/>
          </g>
        </g>
      </g>
    </g>
  </g>
  <g class="guide ylabels" font-size="2.82" font-family="'PT Sans Caption','Helvetica Neue','Helvetica',sans-serif" fill="#6C606B" id="img-72e39571-22">
    <g transform="translate(9.9,82.61)" id="img-72e39571-23">
      <g class="primitive">
        <text text-anchor="end" dy="0.35em">0.0</text>
      </g>
    </g>
    <g transform="translate(9.9,65.11)" id="img-72e39571-24">
      <g class="primitive">
        <text text-anchor="end" dy="0.35em">0.5</text>
      </g>
    </g>
    <g transform="translate(9.9,47.61)" id="img-72e39571-25">
      <g class="primitive">
        <text text-anchor="end" dy="0.35em">1.0</text>
      </g>
    </g>
    <g transform="translate(9.9,30.12)" id="img-72e39571-26">
      <g class="primitive">
        <text text-anchor="end" dy="0.35em">1.5</text>
      </g>
    </g>
    <g transform="translate(9.9,12.62)" id="img-72e39571-27">
      <g class="primitive">
        <text text-anchor="end" dy="0.35em">2.0</text>
      </g>
    </g>
  </g>
  <g font-size="3.88" font-family="'PT Sans','Helvetica Neue','Helvetica',sans-serif" fill="#564A55" stroke="#000000" stroke-opacity="0.000" id="img-72e39571-28">
    <g transform="translate(53.75,5)" id="img-72e39571-29">
      <g class="primitive">
        <text text-anchor="middle" dy="0.6em">Weibull(1,5)</text>
      </g>
    </g>
  </g>
</g>
<defs>
  <clipPath id="img-72e39571-4">
    <path d="M10.9,10.62 L96.6,10.62 96.6,84.61 10.9,84.61 " />
  </clipPath>
</defs>
</svg>
