<?xml version="1.0" encoding="UTF-8"?>
<svg xmlns="http://www.w3.org/2000/svg"
     xmlns:xlink="http://www.w3.org/1999/xlink"
     xmlns:gadfly="http://www.gadflyjl.org/ns"
     version="1.2"
     width="127mm" height="127mm" viewBox="0 0 127 127"
     stroke="none"
     fill="#000000"
     stroke-width="0.3"
     font-size="3.88"
>
<defs>
  <marker id="arrow" markerWidth="15" markerHeight="7" refX="5" refY="3.5" orient="auto" markerUnits="strokeWidth">
    <path d="M0,0 L15,3.5 L0,7 z" stroke="context-stroke" fill="context-stroke"/>
  </marker>
</defs>
<g class="plotroot xscalable yscalable" id="img-3afec36c-1">
  <g font-size="3.88" font-family="'PT Sans','Helvetica Neue','Helvetica',sans-serif" fill="#564A55" stroke="#000000" stroke-opacity="0.000" id="img-3afec36c-2">
    <g transform="translate(66.45,117.06)">
      <g class="primitive">
        <text text-anchor="middle" dy="0.6em">x</text>
      </g>
    </g>
  </g>
  <g class="guide xlabels" font-size="2.82" font-family="'PT Sans Caption','Helvetica Neue','Helvetica',sans-serif" fill="#6C606B" id="img-3afec36c-3">
    <g transform="translate(12.9,111.01)">
      <g class="primitive">
        <text text-anchor="middle" dy="0.6em">0.0</text>
      </g>
    </g>
    <g transform="translate(44.03,111.01)">
      <g class="primitive">
        <text text-anchor="middle" dy="0.6em">0.5</text>
      </g>
    </g>
    <g transform="translate(75.17,111.01)">
      <g class="primitive">
        <text text-anchor="middle" dy="0.6em">1.0</text>
      </g>
    </g>
    <g transform="translate(106.3,111.01)">
      <g class="primitive">
        <text text-anchor="middle" dy="0.6em">1.5</text>
      </g>
    </g>
  </g>
  <g clip-path="url(#img-3afec36c-4)">
    <g id="img-3afec36c-5">
      <g pointer-events="visible" stroke-width="0.3" fill="#000000" fill-opacity="0.000" stroke="#000000" stroke-opacity="0.000" class="guide background" id="img-3afec36c-6">
        <g transform="translate(66.45,60.31)" id="img-3afec36c-7">
          <path d="M-55.55,-49.7 L55.55,-49.7 55.55,49.7 -55.55,49.7  z" class="primitive"/>
        </g>
      </g>
      <g class="guide ygridlines xfixed" stroke-dasharray="0.5,0.5" stroke-width="0.2" stroke="#D0D0E0" id="img-3afec36c-8">
        <g transform="translate(66.45,108.01)" id="img-3afec36c-9">
          <path fill="none" d="M-55.55,0 L55.55,0 " class="primitive"/>
        </g>
        <g transform="translate(66.45,84.16)" id="img-3afec36c-10">
          <path fill="none" d="M-55.55,0 L55.55,0 " class="primitive"/>
        </g>
        <g transform="translate(66.45,60.31)" id="img-3afec36c-11">
          <path fill="none" d="M-55.55,0 L55.55,0 " class="primitive"/>
        </g>
        <g transform="translate(66.45,36.47)" id="img-3afec36c-12">
          <path fill="none" d="M-55.55,0 L55.55,0 " class="primitive"/>
        </g>
        <g transform="translate(66.45,12.62)" id="img-3afec36c-13">
          <path fill="none" d="M-55.55,0 L55.55,0 " class="primitive"/>
        </g>
      </g>
      <g class="guide xgridlines yfixed" stroke-dasharray="0.5,0.5" stroke-width="0.2" stroke="#D0D0E0" id="img-3afec36c-14">
        <g transform="translate(12.9,60.31)" id="img-3afec36c-15">
          <path fill="none" d="M0,-49.7 L0,49.7 " class="primitive"/>
        </g>
        <g transform="translate(44.03,60.31)" id="img-3afec36c-16">
          <path fill="none" d="M0,-49.7 L0,49.7 " class="primitive"/>
        </g>
        <g transform="translate(75.17,60.31)" id="img-3afec36c-17">
          <path fill="none" d="M0,-49.7 L0,49.7 " class="primitive"/>
        </g>
        <g transform="translate(106.3,60.31)" id="img-3afec36c-18">
          <path fill="none" d="M0,-49.7 L0,49.7 " class="primitive"/>
        </g>
      </g>
      <g class="plotpanel" id="img-3afec36c-19">
        <metadata>
          <boundingbox value="10.900192599826383mm 10.616661241319449mm 111.09980740017362mm 99.39391818576388mm"/>
          <unitbox value="-0.03211906210638878 2.0419313943286266 1.784210806947004 -2.083862788657253"/>
        </metadata>
        <g class="geometry" stroke-width="0.3" stroke-dasharray="none" fill-opacity="1" stroke="#FFFFFF" fill="#B9EAFF" id="img-3afec36c-20">
          <g transform="translate(67.03,80.09)" id="img-3afec36c-21">
            <path d="M-52.97,27.92 L-52.56,27.92 -52.14,27.92 -51.73,27.92 -51.31,27.92 -50.9,27.92 -50.48,27.92 -50.07,27.92 -49.65,27.91 -49.23,27.91 -48.82,27.91 -48.4,27.91 -47.99,27.9 -47.57,27.89 -47.16,27.88 -46.74,27.87 -46.33,27.86 -45.91,27.84 -45.5,27.83 -45.08,27.81 -44.66,27.79 -44.25,27.77 -43.83,27.74 -43.42,27.71 -43,27.67 -42.59,27.64 -42.17,27.6 -41.76,27.55 -41.34,27.5 -40.93,27.44 -40.51,27.38 -40.09,27.3 -39.68,27.21 -39.26,27.12 -38.85,27.01 -38.43,26.91 -38.02,26.79 -37.6,26.67 -37.19,26.53 -36.77,26.4 -36.35,26.26 -35.94,26.11 -35.52,25.94 -35.11,25.78 -34.69,25.62 -34.28,25.45 -33.86,25.27 -33.45,25.05 -33.03,24.8 -32.62,24.54 -32.2,24.26 -31.78,23.97 -31.37,23.68 -30.95,23.39 -30.54,23.1 -30.12,22.77 -29.71,22.42 -29.29,22.02 -28.88,21.59 -28.46,21.14 -28.05,20.67 -27.63,20.18 -27.21,19.67 -26.8,19.14 -26.38,18.6 -25.97,18.06 -25.55,17.5 -25.14,16.88 -24.72,16.21 -24.31,15.52 -23.89,14.84 -23.47,14.18 -23.06,13.47 -22.64,12.71 -22.23,11.88 -21.81,11.02 -21.4,10.16 -20.98,9.32 -20.57,8.49 -20.15,7.65 -19.74,6.78 -19.32,5.88 -18.9,4.96 -18.49,4 -18.07,2.97 -17.66,1.87 -17.24,0.73 -16.83,-0.47 -16.41,-1.71 -16,-2.95 -15.58,-4.16 -15.17,-5.31 -14.75,-6.44 -14.33,-7.59 -13.92,-8.8 -13.5,-10.11 -13.09,-11.53 -12.67,-12.99 -12.26,-14.42 -11.84,-15.84 -11.43,-17.28 -11.01,-18.77 -10.59,-20.31 -10.18,-21.84 -9.76,-23.36 -9.35,-24.87 -8.93,-26.39 -8.52,-27.91 -8.1,-29.43 -7.69,-30.92 -7.27,-32.36 -6.86,-33.78 -6.44,-35.19 -6.02,-36.57 -5.61,-37.9 -5.19,-39.16 -4.78,-40.42 -4.36,-41.78 -3.95,-43.29 -3.53,-44.89 -3.12,-46.51 -2.7,-48.07 -2.29,-49.52 -1.87,-50.82 -1.45,-51.94 -1.04,-52.9 -0.62,-53.75 -0.21,-54.54 0.21,-55.31 0.62,-56.06 1.04,-56.8 1.45,-57.53 1.87,-58.27 2.29,-59.04 2.7,-59.79 3.12,-60.43 3.53,-60.86 3.95,-61.09 4.36,-61.2 4.78,-61.29 5.19,-61.4 5.61,-61.47 6.02,-61.42 6.44,-61.22 6.86,-60.95 7.27,-60.69 7.69,-60.4 8.1,-60 8.52,-59.42 8.93,-58.7 9.35,-57.85 9.76,-56.91 10.18,-55.89 10.59,-54.77 11.01,-53.54 11.43,-52.23 11.84,-50.88 12.26,-49.49 12.67,-48.04 13.09,-46.52 13.5,-44.95 13.92,-43.34 14.33,-41.68 14.75,-39.94 15.17,-38.15 15.58,-36.36 16,-34.58 16.41,-32.79 16.83,-30.93 17.24,-29.01 17.66,-27.08 18.07,-25.19 18.49,-23.3 18.9,-21.36 19.32,-19.35 19.74,-17.3 20.15,-15.24 20.57,-13.21 20.98,-11.28 21.4,-9.45 21.81,-7.7 22.23,-5.96 22.64,-4.17 23.06,-2.35 23.47,-0.56 23.89,1.12 24.31,2.69 24.72,4.19 25.14,5.65 25.55,7.08 25.97,8.5 26.38,9.89 26.8,11.24 27.21,12.52 27.63,13.7 28.05,14.77 28.46,15.75 28.88,16.66 29.29,17.56 29.71,18.42 30.12,19.26 30.54,20.05 30.95,20.78 31.37,21.43 31.78,22.03 32.2,22.59 32.62,23.11 33.03,23.61 33.45,24.07 33.86,24.49 34.28,24.86 34.69,25.19 35.11,25.5 35.52,25.78 35.94,26.05 36.35,26.28 36.77,26.48 37.19,26.65 37.6,26.81 38.02,26.95 38.43,27.09 38.85,27.21 39.26,27.32 39.68,27.41 40.09,27.48 40.51,27.54 40.93,27.59 41.34,27.63 41.76,27.67 42.17,27.71 42.59,27.74 43,27.77 43.42,27.8 43.83,27.82 44.25,27.85 44.66,27.87 45.08,27.88 45.5,27.89 45.91,27.89 46.33,27.89 46.74,27.9 47.16,27.9 47.57,27.9 47.99,27.91 48.4,27.91 48.82,27.91 49.23,27.92 49.65,27.92 50.07,27.92 50.48,27.92 50.9,27.92 51.31,27.92 51.73,27.92 52.14,27.92 52.56,27.92 52.97,27.92  z" class="primitive"/>
          </g>
        </g>
      </g>
    </g>
  </g>
  <g class="guide ylabels" font-size="2.82" font-family="'PT Sans Caption','Helvetica Neue','Helvetica',sans-serif" fill="#6C606B" id="img-3afec36c-22">
    <g transform="translate(9.9,108.01)" id="img-3afec36c-23">
      <g class="primitive">
        <text text-anchor="end" dy="0.35em">0.0</text>
      </g>
    </g>
    <g transform="translate(9.9,84.16)" id="img-3afec36c-24">
      <g class="primitive">
        <text text-anchor="end" dy="0.35em">0.5</text>
      </g>
    </g>
    <g transform="translate(9.9,60.31)" id="img-3afec36c-25">
      <g class="primitive">
        <text text-anchor="end" dy="0.35em">1.0</text>
      </g>
    </g>
    <g transform="translate(9.9,36.47)" id="img-3afec36c-26">
      <g class="primitive">
        <text text-anchor="end" dy="0.35em">1.5</text>
      </g>
    </g>
    <g transform="translate(9.9,12.62)" id="img-3afec36c-27">
      <g class="primitive">
        <text text-anchor="end" dy="0.35em">2.0</text>
      </g>
    </g>
  </g>
  <g font-size="3.88" font-family="'PT Sans','Helvetica Neue','Helvetica',sans-serif" fill="#564A55" stroke="#000000" stroke-opacity="0.000" id="img-3afec36c-28">
    <g transform="translate(66.45,5)" id="img-3afec36c-29">
      <g class="primitive">
        <text text-anchor="middle" dy="0.6em">Weibull(1,5)</text>
      </g>
    </g>
  </g>
</g>
<defs>
  <clipPath id="img-3afec36c-4">
    <path d="M10.9,10.62 L122,10.62 122,110.01 10.9,110.01 " />
  </clipPath>
</defs>
</svg>
